<svg preserveAspectRatio="none" width="100%" height="100%" overflow="visible" style="display: block;" viewBox="0 0 16.76 17.49" fill="none" xmlns="http://www.w3.org/2000/svg">
<g id="Group 10543">
<g id="Vector">
<path d="M16.4686 13.4385C16.3368 13.7771 16.0108 14 15.6475 14H1.18868C0.773977 14 0.402303 13.744 0.254423 13.3566L0.239286 13.3169C0.0945461 12.9377 0.191765 12.5063 0.438981 12.1844C0.949657 11.5193 1.76096 10.2038 2.06 8.27C2.55 5.13 3.35 0 8.38 0C13.41 0 14.2 5.13 14.68 8.19C14.9721 10.0825 15.7241 11.3822 16.2391 12.0812C16.509 12.4477 16.6337 13.0144 16.4686 13.4385ZM2.05 12.5H14.7C14.13 11.62 13.49 10.29 13.21 8.51C12.61 4.64 11.84 1.5 8.38 1.5C4.92 1.5 4.15 4.64 3.56 8.43C3.28 10.26 2.63 11.61 2.05 12.5Z" fill="var(--fill-0, #121212)"/>
</g>
<path id="Vector_2" d="M5.82934 15.29H10.9093C10.9093 15.29 10.4793 17.49 8.36934 17.49C6.25934 17.49 5.82934 15.29 5.82934 15.29V15.29Z" fill="var(--fill-0, #121212)"/>
</g>
</svg>
