<svg preserveAspectRatio="none" width="100%" height="100%" overflow="visible" style="display: block;" viewBox="0 0 24 24" fill="none" xmlns="http://www.w3.org/2000/svg">
<g id="Claims">
<path id="Union" d="M20.248 5.14062C20.6623 5.14062 20.998 5.47641 20.998 5.89062V20.3506C20.998 21.2593 20.268 22.0009 19.3584 22.001H6.73828C6.32418 22.001 5.98847 21.665 5.98828 21.251C5.98828 20.8368 6.32407 20.501 6.73828 20.501H19.3584C19.4287 20.5009 19.498 20.4418 19.498 20.3506V5.89062C19.498 5.47649 19.8339 5.14075 20.248 5.14062ZM16.3096 2C17.2084 2 17.96 2.73077 17.96 3.65039V17.3535C17.96 18.2632 17.2183 18.9941 16.3096 18.9941H4.65039C3.75161 18.9941 3 18.2634 3 17.3438V8.12988C3.00003 7.93101 3.0791 7.74023 3.21973 7.59961L8.59961 2.21973C8.74023 2.0791 8.93101 2.00003 9.12988 2H16.3096ZM10 7.74609C10 8.44031 9.44421 8.99609 8.75 8.99609H4.5V17.3438C4.5 17.4241 4.56918 17.4941 4.65039 17.4941H16.3096C16.4008 17.4941 16.46 17.4239 16.46 17.3535V3.65039C16.46 3.57001 16.3908 3.5 16.3096 3.5H10V7.74609ZM5.44434 7.49609H8.5V4.44043L5.44434 7.49609Z" fill="var(--fill-0, #121212)"/>
</g>
</svg>
