<svg preserveAspectRatio="none" width="100%" height="100%" overflow="visible" style="display: block;" viewBox="0 0 45.4054 45.4043" fill="none" xmlns="http://www.w3.org/2000/svg">
<g id="Group 1171275781">
<path id="Vector" d="M40.386 31.0036L4.11942 35.2868L3.48085 35.7758C1.33745 34.4855 1.0669 33.533 1.04459 32.7153L0.360822 7.65917C0.311018 5.8347 1.55074 4.4811 3.4802 4.25324L39.364 0.0152566C40.1266 -0.0747976 40.9309 0.241493 41.5253 0.761216C42.0555 1.22483 42.4101 1.53192 42.4101 1.53192L43.1325 28.0049C43.1763 29.6113 42.0848 30.803 40.386 31.0036Z" fill="url(#paint0_linear_0_197)"/>
<path id="Vector_2" opacity="0.3" d="M22.7082 45.373C35.2435 45.3557 45.403 43.4656 45.3999 41.1513C45.3969 38.837 35.2326 36.9749 22.6972 36.9921C10.1619 37.0094 0.0024507 38.8996 0.0054738 41.2139C0.00849689 43.5282 10.1728 45.3903 22.7082 45.373Z" fill="url(#paint1_radial_0_197)"/>
<path id="Vector_3" d="M41.3957 31.8709L5.12911 36.1541C3.68627 36.3245 2.09409 35.0401 2.05687 33.6758L1.36065 8.16452C1.31681 6.55812 2.40835 5.36636 4.10721 5.16572L40.3738 0.882444C41.8166 0.712054 43.4088 1.99639 43.446 3.36068L44.1422 28.872C44.1861 30.4784 43.0945 31.6702 41.3957 31.8709Z" fill="url(#paint2_linear_0_197)"/>
<path id="Vector_4" d="M38.4347 18.7848L39.3361 18.6457C39.9597 18.5494 40.4797 19.0041 40.4976 19.6613L40.5268 20.7332L33.184 21.8665L33.1562 20.8482L37.2887 20.2105L38.4347 18.7848ZM40.5375 21.1246L33.1947 22.2579L33.2419 23.9863L40.5847 22.853L40.5375 21.1246ZM36.7032 23.845L37.3896 24.4451L37.424 25.7071L39.52 25.3837C40.1435 25.2874 40.6344 24.6767 40.6165 24.0196L40.5954 23.2443L36.7032 23.845ZM37.0227 24.6644L36.1782 23.9261L33.2526 24.3776L33.2737 25.1529C33.2917 25.81 33.8116 26.2648 34.4351 26.1685L37.0527 25.7645L37.0227 24.6644ZM37.1242 19.8429L37.9096 18.8658L34.2512 19.4304C33.7398 19.5093 33.3226 19.936 33.1972 20.4489L37.1242 19.8429Z" fill="var(--fill-0, white)"/>
<path id="Vector_5" d="M14.0216 20.5579L7.34909 21.535C6.71714 21.6275 6.21118 22.2252 6.21884 22.8701L6.30009 29.6789C6.30781 30.3237 6.82628 30.7714 7.45817 30.6789L7.576 30.6616C7.81938 29.0494 9.14425 27.6537 10.7613 27.417C12.3783 27.1802 13.7318 28.1836 14.0127 29.7192L14.1306 29.7019C14.7625 29.6094 15.2686 29.0117 15.2609 28.3669L15.1796 21.558C15.1719 20.9132 14.6535 20.4654 14.0216 20.5579ZM10.7489 26.6952C9.87154 26.8236 9.15158 26.2019 9.14088 25.3066C9.13018 24.4113 9.83282 23.5814 10.7102 23.4529C11.5876 23.3244 12.3076 23.946 12.3183 24.8414C12.329 25.7368 11.6264 26.5667 10.7489 26.6952ZM29.3906 20.9615L19.5256 22.406C19.1585 22.4598 18.8545 22.1972 18.85 21.8226L18.8472 21.5897C18.8427 21.2151 19.1395 20.8646 19.5066 20.8109L29.3716 19.3664C29.7387 19.3126 30.0427 19.5751 30.0472 19.9498L30.05 20.1826C30.0545 20.5572 29.7577 20.9077 29.3906 20.9615ZM24.0102 27.0079L24.0074 26.775C24.003 26.4004 23.699 26.1379 23.3318 26.1916L19.5516 26.7452C19.1845 26.7989 18.8877 27.1494 18.8922 27.524L18.895 27.7569C18.8995 28.1315 19.2035 28.3941 19.5706 28.3403L23.3508 27.7868C23.718 27.733 24.0147 27.3825 24.0102 27.0079ZM30.0949 26.1169L30.0921 25.8841C30.0877 25.5095 29.7836 25.2469 29.4165 25.3007L25.6363 25.8542C25.2692 25.908 24.9724 26.2585 24.9769 26.6331L24.9797 26.8659C24.9841 27.2405 25.2882 27.5031 25.6553 27.4493L29.4355 26.8958C29.8026 26.842 30.0994 26.4915 30.0949 26.1169Z" fill="url(#paint3_linear_0_197)"/>
<path id="Vector_6" d="M8.01477 14.6749C7.69273 14.6749 7.41349 14.4354 7.37231 14.108C7.3277 13.753 7.57938 13.4288 7.93468 13.3842L37.0915 9.71619C37.4455 9.67097 37.7713 9.92273 37.816 10.278C37.8606 10.633 37.6089 10.9572 37.2536 11.0018L8.09681 14.6698C8.06925 14.6733 8.04201 14.6749 8.01477 14.6749Z" fill="var(--fill-0, white)"/>
<path id="Vector_7" d="M12.0654 10.4998C11.7434 10.4998 11.4642 10.2603 11.423 9.93288C11.3784 9.57791 11.6301 9.25371 11.9854 9.20907L33.0456 6.55967C33.3989 6.51665 33.7257 6.76653 33.77 7.1215C33.8147 7.47647 33.563 7.80066 33.2077 7.8453L12.1475 10.4947C12.1199 10.4982 12.0927 10.4998 12.0654 10.4998Z" fill="var(--fill-0, white)"/>
</g>
<defs>
<linearGradient id="paint0_linear_0_197" x1="29.0991" y1="-0.148266" x2="12.9589" y2="39.2927" gradientUnits="userSpaceOnUse">
<stop stop-color="#6D6E71"/>
<stop offset="1"/>
</linearGradient>
<radialGradient id="paint1_radial_0_197" cx="0" cy="0" r="1" gradientTransform="matrix(22.5102 -0.135934 0.0241992 3.78403 21.9978 41.188)" gradientUnits="userSpaceOnUse">
<stop stop-color="#8C8C8C"/>
<stop offset="1" stop-color="#8F8F8F" stop-opacity="0"/>
</radialGradient>
<linearGradient id="paint2_linear_0_197" x1="14.7688" y1="31.5849" x2="25.445" y2="-0.438296" gradientUnits="userSpaceOnUse">
<stop stop-color="#D1D3D4"/>
<stop offset="1" stop-color="#F1F2F2"/>
</linearGradient>
<linearGradient id="paint3_linear_0_197" x1="-11.8543" y1="47.7615" x2="33.8921" y2="12.0156" gradientUnits="userSpaceOnUse">
<stop stop-color="#606060"/>
<stop offset="1" stop-color="#E6E7E8"/>
</linearGradient>
</defs>
</svg>
