<svg preserveAspectRatio="none" width="100%" height="100%" overflow="visible" style="display: block;" viewBox="0 0 43.1442 14.1544" fill="none" xmlns="http://www.w3.org/2000/svg">
<g id="Group 1171275987">
<path id="Vector" d="M22.1585 0.224546C22.0987 0.0878659 21.9691 0 21.8195 0H21.3311C21.1815 0 21.0419 0.0878659 20.9921 0.224546L20.7827 0.722453L21.5803 0.702927L22.3778 0.722453L22.1685 0.224546H22.1585Z" fill="url(#paint0_linear_0_233)"/>
<path id="Vector_2" d="M5.62918 12.3873C8.63993 12.3873 11.3616 13.0414 13.3654 14.0958C13.5149 14.1739 13.6844 14.1739 13.834 14.0958C15.8378 13.0414 18.5594 12.3873 21.5702 12.3873C24.5809 12.3873 27.3025 13.0414 29.3064 14.0958C29.4559 14.1739 29.6254 14.1739 29.7749 14.0958C31.7788 13.0414 34.5004 12.3873 37.5112 12.3873C39.3056 12.3873 40.9905 12.6216 42.4859 13.0317C42.9345 13.1586 43.3033 12.6802 43.074 12.2799C39.3056 5.43617 31.0909 0.691406 21.5702 0.691406C12.0494 0.691406 3.8347 5.43617 0.06629 12.2799C-0.153036 12.6802 0.205861 13.1586 0.654481 13.0317C2.14988 12.6216 3.84467 12.3873 5.62918 12.3873Z" fill="url(#paint1_linear_0_233)"/>
<path id="Vector_3" d="M21.5703 0.691406C21.5703 0.691406 28.5887 3.09307 29.775 14.0958L21.5703 0.691406Z" fill="url(#paint2_linear_0_233)"/>
<path id="Vector_4" d="M21.5703 0.691406C21.5703 0.691406 14.5519 3.09307 13.3655 14.0958C13.515 14.1739 13.6845 14.1739 13.8341 14.0958C15.8379 13.0414 18.5595 12.3873 21.5703 12.3873C24.581 12.3873 27.3026 13.0414 29.3065 14.0958C29.456 14.1739 29.6255 14.1739 29.775 14.0958C28.5887 3.09307 21.5703 0.691406 21.5703 0.691406Z" fill="url(#paint3_linear_0_233)"/>
</g>
<defs>
<linearGradient id="paint0_linear_0_233" x1="21.5703" y1="0.654113" x2="21.5703" y2="0.00976287" gradientUnits="userSpaceOnUse">
<stop stop-color="#414042"/>
<stop offset="0.15" stop-color="#4F4E51"/>
<stop offset="0.49" stop-color="#696A6D"/>
<stop offset="0.78" stop-color="#7A7B7E"/>
<stop offset="1" stop-color="#808285"/>
</linearGradient>
<linearGradient id="paint1_linear_0_233" x1="21.5702" y1="13.7151" x2="21.5702" y2="0.769509" gradientUnits="userSpaceOnUse">
<stop stop-color="#606060"/>
<stop offset="0.24" stop-color="#666666"/>
<stop offset="0.57" stop-color="#777777"/>
<stop offset="0.95" stop-color="#939393"/>
<stop offset="1" stop-color="#989898"/>
</linearGradient>
<linearGradient id="paint2_linear_0_233" x1="25.6677" y1="13.6565" x2="25.6677" y2="0.769509" gradientUnits="userSpaceOnUse">
<stop stop-color="#606060"/>
<stop offset="0.24" stop-color="#666666"/>
<stop offset="0.57" stop-color="#777777"/>
<stop offset="0.95" stop-color="#939393"/>
<stop offset="1" stop-color="#989898"/>
</linearGradient>
<linearGradient id="paint3_linear_0_233" x1="21.5703" y1="12.856" x2="21.5703" y2="0.789035" gradientUnits="userSpaceOnUse">
<stop stop-color="#414042"/>
<stop offset="0.15" stop-color="#4F4E51"/>
<stop offset="0.49" stop-color="#696A6D"/>
<stop offset="0.78" stop-color="#7A7B7E"/>
<stop offset="1" stop-color="#808285"/>
</linearGradient>
</defs>
</svg>
