<svg preserveAspectRatio="none" width="100%" height="100%" overflow="visible" style="display: block;" viewBox="0 0 20.8334 20.8408" fill="none" xmlns="http://www.w3.org/2000/svg">
<g id="Group">
<path id="Vector" d="M10.4167 0.75C5.07802 0.75 0.750022 5.078 0.750022 10.4167C0.750022 12.1753 1.22735 13.8193 2.04735 15.2393C2.62069 16.314 1.97669 18.8553 0.750022 20.0833C2.41669 20.174 4.61269 19.4207 5.59402 18.786C6.24602 19.162 7.27935 19.6607 8.63269 19.9167C9.21002 20.026 9.80735 20.0833 10.4167 20.0833C15.7554 20.0833 20.0834 15.7553 20.0834 10.4167C20.0834 5.078 15.7554 0.75 10.4167 0.75Z" stroke="var(--stroke-0, #121212)" stroke-width="1.5" stroke-linecap="round" stroke-linejoin="round"/>
<path id="Vector_2" opacity="0.75" d="M10.4193 11.7526C9.68329 11.7526 9.08596 11.1539 9.08596 10.4193C9.08596 9.6846 9.68329 9.08594 10.4193 9.08594C11.1553 9.08594 11.7526 9.6846 11.7526 10.4193C11.7526 11.1539 11.1553 11.7526 10.4193 11.7526Z" fill="var(--fill-0, #121212)"/>
<path id="Vector_3" d="M5.74742 11.7526C5.01142 11.7526 4.41408 11.1539 4.41408 10.4193C4.41408 9.6846 5.01142 9.08594 5.74742 9.08594C6.48342 9.08594 7.08075 9.6846 7.08075 10.4193C7.08075 11.1539 6.48342 11.7526 5.74742 11.7526Z" fill="var(--fill-0, #121212)"/>
<path id="Vector_4" opacity="0.5" d="M15.0834 11.7526C14.3474 11.7526 13.75 11.1539 13.75 10.4193C13.75 9.6846 14.3474 9.08594 15.0834 9.08594C15.8194 9.08594 16.4167 9.6846 16.4167 10.4193C16.4167 11.1539 15.8194 11.7526 15.0834 11.7526Z" fill="var(--fill-0, #121212)"/>
</g>
</svg>
