<svg preserveAspectRatio="none" width="100%" height="100%" overflow="visible" style="display: block;" viewBox="0 0 19.5 19.5" fill="none" xmlns="http://www.w3.org/2000/svg">
<path id="Vector" d="M9.745 19.5C8.45434 19.5 7.20369 19.25 6.01308 18.76C4.82247 18.27 3.76193 17.56 2.85146 16.65C1.941 15.74 1.23063 14.67 0.74038 13.49C0.250128 12.3 0 11.04 0 9.76C0 7.16 1.01052 4.71 2.86147 2.87C4.71242 1.03 7.14366 0 9.745 0C12.3463 0 14.7976 1.01 16.6385 2.86C18.4795 4.7 19.5 7.15 19.5 9.75C19.5 11.04 19.2499 12.29 18.7596 13.48C18.2694 14.67 17.549 15.73 16.6485 16.64C15.7381 17.55 14.6775 18.26 13.4869 18.75C12.2963 19.24 11.0457 19.49 9.755 19.49L9.745 19.5ZM9.745 1.5C7.54387 1.5 5.4628 2.36 3.91201 3.92C2.35121 5.48 1.49076 7.55 1.49076 9.75C1.49076 10.84 1.70087 11.9 2.12109 12.91C2.5413 13.92 3.14161 14.82 3.91201 15.59C4.6824 16.36 5.58286 16.96 6.59338 17.38C8.60441 18.21 10.9056 18.21 12.9066 17.38C13.9171 16.96 14.8176 16.36 15.588 15.59C16.3584 14.82 16.9587 13.92 17.3789 12.91C17.7991 11.91 18.0092 10.84 18.0092 9.75C18.0092 7.55 17.1488 5.48 15.588 3.92C14.0472 2.38 11.9261 1.5 9.755 1.5H9.745ZM9.745 14.26C9.33479 14.26 8.98461 13.92 8.98461 13.51C8.98461 13.1 9.32478 12.75 9.73499 12.75C10.1452 12.75 10.4854 13.09 10.4854 13.5C10.4854 13.91 10.1452 14.26 9.73499 14.26H9.745ZM9.745 11.25C9.33479 11.25 8.99461 10.91 8.99461 10.5V6.75C8.99461 6.34 9.33479 6 9.745 6C10.1552 6 10.4954 6.34 10.4954 6.75V10.5C10.4954 10.91 10.1552 11.25 9.745 11.25Z" fill="var(--fill-0, #121212)"/>
</svg>
