<svg preserveAspectRatio="none" width="100%" height="100%" overflow="visible" style="display: block;" viewBox="0 0 45.4058 45.4031" fill="none" xmlns="http://www.w3.org/2000/svg">
<g id="Group 1171275780">
<path id="Vector" d="M39.725 31.4167L3.73171 35.757L3.09795 36.2524C0.970706 34.945 0.702194 33.9798 0.680054 33.1512L0.0014361 7.76122C-0.0479928 5.91244 1.18239 4.54081 3.09731 4.30992L38.7107 0.0154599C39.4675 -0.0757942 40.2658 0.244711 40.8557 0.771359C41.3819 1.24115 41.7338 1.55234 41.7338 1.55234L42.4508 28.378C42.4943 30.0058 41.411 31.2134 39.725 31.4167Z" fill="url(#paint0_linear_0_308)"/>
<path id="Vector_2" opacity="0.3" d="M22.8526 45.3722C35.3084 45.3552 45.4035 43.5757 45.4006 41.3976C45.3978 39.2195 35.298 37.4677 22.8423 37.4847C10.3865 37.5018 0.291386 39.2813 0.294252 41.4594C0.297118 43.6374 10.3969 45.3893 22.8526 45.3722Z" fill="url(#paint1_radial_0_308)"/>
<path id="Vector_3" d="M40.7268 32.2918L4.73351 36.632C3.30155 36.8047 1.72137 35.5033 1.68443 34.1208L0.993451 8.26957C0.949943 6.64176 2.03326 5.43412 3.71932 5.2308L39.7126 0.89046C41.1445 0.717799 42.7247 2.01925 42.7617 3.40172L43.4526 29.2529C43.4962 30.8807 42.4128 32.0885 40.7268 32.2918Z" fill="url(#paint2_linear_0_308)"/>
<path id="Vector_4" d="M43.0323 13.5237L42.7617 3.40173C42.7248 2.0192 41.1446 0.717745 39.7126 0.890471L3.71931 5.23068C2.03326 5.434 0.949943 6.64164 0.993451 8.26945L1.27387 18.7612L43.0323 13.5237Z" fill="url(#paint3_linear_0_308)"/>
<path id="Vector_5" d="M12.8572 21.9842L14.0363 21.7984C14.8519 21.6699 15.532 22.2771 15.5555 23.1548L15.5937 24.5864L5.98949 26.0998L5.95312 24.7399L11.3583 23.8882L12.8572 21.9842ZM15.6077 25.109L6.00346 26.6224L6.06511 28.9306L15.6693 27.4172L15.6077 25.109ZM10.5926 28.7419L11.4903 29.5433L11.5354 31.2287L14.2768 30.7967C15.0924 30.6682 15.7345 29.8526 15.711 28.975L15.6833 27.9397L10.5926 28.7419ZM11.0104 29.8362L9.9057 28.8502L6.07908 29.4532L6.10675 30.4885C6.13018 31.3661 6.81034 31.9733 7.62592 31.8448L11.0496 31.3053L11.0104 29.8362ZM11.1432 23.3972L12.1704 22.0924L7.38547 22.8464C6.71651 22.9518 6.17086 23.5215 6.00687 24.2065L11.1432 23.3972Z" fill="var(--fill-0, white)"/>
<path id="Vector_6" d="M7.12502 15.9685C7.12547 15.9849 7.13961 15.997 7.15648 15.9954C7.17328 15.9939 7.17873 15.9799 7.16848 15.9645C7.15817 15.949 7.14403 15.9369 7.13702 15.9375C7.12995 15.9382 7.12463 15.9521 7.12502 15.9685Z" fill="var(--fill-0, black)"/>
<path id="Vector_7" d="M9.74386 10.0418C9.94505 10.3023 10.4908 9.46017 10.2616 9.29683C10.1524 9.15411 10.2003 8.93628 9.94299 8.92971C9.76195 8.89531 9.68607 8.6031 9.45971 8.66245C9.22769 8.67341 9.07252 9.01906 8.89411 8.83912C8.63499 8.54887 8.8916 8.15819 8.20764 8.2931C7.29732 8.39821 7.3705 8.37057 7.24242 8.98847C6.97353 8.97009 6.75682 8.78554 6.52249 8.94317C6.31344 9.1155 5.65658 9.78494 6.0076 10.0368C6.16072 10.1536 6.35103 10.6269 6.51998 10.3074C6.6292 10.294 6.38179 10.6681 6.41391 10.8697C6.40908 11.1337 6.5649 11.4394 6.7258 11.605C6.96291 12.0473 6.99348 12.5966 6.92493 13.0816C6.55647 13.0965 6.63531 13.4307 6.48599 13.6433C6.36667 13.7753 6.28577 14.1765 6.3527 14.3372C6.43541 14.5039 6.45401 14.9443 6.79023 14.8644C6.93131 14.829 6.89385 15.0365 6.9983 15.081C7.06402 15.1246 7.10752 15.1242 7.7855 15.0753C8.82473 15.0003 9.50348 14.9226 9.60864 14.8665C9.82792 14.6841 9.72153 14.5925 10.0495 14.4457C10.1757 14.2058 10.4218 13.8331 10.2235 13.5871C10.0713 13.4148 10.0043 13.1258 9.89035 12.9851C9.76826 12.7159 9.5782 13.0516 9.49562 12.5973C9.37746 12.0334 9.51635 11.5761 9.8005 10.9542C9.8944 10.697 9.89234 10.4258 9.73788 10.125C9.6219 9.93988 9.6721 9.9299 9.74386 10.0418Z" fill="var(--fill-0, #BDBEBE)"/>
<path id="Vector_8" d="M19.1115 23.0387C18.7918 23.0387 18.5147 22.7961 18.4738 22.4643C18.4296 22.1046 18.6793 21.7761 19.032 21.7308L35.8508 19.7081C36.2015 19.6645 36.5258 19.9177 36.5699 20.2774C36.6141 20.6371 36.3644 20.9656 36.0117 21.0108L19.1929 23.0336C19.1655 23.0372 19.1385 23.0387 19.1115 23.0387Z" fill="var(--fill-0, white)"/>
<path id="Vector_9" d="M19.1115 27.6282C18.7918 27.6282 18.5147 27.3855 18.4738 27.0537C18.4296 26.694 18.6793 26.3655 19.032 26.3203L31.7529 24.7079C32.1036 24.6643 32.4279 24.9175 32.4719 25.2772C32.5162 25.6369 32.2664 25.9655 31.9138 26.0107L19.1929 27.6231C19.1655 27.6266 19.1385 27.6282 19.1115 27.6282Z" fill="var(--fill-0, white)"/>
</g>
<defs>
<linearGradient id="paint0_linear_0_308" x1="28.5232" y1="-0.150241" x2="11.9252" y2="39.5742" gradientUnits="userSpaceOnUse">
<stop stop-color="#6D6E71"/>
<stop offset="1"/>
</linearGradient>
<radialGradient id="paint1_radial_0_308" cx="0" cy="0" r="1" gradientTransform="matrix(22.3674 -0.129338 0.02382 3.56126 21.7152 41.4369)" gradientUnits="userSpaceOnUse">
<stop stop-color="#8C8C8C"/>
<stop offset="1" stop-color="#8F8F8F" stop-opacity="0"/>
</radialGradient>
<linearGradient id="paint2_linear_0_308" x1="9.61953" y1="30.9489" x2="20.6187" y2="-1.36366" gradientUnits="userSpaceOnUse">
<stop stop-color="#D1D3D4"/>
<stop offset="1" stop-color="#F1F2F2"/>
</linearGradient>
<linearGradient id="paint3_linear_0_308" x1="-27.3078" y1="42.4123" x2="51.865" y2="-7.51828" gradientUnits="userSpaceOnUse">
<stop stop-color="#606060"/>
<stop offset="1" stop-color="#E6E7E8"/>
</linearGradient>
</defs>
</svg>
