<svg width="104" height="25" viewBox="0 0 104 25" fill="none" xmlns="http://www.w3.org/2000/svg">
<g clip-path="url(#clip0_66_29098)">
<path d="M31.5148 8.5863V15.7983C31.5148 16.3528 31.2629 16.8309 30.7513 17.162C24.3593 21.2999 19.5203 23.0378 17.8266 23.5217C15.4924 24.1898 14.2549 24.1193 14.0526 24.1056C9.78865 23.8019 2.60742 18.0025 2.60742 18.0025C2.60742 18.0025 8.46782 19.417 22.0073 13.0495C24.5458 11.8563 27.3798 10.5671 30.6739 9.05852C30.6739 9.05852 31.3938 8.75084 31.5148 8.58822V8.5863Z" fill="#0A0A0A"/>
<path d="M31.1777 8.34141C31.2154 8.31006 31.263 8.26887 31.2848 8.24144C31.3145 8.20421 31.3403 8.16701 31.3562 8.12195C31.3998 8.00048 31.3859 7.84962 31.3165 7.73794C31.1916 7.53418 30.9813 7.39895 30.7513 7.25004C24.3594 3.11209 19.5203 1.37423 17.8266 0.890295C15.4924 0.222188 14.2549 0.292725 14.0526 0.30644C9.78865 0.610125 2.60742 6.40961 2.60742 6.40961C2.60742 6.40961 8.46783 4.99498 22.0073 11.3626C22.4436 11.5683 22.8878 11.776 23.342 11.9857L30.7394 8.59608C30.7394 8.59608 31.1122 8.39235 31.1777 8.34141Z" fill="#0A0A0A"/>
<path d="M9.46971 12.1992C9.47764 10.6612 9.67199 9.1212 10.031 7.59885L10.0785 7.40876C7.4131 6.78964 5.44576 6.65845 4.26575 6.65845C3.29199 6.65845 2.77436 6.74655 2.59785 6.78377C2.28054 6.85235 2.05645 7.10317 1.89581 7.31281C0.941881 8.56282 0.396484 10.3438 0.396484 12.1992C0.396484 14.0546 0.941881 15.8375 1.89581 17.0856C2.05645 17.2952 2.28054 17.5441 2.59785 17.6146C2.77436 17.6518 3.29199 17.7399 4.26575 17.7399C5.44576 17.7399 7.41112 17.6087 10.0785 16.9896L10.031 16.7995C9.67199 15.2772 9.47764 13.7372 9.46971 12.1992Z" fill="#0A0A0A"/>
<path d="M42.9866 4.03943H47.4448L54.5506 20.6657H49.5906L48.3749 17.7175H41.9375L40.7456 20.6657H35.8809L42.9866 4.03943ZM47.0403 14.1572L45.18 9.46316L43.296 14.1572H47.0403Z" fill="#0A0A0A"/>
<path d="M53.4512 12.4586V12.4115C53.4512 7.59979 57.1954 3.82764 62.2486 3.82764C65.6577 3.82764 67.8511 5.24199 69.3305 7.27026L65.8501 9.93601C64.8961 8.7571 63.7994 8.00192 62.201 8.00192C59.8648 8.00192 58.2188 9.95952 58.2188 12.3644V12.4115C58.2188 14.887 59.8648 16.8212 62.201 16.8212C63.9422 16.8212 64.9675 16.0188 65.969 14.8164L69.4495 17.2684C67.8749 19.4143 65.7529 20.9953 62.0582 20.9953C57.2886 20.9953 53.4512 17.386 53.4512 12.4586Z" fill="#0A0A0A"/>
<path d="M70.9023 4.15723H75.5271V10.856L81.2744 4.15723H86.7579L80.4395 11.2562L86.9721 20.6658H81.4172L77.2208 14.5339L75.5271 16.3974V20.6658H70.9023V4.15723Z" fill="#0A0A0A"/>
<path d="M85.6016 12.4586V12.4115C85.6016 7.67041 89.4648 3.82764 94.6152 3.82764C99.7655 3.82764 103.581 7.62525 103.581 12.3644V12.4115C103.581 17.1527 99.7179 20.9953 94.5675 20.9953C89.4172 20.9953 85.6016 17.1977 85.6016 12.4586ZM98.8592 12.4586V12.4115C98.8592 10.0302 97.1179 7.9548 94.5675 7.9548C92.0172 7.9548 90.3473 9.98306 90.3473 12.3644V12.4115C90.3473 14.7929 92.0886 16.8682 94.6152 16.8682C97.1417 16.8682 98.8592 14.8399 98.8592 12.4586Z" fill="#0A0A0A"/>
</g>
<defs>
<clipPath id="clip0_66_29098">
<rect width="104" height="24.6107" fill="white"/>
</clipPath>
</defs>
</svg>
