<svg width="24" height="24" viewBox="0 0 24 24" fill="none" xmlns="http://www.w3.org/2000/svg">
<path d="M12.6799 4.84C13.4499 3.17 15.1499 2 17.1099 2C19.8199 2 21.9999 4.17 21.9999 6.87C21.9999 8.99 20.6599 10.78 18.7899 11.46" stroke="white" stroke-width="1.5" stroke-linecap="round"/>
<path d="M5.24 11.47C3.35 10.78 2 8.99 2 6.87C2 4.17 4.2 2 6.89 2C8.86 2 10.57 3.17 11.33 4.84" stroke="white" stroke-width="1.5" stroke-linecap="round"/>
<path d="M18.52 13.7101C19.61 9.98006 17.43 5.83006 13.56 4.97006C13.26 4.90006 12.95 4.86006 12.64 4.83006C12.43 4.81006 12.23 4.81006 12.02 4.81006C11.81 4.81006 11.6 4.81006 11.4 4.83006C6.96002 5.19006 4.34002 9.68006 5.52002 13.7001C5.69002 14.2801 5.93002 14.8501 6.27002 15.4101L7.20002 16.9401L9.05002 19.9701L9.12002 20.0801C10.45 22.2501 13.61 22.2501 14.94 20.0801L15.01 19.9701L16.86 16.9401L17.79 15.4101C18.12 14.8601 18.37 14.2901 18.54 13.7001" stroke="white" stroke-width="1.5" stroke-linecap="round"/>
<path d="M9.27999 13.35C9.98999 13.35 10.57 12.77 10.57 12.06C10.57 11.35 9.98999 10.77 9.27999 10.77C8.56999 10.77 7.98999 11.35 7.98999 12.06C7.98999 12.77 8.56999 13.35 9.27999 13.35Z" fill="white"/>
<path d="M14.75 13.35C15.46 13.35 16.04 12.77 16.04 12.06C16.04 11.35 15.46 10.77 14.75 10.77C14.04 10.77 13.46 11.35 13.46 12.06C13.46 12.77 14.04 13.35 14.75 13.35Z" fill="white"/>
<path d="M21.05 18.08L14.21 17.98L17.88 21.99" stroke="white" stroke-width="1.5" stroke-linecap="round" stroke-linejoin="round"/>
<path d="M2.98999 18.08L9.81999 17.98L6.15999 21.99" stroke="white" stroke-width="1.5" stroke-linecap="round" stroke-linejoin="round"/>
</svg>
