<svg width="24" height="24" viewBox="0 0 24 24" fill="none" xmlns="http://www.w3.org/2000/svg">
<g clip-path="url(#clip0_42_8043)">
<path d="M3.1 12.5C3.03 12.08 3 11.64 3 11.19V8.28C3 6.64 3 5.82 3.4 5.29C3.81 4.75 4.72 4.49 6.55 3.97C7.8 3.62 8.9 3.19 9.78 2.8C10.97 2.27 11.57 2 12 2C12.43 2 13.02 2.27 14.22 2.8C15.1 3.19 16.2 3.62 17.45 3.97C19.28 4.49 20.19 4.75 20.59 5.29C21 5.82 21 6.64 21 8.28V11.19C21 11.64 20.97 12.08 20.9 12.5" stroke="white" stroke-width="1.5" stroke-linecap="round"/>
<path d="M18.92 18.6201V18.8001C18.92 20.5201 17.53 21.9201 15.82 21.9201C15.56 21.9201 15.3 21.8901 15.04 21.8401H15.02L14.69 21.7101L6.53004 18.5301L6.40004 18.3101C5.76004 17.2801 5.42004 16.0801 5.42004 14.8601C5.42004 11.2501 8.33004 8.31006 11.91 8.31006C14.64 8.31006 17.06 9.99006 17.96 12.5201C17.99 12.5801 18.01 12.6501 18.03 12.7101C18.03 12.7101 18.03 12.7101 18.04 12.7301L18.07 12.8101L18.14 13.0501C18.19 13.2201 18.24 13.3901 18.29 13.5601C18.34 13.7301 18.38 13.8901 18.42 14.0601C18.46 14.2201 18.49 14.3901 18.53 14.5501C18.85 16.0601 18.9 17.3001 18.9 18.1701C18.91 18.3301 18.91 18.4801 18.91 18.6101H18.92V18.6201Z" stroke="white" stroke-width="1.5" stroke-linecap="round" stroke-linejoin="round"/>
<path d="M18.91 18.18L11.06 15.14C10.81 14.84 10.47 14.28 10.47 13.72C10.47 13.16 10.92 12.71 11.46 12.71H18.05C18.05 12.71 18.06 12.72 18.06 12.73L18.09 12.81L18.16 13.05C18.21 13.22 18.26 13.39 18.31 13.56C18.36 13.73 18.4 13.89 18.44 14.06C18.48 14.22 18.51 14.39 18.55 14.55C18.87 16.06 18.92 17.3 18.92 18.17H18.91V18.18Z" stroke="white" stroke-width="1.5" stroke-linecap="round" stroke-linejoin="round"/>
</g>
<defs>
<clipPath id="clip0_42_8043">
<rect width="24" height="24" fill="white"/>
</clipPath>
</defs>
</svg>
