<svg width="24" height="24" viewBox="0 0 24 24" fill="none" xmlns="http://www.w3.org/2000/svg">
<path d="M3.32 9.7002L2.56 10.8702C2.19 11.4402 2 12.1002 2 12.7802V16.0502C2 17.1902 2.74 17.9302 3.8 17.9302" stroke="white" stroke-width="1.5" stroke-miterlimit="10" stroke-linecap="round"/>
<path d="M20.27 17.9201C21.3 17.9201 22 17.1601 22 16.0401V13.8301C22 13.2601 21.61 12.7601 21.05 12.6201L17 11.6101L15.76 10.0801C14.62 8.68011 12.9 7.86011 11.09 7.86011H10.19" stroke="white" stroke-width="1.5" stroke-miterlimit="10" stroke-linecap="round"/>
<path d="M17.63 20.1102C18.84 20.1102 19.82 19.1302 19.82 17.9202C19.82 16.7102 18.84 15.7302 17.63 15.7302C16.42 15.7302 15.44 16.7102 15.44 17.9202C15.44 19.1302 16.42 20.1102 17.63 20.1102Z" stroke="white" stroke-width="1.5" stroke-linejoin="round"/>
<path d="M6 20.1102C7.21 20.1102 8.19 19.1302 8.19 17.9202C8.19 16.7102 7.21 15.7302 6 15.7302C4.79 15.7302 3.81 16.7102 3.81 17.9202C3.81 19.1302 4.79 20.1102 6 20.1102Z" stroke="white" stroke-width="1.5" stroke-linejoin="round"/>
<path d="M2.47 11.6201H17.01" stroke="white" stroke-width="1.5" stroke-miterlimit="10"/>
<path d="M8.72 17.9202H15.29" stroke="white" stroke-width="1.5" stroke-miterlimit="10"/>
<path d="M8.03 6.25H3.53" stroke="white" stroke-width="1.5" stroke-miterlimit="10" stroke-linecap="round"/>
<path d="M5.78 8.5V4" stroke="white" stroke-width="1.5" stroke-miterlimit="10" stroke-linecap="round"/>
</svg>
