<svg width="24" height="24" viewBox="0 0 24 24" fill="none" xmlns="http://www.w3.org/2000/svg">
<path d="M20.6667 12C21.1627 12 21.6213 12.1573 22 12.4227V9.33333C22 7.86133 20.8067 6.66667 19.3333 6.66667H16.244C16.508 6.288 16.6667 5.83067 16.6667 5.33333C16.6667 4.044 15.6213 3 14.3333 3C13.0453 3 12 4.044 12 5.33333C12 5.83067 12.1573 6.288 12.4227 6.66667H9.33333C7.86 6.66667 6.66667 7.86133 6.66667 9.33333V12.4227C6.288 12.1587 5.82933 12 5.33333 12C4.04533 12 3 13.044 3 14.3333C3 15.6227 4.04533 16.6667 5.33333 16.6667C5.82933 16.6667 6.288 16.5093 6.66667 16.244V19.3333C6.66667 20.8053 7.86 22 9.33333 22H12.4227C12.1587 21.6213 12 21.164 12 20.6667C12 19.3773 13.0453 18.3333 14.3333 18.3333C15.6213 18.3333 16.6667 19.3773 16.6667 20.6667C16.6667 21.164 16.5093 21.6213 16.244 22H19.3333C20.8067 22 22 20.8053 22 19.3333V16.244C21.6213 16.508 21.1627 16.6667 20.6667 16.6667C19.3787 16.6667 18.3333 15.6227 18.3333 14.3333C18.3333 13.044 19.3787 12 20.6667 12Z" stroke="white" stroke-width="1.5" stroke-linecap="round" stroke-linejoin="round"/>
</svg>
