<svg width="24" height="24" viewBox="0 0 24 24" fill="none" xmlns="http://www.w3.org/2000/svg">
<path d="M21 17.3333C19.5267 17.3333 18.3333 16.14 18.3333 14.6667V8.33333C18.3333 4.836 15.4973 2 12 2C8.50267 2 5.66667 4.836 5.66667 8.33333V14.6667C5.66667 16.14 4.47333 17.3333 3 17.3333H21Z" stroke="white" stroke-width="1.5" stroke-linecap="round" stroke-linejoin="round"/>
<path d="M14.1174 19.9134C13.9907 19.7574 13.8014 19.6667 13.6001 19.6667H10.4014C10.2001 19.6667 10.0107 19.7574 9.88407 19.9134C9.7574 20.0694 9.70807 20.2747 9.7494 20.4707C9.98007 21.5667 10.9067 22.3334 12.0014 22.3334C13.0961 22.3334 14.0227 21.5667 14.2534 20.4707C14.2947 20.2747 14.2441 20.0694 14.1174 19.9134Z" fill="white"/>
</svg>
