<svg width="24" height="24" viewBox="0 0 24 24" fill="none" xmlns="http://www.w3.org/2000/svg">
<path d="M2 11.5C2 7.02 2 4.78 3.39 3.39C4.78 2 7.02 2 11.5 2C15.98 2 18.22 2 19.61 3.39C21 4.78 21 7.02 21 11.5C21 15.98 21 18.22 19.61 19.61C18.22 21 15.98 21 11.5 21C7.02 21 4.78 21 3.39 19.61C2 18.22 2 15.98 2 11.5Z" stroke="white" stroke-width="1.5" stroke-linejoin="round"/>
<path d="M14.6499 8.87988H8.34992C6.8698 8.87988 5.66992 10.0775 5.66992 11.5549C5.66992 13.0322 6.8698 14.2299 8.34992 14.2299H14.6499C16.13 14.2299 17.3299 13.0322 17.3299 11.5549C17.3299 10.0775 16.13 8.87988 14.6499 8.87988Z" stroke="white" stroke-width="1.5" stroke-linecap="round" stroke-linejoin="round"/>
</svg>
