<svg width="24" height="24" viewBox="0 0 24 24" fill="none" xmlns="http://www.w3.org/2000/svg">
<path d="M12.8573 16.1773L13.8933 15.308C14.1333 15.1067 14.4373 14.996 14.7506 14.996H16.1026C16.7493 14.996 17.304 14.532 17.416 13.8947L17.6506 12.5627C17.7053 12.2533 17.8666 11.9747 18.1066 11.7733L19.1426 10.904C19.6386 10.488 19.7639 9.776 19.4399 9.216L18.7639 8.044C18.6066 7.772 18.5506 7.45467 18.6053 7.14534L18.8399 5.81334C18.9519 5.176 18.5906 4.55067 17.9826 4.32934L16.712 3.86667C16.4173 3.76 16.1706 3.552 16.0133 3.28L15.3373 2.108C15.0133 1.548 14.3346 1.3 13.7266 1.52134L12.456 1.984C12.1613 2.09067 11.8386 2.09067 11.544 1.984L10.2733 1.52134C9.66528 1.3 8.98662 1.54667 8.66262 2.108L7.98662 3.28C7.82928 3.552 7.58262 3.75867 7.28795 3.86667L6.01729 4.32934C5.40929 4.55067 5.04795 5.176 5.15995 5.81334L5.39462 7.14534C5.44929 7.45467 5.39329 7.772 5.23595 8.044L4.55995 9.216C4.23595 9.776 4.36129 10.488 4.85729 10.904L5.89329 11.7733C6.13329 11.9747 6.29462 12.2547 6.34929 12.5627L6.58395 13.8947C6.69595 14.532 7.25062 14.996 7.89728 14.996H9.24928C9.56262 14.996 9.86662 15.1067 10.1066 15.308L11.1426 16.1773C11.6386 16.5933 12.3613 16.5933 12.8573 16.1773Z" stroke="white" stroke-width="1.5" stroke-linecap="round" stroke-linejoin="round"/>
<path d="M16.3332 18.3333V22.9999L11.9998 19.6666L7.6665 22.9999V18.3333" stroke="white" stroke-width="1.5" stroke-linecap="round" stroke-linejoin="round"/>
<path d="M11.9999 11.6319C13.4727 11.6319 14.6666 10.438 14.6666 8.96525C14.6666 7.49249 13.4727 6.29858 11.9999 6.29858C10.5272 6.29858 9.33325 7.49249 9.33325 8.96525C9.33325 10.438 10.5272 11.6319 11.9999 11.6319Z" stroke="white" stroke-width="1.5" stroke-linecap="round" stroke-linejoin="round"/>
</svg>
