<svg width="24" height="24" viewBox="0 0 24 24" fill="none" xmlns="http://www.w3.org/2000/svg">
<path d="M9.66662 5H4.69995" stroke="white" stroke-width="1.5" stroke-linecap="round" stroke-linejoin="round"/>
<path d="M14.3333 5H19.2999" stroke="white" stroke-width="1.5" stroke-linecap="round" stroke-linejoin="round"/>
<path d="M1.03333 12.3335C1.02267 12.4442 1 12.5522 1 12.6668C1 14.6922 2.64133 16.3335 4.66667 16.3335C6.692 16.3335 8.33333 14.6922 8.33333 12.6668C8.33333 12.5522 8.30933 12.4442 8.3 12.3335H1.03333Z" stroke="white" stroke-width="1.5" stroke-linecap="round" stroke-linejoin="round"/>
<path d="M22.9667 12.3335C22.9774 12.4442 23.0001 12.5522 23.0001 12.6668C23.0001 14.6922 21.3587 16.3335 19.3334 16.3335C17.3081 16.3335 15.6667 14.6922 15.6667 12.6668C15.6667 12.5522 15.6907 12.4442 15.7001 12.3335H22.9667Z" stroke="white" stroke-width="1.5" stroke-linecap="round" stroke-linejoin="round"/>
<path d="M8.30011 12.3333L4.70011 5L1.03345 12.3333" stroke="white" stroke-width="1.5" stroke-linecap="round" stroke-linejoin="round"/>
<path d="M15.7 12.3333L19.3 5L22.9666 12.3333" stroke="white" stroke-width="1.5" stroke-linecap="round" stroke-linejoin="round"/>
<path d="M12.0001 7.33342C13.2887 7.33342 14.3334 6.28875 14.3334 5.00008C14.3334 3.71142 13.2887 2.66675 12.0001 2.66675C10.7114 2.66675 9.66675 3.71142 9.66675 5.00008C9.66675 6.28875 10.7114 7.33342 12.0001 7.33342Z" stroke="white" stroke-width="1.5" stroke-linecap="round" stroke-linejoin="round"/>
<path d="M12 7.3335V21.0002" stroke="white" stroke-width="1.5" stroke-linecap="round" stroke-linejoin="round"/>
<path d="M17.6666 21H6.33325" stroke="white" stroke-width="1.5" stroke-linecap="round" stroke-linejoin="round"/>
</svg>
