<svg width="24" height="24" viewBox="0 0 24 24" fill="none" xmlns="http://www.w3.org/2000/svg">
<path d="M21.45 19.6699H21.9799" stroke="white" stroke-width="1.5" stroke-miterlimit="10" stroke-linecap="round"/>
<path d="M15.4901 8.09L17.5501 4.29L13.7401 5.98L12.3301 2L10.9201 5.98L7.11011 4.29L9.17011 8.09" stroke="white" stroke-width="1.5" stroke-linecap="round" stroke-linejoin="round"/>
<path d="M16.5099 19.6699C15.4299 19.6699 14.6699 18.9199 14.6699 17.7599V14.4299C14.6699 13.7399 14.8699 13.0599 15.2499 12.4799L16.4699 10.5899C16.9399 9.85992 17.7399 9.41992 18.6099 9.41992H21.9899" stroke="white" stroke-width="1.5" stroke-miterlimit="10" stroke-linecap="round"/>
<path d="M18.75 21.8999C19.98 21.8999 20.98 20.8999 20.98 19.6699C20.98 18.4399 19.98 17.4399 18.75 17.4399C17.52 17.4399 16.52 18.4399 16.52 19.6699C16.52 20.8999 17.52 21.8999 18.75 21.8999Z" stroke="white" stroke-width="1.5" stroke-linecap="round" stroke-linejoin="round"/>
<path d="M22.0001 13.24H15.0801" stroke="white" stroke-width="1.5" stroke-miterlimit="10" stroke-linecap="round"/>
<path d="M9.16008 21.9C11.0001 21.9 12.4901 20.41 12.4901 18.57C12.4901 16.73 11.0001 15.24 9.16008 15.24C7.32008 15.24 5.83008 16.73 5.83008 18.57C5.83008 20.41 7.32008 21.9 9.16008 21.9Z" stroke="white" stroke-width="1.5" stroke-miterlimit="10" stroke-linecap="round"/>
<path d="M9.16 15.24V12.15L6.25 9.23999" stroke="white" stroke-width="1.5" stroke-linecap="round" stroke-linejoin="round"/>
<path d="M2.02002 18.56H3.59002C4.43002 18.56 5.22002 18.17 5.73002 17.5L7.78002 14.76" stroke="white" stroke-width="1.5" stroke-linecap="round" stroke-linejoin="round"/>
<path d="M2 13.2801L2.52 12.6001H2.54C3.63 11.8901 5.07 12.0501 5.98 12.9701L7.78 14.7701L8.26 15.2401" stroke="white" stroke-width="1.5" stroke-linecap="round" stroke-linejoin="round"/>
</svg>
