<svg width="24" height="24" viewBox="0 0 24 24" fill="none" xmlns="http://www.w3.org/2000/svg">
<path d="M5.29 18.5099C7.11 18.5099 8.58 17.0399 8.58 15.2199C8.58 13.3999 7.11 11.9299 5.29 11.9299C3.47 11.9299 2 13.3999 2 15.2199C2 17.0399 3.47 18.5099 5.29 18.5099Z" stroke="white" stroke-width="1.5" stroke-miterlimit="10"/>
<path d="M18.71 18.5099C20.53 18.5099 22 17.0399 22 15.2199C22 13.3999 20.53 11.9299 18.71 11.9299C16.89 11.9299 15.42 13.3999 15.42 15.2199C15.42 17.0399 16.89 18.5099 18.71 18.5099Z" stroke="white" stroke-width="1.5" stroke-miterlimit="10"/>
<path d="M18.71 11.93V8.88L15.83 6" stroke="white" stroke-width="1.5" stroke-linecap="round" stroke-linejoin="round"/>
<path d="M9.23999 15.22H13.19C14.02 15.22 14.8 14.83 15.3 14.17L17.33 11.46" stroke="white" stroke-width="1.5" stroke-linecap="round" stroke-linejoin="round"/>
<path d="M17.81 11.9299L15.56 9.67989C14.65 8.76989 13.24 8.60989 12.16 9.29989C12.16 9.29989 12.15 9.29989 12.14 9.30989L10.57 10.3199C10.19 10.6499 9.65998 10.7399 9.19998 10.5499L3.97998 8.63989" stroke="white" stroke-width="1.5" stroke-linecap="round" stroke-linejoin="round"/>
</svg>
