<svg width="24" height="24" viewBox="0 0 24 24" fill="none" xmlns="http://www.w3.org/2000/svg">
<g clip-path="url(#clip0_42_7992)">
<mask id="mask0_42_7992" style="mask-type:luminance" maskUnits="userSpaceOnUse" x="0" y="0" width="24" height="24">
<path d="M24 0H0V24H24V0Z" fill="white"/>
</mask>
<g mask="url(#mask0_42_7992)">
<path d="M5.29 18.54C7.11 18.54 8.58 17.07 8.58 15.25C8.58 13.43 7.11 11.96 5.29 11.96C3.47 11.96 2 13.43 2 15.25C2 17.07 3.47 18.54 5.29 18.54Z" stroke="white" stroke-width="1.5" stroke-miterlimit="10"/>
<path d="M18.71 18.54C20.53 18.54 22 17.07 22 15.25C22 13.43 20.53 11.96 18.71 11.96C16.89 11.96 15.42 13.43 15.42 15.25C15.42 17.07 16.89 18.54 18.71 18.54Z" stroke="white" stroke-width="1.5" stroke-miterlimit="10"/>
<path d="M18.71 11.95V8.90002L15.83 6.02002" stroke="white" stroke-width="1.5" stroke-linecap="round" stroke-linejoin="round"/>
<path d="M13.2 15.25C14.03 15.25 14.81 14.86 15.31 14.2L17.34 11.49" stroke="white" stroke-width="1.5" stroke-linecap="round" stroke-linejoin="round"/>
<path d="M9.23999 15.25H10.55" stroke="white" stroke-width="1.5" stroke-linecap="round" stroke-linejoin="round"/>
<path d="M10.57 10.3499C10.19 10.6799 9.65998 10.7699 9.19998 10.5799L3.97998 8.66992" stroke="white" stroke-width="1.5" stroke-linecap="round" stroke-linejoin="round"/>
<path d="M17.81 11.9499L15.56 9.69991C14.82 8.95991 13.75 8.71991 12.8 9.01991" stroke="white" stroke-width="1.5" stroke-linecap="round" stroke-linejoin="round"/>
<path d="M7.39001 5.30992C7.89001 4.89992 8.45001 4.66992 9.03001 4.66992C11.35 4.66992 13.23 8.31992 13.23 12.8299C13.23 15.6499 12.5 18.1299 11.38 19.5999" stroke="white" stroke-width="1.5" stroke-linecap="round" stroke-linejoin="round"/>
<path d="M11.38 19.5901C10.71 20.4701 9.90002 20.9801 9.03002 20.9801C8.68002 20.9801 8.35002 20.9001 8.02002 20.7401" stroke="white" stroke-width="1.5" stroke-linecap="round" stroke-linejoin="round"/>
<path d="M8.18997 6.80001L6.26997 6.61001C6.07997 6.59001 5.93997 6.42001 5.95997 6.23001L6.14997 4.31001C6.17997 4.00001 6.56997 3.89001 6.75997 4.13001L8.48997 6.24001C8.67997 6.48001 8.48997 6.83001 8.18997 6.80001Z" fill="white"/>
</g>
</g>
<defs>
<clipPath id="clip0_42_7992">
<rect width="24" height="24" fill="white"/>
</clipPath>
</defs>
</svg>
