<svg width="24" height="24" viewBox="0 0 24 24" fill="none" xmlns="http://www.w3.org/2000/svg">
<path d="M12.0001 20.068C12.2268 20.068 12.4521 20.008 12.6588 19.8893C13.5161 19.3946 14.9681 18.76 16.8468 18.7626C18.0454 18.764 19.0694 19.0253 19.8734 19.3426C20.7374 19.6826 21.6654 19.0226 21.6654 18.0933V5.98264C21.6654 5.51064 21.4241 5.07597 21.0174 4.83597C20.1681 4.33464 18.7161 3.6853 16.8308 3.6853C14.3108 3.6853 12.5668 4.84797 11.9988 5.2613" stroke="white" stroke-width="1.5" stroke-linecap="round" stroke-linejoin="round"/>
<path d="M12 20.0679C11.7734 20.0679 11.548 20.0079 11.3414 19.8892C10.484 19.3945 9.03205 18.7599 7.15338 18.7625C5.95472 18.7639 4.93072 19.0252 4.12672 19.3425C3.26272 19.6825 2.33472 19.0265 2.33472 18.0985C2.33472 14.6412 2.33472 8.13586 2.33472 5.97852C2.33472 5.50652 2.57605 5.07719 2.98272 4.83719C3.83205 4.33586 5.28405 3.68652 7.16938 3.68652C9.68938 3.68652 11.4334 4.84919 12.0014 5.26252V20.0679H12Z" stroke="white" stroke-width="1.5" stroke-linecap="round" stroke-linejoin="round"/>
</svg>
