<svg width="24" height="24" viewBox="0 0 24 24" fill="none" xmlns="http://www.w3.org/2000/svg">
<path d="M19 10.5898V15.0098C19 18.3098 19 19.9598 17.97 20.9798C16.94 22.0098 15.29 22.0098 12 22.0098C8.71 22.0098 7.05 22.0098 6.03 20.9798C5 19.9498 5 18.2998 5 15.0098V9.00977C5 5.70977 5 4.05977 6.03 3.03977C7.05 2.00977 8.7 2.00977 12 2.00977C15.3 2.00977 16.95 2.00977 17.97 3.03977C18.82 3.88977 18.97 5.16977 18.99 7.44977" stroke="white" stroke-width="1.5" stroke-linecap="round"/>
<path d="M11 19.0098H13" stroke="white" stroke-width="1.5" stroke-linecap="round" stroke-linejoin="round"/>
<path d="M9 2.01L9.09 2.54C9.29 3.75 9.4 4.32 9.83 4.67C10.24 5 10.83 5 12 5C13.17 5 13.81 4.99 14.22 4.62C14.62 4.27 14.71 3.69 14.91 2.53L15 2" stroke="white" stroke-width="1.5" stroke-linejoin="round"/>
<path d="M18.9999 10.6802L17.1599 13.5202L13.7199 12.1502L12.7299 14.6702L10.6699 14.3802" stroke="white" stroke-width="1.5" stroke-linecap="round"/>
</svg>
