<svg width="24" height="24" viewBox="0 0 24 24" fill="none" xmlns="http://www.w3.org/2000/svg">
<path d="M17.4 3C18.5 3 19.49 3.67 19.9 4.68L21.82 9.44C21.88 9.6 21.92 9.77 21.92 9.94V16.2C21.92 16.94 21.32 17.54 20.58 17.54H4.43C3.69 17.54 3.09 16.94 3.09 16.2V9.94C3.09 9.77 3.12 9.6 3.19 9.44L5.11 4.68C5.52 3.67 6.51 3 7.61 3H13.77" stroke="white" stroke-width="1.5" stroke-linecap="round" stroke-linejoin="round"/>
<path d="M17.57 17.53V19.65C17.57 20.45 18.22 21.1 19.02 21.1H20.47C21.27 21.1 21.92 20.45 21.92 19.65V15.23" stroke="white" stroke-width="1.5" stroke-miterlimit="10" stroke-linecap="round"/>
<path d="M7.42999 17.53V19.65C7.42999 20.45 6.77999 21.1 5.97999 21.1H4.52999C3.72999 21.1 3.07999 20.45 3.07999 19.65V15.23" stroke="white" stroke-width="1.5" stroke-miterlimit="10" stroke-linecap="round"/>
<path d="M6.71001 15.36C7.51001 15.36 8.16001 14.71 8.16001 13.91C8.16001 13.11 7.51001 12.46 6.71001 12.46C5.91001 12.46 5.26001 13.11 5.26001 13.91C5.26001 14.71 5.91001 15.36 6.71001 15.36Z" fill="white"/>
<path d="M18.29 15.36C19.09 15.36 19.74 14.71 19.74 13.91C19.74 13.11 19.09 12.46 18.29 12.46C17.49 12.46 16.84 13.11 16.84 13.91C16.84 14.71 17.49 15.36 18.29 15.36Z" fill="white"/>
<path d="M2 9.57007H23" stroke="white" stroke-width="1.5" stroke-linecap="round" stroke-linejoin="round"/>
<path d="M11.9001 7.34L13.7601 5.69L11.6001 4.9L13.7601 3" stroke="white" stroke-width="1.5" stroke-linecap="round" stroke-linejoin="round"/>
</svg>
