<svg width="24" height="24" viewBox="0 0 24 24" fill="none" xmlns="http://www.w3.org/2000/svg">
<path d="M2 16.48C3.36 17.03 5.77 17.66 8.73 16.94C8.82 16.92 8.92 16.89 9.01 16.87C9.92 16.63 10.87 16.26 11.86 15.73C11.86 15.73 12.99 16.4 14.71 16.87C14.92 16.94 15.13 16.98 15.36 17.03C17.25 17.45 19.67 17.54 22.09 16.4" stroke="white" stroke-width="1.5" stroke-linecap="round" stroke-linejoin="round"/>
<path d="M2 21.1599C3.36 21.7099 5.77 22.3399 8.73 21.6199C8.82 21.5999 8.92 21.5699 9.01 21.5499C9.92 21.3099 10.87 20.9399 11.86 20.4099C11.86 20.4099 12.99 21.0799 14.71 21.5499C14.92 21.6199 15.13 21.6599 15.36 21.7099C17.25 22.1299 19.67 22.2199 22.09 21.0799" stroke="white" stroke-width="1.5" stroke-linecap="round" stroke-linejoin="round"/>
<path d="M16.47 2L15.25 3.3" stroke="white" stroke-width="1.5" stroke-linecap="round" stroke-linejoin="round"/>
<path d="M20.72 2.02002L18.8 4.04002" stroke="white" stroke-width="1.5" stroke-linecap="round" stroke-linejoin="round"/>
<path d="M22.02 5.06006L20.28 6.93006" stroke="white" stroke-width="1.5" stroke-linecap="round" stroke-linejoin="round"/>
<path d="M14.9 16.93H17.7C18.22 16.93 18.64 16.51 18.64 15.99V11.61C18.64 11.53 18.63 11.44 18.6 11.36C18.59 11.34 18.58 11.3 18.56 11.28L17.22 7.94002C16.94 7.24002 16.24 6.77002 15.48 6.77002H8.61997C7.84997 6.77002 7.15997 7.24002 6.86997 7.94002L5.52997 11.28C5.52997 11.28 5.51997 11.34 5.50997 11.36C5.48997 11.44 5.46997 11.53 5.46997 11.61V15.99C5.46997 16.51 5.88997 16.93 6.39997 16.93H8.80997" stroke="white" stroke-width="1.5" stroke-linejoin="round"/>
<path d="M18.6399 15.9901V15.3201" stroke="white" stroke-width="1.5" stroke-miterlimit="10" stroke-linecap="round"/>
<path d="M15.59 17.0999V16.9299" stroke="white" stroke-width="1.5" stroke-miterlimit="10" stroke-linecap="round"/>
<path d="M5.45996 15.9901V15.3201" stroke="white" stroke-width="1.5" stroke-miterlimit="10" stroke-linecap="round"/>
<path d="M8.5 17.0199V16.9299" stroke="white" stroke-width="1.5" stroke-miterlimit="10" stroke-linecap="round"/>
<path d="M7.99999 15.4101C8.55999 15.4101 9.00999 14.9601 9.00999 14.4001C9.00999 13.8401 8.55999 13.3901 7.99999 13.3901C7.43999 13.3901 6.98999 13.8401 6.98999 14.4001C6.98999 14.9601 7.43999 15.4101 7.99999 15.4101Z" fill="white"/>
<path d="M16.11 15.4101C16.67 15.4101 17.12 14.9601 17.12 14.4001C17.12 13.8401 16.67 13.3901 16.11 13.3901C15.55 13.3901 15.1 13.8401 15.1 14.4001C15.1 14.9601 15.55 15.4101 16.11 15.4101Z" fill="white"/>
<path d="M4.69995 11.3501H19.4" stroke="white" stroke-width="1.5" stroke-linecap="round" stroke-linejoin="round"/>
</svg>
