<svg width="24" height="24" viewBox="0 0 24 24" fill="none" xmlns="http://www.w3.org/2000/svg">
<path d="M7.66675 3.66667V1" stroke="white" stroke-width="1.5" stroke-linecap="round" stroke-linejoin="round"/>
<path d="M16.3333 3.66667V1" stroke="white" stroke-width="1.5" stroke-linecap="round" stroke-linejoin="round"/>
<path d="M18.3333 3.66675H5.66667C4.19391 3.66675 3 4.86066 3 6.33341V17.6667C3 19.1395 4.19391 20.3334 5.66667 20.3334H18.3333C19.8061 20.3334 21 19.1395 21 17.6667V6.33341C21 4.86066 19.8061 3.66675 18.3333 3.66675Z" stroke="white" stroke-width="1.5" stroke-linecap="round" stroke-linejoin="round"/>
<path d="M3 8.33325H21" stroke="white" stroke-width="1.5" stroke-linecap="round" stroke-linejoin="round"/>
<path d="M12.0001 11C11.2654 11 10.6667 11.5987 10.6667 12.3333C10.6667 13.068 11.2654 13.6667 12.0001 13.6667C12.7347 13.6667 13.3334 13.068 13.3334 12.3333C13.3334 11.5987 12.7347 11 12.0001 11Z" fill="white"/>
<path d="M16.6666 13.6667C17.4013 13.6667 17.9999 13.068 17.9999 12.3333C17.9999 11.5987 17.4013 11 16.6666 11C15.9319 11 15.3333 11.5987 15.3333 12.3333C15.3333 13.068 15.9319 13.6667 16.6666 13.6667Z" fill="white"/>
<path d="M12.0001 15C11.2654 15 10.6667 15.5987 10.6667 16.3333C10.6667 17.068 11.2654 17.6667 12.0001 17.6667C12.7347 17.6667 13.3334 17.068 13.3334 16.3333C13.3334 15.5987 12.7347 15 12.0001 15Z" fill="white"/>
<path d="M7.33333 15C6.59867 15 6 15.5987 6 16.3333C6 17.068 6.59867 17.6667 7.33333 17.6667C8.068 17.6667 8.66667 17.068 8.66667 16.3333C8.66667 15.5987 8.068 15 7.33333 15Z" fill="white"/>
<path d="M7.33333 11C6.59867 11 6 11.5987 6 12.3333C6 13.068 6.59867 13.6667 7.33333 13.6667C8.068 13.6667 8.66667 13.068 8.66667 12.3333C8.66667 11.5987 8.068 11 7.33333 11Z" fill="white"/>
</svg>
