<svg width="24" height="24" viewBox="0 0 24 24" fill="none" xmlns="http://www.w3.org/2000/svg">
<path d="M3.8 19.7601C2.74 19.7601 2 19.0201 2 17.8801V14.6201C2 13.9401 2.19 13.2801 2.57 12.7101L3.77 10.8501C3.89 10.6701 4.02 10.5101 4.17 10.3701" stroke="white" stroke-width="1.5" stroke-linecap="round" stroke-linejoin="round"/>
<path d="M13.86 10.3799C14.58 10.7499 15.23 11.2699 15.76 11.9199L17.01 13.4499L21.06 14.4599C21.62 14.6099 22.01 15.0999 22.01 15.6799V17.8799C22.01 18.9899 21.3 19.7599 20.28 19.7599" stroke="white" stroke-width="1.5" stroke-linecap="round" stroke-linejoin="round"/>
<path d="M17.63 21.9501C18.84 21.9501 19.82 20.9701 19.82 19.7601C19.82 18.5501 18.84 17.5701 17.63 17.5701C16.42 17.5701 15.44 18.5501 15.44 19.7601C15.44 20.9701 16.42 21.9501 17.63 21.9501Z" stroke="white" stroke-width="1.5" stroke-linecap="round" stroke-linejoin="round"/>
<path d="M6 21.9501C7.21 21.9501 8.19 20.9701 8.19 19.7601C8.19 18.5501 7.21 17.5701 6 17.5701C4.79 17.5701 3.81 18.5501 3.81 19.7601C3.81 20.9701 4.79 21.9501 6 21.9501Z" stroke="white" stroke-width="1.5" stroke-linecap="round" stroke-linejoin="round"/>
<path d="M2.47 13.45H17.01" stroke="white" stroke-width="1.5" stroke-linecap="round" stroke-linejoin="round"/>
<path d="M8.72 19.76H15.29" stroke="white" stroke-width="1.5" stroke-linecap="round" stroke-linejoin="round"/>
<path d="M13.11 6.21V4.88C13.11 4.13 13.11 3.75 12.92 3.51C12.73 3.27 12.32 3.15 11.48 2.91C10.91 2.75 10.4 2.55 10 2.37C9.45001 2.13 9.18001 2 8.98001 2C8.78001 2 8.51001 2.12 7.96001 2.37C7.56001 2.55 7.05001 2.74 6.48001 2.91C5.64001 3.15 5.22001 3.27 5.04001 3.51C4.85001 3.75 4.85001 4.13 4.85001 4.88V6.21C4.85001 8.79 7.17001 10.33 8.33001 10.94C8.61001 11.09 8.75001 11.16 8.97001 11.16C9.19001 11.16 9.34001 11.09 9.61001 10.94C10.77 10.33 13.09 8.78 13.09 6.21H13.11Z" stroke="white" stroke-width="1.5" stroke-linecap="round"/>
</svg>
