<svg width="24" height="24" viewBox="0 0 24 24" fill="none" xmlns="http://www.w3.org/2000/svg">
<path d="M20.02 16.06C21.05 16.06 21.75 15.3 21.75 14.18V11.97C21.75 11.4 21.36 10.9 20.8 10.76L16.75 9.75L15.51 8.22C14.37 6.82 12.65 6 10.84 6H5.61C4.76 6 3.97 6.43 3.51 7.15L2.31 9.01C1.94 9.58 1.75 10.24 1.75 10.92V14.19C1.75 15.33 2.49 16.07 3.55 16.07" stroke="white" stroke-width="1.5" stroke-miterlimit="10"/>
<path d="M17.38 18.2501C18.59 18.2501 19.57 17.2701 19.57 16.0601C19.57 14.8501 18.59 13.8701 17.38 13.8701C16.17 13.8701 15.19 14.8501 15.19 16.0601C15.19 17.2701 16.17 18.2501 17.38 18.2501Z" stroke="white" stroke-width="1.5" stroke-linejoin="round"/>
<path d="M5.75 18.2501C6.96 18.2501 7.94 17.2701 7.94 16.0601C7.94 14.8501 6.96 13.8701 5.75 13.8701C4.54 13.8701 3.56 14.8501 3.56 16.0601C3.56 17.2701 4.54 18.2501 5.75 18.2501Z" stroke="white" stroke-width="1.5" stroke-linejoin="round"/>
<path d="M2.22 9.75H16.76" stroke="white" stroke-width="1.5" stroke-miterlimit="10"/>
<path d="M8.47 16.0601H15.04" stroke="white" stroke-width="1.5" stroke-miterlimit="10"/>
</svg>
