<svg width="24" height="24" viewBox="0 0 24 24" fill="none" xmlns="http://www.w3.org/2000/svg">
<path d="M20.27 19.85C21.3 19.85 22 19.09 22 17.97V15.76C22 15.19 21.61 14.69 21.05 14.55L17 13.54L15.76 12.01C14.62 10.61 12.9 9.79004 11.09 9.79004H5.86C5.01 9.79004 4.22 10.22 3.76 10.94L2.56 12.8C2.19 13.37 2 14.03 2 14.71V17.98C2 19.12 2.74 19.86 3.8 19.86" stroke="white" stroke-width="1.5" stroke-miterlimit="10"/>
<path d="M17.6299 22.0402C18.8399 22.0402 19.8199 21.0602 19.8199 19.8502C19.8199 18.6402 18.8399 17.6602 17.6299 17.6602C16.4199 17.6602 15.4399 18.6402 15.4399 19.8502C15.4399 21.0602 16.4199 22.0402 17.6299 22.0402Z" stroke="white" stroke-width="1.5" stroke-linejoin="round"/>
<path d="M6.00006 22.0402C7.21006 22.0402 8.19006 21.0602 8.19006 19.8502C8.19006 18.6402 7.21006 17.6602 6.00006 17.6602C4.79006 17.6602 3.81006 18.6402 3.81006 19.8502C3.81006 21.0602 4.79006 22.0402 6.00006 22.0402Z" stroke="white" stroke-width="1.5" stroke-linejoin="round"/>
<path d="M2.46997 13.54H17.01" stroke="white" stroke-width="1.5" stroke-miterlimit="10"/>
<path d="M8.71997 19.8501H15.29" stroke="white" stroke-width="1.5" stroke-miterlimit="10"/>
<path d="M18.3601 7.34008C18.3601 8.17008 17.6801 8.85008 16.8501 8.85008C16.0201 8.85008 15.3401 8.17008 15.3401 7.34008C15.3401 6.51008 16.0201 5.83008 16.8501 5.83008C17.6801 5.83008 18.3601 6.51008 18.3601 7.34008Z" stroke="white" stroke-width="1.5"/>
<path d="M18.43 11.19C18.51 11.07 18.62 10.97 18.74 10.89L18.92 10.79C19.14 10.68 19.4 10.64 19.64 10.7L20.29 10.88C20.67 10.99 20.86 11.04 21.03 10.97C21.2 10.9 21.3 10.73 21.5 10.38L21.76 9.92C21.95 9.6 22.04 9.44 22.02 9.26C22 9.09 21.88 8.95 21.63 8.67L21.08 8.06C20.95 7.89 20.85 7.59 20.85 7.33C20.85 7.07 20.94 6.77 21.08 6.6L21.63 5.99C21.88 5.71 22 5.57 22.02 5.4C22.04 5.23 21.95 5.07 21.76 4.74L21.5 4.28C21.3 3.94 21.2 3.76 21.03 3.69C20.86 3.62 20.67 3.68 20.29 3.78L19.64 3.96C19.4 4.02 19.14 3.98 18.92 3.87L18.74 3.77C18.55 3.65 18.4 3.47 18.32 3.26L18.14 2.73C18.02 2.38 17.97 2.2 17.83 2.1C17.69 2 17.51 2 17.14 2H16.55C16.18 2 16 2 15.86 2.1C15.72 2.2 15.66 2.38 15.55 2.73L15.37 3.26C15.29 3.47 15.14 3.65 14.95 3.77L14.77 3.87C14.55 3.98 14.29 4.02 14.05 3.96L13.4 3.78C13.02 3.67 12.83 3.62 12.66 3.69C12.49 3.76 12.39 3.93 12.19 4.28L11.93 4.74C11.74 5.06 11.65 5.22 11.67 5.4C11.69 5.57 11.81 5.71 12.06 5.99L12.61 6.6C12.74 6.77 12.84 7.07 12.84 7.33C12.84 7.46 12.82 7.59 12.78 7.72" stroke="white" stroke-width="1.5" stroke-linecap="round"/>
</svg>
