<svg width="24" height="24" viewBox="0 0 24 24" fill="none" xmlns="http://www.w3.org/2000/svg">
<path d="M20.0689 17.5344H3.93108C3.18841 17.5344 2.58621 16.9362 2.58621 16.1983V9.9384C2.58621 9.76837 2.6188 9.59994 2.68238 9.44208L4.59961 4.67986C5.00802 3.66519 5.99705 3 7.09687 3H16.9031C18.003 3 18.992 3.66534 19.4004 4.67986L21.3176 9.44208C21.3812 9.59994 21.4138 9.76837 21.4138 9.9384V16.1983C21.4138 16.9362 20.8117 17.5344 20.0689 17.5344Z" stroke="white" stroke-width="1.5" stroke-linejoin="round"/>
<path d="M17.069 17.5345V19.6552C17.069 20.455 17.7174 21.1034 18.5172 21.1034H19.9655C20.7654 21.1034 21.4138 20.455 21.4138 19.6552V15.2324" stroke="white" stroke-width="1.5" stroke-miterlimit="10" stroke-linecap="round"/>
<path d="M6.93104 17.5345V19.6552C6.93104 20.455 6.28265 21.1034 5.48276 21.1034H4.03449C3.23461 21.1034 2.58621 20.455 2.58621 19.6552V15.2324" stroke="white" stroke-width="1.5" stroke-miterlimit="10" stroke-linecap="round"/>
<path d="M6.20682 15.3621C7.00668 15.3621 7.6551 14.7137 7.6551 13.9139C7.6551 13.114 7.00668 12.4656 6.20682 12.4656C5.40696 12.4656 4.75854 13.114 4.75854 13.9139C4.75854 14.7137 5.40696 15.3621 6.20682 15.3621Z" fill="white"/>
<path d="M17.793 15.3621C18.5929 15.3621 19.2413 14.7137 19.2413 13.9139C19.2413 13.114 18.5929 12.4656 17.793 12.4656C16.9931 12.4656 16.3447 13.114 16.3447 13.9139C16.3447 14.7137 16.9931 15.3621 17.793 15.3621Z" fill="white"/>
<path d="M1.5 9.56885H22.5" stroke="white" stroke-width="1.5" stroke-linecap="round" stroke-linejoin="round"/>
</svg>
