<svg width="24" height="24" viewBox="0 0 24 24" fill="none" xmlns="http://www.w3.org/2000/svg">
<path d="M16.2801 19.55C15.1901 19.55 14.4301 18.79 14.4301 17.62V14.26C14.4301 13.56 14.6201 12.88 15.0001 12.29L16.2401 10.38C16.7101 9.63995 17.5201 9.19995 18.4001 9.19995H21.7501" stroke="white" stroke-width="1.5" stroke-miterlimit="10" stroke-linecap="round"/>
<path d="M18.54 21.8C19.78 21.8 20.79 20.79 20.79 19.55C20.79 18.31 19.78 17.3 18.54 17.3C17.3 17.3 16.29 18.31 16.29 19.55C16.29 20.79 17.3 21.8 18.54 21.8Z" stroke="white" stroke-width="1.5" stroke-miterlimit="10" stroke-linecap="round"/>
<path d="M21.75 13.0601H14.91" stroke="white" stroke-width="1.5" stroke-miterlimit="10" stroke-linecap="round"/>
<path d="M21.7501 19.54H21.3401" stroke="white" stroke-width="1.5" stroke-miterlimit="10" stroke-linecap="round"/>
<path d="M9.48001 19.5299C10.54 19.5299 11.25 18.7499 11.25 17.5999V15.3299C11.25 14.7499 10.85 14.2299 10.28 14.0899L6.13001 13.0499L4.86001 11.4799C4.05001 10.4899 2.97001 9.77994 1.76001 9.43994" stroke="white" stroke-width="1.5" stroke-miterlimit="10" stroke-linecap="round"/>
<path d="M6.77003 21.7801C8.01003 21.7801 9.01003 20.7801 9.01003 19.5401C9.01003 18.3001 8.01003 17.3 6.77003 17.3C5.53003 17.3 4.53003 18.3001 4.53003 19.5401C4.53003 20.7801 5.53003 21.7801 6.77003 21.7801Z" stroke="white" stroke-width="1.5" stroke-miterlimit="10" stroke-linecap="round"/>
<path d="M1.75 13.0601H6.14" stroke="white" stroke-width="1.5" stroke-miterlimit="10" stroke-linecap="round"/>
<path d="M1.75 19.53H4.37" stroke="white" stroke-width="1.5" stroke-miterlimit="10" stroke-linecap="round"/>
<path d="M14.9103 7.84L16.9703 4.04L13.1603 5.73L11.7503 1.75L10.3403 5.73L6.53027 4.04L8.59027 7.84" stroke="white" stroke-width="1.5" stroke-linecap="round" stroke-linejoin="round"/>
</svg>
