<svg width="24" height="24" viewBox="0 0 24 24" fill="none" xmlns="http://www.w3.org/2000/svg">
<path d="M20.27 19.6298C21.3 19.6298 22 18.8698 22 17.7498V15.5398C22 14.9698 21.61 14.4698 21.05 14.3298L17 13.3198L15.76 11.7898C14.62 10.3898 12.9 9.56982 11.09 9.56982H5.86C5.01 9.56982 4.22 9.99982 3.76 10.7198L2.56 12.5798C2.19 13.1498 2 13.8098 2 14.4898V17.7598C2 18.8998 2.74 19.6398 3.8 19.6398" stroke="white" stroke-width="1.5" stroke-miterlimit="10"/>
<path d="M17.6299 21.8199C18.8399 21.8199 19.8199 20.8399 19.8199 19.6299C19.8199 18.4199 18.8399 17.4399 17.6299 17.4399C16.4199 17.4399 15.4399 18.4199 15.4399 19.6299C15.4399 20.8399 16.4199 21.8199 17.6299 21.8199Z" stroke="white" stroke-width="1.5" stroke-linejoin="round"/>
<path d="M6.00006 21.8199C7.21006 21.8199 8.19006 20.8399 8.19006 19.6299C8.19006 18.4199 7.21006 17.4399 6.00006 17.4399C4.79006 17.4399 3.81006 18.4199 3.81006 19.6299C3.81006 20.8399 4.79006 21.8199 6.00006 21.8199Z" stroke="white" stroke-width="1.5" stroke-linejoin="round"/>
<path d="M2.46997 13.3198H17.01" stroke="white" stroke-width="1.5" stroke-miterlimit="10"/>
<path d="M8.71997 19.6299H15.29" stroke="white" stroke-width="1.5" stroke-miterlimit="10"/>
<path d="M12.23 6.96C12.52 4.73 14.43 3 16.74 3C19.24 3 21.28 5.03 21.28 7.54C21.28 9.1 20.49 10.49 19.29 11.3" stroke="white" stroke-width="1.5" stroke-linecap="round" stroke-linejoin="round"/>
<path d="M16.75 5.54004V7.54004" stroke="white" stroke-width="1.5" stroke-linecap="round" stroke-linejoin="round"/>
<path d="M16.75 9.47998V9.57998" stroke="white" stroke-width="1.5" stroke-linecap="round" stroke-linejoin="round"/>
</svg>
