<svg width="24" height="24" viewBox="0 0 24 24" fill="none" xmlns="http://www.w3.org/2000/svg">
<path d="M10.5811 15.1982C10.5811 18.0266 10.5811 18.4408 9.70235 19.3195C8.82365 20.1982 7.40945 20.1982 4.58105 20.1982" stroke="white" stroke-width="1.5" stroke-linejoin="round"/>
<path d="M4.88965 18.1982V22.1982" stroke="white" stroke-width="1.5" stroke-linecap="round" stroke-linejoin="round"/>
<path d="M15.7623 15.2506L17.732 15.7784C19.1365 16.1808 20.1095 15.7176 20.5755 14.4959C20.671 14.2455 21.0931 12.564 21.4173 11.3546C21.6135 10.6226 21.4532 10.0723 20.3047 9.76457" stroke="white" stroke-width="1.5" stroke-linejoin="round"/>
<path d="M15.1919 8.91235L15.1832 8.91002" stroke="white" stroke-width="2" stroke-linecap="round" stroke-linejoin="round"/>
<path d="M19.7928 6.00392L7.71876 2.76869C3.89344 1.7437 1.04643 12.3689 4.87175 13.3939L12.3045 15.3855C12.7789 15.5126 14.4729 16.1586 15.7558 15.275C17.905 13.7947 19.7688 11.1595 20.9483 9.41936C21.6523 8.38059 21.7246 6.52156 19.7928 6.00392Z" stroke="white" stroke-width="1.5" stroke-linejoin="round"/>
</svg>
