<svg width="24" height="24" viewBox="0 0 24 24" fill="none" xmlns="http://www.w3.org/2000/svg">
<path d="M3.12252 8.20683H7.76012C8.51084 8.20683 9.12012 7.5889 9.12012 6.82752V2.14062" stroke="white" stroke-width="1.5" stroke-linecap="round" stroke-linejoin="round"/>
<path d="M7 17.2134H9.84325" stroke="white" stroke-width="1.5" stroke-linecap="round" stroke-linejoin="round"/>
<path d="M7 13H11.9" stroke="white" stroke-width="1.5" stroke-linecap="round" stroke-linejoin="round"/>
<path d="M16.9 15C17.776 15 18.7647 15.8642 18.7 17.3333C18.6381 18.7397 17.8 19.3333 16 19.3333L19 22" stroke="white" stroke-width="1.5" stroke-linecap="round" stroke-linejoin="round"/>
<path d="M16 17.2134H19.8432" stroke="white" stroke-width="1.5" stroke-linecap="round" stroke-linejoin="round"/>
<path d="M16 15H19.9" stroke="white" stroke-width="1.5" stroke-linecap="round" stroke-linejoin="round"/>
<path d="M20 11V4.99999C20 3.34314 18.6569 2 17 2C14.561 2 12.122 2 9.68304 2C9.32264 2 8.97584 2.14483 8.72152 2.40414L3.39848 7.80276C3.1428 8.06207 3 8.41241 3 8.77793V19.2414C3 20.7655 4.2172 22 5.72 22H13" stroke="white" stroke-width="1.5" stroke-linecap="round" stroke-linejoin="round"/>
</svg>
