<svg width="24" height="24" viewBox="0 0 24 24" fill="none" xmlns="http://www.w3.org/2000/svg">
<path d="M19 6.66667H16L15.324 4.86533C15.1293 4.34533 14.632 4 14.076 4H9.92398C9.36798 4 8.87065 4.34533 8.67598 4.86533L7.99998 6.66667H4.99998C3.52665 6.66667 2.33331 7.86 2.33331 9.33333V18C2.33331 19.4733 3.52665 20.6667 4.99998 20.6667H19C20.4733 20.6667 21.6666 19.4733 21.6666 18V9.33333C21.6666 7.86 20.4733 6.66667 19 6.66667Z" stroke="white" stroke-width="1.5" stroke-linecap="round" stroke-linejoin="round"/>
<path d="M12 17.3333C14.025 17.3333 15.6666 15.6917 15.6666 13.6667C15.6666 11.6416 14.025 10 12 10C9.97494 10 8.33331 11.6416 8.33331 13.6667C8.33331 15.6917 9.97494 17.3333 12 17.3333Z" stroke="white" stroke-width="1.5" stroke-linecap="round" stroke-linejoin="round"/>
<path d="M5.66663 11C6.21891 11 6.66663 10.5523 6.66663 10C6.66663 9.44772 6.21891 9 5.66663 9C5.11434 9 4.66663 9.44772 4.66663 10C4.66663 10.5523 5.11434 11 5.66663 11Z" fill="white"/>
</svg>
