<svg width="24" height="24" viewBox="0 0 24 24" fill="none" xmlns="http://www.w3.org/2000/svg">
<path d="M19.4307 5.23608C19.0121 4.31075 18.0814 3.66675 17.0001 3.66675H15.6667" stroke="white" stroke-width="1.5" stroke-linecap="round" stroke-linejoin="round"/>
<path d="M7.71338 21.6667H17C18.4734 21.6667 19.6667 20.4734 19.6667 19V9.71338" stroke="white" stroke-width="1.5" stroke-linecap="round" stroke-linejoin="round"/>
<path d="M8.33325 3.66675H6.99992C5.52659 3.66675 4.33325 4.86008 4.33325 6.33341V19.0001C4.33325 19.3907 4.41725 19.7627 4.56925 20.0974" stroke="white" stroke-width="1.5" stroke-linecap="round" stroke-linejoin="round"/>
<path d="M14.3333 1.66675H9.66659C8.93021 1.66675 8.33325 2.2637 8.33325 3.00008V4.33342C8.33325 5.06979 8.93021 5.66675 9.66659 5.66675H14.3333C15.0696 5.66675 15.6666 5.06979 15.6666 4.33342V3.00008C15.6666 2.2637 15.0696 1.66675 14.3333 1.66675Z" stroke="white" stroke-width="1.5" stroke-linecap="round" stroke-linejoin="round"/>
<path d="M3 21.6668L21.3333 3.3335" stroke="white" stroke-width="1.5" stroke-linecap="round" stroke-linejoin="round"/>
</svg>
