<svg width="24" height="24" viewBox="0 0 24 24" fill="none" xmlns="http://www.w3.org/2000/svg">
<path d="M8.33325 3.66675H6.99992C5.52659 3.66675 4.33325 4.86008 4.33325 6.33341V19.0001C4.33325 20.4734 5.52659 21.6667 6.99992 21.6667H16.9999C18.4733 21.6667 19.6666 20.4734 19.6666 19.0001V6.33341C19.6666 4.86008 18.4733 3.66675 16.9999 3.66675H15.6666" stroke="white" stroke-width="1.5" stroke-linecap="round" stroke-linejoin="round"/>
<path d="M14.3333 1.66675H9.66659C8.93021 1.66675 8.33325 2.2637 8.33325 3.00008V4.33342C8.33325 5.06979 8.93021 5.66675 9.66659 5.66675H14.3333C15.0696 5.66675 15.6666 5.06979 15.6666 4.33342V3.00008C15.6666 2.2637 15.0696 1.66675 14.3333 1.66675Z" stroke="white" stroke-width="1.5" stroke-linecap="round" stroke-linejoin="round"/>
<path d="M8.33325 13.6667L10.6666 16.3334L15.6666 9.66675" stroke="white" stroke-width="1.5" stroke-linecap="round" stroke-linejoin="round"/>
</svg>
