<svg width="20" height="20" viewBox="0 0 20 20" fill="none" xmlns="http://www.w3.org/2000/svg">
<g clip-path="url(#clip0_27437_22220)">
<g opacity="0.5">
<circle cx="10" cy="10.0039" r="9.58333" stroke="#F5F5F5" stroke-width="0.833333" stroke-linecap="round"/>
<path d="M10.8182 6.53393C10.6614 6.37712 10.4072 6.37712 10.2504 6.53393C10.0936 6.69074 10.0936 6.94498 10.2504 7.10179L12.7254 9.57679H6.11468C5.89278 9.57679 5.71289 9.75667 5.71289 9.97857C5.71289 10.2005 5.89278 10.3804 6.11468 10.3804H12.7147L10.2463 12.8969C10.0913 13.0549 10.0925 13.3082 10.249 13.4647C10.4066 13.6223 10.6621 13.6223 10.8196 13.4647L13.7792 10.5051C14.0582 10.2261 14.0582 9.77387 13.7792 9.49492L10.8182 6.53393Z" fill="white" stroke="white" stroke-width="0.357143"/>
</g>
</g>
<defs>
<clipPath id="clip0_27437_22220">
<rect width="20" height="20" fill="white"/>
</clipPath>
</defs>
</svg>
