<svg width="24" height="24" viewBox="0 0 24 24" fill="none" xmlns="http://www.w3.org/2000/svg">
<path d="M17.9519 9.18808C17.7039 6.10275 15.1493 3.66675 11.9999 3.66675C8.68659 3.66675 5.99992 6.35342 5.99992 9.66675C5.99992 10.1334 6.06525 10.5814 6.16525 11.0174C4.03592 11.1067 2.33325 12.8494 2.33325 15.0001C2.33325 17.2094 4.12392 19.0001 6.33325 19.0001H16.6666C19.4279 19.0001 21.6666 16.7614 21.6666 14.0001C21.6666 11.6854 20.0866 9.75742 17.9519 9.18808Z" stroke="white" stroke-width="1.5" stroke-linecap="round" stroke-linejoin="round"/>
<path d="M12.9399 10.6667C13.8559 9.644 15.1853 9 16.6666 9C17.1106 9 17.5426 9.07867 17.9519 9.188" stroke="white" stroke-width="1.5" stroke-linecap="round" stroke-linejoin="round"/>
</svg>
