<svg width="24" height="24" viewBox="0 0 24 24" fill="none" xmlns="http://www.w3.org/2000/svg">
<path fill-rule="evenodd" clip-rule="evenodd" d="M3 2C3 1.58579 3.33579 1.25 3.75 1.25H7.25006C7.66427 1.25 8.00006 1.58579 8.00006 2C8.00006 2.41421 7.66427 2.75 7.25006 2.75H3.75C3.33579 2.75 3 2.41421 3 2Z" fill="white"/>
<path fill-rule="evenodd" clip-rule="evenodd" d="M5.5 1.25C5.91421 1.25 6.25 1.58579 6.25 2V6.28C6.25 6.69421 5.91421 7.03 5.5 7.03C5.08579 7.03 4.75 6.69421 4.75 6.28V2C4.75 1.58579 5.08579 1.25 5.5 1.25Z" fill="white"/>
<path fill-rule="evenodd" clip-rule="evenodd" d="M20.51 1.25C20.9242 1.25 21.26 1.58579 21.26 2V6.28C21.26 6.69421 20.9242 7.03 20.51 7.03C20.0958 7.03 19.76 6.69421 19.76 6.28V2C19.76 1.58579 20.0958 1.25 20.51 1.25Z" fill="white"/>
<path fill-rule="evenodd" clip-rule="evenodd" d="M8.80791 2.60526C9.35729 1.01297 11.6186 1.04003 12.1297 2.64499L13.2148 6.05233C13.3405 6.44701 13.1225 6.86886 12.7278 6.99455C12.3331 7.12025 11.9113 6.90219 11.7856 6.50751L10.7004 3.10017C10.6274 2.87088 10.3044 2.86703 10.2259 3.09449L9.04244 6.52453C8.90734 6.9161 8.4804 7.124 8.08884 6.9889C7.69728 6.85381 7.48937 6.42686 7.62447 6.0353L8.80791 2.60526Z" fill="white"/>
<path fill-rule="evenodd" clip-rule="evenodd" d="M14.4472 1.45995C14.7731 1.20432 15.2446 1.26129 15.5002 1.58721L18.8102 5.80721C19.0658 6.13313 19.0089 6.60457 18.6829 6.86021C18.357 7.11584 17.8856 7.05887 17.6299 6.73295L14.3199 2.51295C14.0643 2.18704 14.1213 1.71559 14.4472 1.45995Z" fill="white"/>
<path fill-rule="evenodd" clip-rule="evenodd" d="M18.6829 1.45995C19.0089 1.71559 19.0658 2.18704 18.8102 2.51295L15.5002 6.73295C15.2446 7.05887 14.7731 7.11584 14.4472 6.86021C14.1213 6.60457 14.0643 6.13313 14.3199 5.80721L17.6299 1.58721C17.8856 1.26129 18.357 1.20432 18.6829 1.45995Z" fill="white"/>
<path fill-rule="evenodd" clip-rule="evenodd" d="M8.41992 5C8.41992 4.58579 8.75571 4.25 9.16992 4.25H11.9999C12.4141 4.25 12.7499 4.58579 12.7499 5C12.7499 5.41421 12.4141 5.75 11.9999 5.75H9.16992C8.75571 5.75 8.41992 5.41421 8.41992 5Z" fill="white"/>
<path d="M20.27 19.79C21.3 19.79 22 19.03 22 17.91V15.7C22 15.13 21.61 14.63 21.05 14.49L17 13.48L15.76 11.95C14.62 10.55 12.9 9.72998 11.09 9.72998H5.86C5.01 9.72998 4.22 10.16 3.76 10.88L2.56 12.74C2.19 13.31 2 13.97 2 14.65V17.92C2 19.06 2.74 19.8 3.8 19.8" stroke="white" stroke-width="1.5" stroke-miterlimit="10"/>
<path d="M17.6299 21.9801C18.8399 21.9801 19.8199 21.0001 19.8199 19.7901C19.8199 18.5801 18.8399 17.6001 17.6299 17.6001C16.4199 17.6001 15.4399 18.5801 15.4399 19.7901C15.4399 21.0001 16.4199 21.9801 17.6299 21.9801Z" stroke="white" stroke-width="1.5" stroke-linejoin="round"/>
<path d="M6.00995 21.9801C7.21995 21.9801 8.19995 21.0001 8.19995 19.7901C8.19995 18.5801 7.21995 17.6001 6.00995 17.6001C4.79995 17.6001 3.81995 18.5801 3.81995 19.7901C3.81995 21.0001 4.79995 21.9801 6.00995 21.9801Z" stroke="white" stroke-width="1.5" stroke-linejoin="round"/>
<path d="M2.47998 13.48H17.01" stroke="white" stroke-width="1.5" stroke-miterlimit="10"/>
<path d="M8.72998 19.79H15.3" stroke="white" stroke-width="1.5" stroke-miterlimit="10"/>
</svg>
