<svg width="24" height="24" viewBox="0 0 24 24" fill="none" xmlns="http://www.w3.org/2000/svg">
<path d="M8.43 13.32H4.57C3.64 13.32 2.73 13.01 2 12.45" stroke="white" stroke-width="1.5" stroke-linecap="round" stroke-linejoin="round"/>
<path d="M11.3098 8.11997C12.5098 7.20997 13.9798 6.64997 15.6098 6.61997C19.6798 6.51997 23.0498 9.69997 23.1498 13.73C23.2498 17.76 20.0398 21.1 15.9698 21.2C11.8998 21.3 8.5298 18.12 8.4298 14.09C8.4098 13.08 8.5798 12.12 8.9398 11.24" stroke="white" stroke-width="1.5" stroke-linecap="round" stroke-linejoin="round"/>
<path d="M2 3H9.83C10.75 3 11.63 3.36 12.28 4L14.94 6.61" stroke="white" stroke-width="1.5" stroke-linecap="round" stroke-linejoin="round"/>
<path d="M9.44016 6.37012L12.3202 9.22012C13.0202 9.91012 13.0202 11.0401 12.3202 11.7301C11.6202 12.4201 10.4802 12.4201 9.78016 11.7301L7.84016 9.81012C7.27016 10.3601 6.49016 10.6901 5.63016 10.6901C4.77016 10.6901 3.98016 10.3501 3.41016 9.79012" stroke="white" stroke-width="1.5" stroke-linecap="round" stroke-linejoin="round"/>
<path d="M17.8199 11.0801L13.6099 16.7401" stroke="white" stroke-width="1.5" stroke-linecap="round" stroke-linejoin="round"/>
<circle cx="13.3599" cy="11.54" r="1.25" fill="white"/>
<circle cx="18.21" cy="16.28" r="1.25" fill="white"/>
</svg>
