<svg width="24" height="24" viewBox="0 0 24 24" fill="none" xmlns="http://www.w3.org/2000/svg">
<path d="M5.29 21.9599C7.11 21.9599 8.58 20.4899 8.58 18.6699C8.58 16.8499 7.11 15.3799 5.29 15.3799C3.47 15.3799 2 16.8499 2 18.6699C2 20.4899 3.47 21.9599 5.29 21.9599Z" stroke="white" stroke-width="1.5" stroke-miterlimit="10"/>
<path d="M18.7199 21.9599C20.5399 21.9599 22.0099 20.4899 22.0099 18.6699C22.0099 16.8499 20.5399 15.3799 18.7199 15.3799C16.8999 15.3799 15.4299 16.8499 15.4299 18.6699C15.4299 20.4899 16.8999 21.9599 18.7199 21.9599Z" stroke="white" stroke-width="1.5" stroke-miterlimit="10"/>
<path d="M18.7199 15.38V12.33L15.9399 9.55005" stroke="white" stroke-width="1.5" stroke-linecap="round" stroke-linejoin="round"/>
<path d="M9.23999 18.6699H13.19C14.02 18.6699 14.8 18.2799 15.3 17.6199L17.33 14.9099" stroke="white" stroke-width="1.5" stroke-linecap="round" stroke-linejoin="round"/>
<path d="M17.82 15.3801L15.57 13.1301C14.66 12.2201 13.25 12.0601 12.17 12.7501C12.17 12.7501 12.16 12.7501 12.15 12.7601L10.58 13.7701C10.2 14.1001 9.66999 14.1901 9.20999 14.0001L3.98999 12.0901" stroke="white" stroke-width="1.5" stroke-linecap="round" stroke-linejoin="round"/>
<path fill-rule="evenodd" clip-rule="evenodd" d="M3 2C3 1.58579 3.33579 1.25 3.75 1.25H7.25006C7.66427 1.25 8.00006 1.58579 8.00006 2C8.00006 2.41421 7.66427 2.75 7.25006 2.75H3.75C3.33579 2.75 3 2.41421 3 2Z" fill="white"/>
<path fill-rule="evenodd" clip-rule="evenodd" d="M5.5 1.25C5.91421 1.25 6.25 1.58579 6.25 2V6.28C6.25 6.69421 5.91421 7.03 5.5 7.03C5.08579 7.03 4.75 6.69421 4.75 6.28V2C4.75 1.58579 5.08579 1.25 5.5 1.25Z" fill="white"/>
<path fill-rule="evenodd" clip-rule="evenodd" d="M20.51 1.25C20.9242 1.25 21.26 1.58579 21.26 2V6.28C21.26 6.69421 20.9242 7.03 20.51 7.03C20.0958 7.03 19.76 6.69421 19.76 6.28V2C19.76 1.58579 20.0958 1.25 20.51 1.25Z" fill="white"/>
<path fill-rule="evenodd" clip-rule="evenodd" d="M8.80791 2.60526C9.35729 1.01297 11.6186 1.04003 12.1297 2.64499L13.2148 6.05233C13.3405 6.44701 13.1225 6.86886 12.7278 6.99455C12.3331 7.12025 11.9113 6.90219 11.7856 6.50751L10.7004 3.10017C10.6274 2.87088 10.3044 2.86703 10.2259 3.09449L9.04244 6.52453C8.90734 6.9161 8.4804 7.124 8.08884 6.9889C7.69728 6.85381 7.48937 6.42686 7.62447 6.0353L8.80791 2.60526Z" fill="white"/>
<path fill-rule="evenodd" clip-rule="evenodd" d="M14.4472 1.45995C14.7731 1.20432 15.2446 1.26129 15.5002 1.58721L18.8102 5.80721C19.0658 6.13313 19.0089 6.60457 18.6829 6.86021C18.357 7.11584 17.8856 7.05887 17.6299 6.73295L14.3199 2.51295C14.0643 2.18704 14.1213 1.71559 14.4472 1.45995Z" fill="white"/>
<path fill-rule="evenodd" clip-rule="evenodd" d="M18.6829 1.45995C19.0089 1.71559 19.0658 2.18704 18.8102 2.51295L15.5002 6.73295C15.2446 7.05887 14.7731 7.11584 14.4472 6.86021C14.1213 6.60457 14.0643 6.13313 14.3199 5.80721L17.6299 1.58721C17.8856 1.26129 18.357 1.20432 18.6829 1.45995Z" fill="white"/>
<path fill-rule="evenodd" clip-rule="evenodd" d="M8.41992 5C8.41992 4.58579 8.75571 4.25 9.16992 4.25H11.9999C12.4141 4.25 12.7499 4.58579 12.7499 5C12.7499 5.41421 12.4141 5.75 11.9999 5.75H9.16992C8.75571 5.75 8.41992 5.41421 8.41992 5Z" fill="white"/>
</svg>
