<svg width="24" height="24" viewBox="0 0 24 24" fill="none" xmlns="http://www.w3.org/2000/svg">
<path d="M8.17 4H3.9C2.85066 4 2 4.85066 2 5.9V17.7C2 18.7493 2.85066 19.6 3.9 19.6H8.17C9.21934 19.6 10.07 18.7493 10.07 17.7V5.9C10.07 4.85066 9.21934 4 8.17 4Z" stroke="white" stroke-width="1.5"/>
<path d="M21.9999 7.36001V5.96001C21.9999 4.88001 21.1599 4.01001 20.1199 4.01001H19.1799" stroke="white" stroke-width="1.5" stroke-linecap="round"/>
<path d="M22 13.26V10.3" stroke="white" stroke-width="1.5" stroke-linecap="round"/>
<path d="M19.1699 19.5999H20.1099C21.1499 19.5999 21.9899 18.7299 21.9899 17.6499V16.1899" stroke="white" stroke-width="1.5" stroke-linecap="round"/>
<path d="M13.9199 16.1899V17.6499C13.9199 18.7299 14.7599 19.5999 15.7999 19.5999H16.8399" stroke="white" stroke-width="1.5" stroke-linecap="round"/>
<path d="M13.9199 10.3V13.26" stroke="white" stroke-width="1.5" stroke-linecap="round"/>
<path d="M16.8199 4H15.7999C14.7599 4 13.9199 4.87 13.9199 5.95V7.35" stroke="white" stroke-width="1.5" stroke-linecap="round"/>
</svg>
