<svg width="24" height="24" viewBox="0 0 24 24" fill="none" xmlns="http://www.w3.org/2000/svg">
<path d="M16.5867 3.74756H21.137" stroke="white" stroke-width="1.5" stroke-linecap="round" stroke-linejoin="round"/>
<path d="M3 3.74756H12.857" stroke="white" stroke-width="1.5" stroke-linecap="round" stroke-linejoin="round"/>
<path d="M16.5547 13.4874V9.99215M16.5547 9.99215V3.74762C16.5547 2.7779 15.7768 2 14.8177 2C13.8587 2 13.0808 2.78856 13.0808 3.74762V9.00112L10.0225 9.48065C8.10434 9.76837 7.14528 9.91755 6.47394 10.3225C5.35504 10.9938 4.54517 12.0062 4.54517 13.4767C4.54517 14.4997 4.80091 15.1924 5.40832 17.0359C5.8026 18.2081 5.99441 18.7942 6.31409 19.263C6.83625 20.0303 7.60349 20.5844 8.49862 20.8402C9.04208 21 9.64948 21 10.8856 21H12.2816C14.0612 21 14.9456 21 15.7022 20.6697C16.0432 20.5205 16.3629 20.318 16.6613 20.0729C17.3006 19.5401 17.6949 18.7409 18.4941 17.1425C19.1335 15.8531 19.4638 15.203 19.4745 14.5317C19.4745 14.2333 19.4425 13.9243 19.3573 13.6366C19.1761 12.9865 18.6966 12.4431 17.7482 11.3561L16.5654 10.0028L16.5547 9.99215Z" stroke="white" stroke-width="1.5" stroke-linecap="round" stroke-linejoin="round"/>
</svg>
