<svg width="24" height="24" viewBox="0 0 24 24" fill="none" xmlns="http://www.w3.org/2000/svg">
<path d="M17.9526 9.18796C17.7046 6.10263 15.15 3.66663 12.0007 3.66663C8.68732 3.66663 6.00065 6.35329 6.00065 9.66663C6.00065 10.1333 6.06598 10.5813 6.16598 11.0173C4.03665 11.1066 2.33398 12.8493 2.33398 15C2.33398 17.2093 4.12465 19 6.33398 19H16.6673C19.4287 19 21.6673 16.7613 21.6673 14C21.6673 11.6853 20.0873 9.75729 17.9526 9.18796Z" stroke="white" stroke-width="1.5" stroke-linecap="round" stroke-linejoin="round"/>
<path d="M12.9414 10.6667C13.8574 9.644 15.1867 9 16.6681 9C17.1121 9 17.5441 9.07867 17.9534 9.188" stroke="white" stroke-width="1.5" stroke-linecap="round" stroke-linejoin="round"/>
</svg>
