<svg width="24" height="24" viewBox="0 0 24 24" fill="none" xmlns="http://www.w3.org/2000/svg">
<path d="M2.5 12C2.5 7.52 2.5 5.28 3.89 3.89C5.28 2.5 7.52 2.5 12 2.5C16.48 2.5 18.72 2.5 20.11 3.89C21.5 5.28 21.5 7.52 21.5 12C21.5 16.48 21.5 18.72 20.11 20.11C18.72 21.5 16.48 21.5 12 21.5C7.52 21.5 5.28 21.5 3.89 20.11C2.5 18.72 2.5 16.48 2.5 12Z" stroke="white" stroke-width="1.5"/>
<path d="M11 7H17" stroke="white" stroke-width="1.5" stroke-linecap="round"/>
<path d="M7 7H8" stroke="white" stroke-width="1.5" stroke-linecap="round"/>
<path d="M7 12H8" stroke="white" stroke-width="1.5" stroke-linecap="round"/>
<path d="M7 17H8" stroke="white" stroke-width="1.5" stroke-linecap="round"/>
<path d="M11 12H17" stroke="white" stroke-width="1.5" stroke-linecap="round"/>
<path d="M11 17H17" stroke="white" stroke-width="1.5" stroke-linecap="round"/>
</svg>
