<svg width="24" height="24" viewBox="0 0 24 24" fill="none" xmlns="http://www.w3.org/2000/svg">
<path d="M5.51001 7.90988H9.93001C10.64 7.90988 11.23 7.31988 11.23 6.59988V2.12988" stroke="white" stroke-width="1.5" stroke-linecap="round" stroke-linejoin="round"/>
<path d="M13.9799 21.05H18.9899C20.4199 21.05 21.5799 19.87 21.5799 18.42V4.68C21.5799 3.23 20.4199 2 18.9899 2H11.7499C11.4099 2 11.0699 2.13 10.8399 2.38L5.76989 7.52C5.51989 7.77 5.38989 8.1 5.38989 8.45V13.44" stroke="white" stroke-width="1.5" stroke-linecap="round" stroke-linejoin="round"/>
<path d="M13.5901 11.53H17.6301" stroke="white" stroke-width="1.5" stroke-linecap="round" stroke-linejoin="round"/>
<path d="M15.6101 7H17.6301" stroke="white" stroke-width="1.5" stroke-linecap="round" stroke-linejoin="round"/>
<path d="M7.53 22.07C10.0318 22.07 12.06 20.0419 12.06 17.54C12.06 15.0382 10.0318 13.01 7.53 13.01C5.02815 13.01 3 15.0382 3 17.54C3 20.0419 5.02815 22.07 7.53 22.07Z" stroke="white" stroke-width="1.5" stroke-linecap="round" stroke-linejoin="round"/>
<path d="M6 17.3863L7 18.5L9 16.5" stroke="white" stroke-width="1.5" stroke-linecap="round" stroke-linejoin="round"/>
</svg>
