<svg width="24" height="24" viewBox="0 0 24 24" fill="none" xmlns="http://www.w3.org/2000/svg">
<path d="M19.23 16.62C20.27 15.12 21 13.32 21 11.19V8.28C21 6.64 21 5.82 20.59 5.29C20.19 4.75 19.28 4.49 17.45 3.97C16.2 3.62 15.1 3.19 14.22 2.8C13.02 2.27 12.42 2 12 2C11.58 2 10.97 2.27 9.78 2.8C8.9 3.19 7.8 3.62 6.55 3.97C4.72 4.49 3.81 4.75 3.4 5.29C3 5.82 3 6.64 3 8.28V11.19C3 13.32 3.73 15.12 4.77 16.62" stroke="white" stroke-width="1.5" stroke-linecap="round"/>
<path d="M5.21997 22.0298C5.48997 21.0598 7.12997 20.2898 7.88997 19.8598C10.4 18.4198 13.59 18.4198 16.11 19.8598C16.87 20.2898 18.51 21.0598 18.78 22.0298" stroke="white" stroke-width="1.5" stroke-linecap="round" stroke-linejoin="round"/>
<path d="M15.17 12.0898C15.25 12.3698 15.29 12.6698 15.29 12.9698C15.29 14.8498 13.76 16.3798 11.88 16.3798C9.99997 16.3798 8.46997 14.8498 8.46997 12.9698C8.46997 12.6698 8.50997 12.3998 8.57997 12.1198" stroke="white" stroke-width="1.5"/>
<path d="M7.61997 8.62989C7.37997 9.67989 8.46997 10.2099 8.46997 10.2099H15.53C15.53 10.2099 16.62 9.67989 16.38 8.62989C16.23 7.96989 14.53 7.08989 13.29 6.53989C12.69 6.26989 12.39 6.13989 12 6.13989C11.61 6.13989 11.31 6.26989 10.71 6.53989C9.46997 7.08989 7.77997 7.96989 7.61997 8.62989Z" stroke="white" stroke-width="1.5" stroke-linecap="round" stroke-linejoin="round"/>
<path d="M8.37 10.21C7.72 10.7 7.52 11.9 8.88 12.2C9.79 12.4 10.8 12.61 11.37 12.73C11.6 12.78 11.72 12.8 11.84 12.8C11.96 12.8 12.08 12.78 12.31 12.73C12.88 12.61 13.89 12.4 14.8 12.2C16.17 11.9 15.96 10.7 15.31 10.21" stroke="white" stroke-width="1.5" stroke-linecap="round" stroke-linejoin="round"/>
</svg>
