<svg width="24" height="24" viewBox="0 0 24 24" fill="none" xmlns="http://www.w3.org/2000/svg">
<path d="M3.12252 8.20683H7.76012C8.51084 8.20683 9.12012 7.5889 9.12012 6.82752V2.14062" stroke="white" stroke-width="1.5" stroke-linecap="round" stroke-linejoin="round"/>
<path d="M20 11V5.00011C20 3.34321 18.6568 2.00005 16.9999 2.00007C14.5609 2.00009 12.122 2.00005 9.68304 2.00005C9.32264 2.00005 8.97584 2.14487 8.72152 2.40418L3.39848 7.8028C3.1428 8.06211 3 8.41246 3 8.77798V19.2414C3 20.7656 4.2172 22 5.72 22H10" stroke="white" stroke-width="1.5" stroke-linecap="round" stroke-linejoin="round"/>
<path d="M19.8772 14.4829L20.5647 15.167C21.1465 15.7458 21.1465 16.6842 20.5647 17.263L16.9625 20.9145C16.6791 21.1964 16.3166 21.3865 15.9227 21.4597L13.6901 21.9419C13.3376 22.018 13.0237 21.7066 13.0992 21.3557L13.5744 19.1471C13.648 18.7551 13.839 18.3945 14.1224 18.1126L17.7705 14.4829C18.3523 13.9041 19.2954 13.9041 19.8772 14.4829Z" stroke="white" stroke-width="1.5" stroke-linecap="round" stroke-linejoin="round"/>
</svg>
