<svg width="24" height="24" viewBox="0 0 24 24" fill="none" xmlns="http://www.w3.org/2000/svg">
<path d="M6.28001 7.27002H10.63H14.56V9.78002H17.21V11.33H19.23V9.71002H20.73L21.98 12.09V16.87L20.95 19.02H19.35V17.35H17.29V20.15H10.63L7.18001 17.26H4.51001V13.12V8.56002H6.28001V7.27002Z" stroke="white" stroke-width="1.5" stroke-linecap="round" stroke-linejoin="round"/>
<path d="M10.61 4.18994L10.63 7.26994" stroke="white" stroke-width="1.5" stroke-linecap="round" stroke-linejoin="round"/>
<path d="M6.60999 4H14.75" stroke="white" stroke-width="1.5" stroke-linecap="round" stroke-linejoin="round"/>
<path d="M2 13H4.51" stroke="white" stroke-width="1.5" stroke-linecap="round" stroke-linejoin="round"/>
<path d="M2 8.55005V17" stroke="white" stroke-width="1.5" stroke-linecap="round" stroke-linejoin="round"/>
<path d="M7.55998 13.4099C7.91344 13.4099 8.19998 13.1233 8.19998 12.7699C8.19998 12.4164 7.91344 12.1299 7.55998 12.1299C7.20652 12.1299 6.91998 12.4164 6.91998 12.7699C6.91998 13.1233 7.20652 13.4099 7.55998 13.4099Z" fill="white"/>
<path d="M10.68 13.4099C11.0334 13.4099 11.32 13.1233 11.32 12.7699C11.32 12.4164 11.0334 12.1299 10.68 12.1299C10.3265 12.1299 10.04 12.4164 10.04 12.7699C10.04 13.1233 10.3265 13.4099 10.68 13.4099Z" fill="white"/>
<path d="M13.8 13.4099C14.1534 13.4099 14.44 13.1233 14.44 12.7699C14.44 12.4164 14.1534 12.1299 13.8 12.1299C13.4465 12.1299 13.16 12.4164 13.16 12.7699C13.16 13.1233 13.4465 13.4099 13.8 13.4099Z" fill="white"/>
</svg>
