<svg width="24" height="24" viewBox="0 0 24 24" fill="none" xmlns="http://www.w3.org/2000/svg">
<path d="M2.46997 13.29H17" stroke="white" stroke-width="1.5" stroke-miterlimit="10" stroke-linecap="round"/>
<path d="M4.44 9.87988C4.31 10.0099 3.86 10.5199 3.76 10.6799L2.56 12.5399C2.19 13.1099 2 13.7699 2 14.4499V17.7199C2 18.8599 2.74 19.5899 3.8 19.5899" stroke="white" stroke-width="1.5" stroke-miterlimit="10" stroke-linecap="round"/>
<path d="M20.27 19.59C21.3 19.59 22 18.83 22 17.72V15.51C22 14.94 21.61 14.44 21.05 14.3L17 13.29L15.76 11.76C15.27 11.16 14.31 10.22 13.68 9.76001" stroke="white" stroke-width="1.5" stroke-miterlimit="10" stroke-linecap="round"/>
<path d="M17.63 21.7799C18.84 21.7799 19.82 20.7999 19.82 19.5899C19.82 18.3799 18.84 17.3999 17.63 17.3999C16.42 17.3999 15.44 18.3799 15.44 19.5899C15.44 20.7999 16.42 21.7799 17.63 21.7799Z" stroke="white" stroke-width="1.5" stroke-linecap="round" stroke-linejoin="round"/>
<path d="M6.01001 21.7799C7.22001 21.7799 8.20001 20.7999 8.20001 19.5899C8.20001 18.3799 7.22001 17.3999 6.01001 17.3999C4.80001 17.3999 3.82001 18.3799 3.82001 19.5899C3.82001 20.7999 4.80001 21.7799 6.01001 21.7799Z" stroke="white" stroke-width="1.5" stroke-linecap="round" stroke-linejoin="round"/>
<path d="M8.71997 19.5901H15.28" stroke="white" stroke-width="1.5" stroke-miterlimit="10" stroke-linecap="round"/>
<path d="M3.4 6.75C2.79 7.15 2.58 7.25 2 7.64" stroke="white" stroke-width="1.5" stroke-miterlimit="10" stroke-linecap="round"/>
<path d="M18.48 9.96002C17.43 8.64002 16.1 7.55002 14.59 6.77002" stroke="white" stroke-width="1.5" stroke-miterlimit="10" stroke-linecap="round"/>
<path d="M12.18 6.19V3.91C10.36 3.91 8.98999 3 8.98999 3C8.98999 3 7.61999 3.91 5.79999 3.91V6.19C5.79999 9.38 8.98999 10.29 8.98999 10.29C8.98999 10.29 12.18 9.38 12.18 6.19Z" stroke="white" stroke-width="1.5" stroke-linecap="round" stroke-linejoin="round"/>
</svg>
