<svg width="24" height="24" viewBox="0 0 24 24" fill="none" xmlns="http://www.w3.org/2000/svg">
<path d="M5.29 21.9799C7.11 21.9799 8.58 20.5099 8.58 18.6899C8.58 16.8699 7.11 15.3999 5.29 15.3999C3.47 15.3999 2 16.8699 2 18.6899C2 20.5099 3.47 21.9799 5.29 21.9799Z" stroke="white" stroke-width="1.5" stroke-miterlimit="10"/>
<path d="M18.71 21.9799C20.53 21.9799 22 20.5099 22 18.6899C22 16.8699 20.53 15.3999 18.71 15.3999C16.89 15.3999 15.42 16.8699 15.42 18.6899C15.42 20.5099 16.89 21.9799 18.71 21.9799Z" stroke="white" stroke-width="1.5" stroke-miterlimit="10"/>
<path d="M18.7101 15.4001V12.3501L15.9301 9.57007" stroke="white" stroke-width="1.5" stroke-linecap="round" stroke-linejoin="round"/>
<path d="M9.23999 18.6899H13.19C14.02 18.6899 14.8 18.2999 15.3 17.6399L17.33 14.9299" stroke="white" stroke-width="1.5" stroke-linecap="round" stroke-linejoin="round"/>
<path d="M17.81 15.4001L15.56 13.1501C14.65 12.2401 13.24 12.0801 12.16 12.7701C12.16 12.7701 12.15 12.7701 12.14 12.7801L10.57 13.7901C10.19 14.1201 9.65998 14.2101 9.19998 14.0201L3.97998 12.1101" stroke="white" stroke-width="1.5" stroke-linecap="round" stroke-linejoin="round"/>
<path d="M14.64 5.58V3.02C12.6 3.02 11.06 2 11.06 2C11.06 2 9.51998 3.02 7.47998 3.02V5.58C7.47998 9.16 11.06 10.18 11.06 10.18C11.06 10.18 14.64 9.16 14.64 5.58Z" stroke="white" stroke-width="1.5" stroke-linecap="round" stroke-linejoin="round"/>
<path d="M5.22007 6.79004C4.61007 7.19004 4.40007 7.29004 3.82007 7.68004" stroke="white" stroke-width="1.5" stroke-miterlimit="10" stroke-linecap="round"/>
<path d="M20.86 9.89996C19.81 8.57996 18.48 7.48996 16.97 6.70996" stroke="white" stroke-width="1.5" stroke-miterlimit="10" stroke-linecap="round"/>
</svg>
