<svg width="24" height="24" viewBox="0 0 24 24" fill="none" xmlns="http://www.w3.org/2000/svg">
<path d="M12.0001 8.3335V11.6668C12.0001 12.4028 11.4027 13.0002 10.6667 13.0002" stroke="white" stroke-width="1.5" stroke-linecap="round" stroke-linejoin="round"/>
<path d="M7.66675 8.3335V10.0002" stroke="white" stroke-width="1.5" stroke-linecap="round" stroke-linejoin="round"/>
<path d="M16.3335 8.3335V10.0002" stroke="white" stroke-width="1.5" stroke-linecap="round" stroke-linejoin="round"/>
<path d="M15 16C14.164 16.628 13.1253 17 12 17C10.8747 17 9.83467 16.628 9 16" stroke="white" stroke-width="1.5" stroke-linecap="round" stroke-linejoin="round"/>
<path d="M3.66675 9.00008V6.33342C3.66675 4.86008 4.86008 3.66675 6.33342 3.66675H9.00008" stroke="white" stroke-width="1.5" stroke-linecap="round" stroke-linejoin="round"/>
<path d="M15 3.66675H17.6667C19.14 3.66675 20.3333 4.86008 20.3333 6.33342V9.00008" stroke="white" stroke-width="1.5" stroke-linecap="round" stroke-linejoin="round"/>
<path d="M20.3333 15V17.6667C20.3333 19.14 19.14 20.3333 17.6667 20.3333H15" stroke="white" stroke-width="1.5" stroke-linecap="round" stroke-linejoin="round"/>
<path d="M9.00008 20.3333H6.33342C4.86008 20.3333 3.66675 19.14 3.66675 17.6667V15" stroke="white" stroke-width="1.5" stroke-linecap="round" stroke-linejoin="round"/>
</svg>
