<svg width="24" height="24" viewBox="0 0 24 24" fill="none" xmlns="http://www.w3.org/2000/svg">
<path d="M3 21V5.5C3 4.39543 3.89543 3.5 5 3.5H6.35895C7.46352 3.5 8.35895 4.39543 8.35895 5.5V21" stroke="white" stroke-width="1.5" stroke-linecap="round" stroke-linejoin="round"/>
<path d="M3 21H21.5127" stroke="white" stroke-width="1.5" stroke-linecap="round" stroke-linejoin="round"/>
<path d="M8.35889 13L20.0052 8.73112C21.1072 8.32721 21.6736 7.10697 21.2708 6.00463C20.8667 4.89867 19.6408 4.3316 18.5363 4.73968L8.35889 8.5" stroke="white" stroke-width="1.5" stroke-linecap="round" stroke-linejoin="round"/>
<path d="M11.282 12C11.7691 11 11.282 8.5 10.3076 8" stroke="white" stroke-width="1.5" stroke-linejoin="round"/>
<path d="M14.6921 10.5C15.1793 9.5 14.6921 7 13.7178 6.5" stroke="white" stroke-width="1.5" stroke-linejoin="round"/>
<path d="M18.1023 9.5C18.5895 8.5 18.1023 6 17.1279 5.5" stroke="white" stroke-width="1.5" stroke-linejoin="round"/>
</svg>
