<svg width="24" height="24" viewBox="0 0 24 24" fill="none" xmlns="http://www.w3.org/2000/svg">
<path d="M6.77051 4.61608C8.17317 3.40141 10.0025 2.66675 11.9998 2.66675C16.4118 2.66675 19.9998 6.25475 19.9998 10.6667C19.9998 13.7427 19.5158 16.4974 18.6825 18.9507" stroke="white" stroke-width="1.5" stroke-linecap="round" stroke-linejoin="round"/>
<path d="M2.54395 15.6042C3.93061 13.3482 3.99995 11.0935 3.99995 10.6668C3.99995 9.45083 4.27195 8.29749 4.75995 7.26416" stroke="white" stroke-width="1.5" stroke-linecap="round" stroke-linejoin="round"/>
<path d="M15.8267 13.5227C15.456 16.5014 14.516 19.0694 13.2253 21.264" stroke="white" stroke-width="1.5" stroke-linecap="round" stroke-linejoin="round"/>
<path d="M5.1626 18.8534C6.7946 16.8814 7.99993 14.2214 7.99993 10.6667C7.99993 8.45741 9.7906 6.66675 11.9999 6.66675C14.0319 6.66675 15.7106 8.18275 15.9666 10.1441" stroke="white" stroke-width="1.5" stroke-linecap="round" stroke-linejoin="round"/>
<path d="M8.73462 20.8241C10.6333 18.3254 12 15.0161 12 10.6667" stroke="white" stroke-width="1.5" stroke-linecap="round" stroke-linejoin="round"/>
</svg>
