<svg width="24" height="24" viewBox="0 0 24 24" fill="none" xmlns="http://www.w3.org/2000/svg">
<path d="M4.11 9.68994C3.98 9.81994 3.86 9.95994 3.76 10.1199L2.56 11.9799C2.19 12.5499 2 13.2099 2 13.8899V17.1599C2 18.2999 2.74 19.0299 3.8 19.0299" stroke="white" stroke-width="1.5" stroke-miterlimit="10" stroke-linecap="round"/>
<path d="M20.27 19.02C21.3 19.02 22 18.26 22 17.15V14.94C22 14.37 21.61 13.87 21.05 13.73L17 12.72L15.76 11.19C15.27 10.59 14.67 10.09 14.01 9.72998" stroke="white" stroke-width="1.5" stroke-miterlimit="10" stroke-linecap="round"/>
<path d="M17.62 21.2098C18.83 21.2098 19.81 20.2298 19.81 19.0198C19.81 17.8098 18.83 16.8298 17.62 16.8298C16.41 16.8298 15.43 17.8098 15.43 19.0198C15.43 20.2298 16.41 21.2098 17.62 21.2098Z" stroke="white" stroke-width="1.5" stroke-linecap="round" stroke-linejoin="round"/>
<path d="M6 21.2098C7.21 21.2098 8.19 20.2298 8.19 19.0198C8.19 17.8098 7.21 16.8298 6 16.8298C4.79 16.8298 3.81 17.8098 3.81 19.0198C3.81 20.2298 4.79 21.2098 6 21.2098Z" stroke="white" stroke-width="1.5" stroke-linecap="round" stroke-linejoin="round"/>
<path d="M2.47 12.72H17" stroke="white" stroke-width="1.5" stroke-miterlimit="10" stroke-linecap="round"/>
<path d="M8.72 19.02H15.28" stroke="white" stroke-width="1.5" stroke-miterlimit="10" stroke-linecap="round"/>
<path d="M12.21 4.64C13.3 6.77 12.42 9.63 9.92999 10.05C6.66999 10.77 4.48999 6.75 6.93999 4.38C7.06999 4.25 7.42999 3.91 7.57999 3.8C7.57999 4.13 8.10999 5.36 8.59999 5.36C9.96999 5.36 9.69999 3.35 9.51999 2C10.66 2.6 11.63 3.45 12.2 4.64H12.21Z" stroke="white" stroke-width="1.5" stroke-linejoin="round"/>
</svg>
