<svg width="24" height="24" viewBox="0 0 24 24" fill="none" xmlns="http://www.w3.org/2000/svg">
<path d="M15.666 20.9527C19.376 20.2257 20.285 18.9855 17.9694 17.7922C16.1761 16.9915 13.524 16.6506 10.7837 16.7552C8.4839 16.8431 5.73563 17.2221 4.70253 18.3172C4.55018 18.4662 4.44237 18.781 4.53342 19.0462C4.77799 19.7586 5.5189 20.1552 7.36838 20.6636C9.32013 21.1309 10.894 21.2006 12.3324 21.1922M12.3324 21.1922H12.3369C12.3395 21.1922 12.3408 21.1904 12.3388 21.1894L12.334 21.19L12.3324 21.1922ZM12.3324 21.1922L11.187 20.377M12.3324 21.1922L11.1053 22" stroke="white" stroke-width="1.3796" stroke-linecap="round" stroke-linejoin="round"/>
<path d="M13.6 2H10.4C7.38301 2 5.87452 2 4.93726 2.82699C4 3.65399 4 4.98501 4 7.64706V8.35294C4 11.015 4 12.346 4.93726 13.173C5.87452 14 7.38301 14 10.4 14H13.6C16.617 14 18.1255 14 19.0627 13.173C20 12.346 20 11.015 20 8.35294V7.64706C20 4.98501 20 3.65399 19.0627 2.82699C18.1255 2 16.617 2 13.6 2Z" stroke="white" stroke-width="1.5" stroke-linejoin="round"/>
<path d="M11.8159 6.21045H16.0264" stroke="white" stroke-width="1.4583" stroke-linecap="round" stroke-linejoin="round"/>
<path d="M11.8159 9.36841H13.9212" stroke="white" stroke-width="1.4583" stroke-linecap="round" stroke-linejoin="round"/>
</svg>
