<svg width="24" height="24" viewBox="0 0 24 24" fill="none" xmlns="http://www.w3.org/2000/svg">
<path d="M3 10.3334V6.33341C3 4.86008 4.19333 3.66675 5.66667 3.66675H8.268C9.07733 3.66675 9.84133 4.03341 10.348 4.66408L11.152 5.66675H18.3333C19.8067 5.66675 21 6.86008 21 8.33341V10.3334" stroke="white" stroke-width="1.5" stroke-linecap="round" stroke-linejoin="round"/>
<path d="M3.60257 10.3335H20.3972C21.7119 10.3335 22.6679 11.5788 22.3292 12.8482L20.8612 18.3535C20.5506 19.5215 19.4932 20.3335 18.2852 20.3335H5.71591C4.50791 20.3335 3.45057 19.5215 3.13991 18.3535L1.67191 12.8482C1.33324 11.5788 2.29057 10.3335 3.60391 10.3335H3.60257Z" stroke="white" stroke-width="1.5" stroke-linecap="round" stroke-linejoin="round"/>
</svg>
