<svg width="24" height="24" viewBox="0 0 24 24" fill="none" xmlns="http://www.w3.org/2000/svg">
<path d="M12 7V21.6667" stroke="white" stroke-width="1.5" stroke-linecap="round" stroke-linejoin="round"/>
<path d="M5 4.66659C5 3.37859 6.04533 2.33325 7.33333 2.33325C10.7853 2.33325 12 6.99992 12 6.99992H7.33333C6.04533 6.99992 5 5.95459 5 4.66659Z" stroke="white" stroke-width="1.5" stroke-linecap="round" stroke-linejoin="round"/>
<path d="M16.6667 6.99992H12C12 6.99992 13.2147 2.33325 16.6667 2.33325C17.9547 2.33325 19 3.37859 19 4.66659C19 5.95459 17.9547 6.99992 16.6667 6.99992Z" stroke="white" stroke-width="1.5" stroke-linecap="round" stroke-linejoin="round"/>
<path d="M19 11V19C19 20.4733 17.8067 21.6667 16.3333 21.6667H7.66667C6.19333 21.6667 5 20.4733 5 19V11" stroke="white" stroke-width="1.5" stroke-linecap="round" stroke-linejoin="round"/>
<path d="M20.3333 7H3.66659C2.93021 7 2.33325 7.59695 2.33325 8.33333V9.66667C2.33325 10.403 2.93021 11 3.66659 11H20.3333C21.0696 11 21.6666 10.403 21.6666 9.66667V8.33333C21.6666 7.59695 21.0696 7 20.3333 7Z" stroke="white" stroke-width="1.5" stroke-linecap="round" stroke-linejoin="round"/>
</svg>
