<svg width="19" height="8" viewBox="0 0 19 8" fill="none" xmlns="http://www.w3.org/2000/svg">
<path d="M3.82004 7.33997C3.26004 7.33997 2.74671 7.24664 2.28004 7.05997C1.81337 6.8733 1.41004 6.61664 1.07004 6.28997C0.730039 5.95664 0.466706 5.56664 0.280039 5.11997C0.0933724 4.6733 3.91006e-05 4.18997 3.91006e-05 3.66997C3.91006e-05 3.15664 0.0933724 2.67664 0.280039 2.22997C0.466706 1.7833 0.723372 1.39664 1.05004 1.06997C1.38337 0.736637 1.77671 0.476637 2.23004 0.289971C2.68337 0.0966369 3.17337 -2.99215e-05 3.70004 -2.99215e-05C4.26004 -2.99215e-05 4.76004 0.0866368 5.20004 0.25997C5.64671 0.426637 6.03671 0.669971 6.37004 0.98997L5.75004 1.65997C5.49671 1.42664 5.20337 1.23997 4.87004 1.09997C4.53671 0.953304 4.14671 0.879971 3.70004 0.879971C3.30004 0.879971 2.93004 0.953304 2.59004 1.09997C2.25004 1.23997 1.95671 1.43664 1.71004 1.68997C1.46337 1.9433 1.27004 2.23997 1.13004 2.57997C0.996706 2.91997 0.930039 3.2833 0.930039 3.66997C0.930039 4.0633 0.996706 4.42997 1.13004 4.76997C1.27004 5.10997 1.46337 5.40664 1.71004 5.65997C1.96337 5.90664 2.26671 6.1033 2.62004 6.24997C2.98004 6.38997 3.38004 6.45997 3.82004 6.45997C4.16671 6.45997 4.51004 6.41997 4.85004 6.33997C5.19004 6.2533 5.47671 6.11664 5.71004 5.92997V4.02997H3.70004V3.15997H6.61004V6.33997C6.28337 6.67997 5.87004 6.9333 5.37004 7.09997C4.87004 7.25997 4.35337 7.33997 3.82004 7.33997ZM12.7365 2.37997C12.7365 2.69997 12.6765 2.99664 12.5565 3.26997C12.4432 3.5433 12.2799 3.7833 12.0665 3.98997C11.8599 4.18997 11.6032 4.34664 11.2965 4.45997C10.9965 4.5733 10.6632 4.62997 10.2965 4.62997H9.05652V7.21997H8.12652V0.11997H10.2965C10.6632 0.11997 10.9965 0.17997 11.2965 0.29997C11.6032 0.413304 11.8599 0.56997 12.0665 0.76997C12.2799 0.969971 12.4432 1.20997 12.5565 1.48997C12.6765 1.7633 12.7365 2.05997 12.7365 2.37997ZM11.8165 2.37997C11.8165 2.17997 11.7832 1.99664 11.7165 1.82997C11.6499 1.6633 11.5499 1.51664 11.4165 1.38997C11.2899 1.2633 11.1332 1.16664 10.9465 1.09997C10.7599 1.02664 10.5432 0.98997 10.2965 0.98997H9.05652V3.76997H10.2965C10.5432 3.76997 10.7599 3.73664 10.9465 3.66997C11.1332 3.59664 11.2899 3.49664 11.4165 3.36997C11.5499 3.2433 11.6499 3.09664 11.7165 2.92997C11.7832 2.7633 11.8165 2.57997 11.8165 2.37997ZM15.8959 7.33997C15.6026 7.33997 15.3259 7.30664 15.0659 7.23997C14.8059 7.17997 14.5659 7.0933 14.3459 6.97997C14.1326 6.85997 13.9459 6.7233 13.7859 6.56997C13.6259 6.40997 13.4992 6.23997 13.4059 6.05997L14.1559 5.49997C14.3492 5.79997 14.5892 6.03664 14.8759 6.20997C15.1692 6.3833 15.5159 6.46997 15.9159 6.46997C16.2826 6.46997 16.5926 6.37664 16.8459 6.18997C17.0992 6.0033 17.2259 5.7433 17.2259 5.40997C17.2259 5.1233 17.1392 4.8833 16.9659 4.68997C16.7926 4.49664 16.5392 4.33664 16.2059 4.20997L15.2659 3.84997C14.7059 3.6433 14.2959 3.38664 14.0359 3.07997C13.7826 2.7733 13.6559 2.37664 13.6559 1.88997C13.6559 1.6033 13.7126 1.3433 13.8259 1.10997C13.9392 0.876637 14.0926 0.676637 14.2859 0.509971C14.4859 0.343304 14.7192 0.216637 14.9859 0.12997C15.2592 0.0433034 15.5559 -2.99215e-05 15.8759 -2.99215e-05C16.3226 -2.99215e-05 16.7226 0.0899701 17.0759 0.26997C17.4359 0.44997 17.7259 0.683304 17.9459 0.969971L17.2659 1.56997C17.0859 1.35664 16.8826 1.18664 16.6559 1.05997C16.4292 0.933304 16.1626 0.86997 15.8559 0.86997C15.6826 0.86997 15.5159 0.893304 15.3559 0.93997C15.2026 0.986637 15.0659 1.0533 14.9459 1.13997C14.8326 1.22664 14.7426 1.32997 14.6759 1.44997C14.6092 1.56997 14.5759 1.7033 14.5759 1.84997C14.5759 2.14997 14.6626 2.3833 14.8359 2.54997C15.0159 2.70997 15.2859 2.85664 15.6459 2.98997L16.5059 3.31997C17.0326 3.51997 17.4392 3.77997 17.7259 4.09997C18.0126 4.41997 18.1559 4.8433 18.1559 5.36997C18.1559 5.66997 18.0992 5.9433 17.9859 6.18997C17.8726 6.42997 17.7159 6.63664 17.5159 6.80997C17.3159 6.97664 17.0759 7.10664 16.7959 7.19997C16.5226 7.2933 16.2226 7.33997 15.8959 7.33997Z" fill="black"/>
</svg>
