<svg width="24" height="24" viewBox="0 0 24 24" fill="none" xmlns="http://www.w3.org/2000/svg">
<g clip-path="url(#clip0_43_7797)">
<path d="M12 0.75C12.4142 0.75 12.75 1.08579 12.75 1.5V2.78125C17.2667 3.13706 20.8681 6.73512 21.2305 11.25H22.5C22.9142 11.25 23.25 11.5858 23.25 12C23.25 12.4142 22.9142 12.75 22.5 12.75H21.2305C20.8681 17.2648 17.2667 20.8619 12.75 21.2178V22.5C12.75 22.9142 12.4142 23.25 12 23.25C11.5858 23.25 11.25 22.9142 11.25 22.5V21.2158C6.74609 20.8476 3.15854 17.2557 2.79688 12.75H1.5C1.08579 12.75 0.75 12.4142 0.75 12C0.75 11.5858 1.08579 11.25 1.5 11.25H2.79688C3.15854 6.74424 6.74606 3.15137 11.25 2.7832V1.5C11.25 1.08579 11.5858 0.75 12 0.75ZM12.0137 4.25C7.73345 4.25002 4.26367 7.71981 4.26367 12C4.26367 16.2802 7.73345 19.75 12.0137 19.75C16.2537 19.75 19.6955 16.3449 19.7598 12.1201C19.7535 12.081 19.75 12.0409 19.75 12C19.75 11.9588 19.7534 11.9183 19.7598 11.8789C19.695 7.65456 16.2534 4.25 12.0137 4.25ZM12 8.25C14.071 8.25002 15.75 9.92889 15.75 12C15.75 14.0711 14.071 15.75 12 15.75C9.92893 15.75 8.25 14.0711 8.25 12C8.25 9.92889 9.92893 8.25003 12 8.25ZM12 9.75C10.7573 9.75003 9.75 10.7573 9.75 12C9.75 13.2427 10.7573 14.25 12 14.25C13.2426 14.25 14.25 13.2427 14.25 12C14.25 10.7573 13.2426 9.75002 12 9.75Z" fill="white"/>
</g>
<defs>
<clipPath id="clip0_43_7797">
<rect width="24" height="24" fill="white"/>
</clipPath>
</defs>
</svg>
