<svg width="24" height="24" viewBox="0 0 24 24" fill="none" xmlns="http://www.w3.org/2000/svg">
<path d="M8.37952 10.1707H9.17751V12.2328H10.0308V10.1707H10.8288V15.2391H10.0308V12.9597H9.17751V15.2391H8.37952V10.1707Z" fill="white"/>
<path d="M11.7886 14.038V13.7496H12.5431V14.0972C12.5431 14.4607 12.7011 14.591 12.9539 14.591C13.2068 14.591 13.3648 14.4607 13.3648 14.0854C13.3648 13.6666 13.2068 13.398 12.6853 12.9397C12.0177 12.3511 11.8004 11.9403 11.8004 11.3596C11.8004 10.5616 12.2113 10.0994 12.9895 10.0994C13.7677 10.0994 14.147 10.5616 14.147 11.3754V11.5847H13.3924V11.324C13.3924 10.9606 13.2463 10.8223 12.9934 10.8223C12.7406 10.8223 12.5944 10.9606 12.5944 11.3082C12.5944 11.6756 12.7604 11.9442 13.2818 12.4025C13.9494 12.9871 14.1588 13.394 14.1588 14.0261C14.1588 14.8517 13.7401 15.3139 12.9579 15.3139C12.1757 15.3139 11.7846 14.8517 11.7846 14.038H11.7886Z" fill="white"/>
<path d="M15.1267 10.1707H16.3079C17.1335 10.1707 17.4891 10.5539 17.4891 11.3361V11.6482C17.4891 12.1696 17.3232 12.5015 16.9676 12.6476V12.6634C17.3666 12.7859 17.497 13.1612 17.497 13.734V14.6228C17.497 14.8678 17.5049 15.0495 17.5839 15.2391H16.774C16.7306 15.1087 16.7029 15.0297 16.7029 14.6149V13.6866C16.7029 13.2165 16.5647 13.0624 16.2052 13.0624H15.9286V15.2352H15.1307V10.1667L15.1267 10.1707ZM16.2131 12.3434C16.5094 12.3434 16.6911 12.2131 16.6911 11.8062V11.4151C16.6911 11.0516 16.5686 10.8936 16.2842 10.8936H15.9207V12.3434H16.2091H16.2131Z" fill="white"/>
<path d="M18.5519 10.1707H19.7252C20.5231 10.1707 20.9142 10.6131 20.9142 11.4229V11.9246C20.9142 12.7345 20.5231 13.1769 19.7252 13.1769H19.3499V15.2391H18.5519V10.1707ZM19.7252 12.4501C19.978 12.4501 20.1163 12.3355 20.1163 11.9721V11.3716C20.1163 11.0081 19.978 10.8936 19.7252 10.8936H19.3499V12.4501H19.7252Z" fill="white"/>
<path d="M20.5547 4H3.44532C2.09481 4 1 5.09481 1 6.44532V18.0359C1 19.3864 2.09481 20.4812 3.44532 20.4812H20.5547C21.9052 20.4812 23 19.3864 23 18.0359V6.44532C23 5.09481 21.9052 4 20.5547 4Z" stroke="white" stroke-width="1.5" stroke-linecap="round" stroke-linejoin="round"/>
<path d="M5.89465 20.3943V4" stroke="white" stroke-width="1.18513" stroke-linejoin="round"/>
<path d="M3.85223 11.1462H2.95548C2.64348 11.1462 2.39056 11.3992 2.39056 11.7112V12.6079C2.39056 12.9199 2.64348 13.1728 2.95548 13.1728H3.85223C4.16422 13.1728 4.41714 12.9199 4.41714 12.6079V11.7112C4.41714 11.3992 4.16422 11.1462 3.85223 11.1462Z" fill="white"/>
<path d="M2.95941 13.9275H3.85221" stroke="white" stroke-width="0.592566" stroke-linecap="round" stroke-linejoin="round"/>
<path d="M8.56909 6.44531H9.05895" stroke="white" stroke-width="1.18513" stroke-linecap="round" stroke-linejoin="round"/>
<path d="M14.9411 6.44531H15.431" stroke="white" stroke-width="1.18513" stroke-linecap="round" stroke-linejoin="round"/>
</svg>
