<svg width="24" height="24" viewBox="0 0 24 24" fill="none" xmlns="http://www.w3.org/2000/svg">
<path d="M11.44 21.9999C13.26 21.9999 14.73 20.5299 14.73 18.7099C14.73 16.8899 13.26 15.4199 11.44 15.4199C9.62002 15.4199 8.15002 16.8899 8.15002 18.7099C8.15002 20.5299 9.62002 21.9999 11.44 21.9999Z" stroke="white" stroke-width="1.5" stroke-miterlimit="10"/>
<path d="M11.4401 15.42V12.37L8.56006 9.48999" stroke="white" stroke-width="1.5" stroke-linecap="round" stroke-linejoin="round"/>
<path d="M2 18.71H5.92C6.75 18.71 7.53 18.32 8.03 17.66L10.06 14.95" stroke="white" stroke-width="1.5" stroke-linecap="round" stroke-linejoin="round"/>
<path d="M2.01001 14.0701C2.45001 14.2201 2.94001 14.1201 3.30001 13.8101L4.87001 12.8001L4.89001 12.7901C5.97001 12.1001 7.38001 12.2601 8.29001 13.1701L10.06 14.9501L10.54 15.4201" stroke="white" stroke-width="1.5" stroke-linecap="round" stroke-linejoin="round"/>
<path d="M14.9499 9.30006C15.2299 8.99006 15.2099 8.52006 14.9099 8.25006C14.6099 7.98006 14.1399 8.00006 13.8599 8.31006C13.5799 8.62006 13.5999 9.09006 13.8999 9.36006C14.1999 9.63006 14.6699 9.61006 14.9499 9.30006Z" fill="white"/>
<path d="M13.7101 7.06995C14.2801 6.44995 14.2401 5.48995 13.6301 4.92995C13.0201 4.36995 12.0601 4.40995 11.4901 5.02995C10.9201 5.64995 10.9601 6.60995 11.5701 7.16995C12.1801 7.72995 13.1401 7.68995 13.7101 7.06995Z" fill="white"/>
<path d="M21.9901 7.15V17.58H16.8401V7.15C16.8401 6.56 17.1101 6 17.5801 5.64L18.5001 4.94V2H20.3301V4.94L21.2501 5.64C21.7201 6 21.9901 6.56 21.9901 7.15Z" stroke="white" stroke-width="1.5" stroke-linecap="round" stroke-linejoin="round"/>
<path d="M18.96 10.5701V13.2601" stroke="white" stroke-width="1.5" stroke-linecap="round" stroke-linejoin="round"/>
</svg>
