<svg width="24" height="24" viewBox="0 0 24 24" fill="none" xmlns="http://www.w3.org/2000/svg">
<path d="M14.9499 9.30006C15.2299 8.99006 15.2099 8.52006 14.9099 8.25006C14.6099 7.98006 14.1399 8.00006 13.8599 8.31006C13.5799 8.62006 13.5999 9.09006 13.8999 9.36006C14.1999 9.63006 14.6699 9.61006 14.9499 9.30006Z" fill="white"/>
<path d="M13.7101 7.06995C14.2801 6.44995 14.2401 5.48995 13.6301 4.92995C13.0201 4.36995 12.0601 4.40995 11.4901 5.02995C10.9201 5.64995 10.9601 6.60995 11.5701 7.16995C12.1801 7.72995 13.1401 7.68995 13.7101 7.06995Z" fill="white"/>
<path d="M2 9.66992H3.23C5.04 9.66992 6.76 10.4899 7.9 11.8899L9.14 13.4199H9.15L13.19 14.4299C13.75 14.5699 14.14 15.0699 14.14 15.6399V17.8499C14.14 18.9699 13.44 19.7299 12.41 19.7299" stroke="white" stroke-width="1.5" stroke-miterlimit="10" stroke-linecap="round"/>
<path d="M9.76996 21.92C10.98 21.92 11.96 20.94 11.96 19.73C11.96 18.52 10.98 17.54 9.76996 17.54C8.55996 17.54 7.57996 18.52 7.57996 19.73C7.57996 20.94 8.55996 21.92 9.76996 21.92Z" stroke="white" stroke-width="1.5" stroke-linecap="round" stroke-linejoin="round"/>
<path d="M9.15 13.4199H9.14H2" stroke="white" stroke-width="1.5" stroke-miterlimit="10" stroke-linecap="round"/>
<path d="M2 19.73H7.43" stroke="white" stroke-width="1.5" stroke-miterlimit="10" stroke-linecap="round"/>
<path d="M21.9901 7.15V17.58H16.8401V7.15C16.8401 6.56 17.1101 6 17.5801 5.64L18.5001 4.94V2H20.3301V4.94L21.2501 5.64C21.7201 6 21.9901 6.56 21.9901 7.15Z" stroke="white" stroke-width="1.5" stroke-linecap="round" stroke-linejoin="round"/>
<path d="M18.96 10.5701V13.2601" stroke="white" stroke-width="1.5" stroke-linecap="round" stroke-linejoin="round"/>
</svg>
