<svg width="24" height="24" viewBox="0 0 24 24" fill="none" xmlns="http://www.w3.org/2000/svg">
<path d="M21.7721 16.8773L16.0748 9.12796C15.5414 8.40396 14.4588 8.40396 13.9268 9.12796L9.50142 15.1466L7.57608 12.528C7.04275 11.8026 5.96008 11.8026 5.42808 12.528L2.23075 16.8773C1.58275 17.7573 2.21208 19 3.30542 19H20.6974C21.7908 19 22.4188 17.7573 21.7721 16.8773Z" stroke="white" stroke-width="1.5" stroke-linecap="round" stroke-linejoin="round"/>
<path d="M7.33333 7.66667C8.622 7.66667 9.66667 6.622 9.66667 5.33333C9.66667 4.04467 8.622 3 7.33333 3C6.04467 3 5 4.04467 5 5.33333C5 6.622 6.04467 7.66667 7.33333 7.66667Z" stroke="white" stroke-width="1.5" stroke-linecap="round" stroke-linejoin="round"/>
</svg>
