<svg width="24" height="24" viewBox="0 0 24 24" fill="none" xmlns="http://www.w3.org/2000/svg">
<path d="M8.78247 16.3241L15.7238 9.39076C16.2451 8.86942 17.0891 8.86942 17.6091 9.39076L21.6665 13.4481" stroke="white" stroke-width="1.5" stroke-linecap="round" stroke-linejoin="round"/>
<path d="M2.33325 9V17.6667C2.33325 19.14 3.52659 20.3333 4.99992 20.3333H16.3332" stroke="white" stroke-width="1.5" stroke-linecap="round" stroke-linejoin="round"/>
<path d="M8.99984 16.3335H18.9998C20.4726 16.3335 21.6665 15.1396 21.6665 13.6668V6.3335C21.6665 4.86074 20.4726 3.66683 18.9998 3.66683L8.99984 3.66683C7.52708 3.66683 6.33317 4.86074 6.33317 6.3335L6.33317 13.6668C6.33317 15.1396 7.52708 16.3335 8.99984 16.3335Z" stroke="white" stroke-width="1.5" stroke-linecap="round" stroke-linejoin="round"/>
<path d="M10.6666 9.33342C9.93192 9.33342 9.33325 8.73475 9.33325 8.00008C9.33325 7.26541 9.93192 6.66675 10.6666 6.66675C11.4013 6.66675 11.9999 7.26541 11.9999 8.00008C11.9999 8.73475 11.4013 9.33342 10.6666 9.33342Z" fill="white"/>
</svg>
