<svg width="24" height="24" viewBox="0 0 24 24" fill="none" xmlns="http://www.w3.org/2000/svg">
<path d="M5.92676 20.3023L13.4468 12.781C14.4881 11.7397 16.1761 11.7397 17.2174 12.781L20.3321 15.8957" stroke="white" stroke-width="1.5" stroke-linecap="round" stroke-linejoin="round"/>
<path d="M17.6667 3.6665H6.33341C4.86066 3.6665 3.66675 4.86041 3.66675 6.33317V17.6665C3.66675 19.1393 4.86066 20.3332 6.33341 20.3332H17.6667C19.1395 20.3332 20.3334 19.1393 20.3334 17.6665V6.33317C20.3334 4.86041 19.1395 3.6665 17.6667 3.6665Z" stroke="white" stroke-width="1.5" stroke-linecap="round" stroke-linejoin="round"/>
<path d="M12.2108 8.67726L10.5268 8.11593L9.96545 6.43193C9.78278 5.88793 8.88278 5.88793 8.70011 6.43193L8.13878 8.11593L6.45478 8.67726C6.18278 8.76793 5.99878 9.02259 5.99878 9.30926C5.99878 9.59593 6.18278 9.85059 6.45478 9.94126L8.13878 10.5026L8.70011 12.1866C8.79078 12.4586 9.04678 12.6426 9.33345 12.6426C9.62011 12.6426 9.87478 12.4586 9.96678 12.1866L10.5281 10.5026L12.2121 9.94126C12.4841 9.85059 12.6681 9.59593 12.6681 9.30926C12.6681 9.02259 12.4841 8.76793 12.2121 8.67726H12.2108Z" fill="white"/>
</svg>
