<svg width="24" height="24" viewBox="0 0 24 24" fill="none" xmlns="http://www.w3.org/2000/svg">
<path d="M10.3334 2.66675C9.41475 2.66675 8.66675 3.41475 8.66675 4.33341C8.66675 5.25208 9.41475 6.00008 10.3334 6.00008C11.2521 6.00008 12.0001 5.25208 12.0001 4.33341C12.0001 3.41475 11.2521 2.66675 10.3334 2.66675Z" fill="white"/>
<path d="M13.5921 9.12796L7.89481 16.8773C7.24681 17.7573 7.87614 19 8.96948 19H20.3641C21.4575 19 22.0855 17.7573 21.4388 16.8773L15.7415 9.12796C15.2081 8.40396 14.1241 8.40396 13.5921 9.12796Z" stroke="white" stroke-width="1.5" stroke-linecap="round" stroke-linejoin="round"/>
<path d="M10.3081 13.5933L7.47077 9.75463C7.07077 9.2133 6.26277 9.2133 5.86277 9.75463L2.17877 14.7386C1.69077 15.3986 2.16277 16.3333 2.98277 16.3333H8.29477" stroke="white" stroke-width="1.5" stroke-linecap="round" stroke-linejoin="round"/>
</svg>
