<svg width="24" height="24" viewBox="0 0 24 24" fill="none" xmlns="http://www.w3.org/2000/svg">
<path d="M5.01611 19.985L13.1148 11.885C14.1561 10.8437 15.8441 10.8437 16.8854 11.885L20.3334 15.333" stroke="white" stroke-width="1.5" stroke-linecap="round" stroke-linejoin="round"/>
<path d="M17.6667 3.6665H6.33341C4.86066 3.6665 3.66675 4.86041 3.66675 6.33317V17.6665C3.66675 19.1393 4.86066 20.3332 6.33341 20.3332H17.6667C19.1395 20.3332 20.3334 19.1393 20.3334 17.6665V6.33317C20.3334 4.86041 19.1395 3.6665 17.6667 3.6665Z" stroke="white" stroke-width="1.5" stroke-linecap="round" stroke-linejoin="round"/>
<path d="M8.33341 11.3333C9.25389 11.3333 10.0001 10.5871 10.0001 9.66667C10.0001 8.74619 9.25389 8 8.33341 8C7.41294 8 6.66675 8.74619 6.66675 9.66667C6.66675 10.5871 7.41294 11.3333 8.33341 11.3333Z" fill="white"/>
</svg>
