<svg width="24" height="24" viewBox="0 0 24 24" fill="none" xmlns="http://www.w3.org/2000/svg">
<path d="M4.5746 6.33325H5.42527C6.12527 6.33325 6.70527 6.87325 6.7546 7.57192L7.56393 18.9052C7.6186 19.6772 7.00793 20.3332 6.2346 20.3332H3.76527C2.99193 20.3332 2.37993 19.6772 2.43593 18.9052L3.24527 7.57192C3.2946 6.87459 3.87593 6.33325 4.5746 6.33325Z" stroke="white" stroke-width="1.5" stroke-linecap="round" stroke-linejoin="round"/>
<path d="M5.33325 3.46404C5.74125 2.7867 6.48392 2.33337 7.33325 2.33337H9.66658C10.5946 2.33337 11.3973 1.7907 11.7719 1.00537" stroke="white" stroke-width="1.5" stroke-linecap="round" stroke-linejoin="round"/>
<path d="M10.3453 11.6281L15 7.66675V13.3334L21.6666 7.66675V19.0001C21.6666 19.7361 21.0693 20.3334 20.3333 20.3334H6.23462" stroke="white" stroke-width="1.5" stroke-linecap="round" stroke-linejoin="round"/>
<path d="M17 16H17.6667" stroke="white" stroke-width="1.5" stroke-linecap="round" stroke-linejoin="round"/>
<path d="M11.6665 16H12.3332" stroke="white" stroke-width="1.5" stroke-linecap="round" stroke-linejoin="round"/>
</svg>
