<svg width="24" height="24" viewBox="0 0 24 24" fill="none" xmlns="http://www.w3.org/2000/svg">
<path d="M19.9842 2H16.3557C15.2424 2 14.3398 2.90252 14.3398 4.01584V7.64435C14.3398 8.75767 15.2424 9.66019 16.3557 9.66019H19.9842C21.0975 9.66019 22 8.75767 22 7.64435V4.01584C22 2.90252 21.0975 2 19.9842 2Z" stroke="white" stroke-width="1.5" stroke-linecap="round" stroke-linejoin="round"/>
<path d="M7.64435 14.1382H4.01584C2.90252 14.1382 2 15.0407 2 16.154V19.7825C2 20.8958 2.90252 21.7984 4.01584 21.7984H7.64435C8.75767 21.7984 9.66019 20.8958 9.66019 19.7825V16.154C9.66019 15.0407 8.75767 14.1382 7.64435 14.1382Z" stroke="white" stroke-width="1.5" stroke-linecap="round" stroke-linejoin="round"/>
<path d="M18.1698 12.8423V16.3268C18.1698 17.9539 16.8451 19.2786 15.218 19.2786H10.0776" stroke="white" stroke-width="1.5" stroke-linecap="round" stroke-linejoin="round"/>
<path d="M15.5635 15.4485L18.1697 12.8423L20.7759 15.4485" stroke="white" stroke-width="1.5" stroke-linecap="round" stroke-linejoin="round"/>
<path d="M5.83008 10.8264V7.3419C5.83008 5.71483 7.15477 4.39014 8.78184 4.39014H13.9222" stroke="white" stroke-width="1.5" stroke-linecap="round" stroke-linejoin="round"/>
<path d="M8.4365 8.22021L5.83031 10.8264L3.22412 8.22021" stroke="white" stroke-width="1.5" stroke-linecap="round" stroke-linejoin="round"/>
</svg>
