<svg width="24" height="24" viewBox="0 0 24 24" fill="none" xmlns="http://www.w3.org/2000/svg">
<path d="M5.04 22.7299C6.86 22.7299 8.33 21.2599 8.33 19.4399C8.33 17.6199 6.86 16.1499 5.04 16.1499C3.22 16.1499 1.75 17.6199 1.75 19.4399C1.75 21.2599 3.22 22.7299 5.04 22.7299Z" stroke="white" stroke-width="1.5" stroke-miterlimit="10"/>
<path d="M18.46 22.7299C20.28 22.7299 21.75 21.2599 21.75 19.4399C21.75 17.6199 20.28 16.1499 18.46 16.1499C16.64 16.1499 15.17 17.6199 15.17 19.4399C15.17 21.2599 16.64 22.7299 18.46 22.7299Z" stroke="white" stroke-width="1.5" stroke-miterlimit="10"/>
<path d="M18.46 16.15V13.1L15.58 10.22" stroke="white" stroke-width="1.5" stroke-linecap="round" stroke-linejoin="round"/>
<path d="M8.98999 19.4399H12.94C13.77 19.4399 14.55 19.0499 15.05 18.3899L17.08 15.6799" stroke="white" stroke-width="1.5" stroke-linecap="round" stroke-linejoin="round"/>
<path d="M17.56 16.1499L15.31 13.8999C14.4 12.9899 12.99 12.8299 11.91 13.5199C11.91 13.5199 11.9 13.5199 11.89 13.5299L10.32 14.5399C9.93998 14.8699 9.40998 14.9599 8.94998 14.7699L3.72998 12.8599" stroke="white" stroke-width="1.5" stroke-linecap="round" stroke-linejoin="round"/>
<path d="M8.99003 8.75012C8.99003 7.05012 11.2 6.34012 11.2 4.66012C11.2 3.53012 10.21 2.62012 8.99003 2.62012C7.91003 2.62012 6.97003 3.33012 6.78003 4.28012M8.87003 11.0501V10.5001" stroke="white" stroke-width="1.25" stroke-linecap="round" stroke-linejoin="round"/>
</svg>
