<svg width="24" height="24" viewBox="0 0 24 24" fill="none" xmlns="http://www.w3.org/2000/svg">
<g clip-path="url(#clip0_42_8229)">
<path d="M3.55 18.9799C2.49 18.9799 1.75 18.2399 1.75 17.0999V13.8299C1.75 13.1499 1.94 12.4899 2.31 11.9199L3.51 10.0599C3.97 9.34992 4.76 8.91992 5.61 8.91992H5.95" stroke="white" stroke-width="1.5" stroke-miterlimit="10" stroke-linecap="round"/>
<path d="M10.84 8.91992C12.65 8.91992 14.37 9.72992 15.51 11.1399L16.75 12.6699L20.81 13.6799C21.36 13.8199 21.75 14.3199 21.75 14.8899V17.0999C21.75 18.2099 21.05 18.9799 20.02 18.9799" stroke="white" stroke-width="1.5" stroke-miterlimit="10" stroke-linecap="round"/>
<path d="M17.3799 21.16C18.5899 21.16 19.5699 20.18 19.5699 18.97C19.5699 17.76 18.5899 16.78 17.3799 16.78C16.1699 16.78 15.1899 17.76 15.1899 18.97C15.1899 20.18 16.1699 21.16 17.3799 21.16Z" stroke="white" stroke-width="1.5" stroke-linecap="round" stroke-linejoin="round"/>
<path d="M5.75006 21.16C6.96006 21.16 7.94006 20.18 7.94006 18.97C7.94006 17.76 6.96006 16.78 5.75006 16.78C4.54006 16.78 3.56006 17.76 3.56006 18.97C3.56006 20.18 4.54006 21.16 5.75006 21.16Z" stroke="white" stroke-width="1.5" stroke-linecap="round" stroke-linejoin="round"/>
<path d="M2.21997 12.6699H16.76" stroke="white" stroke-width="1.5" stroke-miterlimit="10" stroke-linecap="round"/>
<path d="M8.46997 18.98H15.04" stroke="white" stroke-width="1.5" stroke-miterlimit="10" stroke-linecap="round"/>
<path d="M8.38998 8.24012C8.38998 6.96012 10.06 6.43012 10.06 5.16012C10.06 4.31012 9.30998 3.62012 8.38998 3.62012C7.57998 3.62012 6.86998 4.16012 6.72998 4.87012M8.37998 10.2901V9.87012" stroke="white" stroke-width="1.25" stroke-linecap="round" stroke-linejoin="round"/>
</g>
<defs>
<clipPath id="clip0_42_8229">
<rect width="21.5" height="18.91" fill="white" transform="translate(1 3)"/>
</clipPath>
</defs>
</svg>
