<svg width="17" height="10" viewBox="0 0 17 10" fill="none" xmlns="http://www.w3.org/2000/svg">
<path d="M0.920059 3.7201V7.1001H5.86361e-05V9.72748e-05H0.920059V3.0801L4.02006 9.72748e-05H5.23006L1.85006 3.3801L6.00006 7.1001H4.69006L0.920059 3.7201ZM8.43725 7.2001C8.05058 7.2001 7.69725 7.13343 7.37725 7.0001C7.05725 6.86676 6.78391 6.68343 6.55725 6.4501C6.33058 6.21676 6.15391 5.94343 6.02725 5.6301C5.90725 5.3101 5.84725 4.96676 5.84725 4.6001C5.84725 4.23343 5.91058 3.89343 6.03725 3.5801C6.16391 3.2601 6.34058 2.98343 6.56725 2.7501C6.80058 2.51676 7.07725 2.33343 7.39725 2.2001C7.71725 2.06676 8.06725 2.0001 8.44725 2.0001C8.77391 2.0001 9.08058 2.05676 9.36725 2.1701C9.65391 2.27676 9.90391 2.4401 10.1172 2.6601C10.3372 2.87343 10.5106 3.13676 10.6372 3.4501C10.7639 3.75676 10.8272 4.1101 10.8272 4.5101C10.8272 4.55676 10.8272 4.6001 10.8272 4.6401C10.8272 4.67343 10.8239 4.71676 10.8172 4.7701H6.71725C6.72391 5.00343 6.77058 5.2201 6.85725 5.4201C6.95058 5.6201 7.07058 5.79343 7.21725 5.9401C7.37058 6.08676 7.55058 6.20343 7.75725 6.2901C7.97058 6.3701 8.20058 6.4101 8.44725 6.4101C8.83391 6.4101 9.15058 6.33343 9.39725 6.1801C9.65058 6.0201 9.85391 5.80676 10.0072 5.5401L10.6872 6.0101C10.4606 6.37676 10.1572 6.66676 9.77725 6.8801C9.40391 7.09343 8.95725 7.2001 8.43725 7.2001ZM9.94725 4.0701C9.91391 3.86343 9.85058 3.6801 9.75725 3.5201C9.67058 3.3601 9.55725 3.22343 9.41725 3.1101C9.28391 2.99676 9.13058 2.9101 8.95725 2.8501C8.78391 2.7901 8.60391 2.7601 8.41725 2.7601C8.23058 2.7601 8.04725 2.7901 7.86725 2.8501C7.68725 2.9101 7.52391 2.99676 7.37725 3.1101C7.23058 3.21676 7.10391 3.35343 6.99725 3.5201C6.89058 3.6801 6.81725 3.86343 6.77725 4.0701H9.94725ZM12.3397 9.1901L13.4297 6.8401L11.2397 2.1001H12.1897L13.9097 5.9001L15.6197 2.1001H16.5797L13.2997 9.1901H12.3397Z" fill="black"/>
</svg>
