<svg width="24" height="24" viewBox="0 0 24 24" fill="none" xmlns="http://www.w3.org/2000/svg">
<path d="M21.7718 16.8773L16.0745 9.12796C15.5412 8.40396 14.4585 8.40396 13.9265 9.12796L9.50117 15.1466L7.57584 12.528C7.04251 11.8026 5.95984 11.8026 5.42784 12.528L2.2305 16.8773C1.5825 17.7573 2.21184 19 3.30517 19H20.6972C21.7905 19 22.4185 17.7573 21.7718 16.8773Z" stroke="white" stroke-width="1.5" stroke-linecap="round" stroke-linejoin="round"/>
<path d="M7.33333 7.66667C8.622 7.66667 9.66667 6.622 9.66667 5.33333C9.66667 4.04467 8.622 3 7.33333 3C6.04467 3 5 4.04467 5 5.33333C5 6.622 6.04467 7.66667 7.33333 7.66667Z" stroke="white" stroke-width="1.5" stroke-linecap="round" stroke-linejoin="round"/>
</svg>
