<svg width="24" height="24" viewBox="0 0 24 24" fill="none" xmlns="http://www.w3.org/2000/svg">
<g clip-path="url(#clip0_43_8584)">
<path d="M12 1V2.33333" stroke="white" stroke-width="1.5" stroke-linecap="round" stroke-linejoin="round"/>
<path d="M19.7786 4.22144L18.8359 5.1641" stroke="white" stroke-width="1.5" stroke-linecap="round" stroke-linejoin="round"/>
<path d="M22.9998 12H21.6665" stroke="white" stroke-width="1.5" stroke-linecap="round" stroke-linejoin="round"/>
<path d="M4.22119 4.22144L5.16386 5.1641" stroke="white" stroke-width="1.5" stroke-linecap="round" stroke-linejoin="round"/>
<path d="M1 12H2.33333" stroke="white" stroke-width="1.5" stroke-linecap="round" stroke-linejoin="round"/>
<path d="M18.3333 11.9999C18.3333 8.05459 14.7266 4.95192 10.6306 5.81059C8.13463 6.33326 6.16397 8.41992 5.7533 10.9359C5.2453 14.0546 7.0213 16.8253 9.66663 17.8759V20.9999C9.66663 21.7359 10.264 22.3333 11 22.3333H13C13.736 22.3333 14.3333 21.7359 14.3333 20.9999V17.8759C16.6733 16.9466 18.3333 14.6719 18.3333 11.9999Z" stroke="white" stroke-width="1.5" stroke-linecap="round" stroke-linejoin="round"/>
<path d="M9.1958 17.6667H14.8038" stroke="white" stroke-width="1.5" stroke-linecap="round" stroke-linejoin="round"/>
</g>
<defs>
<clipPath id="clip0_43_8584">
<rect width="24" height="24" fill="white"/>
</clipPath>
</defs>
</svg>
