<svg width="24" height="24" viewBox="0 0 24 24" fill="none" xmlns="http://www.w3.org/2000/svg">
<path d="M8.33325 3.72266V17.7227" stroke="white" stroke-width="1.5" stroke-linecap="round" stroke-linejoin="round"/>
<path d="M15.6665 6.27734V20.2773" stroke="white" stroke-width="1.5" stroke-linecap="round" stroke-linejoin="round"/>
<path d="M3.37725 4.76804L7.95325 3.75071C8.20125 3.69604 8.45992 3.71204 8.69859 3.79871L15.3013 6.20004C15.5399 6.28671 15.7986 6.30404 16.0466 6.24804L20.0439 5.36004C20.8773 5.17471 21.6666 5.80804 21.6666 6.66138V17.9307C21.6666 18.556 21.2319 19.0974 20.6226 19.232L16.0466 20.2494C15.7986 20.304 15.5399 20.288 15.3013 20.2014L8.69859 17.8C8.45992 17.7134 8.20125 17.696 7.95325 17.752L3.95592 18.64C3.12259 18.8254 2.33325 18.192 2.33325 17.3387V6.06938C2.33325 5.44404 2.76792 4.90271 3.37725 4.76804Z" stroke="white" stroke-width="1.5" stroke-linecap="round" stroke-linejoin="round"/>
</svg>
