<svg width="24" height="24" viewBox="0 0 24 24" fill="none" xmlns="http://www.w3.org/2000/svg">
<path d="M3.94632 3.24716L3.16543 4.1824C2.91119 4.48204 2.95659 4.92696 3.25624 5.1812L4.1824 5.96208C4.48204 6.21632 4.92696 6.17092 5.1812 5.87128L5.96208 4.94512C6.21632 4.64548 6.17092 4.20056 5.87128 3.94632L4.94512 3.16543C4.64548 2.91119 4.20056 2.95659 3.94632 3.25624V3.24716Z" fill="white"/>
<path d="M19.0934 20.3245C18.8301 20.7603 19.157 21.3051 19.6564 21.2961L21.7811 21.2507C22.2805 21.2416 22.5801 20.6786 22.2987 20.2609L21.2 18.5993C20.9367 18.2088 20.3555 18.2179 20.1194 18.6265L19.0934 20.3336V20.3245Z" fill="white"/>
<path d="M8.41637 13.4693C8.27109 13.2513 8.07133 13.0697 7.83525 12.9426L5.88305 11.853C4.71172 11.1993 4.70264 9.51946 5.87397 8.85661L7.81709 7.74885C8.25293 7.50369 8.56165 7.07693 8.65245 6.58661L9.0883 4.38924C9.35162 3.07264 10.9497 2.54599 11.9394 3.454L13.592 4.96128C13.9643 5.29724 14.4637 5.46068 14.954 5.39712L17.1786 5.1338C18.5134 4.97944 19.5031 6.33237 18.9492 7.55817L18.023 9.60118C17.8142 10.0552 17.8142 10.5818 18.023 11.0358L18.9583 13.0697C19.5212 14.2865 18.5315 15.6485 17.2058 15.5032L14.9812 15.249C14.4818 15.1945 13.9824 15.3579 13.6192 15.6939L11.9757 17.2102C11.213 17.9185 10.0871 17.7641 9.48782 17.0559" stroke="white" stroke-width="1.5" stroke-linecap="round" stroke-linejoin="round"/>
</svg>
