<svg width="24" height="24" viewBox="0 0 24 24" fill="none" xmlns="http://www.w3.org/2000/svg">
<path d="M11.9999 2.3335C6.66125 2.3335 2.33325 6.6615 2.33325 12.0002C2.33325 13.7588 2.81059 15.4028 3.63059 16.8228C4.20392 17.8975 3.55992 20.4388 2.33325 21.6668C3.99992 21.7575 6.19592 21.0042 7.17725 20.3695C7.82925 20.7455 8.86259 21.2442 10.2159 21.5002C10.7933 21.6095 11.3906 21.6668 11.9999 21.6668C17.3386 21.6668 21.6666 17.3388 21.6666 12.0002C21.6666 6.6615 17.3386 2.3335 11.9999 2.3335Z" stroke="white" stroke-width="1.5" stroke-linecap="round" stroke-linejoin="round"/>
<path opacity="0.75" d="M11.9998 13.3337C11.2638 13.3337 10.6665 12.735 10.6665 12.0003C10.6665 11.2657 11.2638 10.667 11.9998 10.667C12.7358 10.667 13.3332 11.2657 13.3332 12.0003C13.3332 12.735 12.7358 13.3337 11.9998 13.3337Z" fill="white"/>
<path d="M7.33333 13.3337C6.59733 13.3337 6 12.735 6 12.0003C6 11.2657 6.59733 10.667 7.33333 10.667C8.06933 10.667 8.66667 11.2657 8.66667 12.0003C8.66667 12.735 8.06933 13.3337 7.33333 13.3337Z" fill="white"/>
<path opacity="0.5" d="M16.6666 13.3337C15.9306 13.3337 15.3333 12.735 15.3333 12.0003C15.3333 11.2657 15.9306 10.667 16.6666 10.667C17.4026 10.667 17.9999 11.2657 17.9999 12.0003C17.9999 12.735 17.4026 13.3337 16.6666 13.3337Z" fill="white"/>
</svg>
