<svg width="24" height="24" viewBox="0 0 24 24" fill="none" xmlns="http://www.w3.org/2000/svg">
<path d="M7.76025 5.7822V4.49188C7.76025 4.05448 8.03727 3.66083 8.4528 3.52961L13.6505 1.82377C13.8473 1.76545 14.0587 1.76545 14.2556 1.82377L19.4606 3.52232C19.8688 3.66083 20.1531 4.04719 20.1531 4.48459V11.082C20.1531 12.4962 19.169 13.6261 17.9807 14.4718" stroke="white" stroke-width="1.5" stroke-linecap="round" stroke-linejoin="round"/>
<path d="M5.43457 9.31058V7.66306C5.43457 7.22566 5.71159 6.83201 6.12711 6.70079L11.3248 5.00224C11.5217 4.94392 11.7331 4.94392 11.9299 5.00224L17.1349 6.70079C17.5431 6.8393 17.8274 7.22566 17.8274 7.66306V14.2604C17.8274 14.501 17.7983 14.7343 17.7472 14.953C17.4921 16.0465 16.6465 16.9431 15.6623 17.6502" stroke="white" stroke-width="1.5" stroke-linecap="round" stroke-linejoin="round"/>
<path d="M9.49532 8.18046L14.7003 9.87901C15.1086 10.0175 15.3929 10.4039 15.3929 10.8413V17.4387C15.3929 20.5077 10.7419 22.2427 9.50261 22.6582C9.29849 22.7238 9.09437 22.7238 8.89026 22.6582C7.64368 22.25 3 20.5077 3 17.4387V10.8413C3 10.4039 3.27702 10.0102 3.69254 9.87901L8.89026 8.18046C9.08708 8.12214 9.29849 8.12214 9.49532 8.18046Z" stroke="white" stroke-width="1.5" stroke-linecap="round" stroke-linejoin="round"/>
</svg>
