<svg width="24" height="24" viewBox="0 0 24 24" fill="none" xmlns="http://www.w3.org/2000/svg">
<path d="M3.8 18.08C2.75 18.08 2 17.34 2 16.2V12.93C2 12.25 2.2 11.59 2.57 11.02L3.77 9.15C4.23 8.44 5.02 8 5.87 8H11.11C11.44 8 11.77 8.03 12.09 8.09C13.53 8.32 14.85 9.08 15.79 10.23L17.04 11.76L21.1 12.78C21.65 12.92 22.05 13.42 22.05 13.99V16.2C22.05 17.32 21.34 18.08 20.31 18.08" stroke="white" stroke-width="1.5" stroke-miterlimit="10"/>
<path d="M17.66 20.2699C18.87 20.2699 19.85 19.2899 19.85 18.0799C19.85 16.8699 18.87 15.8899 17.66 15.8899C16.45 15.8899 15.47 16.8699 15.47 18.0799C15.47 19.2899 16.45 20.2699 17.66 20.2699Z" stroke="white" stroke-width="1.5" stroke-linejoin="round"/>
<path d="M6.01001 20.2699C7.22001 20.2699 8.20001 19.2899 8.20001 18.0799C8.20001 16.8699 7.22001 15.8899 6.01001 15.8899C4.80001 15.8899 3.82001 16.8699 3.82001 18.0799C3.82001 19.2899 4.80001 20.2699 6.01001 20.2699Z" stroke="white" stroke-width="1.5" stroke-linejoin="round"/>
<path d="M2.28 11.76H16.4" stroke="white" stroke-width="1.5" stroke-miterlimit="10" stroke-linecap="round"/>
<path d="M8.73999 18.0801H15.32" stroke="white" stroke-width="1.5" stroke-miterlimit="10"/>
<path d="M9.90002 6.29346V17.9635" stroke="white" stroke-width="1.5" stroke-miterlimit="10"/>
<path d="M5 6.5C5 5.672 5.74667 5 6.66667 5C9.13238 5 10 8 10 8H6.66667C5.74667 8 5 7.328 5 6.5Z" stroke="white" stroke-width="1.5" stroke-linecap="round" stroke-linejoin="round"/>
<path d="M13.3333 8H10C10 8 10.8676 5 13.3333 5C14.2533 5 15 5.672 15 6.5C15 7.328 14.2533 8 13.3333 8Z" stroke="white" stroke-width="1.5" stroke-linecap="round" stroke-linejoin="round"/>
</svg>
