<svg width="24" height="24" viewBox="0 0 24 24" fill="none" xmlns="http://www.w3.org/2000/svg">
<path d="M5.29 22.0001C7.11 22.0001 8.58 20.581 8.58 18.824C8.58 17.067 7.11 15.6479 5.29 15.6479C3.47 15.6479 2 17.067 2 18.824C2 20.581 3.47 22.0001 5.29 22.0001Z" stroke="white" stroke-width="1.5" stroke-miterlimit="10"/>
<path d="M18.7 22.0001C20.52 22.0001 21.99 20.581 21.99 18.824C21.99 17.067 20.52 15.6479 18.7 15.6479C16.88 15.6479 15.41 17.067 15.41 18.824C15.41 20.581 16.88 22.0001 18.7 22.0001Z" stroke="white" stroke-width="1.5" stroke-miterlimit="10"/>
<path d="M18.7 15.6478V12.7035L15.83 9.93286" stroke="white" stroke-width="1.5" stroke-linecap="round" stroke-linejoin="round"/>
<path d="M9.23999 18.8239H13.19C14.02 18.8239 14.8 18.4474 15.3 17.8102L17.33 15.1941" stroke="white" stroke-width="1.5" stroke-linecap="round" stroke-linejoin="round"/>
<path d="M17.8 15.6479L15.55 13.4758C14.64 12.5973 13.23 12.4429 12.15 13.109C12.15 13.109 12.14 13.109 12.13 13.1186L10.56 14.084C10.18 14.4025 9.65 14.4894 9.19 14.306L3.97 12.4622" stroke="white" stroke-width="1.5" stroke-linecap="round" stroke-linejoin="round"/>
<path d="M14.104 4.32578L13.2631 4.04578L12.9822 3.204C12.8916 2.932 12.4409 2.932 12.3502 3.204L12.0693 4.04578L11.2284 4.32578C11.0924 4.37111 11 4.49823 11 4.64223C11 4.78623 11.0924 4.91334 11.2284 4.95867L12.0693 5.23867L12.3502 6.08045C12.3956 6.21645 12.5227 6.308 12.6658 6.308C12.8089 6.308 12.9369 6.21556 12.9813 6.08045L13.2622 5.23867L14.1031 4.95867C14.2391 4.91334 14.3316 4.78623 14.3316 4.64223C14.3316 4.49823 14.24 4.37111 14.104 4.32578Z" fill="white"/>
<path d="M9.72678 8.60312L8.71719 8.26455L8.37994 7.24667C8.27108 6.91778 7.72999 6.91778 7.62114 7.24667L7.28389 8.26455L6.27429 8.60312C6.111 8.65793 6 8.81164 6 8.98577C6 9.15989 6.111 9.31359 6.27429 9.3684L7.28389 9.70698L7.62114 10.7248C7.67556 10.8893 7.82818 11 8 11C8.17182 11 8.32551 10.8882 8.37887 10.7248L8.71612 9.70698L9.72573 9.3684C9.88901 9.31359 10 9.15989 10 8.98577C10 8.81164 9.89007 8.65793 9.72678 8.60312Z" fill="white"/>
<path d="M18.8888 9.22225C19.257 9.22225 19.5555 8.92377 19.5555 8.55558C19.5555 8.18739 19.257 7.88892 18.8888 7.88892C18.5206 7.88892 18.2222 8.18739 18.2222 8.55558C18.2222 8.92377 18.5206 9.22225 18.8888 9.22225Z" fill="white"/>
</svg>
