<svg width="24" height="24" viewBox="0 0 24 24" fill="none" xmlns="http://www.w3.org/2000/svg">
<g clip-path="url(#clip0_42_8244)">
<path d="M6.30005 3.8C6.30005 2.81 7.11005 2 8.10005 2H8.46005C10.61 2 12.35 3.74 12.35 5.89V7.04H9.54005C7.75005 7.04 6.30005 5.59 6.30005 3.8Z" stroke="white" stroke-width="1.5" stroke-linejoin="round"/>
<path d="M18.39 3.8C18.39 2.81 17.58 2 16.59 2H16.23C14.08 2 12.34 3.74 12.34 5.89V7.04H15.15C16.94 7.04 18.39 5.59 18.39 3.8Z" stroke="white" stroke-width="1.5" stroke-linejoin="round"/>
<path d="M18.86 19.0301H5.61001C5.00001 19.0301 4.51001 18.5401 4.51001 17.9301V12.7901C4.51001 12.6501 4.54001 12.5101 4.59001 12.3801L6.16001 8.47009C6.50001 7.64009 7.31001 7.09009 8.21001 7.09009H16.27C17.17 7.09009 17.99 7.64009 18.32 8.47009L19.89 12.3801C19.94 12.5101 19.97 12.6501 19.97 12.7901V17.9301C19.97 18.5401 19.48 19.0301 18.87 19.0301H18.86Z" stroke="white" stroke-width="1.5" stroke-linejoin="round"/>
<path d="M16.4 19.0301V20.7701C16.4 21.4301 16.93 21.9601 17.59 21.9601H18.78C19.44 21.9601 19.97 21.4301 19.97 20.7701V17.1401" stroke="white" stroke-width="1.5" stroke-miterlimit="10" stroke-linecap="round"/>
<path d="M8.07 19.0301V20.7701C8.07 21.4301 7.54 21.9601 6.88 21.9601H5.69C5.03 21.9601 4.5 21.4301 4.5 20.7701V17.1401" stroke="white" stroke-width="1.5" stroke-miterlimit="10" stroke-linecap="round"/>
<path d="M7.48004 17.2401C8.14004 17.2401 8.67004 16.7101 8.67004 16.0501C8.67004 15.3901 8.14004 14.8601 7.48004 14.8601C6.82004 14.8601 6.29004 15.3901 6.29004 16.0501C6.29004 16.7101 6.82004 17.2401 7.48004 17.2401Z" fill="white"/>
<path d="M16.9899 17.2401C17.6499 17.2401 18.1799 16.7101 18.1799 16.0501C18.1799 15.3901 17.6499 14.8601 16.9899 14.8601C16.3299 14.8601 15.7999 15.3901 15.7999 16.0501C15.7999 16.7101 16.3299 17.2401 16.9899 17.2401Z" fill="white"/>
<path d="M3.60999 12.48H20.86" stroke="white" stroke-width="1.5" stroke-linecap="round" stroke-linejoin="round"/>
<path d="M21.74 8.8L21.24 8.63L21.07 8.12C21.02 7.96 20.75 7.96 20.69 8.12L20.52 8.63L20.02 8.8C19.94 8.83 19.88 8.9 19.88 8.99C19.88 9.08 19.94 9.15 20.02 9.18L20.52 9.35L20.69 9.86C20.72 9.94 20.79 10 20.88 10C20.97 10 21.04 9.94 21.07 9.86L21.24 9.35L21.74 9.18C21.82 9.15 21.88 9.08 21.88 8.99C21.88 8.9 21.82 8.83 21.74 8.8Z" fill="white"/>
<path d="M5.35 5.16009L4.71 4.95009L4.5 4.31009C4.43 4.10009 4.09 4.10009 4.02 4.31009L3.81 4.95009L3.17 5.16009C3.07 5.19009 3 5.29009 3 5.40009C3 5.51009 3.07 5.61009 3.17 5.64009L3.81 5.85009L4.02 6.49009C4.05 6.59009 4.15 6.66009 4.26 6.66009C4.37 6.66009 4.47 6.59009 4.5 6.49009L4.71 5.85009L5.35 5.64009C5.45 5.61009 5.52 5.51009 5.52 5.40009C5.52 5.29009 5.45 5.19009 5.35 5.16009Z" fill="white"/>
<path d="M3.78997 8.58995C3.96997 8.58995 4.10997 8.44995 4.10997 8.26995C4.10997 8.08995 3.96997 7.94995 3.78997 7.94995C3.60997 7.94995 3.46997 8.08995 3.46997 8.26995C3.46997 8.44995 3.60997 8.58995 3.78997 8.58995Z" fill="white"/>
</g>
<defs>
<clipPath id="clip0_42_8244">
<rect width="24" height="24" fill="white"/>
</clipPath>
</defs>
</svg>
