<svg width="24" height="24" viewBox="0 0 24 24" fill="none" xmlns="http://www.w3.org/2000/svg">
<g clip-path="url(#clip0_42_8304)">
<path d="M5.29 22.56C7.11 22.56 8.58 21.09 8.58 19.27C8.58 17.45 7.11 15.98 5.29 15.98C3.47 15.98 2 17.45 2 19.27C2 21.09 3.47 22.56 5.29 22.56Z" stroke="white" stroke-width="1.5" stroke-miterlimit="10"/>
<path d="M18.71 22.56C20.53 22.56 22 21.09 22 19.27C22 17.45 20.53 15.98 18.71 15.98C16.89 15.98 15.42 17.45 15.42 19.27C15.42 21.09 16.89 22.56 18.71 22.56Z" stroke="white" stroke-width="1.5" stroke-miterlimit="10"/>
<path d="M18.7099 15.9801V12.9301L15.9299 10.1501" stroke="white" stroke-width="1.5" stroke-linecap="round" stroke-linejoin="round"/>
<path d="M9.23999 19.27H13.19C14.02 19.27 14.8 18.88 15.3 18.22L17.33 15.51" stroke="white" stroke-width="1.5" stroke-linecap="round" stroke-linejoin="round"/>
<path d="M17.81 15.9799L15.56 13.7299C14.65 12.8199 13.24 12.6599 12.16 13.3499C12.16 13.3499 12.15 13.3499 12.14 13.3599L10.57 14.3699C10.19 14.6999 9.65998 14.7899 9.19998 14.5999L3.97998 12.6899" stroke="white" stroke-width="1.5" stroke-linecap="round" stroke-linejoin="round"/>
<path d="M14.64 6.16008V3.60008C12.6 3.60008 11.06 2.58008 11.06 2.58008C11.06 2.58008 9.51998 3.60008 7.47998 3.60008V6.16008C7.47998 9.74008 11.06 10.7601 11.06 10.7601C11.06 10.7601 14.64 9.74008 14.64 6.16008Z" stroke="white" stroke-width="1.5" stroke-linecap="round" stroke-linejoin="round"/>
<path d="M17.3201 8.34009C17.6001 8.34009 17.8201 8.12009 17.8201 7.84009C17.8201 7.56009 17.6001 7.34009 17.3201 7.34009C17.0401 7.34009 16.8201 7.56009 16.8201 7.84009C16.8201 8.12009 17.0401 8.34009 17.3201 8.34009Z" fill="white"/>
<path d="M5.76002 8.38008L5.26002 8.21008L5.09002 7.70008C5.04002 7.54008 4.77002 7.54008 4.71002 7.70008L4.54002 8.21008L4.04002 8.38008C3.96002 8.41008 3.90002 8.48008 3.90002 8.57008C3.90002 8.66008 3.96002 8.73008 4.04002 8.76008L4.54002 8.93008L4.71002 9.44008C4.74002 9.52008 4.81002 9.58008 4.90002 9.58008C4.99002 9.58008 5.06002 9.52008 5.09002 9.44008L5.26002 8.93008L5.76002 8.76008C5.84002 8.73008 5.90002 8.66008 5.90002 8.57008C5.90002 8.48008 5.85002 8.41008 5.76002 8.38008Z" fill="white"/>
<path d="M17.76 2.8L17.26 2.63L17.09 2.12C17.04 1.96 16.77 1.96 16.71 2.12L16.54 2.63L16.04 2.8C15.96 2.83 15.9 2.9 15.9 2.99C15.9 3.08 15.96 3.15 16.04 3.18L16.54 3.35L16.71 3.86C16.74 3.94 16.81 4 16.9 4C16.99 4 17.06 3.94 17.09 3.86L17.26 3.35L17.76 3.18C17.84 3.15 17.9 3.08 17.9 2.99C17.9 2.9 17.84 2.83 17.76 2.8Z" fill="white"/>
</g>
<defs>
<clipPath id="clip0_42_8304">
<rect width="24" height="24" fill="white"/>
</clipPath>
</defs>
</svg>
