<svg width="24" height="24" viewBox="0 0 24 24" fill="none" xmlns="http://www.w3.org/2000/svg">
<path d="M21.19 19.53C21.19 19.82 21.07 20.08 20.88 20.27C20.69 20.46 20.43 20.58 20.14 20.58H3.61C3.03 20.58 2.57 20.11 2.57 19.53C2.57 19.24 2.69 18.98 2.87 18.79C3.06 18.6 3.32 18.48 3.61 18.48H3.66C2.61 16.9 2 15.01 2 12.97C2 7.47 6.47 3 11.98 3C17.49 3 21.96 7.47 21.96 12.98C21.96 15.02 21.35 16.92 20.3 18.5C20.81 18.57 21.2 19 21.2 19.53H21.19Z" stroke="white" stroke-width="1.5" stroke-linecap="round" stroke-linejoin="round"/>
<path d="M11.9801 18.0701C14.7913 18.0701 17.0701 15.7913 17.0701 12.9801C17.0701 10.169 14.7913 7.89014 11.9801 7.89014C9.16901 7.89014 6.89014 10.169 6.89014 12.9801C6.89014 15.7913 9.16901 18.0701 11.9801 18.0701Z" stroke="white" stroke-width="1.5" stroke-linecap="round" stroke-linejoin="round"/>
<path d="M12.09 15.0502C13.2332 15.0502 14.16 14.1234 14.16 12.9802C14.16 11.8369 13.2332 10.9102 12.09 10.9102C10.9468 10.9102 10.02 11.8369 10.02 12.9802C10.02 14.1234 10.9468 15.0502 12.09 15.0502Z" fill="white"/>
<path d="M11.98 3V4.88" stroke="white" stroke-width="1.5" stroke-linecap="round" stroke-linejoin="round"/>
<path d="M16.9202 4.33984L15.9902 5.95984" stroke="white" stroke-width="1.5" stroke-linecap="round" stroke-linejoin="round"/>
<path d="M20.5399 7.94995L18.9199 8.89995" stroke="white" stroke-width="1.5" stroke-linecap="round" stroke-linejoin="round"/>
<path d="M21.8898 12.8901L20.0098 12.9101" stroke="white" stroke-width="1.5" stroke-linecap="round" stroke-linejoin="round"/>
<path d="M7.45996 4.33984L8.38996 5.95984" stroke="white" stroke-width="1.5" stroke-linecap="round" stroke-linejoin="round"/>
<path d="M3.83008 7.94995L5.45008 8.89995" stroke="white" stroke-width="1.5" stroke-linecap="round" stroke-linejoin="round"/>
<path d="M2.49023 12.8901L4.36023 12.9101" stroke="white" stroke-width="1.5" stroke-linecap="round" stroke-linejoin="round"/>
</svg>
