<svg width="67" height="37" viewBox="0 0 67 37" fill="none" xmlns="http://www.w3.org/2000/svg">
<path d="M15.5002 31C15.5002 32.933 13.9332 34.5 12.0002 34.5C10.0672 34.5 8.50024 32.933 8.50024 31" stroke="white" stroke-width="1.5" stroke-linecap="round" stroke-linejoin="round"/>
<path d="M19.2311 31H4.76887C3.79195 31 3 30.208 3 29.2311C3 28.762 3.18636 28.3121 3.51809 27.9803L4.12132 27.3771C4.68393 26.8145 5 26.0514 5 25.2558V22.5C5 18.634 8.13401 15.5 12 15.5C15.866 15.5 19 18.634 19 22.5V25.2558C19 26.0514 19.3161 26.8145 19.8787 27.3771L20.4819 27.9803C20.8136 28.3121 21 28.762 21 29.2311C21 30.208 20.208 31 19.2311 31Z" stroke="white" stroke-width="1.5" stroke-linecap="round" stroke-linejoin="round"/>
<rect x="51" width="16" height="16" rx="8" fill="#D83D37"/>
<path d="M61.3329 11H56.6329V10.6C56.6329 10.2133 56.7062 9.87333 56.8529 9.58C56.9995 9.28667 57.1829 9.02667 57.4029 8.8C57.6295 8.56667 57.8795 8.35667 58.1529 8.17C58.4329 7.97667 58.7029 7.78333 58.9629 7.59C59.1429 7.45667 59.3062 7.33 59.4529 7.21C59.5995 7.09 59.7229 6.96667 59.8229 6.84C59.9295 6.70667 60.0095 6.57 60.0629 6.43C60.1229 6.28333 60.1529 6.12 60.1529 5.94C60.1529 5.62 60.0529 5.36 59.8529 5.16C59.6529 4.96 59.3762 4.86 59.0229 4.86C58.6629 4.86 58.3595 4.96667 58.1129 5.18C57.8729 5.39333 57.7495 5.69 57.7429 6.07H56.6329C56.6329 5.73 56.6929 5.42 56.8129 5.14C56.9395 4.85333 57.1095 4.61 57.3229 4.41C57.5429 4.21 57.7962 4.05667 58.0829 3.95C58.3762 3.83667 58.6929 3.78 59.0329 3.78C59.3329 3.78 59.6162 3.82667 59.8829 3.92C60.1495 4.00667 60.3862 4.14 60.5929 4.32C60.7995 4.49333 60.9629 4.71333 61.0829 4.98C61.2029 5.24667 61.2629 5.55667 61.2629 5.91C61.2629 6.19 61.2295 6.44333 61.1629 6.67C61.0962 6.89667 60.9962 7.10667 60.8629 7.3C60.7362 7.49333 60.5729 7.68 60.3729 7.86C60.1795 8.03333 59.9529 8.21333 59.6929 8.4C59.5329 8.52 59.3662 8.63667 59.1929 8.75C59.0262 8.86333 58.8662 8.98 58.7129 9.1C58.5662 9.22 58.4362 9.34667 58.3229 9.48C58.2095 9.61333 58.1295 9.76 58.0829 9.92H61.3329V11Z" fill="white"/>
</svg>
