<svg width="24" height="24" viewBox="0 0 24 24" fill="none" xmlns="http://www.w3.org/2000/svg">
<path d="M2.46997 13.29H17" stroke="white" stroke-width="1.5" stroke-miterlimit="10" stroke-linecap="round"/>
<path d="M4.44 9.87988C4.31 10.0099 3.86 10.5199 3.76 10.6799L2.56 12.5399C2.19 13.1099 2 13.7699 2 14.4499V17.7199C2 18.8599 2.74 19.5899 3.8 19.5899" stroke="white" stroke-width="1.5" stroke-miterlimit="10" stroke-linecap="round"/>
<path d="M20.27 19.59C21.3 19.59 22 18.83 22 17.72V15.51C22 14.94 21.61 14.44 21.05 14.3L17 13.29L15.76 11.76C15.27 11.16 14.31 10.22 13.68 9.76001" stroke="white" stroke-width="1.5" stroke-miterlimit="10" stroke-linecap="round"/>
<path d="M17.63 21.7799C18.84 21.7799 19.82 20.7999 19.82 19.5899C19.82 18.3799 18.84 17.3999 17.63 17.3999C16.42 17.3999 15.44 18.3799 15.44 19.5899C15.44 20.7999 16.42 21.7799 17.63 21.7799Z" stroke="white" stroke-width="1.5" stroke-linecap="round" stroke-linejoin="round"/>
<path d="M6.01001 21.7799C7.22001 21.7799 8.20001 20.7999 8.20001 19.5899C8.20001 18.3799 7.22001 17.3999 6.01001 17.3999C4.80001 17.3999 3.82001 18.3799 3.82001 19.5899C3.82001 20.7999 4.80001 21.7799 6.01001 21.7799Z" stroke="white" stroke-width="1.5" stroke-linecap="round" stroke-linejoin="round"/>
<path d="M8.71997 19.5901H15.28" stroke="white" stroke-width="1.5" stroke-miterlimit="10" stroke-linecap="round"/>
<path d="M12.18 6.19V3.91C10.36 3.91 8.98999 3 8.98999 3C8.98999 3 7.61999 3.91 5.79999 3.91V6.19C5.79999 9.38 8.98999 10.29 8.98999 10.29C8.98999 10.29 12.18 9.38 12.18 6.19Z" stroke="white" stroke-width="1.5" stroke-linecap="round" stroke-linejoin="round"/>
<path d="M10.4 7.69018C10.78 7.34018 10.15 7.06018 9.91 6.92018C9.35 6.60018 8.63001 6.60018 8.07 6.92018C7.83001 7.06018 7.2 7.34018 7.58 7.69018" fill="white"/>
<path d="M9.75999 5.3601C9.75999 5.7901 9.40999 6.1201 8.99999 6.1201C8.58999 6.1201 8.23999 5.7701 8.23999 5.3601C8.23999 4.9501 8.58999 4.6001 8.99999 4.6001C9.40999 4.6001 9.75999 4.9501 9.75999 5.3601Z" fill="white"/>
</svg>
