<svg width="24" height="24" viewBox="0 0 24 24" fill="none" xmlns="http://www.w3.org/2000/svg">
<path d="M3.62252 8.20683H8.26012C9.01084 8.20683 9.62012 7.5889 9.62012 6.82752V2.14062" stroke="white" stroke-width="1.5" stroke-linecap="round" stroke-linejoin="round"/>
<path d="M19.5 21.3789C20.1104 20.8732 20.5 20.1036 20.5 19.2414V4.75862C20.5 3.23448 19.2828 2 17.78 2H10.183C9.82264 2 9.47584 2.14483 9.22152 2.40414L3.89848 7.80276C3.6428 8.06207 3.5 8.41241 3.5 8.77793V19.2414C3.5 20.2736 4.05828 21.1729 4.88546 21.646" stroke="white" stroke-width="1.5" stroke-linecap="round" stroke-linejoin="round"/>
<path d="M15.6227 22.5C15.4017 22.5 15.2227 22.3209 15.2227 22.1V17.9C15.2227 17.6791 15.4017 17.5 15.6227 17.5H17.4381C17.659 17.5 17.8381 17.6791 17.8381 17.9V18.0589C17.8381 18.2798 17.659 18.4589 17.4381 18.4589H16.2587V19.5685H17.2561C17.477 19.5685 17.6561 19.7476 17.6561 19.9685V20.1274C17.6561 20.3483 17.477 20.5274 17.2561 20.5274H16.2727V22.1C16.2727 22.3209 16.0936 22.5 15.8727 22.5H15.6227Z" fill="white"/>
<path d="M11.138 22.5C10.9171 22.5 10.738 22.3209 10.738 22.1V17.9C10.738 17.6791 10.9171 17.5 11.138 17.5H12.397C12.7517 17.5 13.0597 17.5662 13.321 17.6986C13.587 17.831 13.7924 18.0183 13.937 18.2603C14.0864 18.4977 14.161 18.7785 14.161 19.1027V20.8904C14.161 21.21 14.0864 21.4909 13.937 21.7329C13.7924 21.9749 13.587 22.1644 13.321 22.3014C13.0597 22.4338 12.7517 22.5 12.397 22.5H11.138ZM11.788 21.5411H12.397C12.6117 21.5411 12.7844 21.4817 12.915 21.363C13.0457 21.2443 13.111 21.0868 13.111 20.8904V19.1027C13.111 18.911 13.0457 18.7557 12.915 18.637C12.7844 18.5183 12.6117 18.4589 12.397 18.4589H11.788V21.5411Z" fill="white"/>
<path d="M7.20005 22.5C6.97914 22.5 6.80005 22.3209 6.80005 22.1V17.9C6.80005 17.6791 6.97913 17.5 7.20005 17.5H8.33807C8.69741 17.5 9.01007 17.5662 9.27607 17.6986C9.54674 17.831 9.75441 18.016 9.89907 18.2534C10.0484 18.4909 10.1231 18.7694 10.1231 19.089C10.1231 19.4041 10.0484 19.6826 9.89907 19.9247C9.74974 20.1621 9.54207 20.347 9.27607 20.4795C9.01007 20.6119 8.69741 20.6781 8.33807 20.6781H7.85005V22.1C7.85005 22.3209 7.67096 22.5 7.45005 22.5H7.20005ZM7.85005 19.7534H8.33807C8.56207 19.7534 8.73941 19.6941 8.87007 19.5753C9.00541 19.4521 9.07307 19.29 9.07307 19.089C9.07307 18.8881 9.00541 18.7283 8.87007 18.6096C8.73941 18.4863 8.56207 18.4247 8.33807 18.4247H7.85005V19.7534Z" fill="white"/>
</svg>
