<svg width="24" height="24" viewBox="0 0 24 24" fill="none" xmlns="http://www.w3.org/2000/svg">
<path d="M5 9.01001C5 5.71001 5 4.06001 6.03 3.04001C7.05 2.01001 8.7 2.01001 12 2.01001C15.3 2.01001 16.95 2.01001 17.97 3.04001C19 4.07001 19 5.72001 19 9.01001V15.01C19 18.31 19 19.96 17.97 20.98C16.94 22.01 15.29 22.01 12 22.01C8.71 22.01 7.05 22.01 6.03 20.98C5 19.95 5 18.3 5 15.01V9.01001Z" stroke="white" stroke-width="1.5" stroke-linecap="round"/>
<path d="M11 19.01H13" stroke="white" stroke-width="1.5" stroke-linecap="round" stroke-linejoin="round"/>
<path d="M9 2.01L9.09 2.54C9.29 3.75 9.4 4.32 9.83 4.67C10.24 5 10.83 5 12 5C13.17 5 13.81 4.99 14.22 4.62C14.62 4.27 14.71 3.69 14.91 2.53L15 2" stroke="white" stroke-width="1.5" stroke-linejoin="round"/>
</svg>
