<svg width="24" height="24" viewBox="0 0 24 24" fill="none" xmlns="http://www.w3.org/2000/svg">
<path d="M15.1293 14.1948L13.608 16.0961C11.252 14.7108 9.28796 12.7481 7.90396 10.3921L9.80529 8.87076C10.264 8.50409 10.4173 7.87343 10.1786 7.33743L8.44529 3.43476C8.18796 2.85609 7.55062 2.54943 6.93862 2.70809L3.63862 3.56409C3.00129 3.73076 2.58929 4.34809 2.67996 5.00009C3.86929 13.4721 10.528 20.1308 19.0013 21.3214C19.6533 21.4108 20.2706 20.9988 20.436 20.3628L21.292 17.0628C21.4506 16.4508 21.144 15.8148 20.5666 15.5574L16.664 13.8241C16.128 13.5854 15.4986 13.7388 15.1306 14.1961L15.1293 14.1948Z" stroke="white" stroke-width="1.5" stroke-linecap="round" stroke-linejoin="round"/>
</svg>
