<svg width="24" height="24" viewBox="0 0 24 24" fill="none" xmlns="http://www.w3.org/2000/svg">
<g clip-path="url(#clip0_42_8009)">
<g clip-path="url(#clip1_42_8009)">
<path d="M19.03 16.42C20.07 14.92 20.81 13.11 20.81 10.97V8.05001C20.81 6.40001 20.81 5.58001 20.4 5.05001C20 4.51001 19.09 4.25001 17.25 3.73001C16 3.38001 14.89 2.95001 14.01 2.56001C12.81 2.03001 12.2 1.76001 11.78 1.76001C11.36 1.76001 10.75 2.03001 9.55 2.56001C8.67 2.95001 7.56 3.38001 6.31 3.73001C4.47 4.25001 3.56 4.51001 3.15 5.05001C2.75 5.58001 2.75 6.40001 2.75 8.05001V10.97C2.75 13.11 3.48 14.91 4.53 16.42" stroke="white" stroke-width="1.5" stroke-linecap="round"/>
<path d="M16.3 9.32999C16.3 8.87999 16.2 8.41999 16.01 8.00999C15.68 7.28999 15.14 6.67999 14.46 6.23999C14.34 6.15999 14.22 6.07999 14.09 6.01999C13.68 5.75999 12.95 5.54999 12.48 5.48999C12.46 5.48999 12.43 5.48999 12.41 5.48999H11.2C11.2 5.48999 11.13 5.48999 11.1 5.48999C10.07 5.65999 9.13003 6.01999 8.37003 6.76999C8.23003 6.89999 8.09003 7.04999 7.98003 7.20999C7.92003 7.28999 7.87003 7.35999 7.81003 7.43999C7.41003 8.02999 7.30003 8.74999 7.33003 9.46999V12.56C7.34003 13.03 7.48003 13.28 7.78003 13.74L8.14003 14.3C8.37003 14.66 8.62003 15.02 8.89003 15.35C9.43003 16.02 9.87003 16.34 10.73 16.53C11.25 16.64 12.12 16.67 12.65 16.59C13.63 16.44 14.2 16.05 14.84 15.27C15.36 14.64 16.25 13.33 16.31 12.48L16.3 9.32999Z" stroke="white" stroke-width="1.5" stroke-miterlimit="10"/>
<path d="M16.29 12.3799L14.61 12.8699C12.77 13.3999 10.84 13.3999 9.00001 12.8699L7.32001 12.3799" stroke="white" stroke-width="1.5" stroke-miterlimit="10"/>
<path d="M7.52002 9.75008C9.03002 9.30008 10.63 9.19008 12.05 9.20008C13.48 9.18008 15.08 9.30008 16.58 9.75008" stroke="white" stroke-width="1.5" stroke-miterlimit="10"/>
<path d="M4.33002 21.75C5.07002 21.06 6.22002 20.5 6.85002 20.13C9.86002 18.4 13.68 18.4 16.7 20.13C17.33 20.49 18.48 21.04 19.22 21.75" stroke="white" stroke-width="1.5" stroke-linecap="round" stroke-linejoin="round"/>
</g>
</g>
<defs>
<clipPath id="clip0_42_8009">
<rect width="24" height="24" fill="white"/>
</clipPath>
<clipPath id="clip1_42_8009">
<rect width="19.56" height="21.5" fill="white" transform="translate(2 1)"/>
</clipPath>
</defs>
</svg>
