<svg width="24" height="24" viewBox="0 0 24 24" fill="none" xmlns="http://www.w3.org/2000/svg">
<path d="M12.3842 2.34327L19.1068 4.67691C19.6351 4.86444 20 5.39575 20 6V14.5C20 18.7089 13.9976 21.3671 12.3938 21.9297C12.1345 22.0234 11.8655 22.0234 11.6062 21.9297C9.9928 21.3671 4 18.7089 4 14.5V6C4 5.39575 4.35534 4.86444 4.89316 4.67691L11.6062 2.34327C11.8559 2.25993 12.1345 2.25993 12.3842 2.34327Z" stroke="white" stroke-width="1.5" stroke-linecap="round" stroke-linejoin="round"/>
<path d="M17.6373 18.7835C17.6373 18.7835 15.9999 16.0543 11.9999 16.0001C7.99989 15.9459 6.35278 18.5543 6.35278 18.5543" stroke="white" stroke-width="1.5" stroke-linecap="round" stroke-linejoin="round"/>
<path d="M15 10C15 11.6602 13.6602 13 12 13C10.3398 13 9 11.6602 9 10C9 8.33981 10.3398 7 12 7C13.6602 7 15 8.33981 15 10Z" stroke="white" stroke-width="1.51638"/>
</svg>
