<svg width="24" height="24" viewBox="0 0 24 24" fill="none" xmlns="http://www.w3.org/2000/svg">
<path d="M20.25 16.29C19.84 16.29 19.5 16.63 19.5 17.04C19.5 18.4 18.45 19.5 17.16 19.5H6.84C5.55 19.5 4.5 18.4 4.5 17.04C4.5 16.63 4.16 16.29 3.75 16.29C3.34 16.29 3 16.63 3 17.04C3 19.23 4.72 21 6.84 21H17.16C19.28 21 21 19.22 21 17.04C21 16.63 20.66 16.29 20.25 16.29V16.29Z" fill="#121212"/>
<path d="M11.4899 15.2895C11.4899 15.2895 11.5699 15.3395 11.6099 15.3695C11.6499 15.3895 11.6799 15.4195 11.7199 15.4395C11.8099 15.4795 11.9099 15.4995 11.9999 15.4995C12.0899 15.4995 12.1899 15.4795 12.2799 15.4395C12.3199 15.4195 12.3499 15.3895 12.3899 15.3695C12.4299 15.3395 12.4699 15.3295 12.5099 15.2895L16.2099 11.7995C16.5099 11.5195 16.5299 11.0395 16.2399 10.7395C15.9599 10.4395 15.4799 10.4295 15.1799 10.7095L12.7399 13.0095V3.74951C12.7399 3.33951 12.3999 2.99951 11.9899 2.99951C11.5799 2.99951 11.2399 3.33951 11.2399 3.74951V12.9995L8.79987 10.6995C8.49987 10.4195 8.01987 10.4295 7.73987 10.7295C7.45987 11.0295 7.46987 11.5095 7.76987 11.7895L11.4699 15.2795L11.4899 15.2895Z" fill="#121212"/>
</svg>
