<svg width="24" height="24" viewBox="0 0 24 24" fill="none" xmlns="http://www.w3.org/2000/svg">
<path d="M15.73 11.7001L19.5 12.9101C19.8 13.0101 20 13.2801 20 13.5901V18.2701C20 20.4501 16.64 21.6801 15.73 21.9701C15.58 22.0201 15.43 22.0201 15.29 21.9701C14.39 21.6801 11.02 20.4401 11.02 18.2701V13.5901C11.02 13.2801 11.22 13.0001 11.52 12.9101L15.29 11.7001C15.43 11.6501 15.59 11.6501 15.73 11.7001Z" stroke="white" stroke-width="1.5" stroke-linecap="round" stroke-linejoin="round"/>
<path d="M3.12012 8.21014H7.76012C8.51012 8.21014 9.12012 7.59014 9.12012 6.83014V2.14014" stroke="white" stroke-width="1.5" stroke-linecap="round" stroke-linejoin="round"/>
<path d="M20 10.1V5C20 3.34315 18.6569 2 17 2C14.56 2 12.12 2 9.68 2C9.32 2 8.97 2.14 8.72 2.4L3.4 7.8C3.14 8.06 3 8.41 3 8.78V19.24C3 20.76 4.22 22 5.72 22H10" stroke="white" stroke-width="1.5" stroke-linecap="round" stroke-linejoin="round"/>
</svg>
