<svg width="24" height="24" viewBox="0 0 24 24" fill="none" xmlns="http://www.w3.org/2000/svg">
<path d="M20.27 19.6C21.3 19.6 22 18.84 22 17.72V15.51C22 14.94 21.61 14.44 21.05 14.3L17 13.29L15.76 11.76C14.62 10.36 12.9 9.54004 11.09 9.54004H5.86C5.01 9.54004 4.22 9.97004 3.76 10.69L2.56 12.55C2.19 13.12 2 13.78 2 14.46V17.73C2 18.87 2.74 19.61 3.8 19.61" stroke="white" stroke-width="1.5" stroke-miterlimit="10"/>
<path d="M17.63 21.7902C18.84 21.7902 19.82 20.8102 19.82 19.6002C19.82 18.3902 18.84 17.4102 17.63 17.4102C16.42 17.4102 15.44 18.3902 15.44 19.6002C15.44 20.8102 16.42 21.7902 17.63 21.7902Z" stroke="white" stroke-width="1.5" stroke-linejoin="round"/>
<path d="M6 21.7902C7.21 21.7902 8.19 20.8102 8.19 19.6002C8.19 18.3902 7.21 17.4102 6 17.4102C4.79 17.4102 3.81 18.3902 3.81 19.6002C3.81 20.8102 4.79 21.7902 6 21.7902Z" stroke="white" stroke-width="1.5" stroke-linejoin="round"/>
<path d="M2.47 13.29H17.01" stroke="white" stroke-width="1.5" stroke-miterlimit="10"/>
<path d="M8.72 19.6001H15.29" stroke="white" stroke-width="1.5" stroke-miterlimit="10"/>
<path d="M11.85 7.11C12.15 4.79 14.13 3 16.53 3C19.13 3 21.24 5.11 21.24 7.71C21.24 9.33 20.42 10.77 19.17 11.61" stroke="white" stroke-width="1.5" stroke-linecap="round" stroke-linejoin="round"/>
<path d="M16.52 5.88989V7.60989H18.14" stroke="white" stroke-width="1.5" stroke-linecap="round" stroke-linejoin="round"/>
</svg>
