<svg width="24" height="24" viewBox="0 0 24 24" fill="none" xmlns="http://www.w3.org/2000/svg">
<path d="M17.7151 7.82189C18.5159 7.82189 19.1651 7.17718 19.1651 6.38189C19.1651 5.5866 18.5159 4.94189 17.7151 4.94189C16.9143 4.94189 16.2651 5.5866 16.2651 6.38189C16.2651 7.17718 16.9143 7.82189 17.7151 7.82189Z" fill="white"/>
<path d="M22.095 10.3518L21.665 5.2418C21.535 3.7518 20.345 2.5718 18.855 2.4418L13.715 2.0118C12.815 1.9318 11.915 2.2618 11.275 2.9018L2.615 11.5218C1.795 12.3418 1.795 13.6618 2.615 14.4718L9.575 21.3918C10.395 22.2118 11.725 22.2118 12.545 21.3918L21.205 12.7818C21.845 12.1418 22.175 11.2618 22.095 10.3618V10.3518Z" stroke="white" stroke-width="1.5"/>
<path d="M10.4231 10C11.3215 10 12.3355 10.8642 12.2692 12.3333C12.2058 13.7397 11.3462 14.3333 9.5 14.3333L12.5769 17" stroke="white" stroke-width="1.5" stroke-linecap="round" stroke-linejoin="round"/>
<path d="M9.5 12.2134H13.4418" stroke="white" stroke-width="1.5" stroke-linecap="round" stroke-linejoin="round"/>
<path d="M9.5 10H13.5" stroke="white" stroke-width="1.5" stroke-linecap="round" stroke-linejoin="round"/>
</svg>
