<svg width="24" height="24" viewBox="0 0 24 24" fill="none" xmlns="http://www.w3.org/2000/svg">
<path d="M7.66675 6.99992V3.66659C7.66675 2.93059 8.26408 2.33325 9.00008 2.33325H15.0001C15.7361 2.33325 16.3334 2.93059 16.3334 3.66659V6.99992" stroke="white" stroke-width="1.5" stroke-linecap="round" stroke-linejoin="round"/>
<path d="M7.66667 17.6667H5.66667C4.19333 17.6667 3 16.4733 3 15V9.66667C3 8.19333 4.19333 7 5.66667 7H18.3333C19.8067 7 21 8.19333 21 9.66667V15C21 16.4733 19.8067 17.6667 18.3333 17.6667H16.3333" stroke="white" stroke-width="1.5" stroke-linecap="round" stroke-linejoin="round"/>
<path d="M16.3334 13V20.3333C16.3334 21.0693 15.7361 21.6667 15.0001 21.6667H9.00008C8.26408 21.6667 7.66675 21.0693 7.66675 20.3333V13H16.3334Z" stroke="white" stroke-width="1.5" stroke-linecap="round" stroke-linejoin="round"/>
</svg>
