<svg width="24" height="24" viewBox="0 0 24 24" fill="none" xmlns="http://www.w3.org/2000/svg">
<path d="M14.8073 7.04615L20.2778 8.8C20.708 8.93846 21 9.33846 21 9.78461V16.5846C21 19.7385 16.1288 21.5385 14.8227 21.9538C14.6076 22.0154 14.3924 22.0154 14.1773 21.9538C12.8712 21.5231 8 19.7385 8 16.5846V9.78461C8 9.33846 8.29196 8.92308 8.72222 8.8L14.1927 7.04615C14.3924 6.98462 14.6229 6.98462 14.8227 7.04615H14.8073Z" stroke="white" stroke-width="1.5" stroke-linecap="round" stroke-linejoin="round"/>
<path d="M12.5 14.5L14 16L16.5 13.5" stroke="white" stroke-width="1.5" stroke-linecap="round" stroke-linejoin="round"/>
<path d="M16 4.78461C16 4.33846 15.708 3.93846 15.2778 3.8L9.80733 2.04615H9.82269C9.62293 1.98462 9.39243 1.98462 9.19267 2.04615L3.72222 3.8C3.29196 3.92308 3 4.33846 3 4.78461V11.5846C3 13.1238 4.16021 14.3369 5.5 15.2256" stroke="white" stroke-width="1.5" stroke-linecap="round" stroke-linejoin="round"/>
</svg>
