<svg width="24" height="24" viewBox="0 0 24 24" fill="none" xmlns="http://www.w3.org/2000/svg">
<path d="M22 12C22 17.52 17.52 22 12 22C6.48 22 2 17.52 2 12C2 6.48 6.48 2 12 2C17.52 2 22 6.48 22 12Z" stroke="white" stroke-width="1.5"/>
<path d="M14.75 9.5C14.75 11.02 13.52 12.25 12 12.25C10.48 12.25 9.25 11.02 9.25 9.5C9.25 7.98 10.48 6.75 12 6.75C13.52 6.75 14.75 7.98 14.75 9.5Z" stroke="white" stroke-width="1.5"/>
<path d="M5.5 19L6.06 18.02C6.95 16.46 8.61 15.5 10.4 15.5H13.6C15.39 15.5 17.05 16.46 17.94 18.02L18.5 19" stroke="white" stroke-width="1.5" stroke-linecap="round" stroke-linejoin="round"/>
</svg>
