<svg width="24" height="24" viewBox="0 0 24 24" fill="none" xmlns="http://www.w3.org/2000/svg">
<path d="M5 12.8137H3C2.45 12.8137 2 13.2637 2 13.8137V20.3137C2 20.8637 2.45 21.3137 3 21.3137H5C5.55 21.3137 6 20.8637 6 20.3137V13.8137C6 13.2637 5.55 12.8137 5 12.8137Z" stroke="white" stroke-width="1.5" stroke-linecap="round" stroke-linejoin="round"/>
<path d="M6 13.8137H11.75C12.44 13.8137 13 14.3737 13 15.0637C13 15.7537 12.44 16.3137 11.75 16.3137H9.5" stroke="white" stroke-width="1.5" stroke-linecap="round" stroke-linejoin="round"/>
<path d="M11 16.3138H14.69C15.54 16.3138 16.37 16.0438 17.05 15.5438L19.68 13.6138C20.25 13.1738 21.06 13.2238 21.58 13.7338C22.17 14.3238 22.13 15.2938 21.49 15.8338L17.09 19.4138C16.38 19.9938 15.48 20.3138 14.56 20.3138H6" stroke="white" stroke-width="1.5" stroke-linecap="round" stroke-linejoin="round"/>
<path d="M12.8922 2.3592L11.6975 2.83437C11.3123 2.9876 11.1242 3.42412 11.2774 3.80936L11.7526 5.00402C11.9058 5.38926 12.3424 5.57735 12.7276 5.42412L13.9223 4.94895C14.3075 4.79572 14.4956 4.3592 14.3424 3.97395L13.8672 2.7793C13.714 2.39406 13.2774 2.20597 12.8922 2.3592Z" fill="white"/>
<path d="M20 9.39647L14 6.91821L14.6653 12.9182L20 9.39647Z" stroke="white" stroke-width="1.5" stroke-linecap="round" stroke-linejoin="round"/>
<path d="M8 10.9182C9.65685 10.9182 11 9.57507 11 7.91821C11 6.26136 9.65685 4.91821 8 4.91821C6.34315 4.91821 5 6.26136 5 7.91821C5 9.57507 6.34315 10.9182 8 10.9182Z" stroke="white" stroke-width="1.5" stroke-linecap="round" stroke-linejoin="round"/>
</svg>
