<svg width="24" height="24" viewBox="0 0 24 24" fill="none" xmlns="http://www.w3.org/2000/svg">
<path d="M13.2172 15.9016V19.4065C13.2172 20.2509 12.9357 21.0772 12.4272 21.7401" stroke="white" stroke-width="1.5" stroke-linecap="round" stroke-linejoin="round"/>
<path d="M3.84619 21.74V14.6303C3.84619 13.795 4.17307 12.9959 4.75419 12.4057L6.27056 10.8621L6.47032 10.6624" stroke="white" stroke-width="1.5" stroke-linecap="round" stroke-linejoin="round"/>
<path d="M6.90625 14.9846L9.49406 12.3695C10.1206 11.7339 11.1466 11.7339 11.7731 12.3695C12.3997 13.0051 12.3997 14.0402 11.7731 14.6759L10.0298 16.4374C10.5292 16.9549 10.8288 17.6632 10.8288 18.4441C10.8288 19.2249 10.5201 19.9423 10.0116 20.4598" stroke="white" stroke-width="1.5" stroke-linecap="round" stroke-linejoin="round"/>
<path d="M9.33092 12.4693C9.18564 12.2513 8.98588 12.0697 8.7498 11.9426L6.7976 10.853C5.62627 10.1993 5.61719 8.51946 6.78852 7.85661L8.73164 6.74885C9.16748 6.50369 9.47621 6.07693 9.56701 5.58661L10.0028 3.38924C10.2662 2.07264 11.8643 1.54599 12.854 2.454L14.5065 3.96128C14.8788 4.29724 15.3782 4.46068 15.8685 4.39712L18.0932 4.1338C19.4279 3.97944 20.4176 5.33237 19.8638 6.55817L18.9376 8.60118C18.7288 9.05518 18.7288 9.58182 18.9376 10.0358L19.8728 12.0697C20.4358 13.2865 19.4461 14.6485 18.1204 14.5032L15.8958 14.249C15.3964 14.1945 14.897 14.3579 14.5338 14.6939L12.8903 16.2102C12.1276 16.9185 11.0016 16.7641 10.4024 16.0559" stroke="white" stroke-width="1.5" stroke-linecap="round" stroke-linejoin="round"/>
<path d="M3.94632 3.93392L3.16543 4.86917C2.91119 5.16881 2.95659 5.61373 3.25624 5.86797L4.1824 6.64885C4.48204 6.90309 4.92696 6.85769 5.1812 6.55805L5.96208 5.63189C6.21632 5.33225 6.17092 4.88733 5.87128 4.63309L4.94512 3.8522C4.64548 3.59796 4.20056 3.64336 3.94632 3.943V3.93392Z" fill="white"/>
<path d="M15.9049 19.143C15.6416 19.5788 15.9685 20.1236 16.4679 20.1145L18.5926 20.0691C19.092 20.0601 19.3917 19.4971 19.1102 19.0794L18.0115 17.4178C17.7482 17.0273 17.1671 17.0364 16.931 17.445L15.9049 19.1521V19.143Z" fill="white"/>
</svg>
