<svg width="24" height="24" viewBox="0 0 24 24" fill="none" xmlns="http://www.w3.org/2000/svg">
<path d="M12.4901 2.313L19.4901 4.55295C20.0421 4.73025 20.4167 5.2437 20.4167 5.82225V14.5157C20.4167 18.5556 14.1714 20.8463 12.4941 21.389C12.2235 21.477 11.9434 21.477 11.6727 21.389C9.9954 20.8463 3.75 18.5556 3.75 14.5157V5.8224C3.75 5.24235 4.1247 4.72905 4.6767 4.5531L11.6766 2.313C11.9406 2.229 12.2247 2.229 12.4901 2.313Z" stroke="white" stroke-width="1.5" stroke-linecap="round" stroke-linejoin="round"/>
<path d="M14.2433 14.1286C13.66 14.7119 12.854 15.0728 11.9638 15.0728C10.1833 15.0728 8.73999 13.6295 8.73999 11.849C8.73999 10.0685 10.1833 8.62524 11.9638 8.62524C12.9317 8.62524 13.8001 9.05184 14.3909 9.72729" stroke="white" stroke-width="1.5" stroke-linecap="round" stroke-linejoin="round"/>
<path d="M13 13.0001L14.8838 13.0001L14.8838 14.8838" stroke="white" stroke-width="1.5" stroke-linecap="round" stroke-linejoin="round"/>
</svg>
