<svg width="24" height="24" viewBox="0 0 24 24" fill="none" xmlns="http://www.w3.org/2000/svg">
<path d="M12.4082 2.06251L19.551 4.39615C20.1122 4.58367 20.5 5.11499 20.5 5.71923V14.7725C20.5 18.9814 14.1224 21.3671 12.4184 21.9297C12.1429 22.0234 11.8571 22.0234 11.5816 21.9297C9.86735 21.3671 3.5 18.9814 3.5 14.7725V5.71923C3.5 5.11499 3.87755 4.58367 4.44898 4.39615L11.5816 2.06251C11.8469 1.97916 12.1429 1.97916 12.4082 2.06251Z" stroke="white" stroke-width="1.5" stroke-linecap="round" stroke-linejoin="round"/>
<path d="M14.2433 14.1283C13.66 14.7117 12.854 15.0726 11.9638 15.0726C10.1833 15.0726 8.73999 13.6293 8.73999 11.8488C8.73999 10.0683 10.1833 8.625 11.9638 8.625C12.9317 8.625 13.8001 9.0516 14.3909 9.72705" stroke="white" stroke-width="1.5" stroke-linecap="round" stroke-linejoin="round"/>
<path d="M15.3329 8.78516V10.669H13.4492" stroke="white" stroke-width="1.5" stroke-linecap="round" stroke-linejoin="round"/>
</svg>
