<svg width="24" height="24" viewBox="0 0 24 24" fill="none" xmlns="http://www.w3.org/2000/svg">
<path d="M14.37 16.25C18.03 16.25 21 13.28 21 9.62C21 5.96 18.03 3 14.37 3C10.71 3 7.74 5.97 7.74 9.63C7.74 10.6 7.95 11.53 8.33 12.36L2 18.68V21.99H5.31V19.78H7.52V17.57H9.73L11.64 15.66C12.47 16.04 13.4 16.25 14.37 16.25Z" stroke="white" stroke-width="1.5" stroke-linecap="round" stroke-linejoin="round"/>
<path d="M13.4 6.5C14.276 6.5 15.2647 7.36419 15.2 8.83333C15.1381 10.2397 14.3 10.8333 12.5 10.8333L15.5 13.5" stroke="white" stroke-width="1.5" stroke-linecap="round" stroke-linejoin="round"/>
<path d="M12.5 8.71338H16.3432" stroke="white" stroke-width="1.5" stroke-linecap="round" stroke-linejoin="round"/>
<path d="M12.5 6.5H16.4" stroke="white" stroke-width="1.5" stroke-linecap="round" stroke-linejoin="round"/>
</svg>
