<svg width="24" height="24" viewBox="0 0 24 24" fill="none" xmlns="http://www.w3.org/2000/svg">
<path d="M12.0001 14.3334C13.2887 14.3334 14.3334 13.2887 14.3334 12.0001C14.3334 10.7114 13.2887 9.66675 12.0001 9.66675C10.7114 9.66675 9.66675 10.7114 9.66675 12.0001C9.66675 13.2887 10.7114 14.3334 12.0001 14.3334Z" stroke="white" stroke-width="1.5" stroke-linecap="round" stroke-linejoin="round"/>
<path d="M15.2921 20.276C14.3535 21.364 13.2215 22 12.0001 22C8.76278 22 6.13745 17.5227 6.13745 12C6.13745 6.47733 8.76278 2 12.0001 2C15.2375 2 17.8628 6.47733 17.8628 12C17.8628 13.8453 17.5695 15.5747 17.0588 17.0573" stroke="white" stroke-width="1.5" stroke-linecap="round" stroke-linejoin="round"/>
<path d="M10.6213 6.19334C11.072 6.15734 11.5333 6.13867 12 6.13867C17.5227 6.13867 22 8.76267 22 12.0013C22 15.24 17.5227 17.864 12 17.864C6.47733 17.864 2 15.2373 2 12C2 9.84401 3.98533 7.96001 6.94267 6.94134" stroke="white" stroke-width="1.5" stroke-linecap="round" stroke-linejoin="round"/>
</svg>
