<svg width="24" height="24" viewBox="0 0 24 24" fill="none" xmlns="http://www.w3.org/2000/svg">
<path d="M6.42 22.6899C6.42 22.6899 6.37 22.5799 6.37 22.4799V18.2099C6.37 18.1099 6.39 18.0399 6.42 17.9999C6.46 17.9599 6.52 17.9399 6.61 17.9399H8.16C8.59 17.9399 8.94 18.0799 9.2 18.3499C9.46 18.6199 9.59 18.9999 9.59 19.4799C9.59 20.1299 9.35 20.5699 8.88 20.7699C8.94 20.8299 9.01 20.9399 9.08 21.0799L9.67 22.4599C9.69 22.5199 9.7 22.5699 9.7 22.5999C9.7 22.6899 9.64 22.7399 9.52 22.7399H9.01C8.86 22.7399 8.76 22.7199 8.71 22.6899C8.66 22.6599 8.61 22.5899 8.57 22.4899L8.15 21.4299C8.07 21.2499 8.01 21.1299 7.95 21.0699C7.9 21.0199 7.8 20.9899 7.67 20.9899H7.36V22.4699C7.36 22.5699 7.34 22.6399 7.31 22.6799C7.28 22.7199 7.22 22.7399 7.13 22.7399H6.62C6.53 22.7399 6.47 22.7199 6.43 22.6799L6.42 22.6899ZM8.11 20.0699C8.26 20.0699 8.38 20.0199 8.47 19.9199C8.56 19.8199 8.61 19.6799 8.61 19.4999C8.61 19.3199 8.57 19.1799 8.48 19.0799C8.39 18.9799 8.27 18.9299 8.12 18.9299H7.36V20.0799H8.12L8.11 20.0699Z" fill="white"/>
<path d="M11.11 22.6999C11.11 22.6999 11.06 22.5899 11.06 22.4899V18.9199H10.19C10.1 18.9199 10.03 18.8999 10 18.8599C9.97001 18.8199 9.95001 18.7499 9.95001 18.6399V18.2099C9.95001 18.1099 9.97001 18.0299 10 17.9999C10.03 17.9599 10.1 17.9399 10.19 17.9399H12.91C13 17.9399 13.07 17.9599 13.1 17.9999C13.13 18.0399 13.15 18.1099 13.15 18.2099V18.6399C13.15 18.7399 13.13 18.8199 13.1 18.8599C13.07 18.8999 13 18.9199 12.91 18.9199H12.04V22.4899C12.04 22.5899 12.02 22.6599 11.99 22.6999C11.95 22.7399 11.89 22.7599 11.8 22.7599H11.3C11.21 22.7599 11.15 22.7399 11.11 22.6999Z" fill="white"/>
<path d="M13.96 22.25C13.66 21.93 13.51 21.49 13.51 20.92V19.52C13.51 18.96 13.66 18.51 13.96 18.19C14.26 17.87 14.68 17.71 15.23 17.71C15.78 17.71 16.21 17.87 16.51 18.19C16.81 18.51 16.96 18.95 16.96 19.52V20.92C16.96 21.48 16.81 21.93 16.51 22.25C16.21 22.57 15.78 22.73 15.23 22.73C14.68 22.73 14.26 22.57 13.96 22.25ZM14.67 21.55C14.79 21.69 14.98 21.76 15.22 21.76C15.46 21.76 15.65 21.69 15.77 21.55C15.89 21.41 15.96 21.21 15.96 20.94V19.5C15.96 19.23 15.9 19.03 15.77 18.89C15.64 18.75 15.46 18.68 15.22 18.68C14.98 18.68 14.79 18.75 14.67 18.89C14.55 19.03 14.48 19.23 14.48 19.5V20.94C14.48 21.21 14.54 21.41 14.67 21.55Z" fill="white"/>
<path d="M3.12 8.27989H7.81C8.57 8.27989 9.19 7.64989 9.19 6.87989V2.13989" stroke="white" stroke-width="1.5" stroke-linecap="round" stroke-linejoin="round"/>
<path d="M19.19 21.61C19.81 21.1 20.2 20.32 20.2 19.45V4.79C20.2 3.25 18.97 2 17.45 2H9.76C9.4 2 9.04 2.15 8.79 2.41L3.4 7.87C3.14 8.13 3 8.49 3 8.86V19.45C3 20.49 3.56 21.4 4.4 21.88" stroke="white" stroke-width="1.5" stroke-linecap="round" stroke-linejoin="round"/>
</svg>
