<svg width="24" height="24" viewBox="0 0 24 24" fill="none" xmlns="http://www.w3.org/2000/svg">
<path d="M5 13.4128H3C2.45 13.4128 2 13.8628 2 14.4128V20.9128C2 21.4628 2.45 21.9128 3 21.9128H5C5.55 21.9128 6 21.4628 6 20.9128V14.4128C6 13.8628 5.55 13.4128 5 13.4128Z" stroke="white" stroke-width="1.5" stroke-linecap="round" stroke-linejoin="round"/>
<path d="M6 14.4128H11.75C12.44 14.4128 13 14.9728 13 15.6628C13 16.3528 12.44 16.9128 11.75 16.9128H9.5" stroke="white" stroke-width="1.5" stroke-linecap="round" stroke-linejoin="round"/>
<path d="M11 16.9129H14.69C15.54 16.9129 16.37 16.6429 17.05 16.1429L19.68 14.2129C20.25 13.7729 21.06 13.8229 21.58 14.3329C22.17 14.9229 22.13 15.8929 21.49 16.4329L17.09 20.0129C16.38 20.5929 15.48 20.9129 14.56 20.9129H6" stroke="white" stroke-width="1.5" stroke-linecap="round" stroke-linejoin="round"/>
<path d="M13.856 12.4414C16.6387 13.1949 19.5053 11.5498 20.2588 8.76709C21.0122 5.98436 19.3672 3.11772 16.5845 2.36426C13.8017 1.6108 10.9351 3.25585 10.1816 6.03857C9.42818 8.8213 11.0732 11.6879 13.856 12.4414Z" stroke="white" stroke-width="1.5" stroke-linecap="round" stroke-linejoin="round"/>
<path d="M15.0332 4.56115C15.7785 4.76294 16.4257 5.712 16.04 6.91173C15.6675 8.06287 14.8208 8.36399 13.2898 7.94945L15.2486 10.8621" stroke="white" stroke-width="1.5" stroke-linecap="round" stroke-linejoin="round"/>
<path d="M13.7656 6.19165L17.0383 7.07776" stroke="white" stroke-width="1.5" stroke-linecap="round" stroke-linejoin="round"/>
<path d="M14.2637 4.35278L17.5849 5.25205" stroke="white" stroke-width="1.5" stroke-linecap="round" stroke-linejoin="round"/>
</svg>
