<svg width="24" height="24" viewBox="0 0 24 24" fill="none" xmlns="http://www.w3.org/2000/svg">
<path d="M12.99 4C17.96 4 21.99 7.36 21.99 11.5C21.99 13.56 21 15.42 19.38 16.78C19.14 16.98 18.99 17.28 18.99 17.59V20H16.99L16.2 18.87C16.08 18.69 15.86 18.62 15.65 18.67C13.92 19.11 12.07 19.11 10.34 18.67C10.13 18.62 9.91 18.69 9.79 18.87L9 20H7V17.62C7 17.29 6.84 16.98 6.57 16.8C5.5 16.06 2 14.61 2 13.07V11.51C2 10.92 2.45 10.44 3 10.44C3.61 10.44 4.1 10.2 4.3 9.58C4.56 8.76 4.99 8 5.54 7.31C5.56 7.29 5.56 5.96 5.56 4.93C5.56 4.37 6.13 3.98 6.65 4.19L8.6 4.96C8.6 4.96 8.68 4.92 8.72 4.91C9.99 4.34 11.45 4.01 13 4.01L12.99 4Z" stroke="white" stroke-width="1.5" stroke-linejoin="round"/>
<path d="M15.1799 7.3001C14.5499 7.0001 13.8799 6.8501 13.1799 6.8501C12.4799 6.8501 11.8099 7.0101 11.1799 7.3001" stroke="white" stroke-width="1.5" stroke-linecap="round" stroke-linejoin="round"/>
<path d="M20.99 7.50005C21.54 7.50005 22.4 5.42005 20.99 4.55005" stroke="white" stroke-width="1.5" stroke-linecap="round"/>
<path d="M7.73999 11.25V10.75" stroke="white" stroke-width="2" stroke-linecap="round" stroke-linejoin="round"/>
</svg>
