<svg width="24" height="24" viewBox="0 0 24 24" fill="none" xmlns="http://www.w3.org/2000/svg">
<path d="M17.6665 7H21.6665" stroke="white" stroke-width="1.5" stroke-linecap="round" stroke-linejoin="round"/>
<path d="M2.33325 7H11.6666" stroke="white" stroke-width="1.5" stroke-linecap="round" stroke-linejoin="round"/>
<path d="M14.6665 10C16.3234 10 17.6665 8.65685 17.6665 7C17.6665 5.34315 16.3234 4 14.6665 4C13.0096 4 11.6665 5.34315 11.6665 7C11.6665 8.65685 13.0096 10 14.6665 10Z" stroke="white" stroke-width="1.5" stroke-linecap="round" stroke-linejoin="round"/>
<path d="M6.33325 17H2.33325" stroke="white" stroke-width="1.5" stroke-linecap="round" stroke-linejoin="round"/>
<path d="M21.6666 17H12.3333" stroke="white" stroke-width="1.5" stroke-linecap="round" stroke-linejoin="round"/>
<path d="M9.33325 20C10.9901 20 12.3333 18.6569 12.3333 17C12.3333 15.3431 10.9901 14 9.33325 14C7.6764 14 6.33325 15.3431 6.33325 17C6.33325 18.6569 7.6764 20 9.33325 20Z" stroke="white" stroke-width="1.5" stroke-linecap="round" stroke-linejoin="round"/>
</svg>
