<svg width="24" height="24" viewBox="0 0 24 24" fill="none" xmlns="http://www.w3.org/2000/svg">
<g clip-path="url(#clip0_43_8349)">
<path d="M12.5 2.99951L12.5 1.49951M10 4.49951L9 3.49951" stroke="white" stroke-width="1.5" stroke-linecap="round" stroke-linejoin="round"/>
<path d="M10.1216 22.849C11.3144 21.5883 11.5133 21.5441 11.8759 21.3609C12.2385 21.1777 13.85 20.8209 14.775 20.3398C17.768 18.783 17.5826 17.6299 17.3353 16.0924C17.0612 14.3874 15.636 12.2516 14.6318 11.4043L18.2601 7.77607C18.8775 7.15865 18.7905 6.06198 18.1586 5.43011C17.5267 4.79816 16.4409 4.72208 15.8235 5.3395L9.59111 11.5719L9.41985 9.16483C9.44491 8.3006 8.81568 7.58125 7.95103 7.5255C7.13162 7.47271 6.42246 8.05458 6.31812 8.86532L6.06754 10.8114M6.06754 10.8114C6.01848 11.2256 5.96032 11.6924 5.88455 12.2327M6.06754 10.8114L5.88455 12.2327M6.06754 10.8114C6.16834 9.96098 6.23099 9.33246 6.33049 8.74512M4.18244 16.9098L4.82218 16.27C5.63984 15.5087 5.5672 14.4058 5.83052 12.6094C5.84952 12.4799 5.86745 12.3545 5.88455 12.2327M5.88455 12.2327L5.65779 13.9937" stroke="white" stroke-width="1.5" stroke-linecap="round" stroke-linejoin="round"/>
</g>
<defs>
<clipPath id="clip0_43_8349">
<rect width="24" height="24" fill="white"/>
</clipPath>
</defs>
</svg>
