<svg width="24" height="24" viewBox="0 0 24 24" fill="none" xmlns="http://www.w3.org/2000/svg">
<g clip-path="url(#clip0_42_8271)">
<path d="M6.05994 7.06568C6.67994 7.06568 7.17994 6.56568 7.17994 5.94568C7.17994 5.32568 6.67994 4.82568 6.05994 4.82568C5.43994 4.82568 4.93994 5.32568 4.93994 5.94568C4.93994 6.56568 5.43994 7.06568 6.05994 7.06568Z" stroke="white" stroke-width="1.5" stroke-linecap="round" stroke-linejoin="round"/>
<path d="M9.79 19.8755C10.28 20.3355 10.78 20.7855 11.28 21.2355C12.4 22.2355 14.09 22.2555 15.28 21.3355C17.64 19.5055 19.64 17.5055 21.47 15.1455C22.39 13.9555 22.37 12.2655 21.37 11.1455C18.65 8.10553 15.8 5.31553 12.67 2.62553C12.36 2.35553 11.98 2.19553 11.58 2.15553C9.78 1.99553 4.61 1.65553 3.21 3.05553C1.78 4.47553 2.12 9.65553 2.29 11.4455C2.33 11.8555 2.49 12.2355 2.76 12.5355C3.22 13.0755 3.71 13.6255 4.18 14.1455" stroke="white" stroke-width="1.5" stroke-linecap="round"/>
<path d="M11.24 17.0156C13.59 17.0156 15.51 15.1056 15.51 12.7456C15.51 10.3856 13.6 8.47559 11.24 8.47559C8.88 8.47559 6.97 10.3856 6.97 12.7456C6.97 13.3756 7.11 13.9656 7.35 14.5056L2 19.8556V21.9856H4.13V20.5656H5.55V19.1456H6.97L9.48 16.6356C10.01 16.8756 10.61 17.0156 11.24 17.0156Z" stroke="white" stroke-width="1.5" stroke-linecap="round" stroke-linejoin="round"/>
<path d="M13.13 12.4957L11.49 10.8557" stroke="white" stroke-width="1.5" stroke-linecap="round" stroke-linejoin="round"/>
</g>
<defs>
<clipPath id="clip0_42_8271">
<rect width="24" height="24" fill="white"/>
</clipPath>
</defs>
</svg>
