<svg width="24" height="24" viewBox="0 0 24 24" fill="none" xmlns="http://www.w3.org/2000/svg">
<path d="M11.1092 3.74833C11.4802 3.02041 12.5202 3.02041 12.8912 3.74833L15.0787 8.04074C15.2239 8.32565 15.4966 8.52394 15.8124 8.57424L20.5673 9.33151C21.3732 9.45987 21.6943 10.4474 21.118 11.0252L17.714 14.4383C17.4885 14.6644 17.3846 14.9846 17.4343 15.3001L18.1845 20.0635C18.3116 20.8702 17.4705 21.4808 16.7428 21.1102L12.4541 18.9254C12.1689 18.7801 11.8315 18.7801 11.5463 18.9254L7.25756 21.1102C6.5299 21.4808 5.68876 20.8702 5.81582 20.0635L6.56611 15.3001C6.61579 14.9846 6.51184 14.6644 6.28634 14.4383L2.88234 11.0252C2.30607 10.4474 2.6272 9.45987 3.43311 9.33151L8.18799 8.57424C8.50379 8.52394 8.77649 8.32565 8.92168 8.04074L11.1092 3.74833Z" stroke="white" stroke-width="1.5" stroke-linejoin="round"/>
</svg>
