<svg width="24" height="24" viewBox="0 0 24 24" fill="none" xmlns="http://www.w3.org/2000/svg">
<path d="M2.33325 5.66675H9.78125C10.1346 5.66675 10.4746 5.80675 10.7239 6.05741L18.4479 13.7814C19.4893 14.8227 19.4893 16.5107 18.4479 17.5521L14.2186 21.7814C13.1773 22.8227 11.4893 22.8227 10.4479 21.7814L2.72392 14.0574C2.47325 13.8067 2.33325 13.4681 2.33325 13.1147V5.66675Z" stroke="white" stroke-width="1.5" stroke-linecap="round" stroke-linejoin="round"/>
<path d="M4.33325 2.33341V1.66675H11.7813C12.1346 1.66675 12.4746 1.80675 12.7239 2.05741L20.4479 9.78141C21.0239 10.3574 21.2813 11.1307 21.2199 11.8841" stroke="white" stroke-width="1.5" stroke-linecap="round" stroke-linejoin="round"/>
<path d="M6.99992 12.0001C7.92039 12.0001 8.66658 11.2539 8.66658 10.3334C8.66658 9.41294 7.92039 8.66675 6.99992 8.66675C6.07944 8.66675 5.33325 9.41294 5.33325 10.3334C5.33325 11.2539 6.07944 12.0001 6.99992 12.0001Z" fill="white"/>
</svg>
