<svg width="24" height="24" viewBox="0 0 24 24" fill="none" xmlns="http://www.w3.org/2000/svg">
<path d="M15.6766 20.9972C12.942 20.9972 9.76661 19.449 7.16222 16.8422C2.97517 12.6573 1.75309 7.30374 4.38753 4.66693L5.66972 3.38848C5.94313 3.13861 6.30053 3 6.67141 3C7.04228 3 7.39969 3.13861 7.67309 3.38848L11.0287 6.74443C11.165 6.87908 11.2732 7.03933 11.347 7.21591C11.4208 7.39248 11.4589 7.58188 11.4589 7.77319C11.4589 7.96449 11.4208 8.15389 11.347 8.33047C11.2732 8.50704 11.165 8.66729 11.0287 8.80194L9.7266 10.1004C9.60656 10.2215 9.53276 10.3807 9.51812 10.5504C9.50349 10.72 9.54886 10.8895 9.64639 11.0293C10.0885 11.672 10.5916 12.2707 11.1489 12.8171C11.6942 13.3748 12.2912 13.8797 12.932 14.3253C13.0733 14.4212 13.2439 14.4648 13.4141 14.4484C13.5843 14.432 13.7433 14.3566 13.8636 14.2354L15.1557 12.9369C15.4334 12.672 15.803 12.5241 16.1874 12.5241C16.5718 12.5241 16.9415 12.672 17.2192 12.9369L20.5748 16.2929C20.847 16.5645 21 16.9327 21 17.3166C21 17.7006 20.847 18.0688 20.5748 18.3404L19.3027 19.6188C18.8206 20.0776 18.2516 20.4358 17.629 20.6724C17.0063 20.9091 16.3426 21.0195 15.6766 20.9972ZM6.66138 4.44719L5.4594 5.72565C3.45603 7.72323 4.74821 12.3077 8.22407 15.7935C10.5179 18.0807 13.3727 19.499 15.6766 19.499C16.1517 19.5247 16.6271 19.4548 17.0746 19.2936C17.522 19.1323 17.9322 18.8828 18.2809 18.5601L19.5531 17.2817L16.2075 13.9957L14.9754 15.2941C14.6088 15.6584 14.1267 15.8844 13.6114 15.9336C13.0962 15.9828 12.5799 15.8521 12.1506 15.5638C11.4278 15.0694 10.7566 14.5039 10.1472 13.8758C9.51978 13.2658 8.95293 12.5968 8.45444 11.8782C8.16714 11.4495 8.03711 10.9351 8.08639 10.4219C8.13567 9.90864 8.36126 9.42816 8.72492 9.06164L10.027 7.76319L6.66138 4.44719Z" fill="#121212"/>
</svg>
