<svg width="24" height="24" viewBox="0 0 24 24" fill="none" xmlns="http://www.w3.org/2000/svg">
<path d="M12 11.9998L16.3333 7.6665" stroke="white" stroke-width="1.5" stroke-linecap="round" stroke-linejoin="round"/>
<path d="M16.3333 7.66658V4.66659L19.6666 1.33325V4.33325H22.6666L19.3333 7.66658H16.3333Z" stroke="white" stroke-width="1.5" stroke-linecap="round" stroke-linejoin="round"/>
<path d="M13.8133 2.50925C13.2253 2.39725 12.6199 2.33325 11.9999 2.33325C6.66125 2.33325 2.33325 6.66125 2.33325 11.9999C2.33325 17.3386 6.66125 21.6666 11.9999 21.6666C17.3386 21.6666 21.6666 17.3386 21.6666 11.9999C21.6666 11.3799 21.6026 10.7746 21.4906 10.1866" stroke="white" stroke-width="1.5" stroke-linecap="round" stroke-linejoin="round"/>
<path d="M12.8653 6.41992C12.5813 6.37592 12.2959 6.33325 11.9999 6.33325C8.87059 6.33325 6.33325 8.87059 6.33325 11.9999C6.33325 15.1293 8.87059 17.6666 11.9999 17.6666C15.1293 17.6666 17.6666 15.1293 17.6666 11.9999C17.6666 11.7039 17.6226 11.4186 17.5799 11.1346" stroke="white" stroke-width="1.5" stroke-linecap="round" stroke-linejoin="round"/>
</svg>
