<svg width="24" height="24" viewBox="0 0 24 24" fill="none" xmlns="http://www.w3.org/2000/svg">
<path d="M20.9876 16.85C20.3276 12.9 18.2876 9.96001 16.5076 8.23001C15.9876 7.73001 15.7276 7.48001 15.1576 7.24001C14.5876 7.01001 14.0976 7.01001 13.1176 7.01001H10.9276C9.94764 7.01001 9.45764 7.01001 8.88764 7.24001C8.31764 7.47001 8.05764 7.72001 7.53764 8.23001C5.75764 9.96001 3.71764 12.9 3.05764 16.85C2.56764 19.79 5.27764 22.01 8.30764 22.01H15.7276C18.7576 22.01 21.4676 19.78 20.9776 16.85H20.9876Z" stroke="white" stroke-width="1.5" stroke-linecap="round"/>
<path d="M16.6375 3.65C16.0075 3.55 15.3475 3.99 14.7075 3.98C14.1275 3.98 13.8275 3.71 13.5075 3.34C13.1675 2.95 12.6475 2 12.0175 2C11.3875 2 10.8575 2.95 10.5275 3.34C10.2075 3.71 9.9075 3.97 9.3275 3.98C8.6875 3.98 8.0275 3.56 7.3975 3.65C6.7775 3.74 7.0775 4.15 7.2875 4.45L8.2175 5.8C8.6175 6.38 8.8175 6.67 9.2375 6.84C9.6575 7.01 10.1975 7 11.2775 7H12.8075C13.8875 7 14.4275 7 14.8475 6.84C15.2675 6.68 15.4675 6.39 15.8675 5.8L16.7975 4.45C17.0075 4.15 17.3075 3.74 16.6875 3.65H16.6375Z" stroke="white" stroke-width="1.5" stroke-linecap="round"/>
<path d="M9.52759 12.51L9.77759 12.26M14.2376 17.21L14.4876 16.96" stroke="white" stroke-width="2" stroke-linecap="round" stroke-linejoin="round"/>
<path d="M9.2876 17.46L14.7376 12.01" stroke="white" stroke-width="1.5" stroke-linecap="round" stroke-linejoin="round"/>
</svg>
