<svg width="24" height="24" viewBox="0 0 24 24" fill="none" xmlns="http://www.w3.org/2000/svg">
<path d="M3.8 17.37C2.75 17.37 2 16.63 2 15.49V12.22C2 11.54 2.2 10.88 2.57 10.31L3.77 8.44004C4.23 7.73004 5.02 7.29004 5.87 7.29004H11.11C11.44 7.29004 11.77 7.32004 12.09 7.38004C13.53 7.61004 14.85 8.37004 15.79 9.52004L17.04 11.05L21.1 12.07C21.65 12.21 22.05 12.71 22.05 13.28V15.49C22.05 16.61 21.34 17.37 20.31 17.37" stroke="white" stroke-width="1.5" stroke-miterlimit="10"/>
<path d="M17.66 19.5599C18.87 19.5599 19.85 18.5799 19.85 17.3699C19.85 16.1599 18.87 15.1799 17.66 15.1799C16.45 15.1799 15.47 16.1599 15.47 17.3699C15.47 18.5799 16.45 19.5599 17.66 19.5599Z" stroke="white" stroke-width="1.5" stroke-linejoin="round"/>
<path d="M6.01001 19.5599C7.22001 19.5599 8.20001 18.5799 8.20001 17.3699C8.20001 16.1599 7.22001 15.1799 6.01001 15.1799C4.80001 15.1799 3.82001 16.1599 3.82001 17.3699C3.82001 18.5799 4.80001 19.5599 6.01001 19.5599Z" stroke="white" stroke-width="1.5" stroke-linejoin="round"/>
<path d="M2.47 11.05H4.31" stroke="white" stroke-width="1.5" stroke-miterlimit="10" stroke-linecap="round"/>
<path d="M6.5 11.05H8.34" stroke="white" stroke-width="1.5" stroke-miterlimit="10" stroke-linecap="round"/>
<path d="M10.54 11.05H12.38" stroke="white" stroke-width="1.5" stroke-miterlimit="10" stroke-linecap="round"/>
<path d="M14.57 11.05H16.41" stroke="white" stroke-width="1.5" stroke-miterlimit="10" stroke-linecap="round"/>
<path d="M8.73999 17.3701H15.32" stroke="white" stroke-width="1.5" stroke-miterlimit="10"/>
<path d="M12.13 7.36C12.13 7.36 12.12 7.37 12.09 7.38C11.77 7.32 11.44 7.29 11.11 7.29H6.80999C6.77999 7.22 6.75999 7.14 6.73999 7.06L7.31999 5.6C7.45999 5.23 7.80999 5 8.19999 5H10.71C11.13 5 11.5 5.27 11.62 5.67L12.13 7.36Z" stroke="white" stroke-width="1.5" stroke-miterlimit="10" stroke-linecap="round"/>
</svg>
