<svg width="24" height="24" viewBox="0 0 24 24" fill="none" xmlns="http://www.w3.org/2000/svg">
<path d="M11.7499 13.5901C9.75994 13.4001 7.72994 13.8301 5.96994 14.8801C4.69994 15.6401 1.35994 17.1901 3.38994 19.1201C4.37994 20.0701 5.48994 20.7401 6.87994 20.7401H12.6499" stroke="white" stroke-width="1.5" stroke-linecap="round" stroke-linejoin="round"/>
<path d="M14.8998 6.8C14.8998 9.04 13.0898 10.85 10.8498 10.85C8.6098 10.85 6.7998 9.04 6.7998 6.8C6.7998 4.56 8.6098 2.75 10.8498 2.75C13.0898 2.75 14.8998 4.56 14.8998 6.8Z" stroke="white" stroke-width="1.5"/>
<path d="M19.1202 20.7501V18.2201C20.3502 17.6801 21.2002 16.4501 21.2002 15.0201C21.2002 13.5901 20.3502 12.3601 19.1202 11.8101V13.8301L17.7002 15.2401L16.2902 13.8301V11.8101C15.0602 12.3601 14.2002 13.5901 14.2002 15.0201C14.2002 16.4501 15.0602 17.6801 16.2902 18.2201V20.7501" stroke="white" stroke-width="1.5" stroke-linecap="round" stroke-linejoin="round"/>
</svg>
