<svg width="24" height="24" viewBox="0 0 24 24" fill="none" xmlns="http://www.w3.org/2000/svg">
<g clip-path="url(#clip0_42_7981)">
<path d="M5.29 22.0275C7.11 22.0275 8.58 20.5575 8.58 18.7375C8.58 16.9175 7.11 15.4475 5.29 15.4475C3.47 15.4475 2 16.9175 2 18.7375C2 20.5575 3.47 22.0275 5.29 22.0275Z" stroke="white" stroke-width="1.5" stroke-miterlimit="10"/>
<path d="M18.71 22.0275C20.53 22.0275 22 20.5575 22 18.7375C22 16.9175 20.53 15.4475 18.71 15.4475C16.89 15.4475 15.42 16.9175 15.42 18.7375C15.42 20.5575 16.89 22.0275 18.71 22.0275Z" stroke="white" stroke-width="1.5" stroke-miterlimit="10"/>
<path d="M18.71 15.4476V12.3976L15.83 9.51758" stroke="white" stroke-width="1.5" stroke-linecap="round" stroke-linejoin="round"/>
<path d="M9.23999 18.7375H13.19C14.02 18.7375 14.8 18.3475 15.3 17.6875L17.33 14.9775" stroke="white" stroke-width="1.5" stroke-linecap="round" stroke-linejoin="round"/>
<path d="M17.81 15.4475L15.56 13.1975C14.65 12.2875 13.24 12.1275 12.16 12.8175C12.16 12.8175 12.15 12.8175 12.14 12.8275L10.57 13.8375C10.19 14.1675 9.65998 14.2575 9.19998 14.0675L3.97998 12.1575" stroke="white" stroke-width="1.5" stroke-linecap="round" stroke-linejoin="round"/>
<path d="M10.3198 9.18C10.1698 9.18 10.0198 9.13 9.8998 9.03L7.8498 6.21L4.5998 7.09C4.4298 7.09 4.2698 7.02 4.1398 6.9C4.0198 6.78 3.9398 6.62 3.9298 6.45L3.7998 3.67C3.7998 3.56 3.8198 3.44 3.8798 3.34C3.9298 3.24 4.0098 3.15 4.1098 3.09C4.2098 3.03 4.3198 3 4.4398 3C4.5598 3 4.6698 3.03 4.7698 3.09L7.8798 5.81H12.2498C12.3598 5.85 12.4598 5.9 12.5398 5.98C12.6198 6.06 12.6798 6.15 12.7198 6.26C12.7498 6.37 12.7598 6.48 12.7398 6.59C12.7198 6.7 12.6698 6.8 12.5998 6.89L10.8298 9C10.7698 9.07 10.6898 9.12 10.5998 9.15C10.5098 9.18 10.4198 9.2 10.3298 9.19L10.3198 9.18Z" stroke="white" stroke-width="1.5" stroke-miterlimit="10"/>
</g>
<defs>
<clipPath id="clip0_42_7981">
<rect width="24" height="24" fill="white"/>
</clipPath>
</defs>
</svg>
