<svg width="24" height="24" viewBox="0 0 24 24" fill="none" xmlns="http://www.w3.org/2000/svg">
<g clip-path="url(#clip0_42_8221)">
<path d="M11.7201 20.22C12.3601 20.26 12.8501 20.51 13.2001 20.77C14.0601 21.42 15.1901 21.63 16.2301 21.35C20.2401 20.25 21.2401 15.02 19.1901 15.44C16.7801 15.92 11.7301 16.2 11.7301 16.2H11.7601C11.7601 16.2 6.71005 15.92 4.30005 15.44C2.24005 15.03 3.24005 20.25 7.26005 21.35C8.30005 21.63 9.43005 21.42 10.2901 20.77C10.6401 20.51 11.1301 20.27 11.7701 20.22H11.7401H11.7201Z" stroke="white" stroke-width="1.5" stroke-linejoin="round"/>
<path d="M18.38 8.5C20.44 8.98 21.73 9.67 21.73 10.45C21.73 11.89 17.23 13.42 11.71 13.42C6.19 13.42 1.75 11.88 1.75 10.44C1.75 9.68 3 8.99 5.01 8.52" stroke="white" stroke-width="1.5" stroke-linejoin="round"/>
<path d="M4.52002 9.2799C4.52002 9.2799 11.12 11.6999 18.92 9.4099L17.28 4.2899C16.97 3.3299 15.98 2.7699 15 2.9999L12.22 3.6399C11.9 3.7199 11.56 3.7099 11.24 3.6099L8.59002 2.8299C7.58002 2.5299 6.53002 3.0899 6.20002 4.0899L4.53002 9.2799H4.52002Z" stroke="white" stroke-width="1.5" stroke-linejoin="round"/>
<path d="M9.23006 17.82C8.68006 17.53 7.80006 17.27 6.82006 17.76C6.47006 17.93 6.35006 18.38 6.58006 18.69C6.86006 19.07 7.34006 19.49 8.04006 19.42C8.63006 19.37 9.06006 19.1 9.35006 18.84C9.67006 18.55 9.61006 18.03 9.22006 17.82H9.23006Z" fill="white"/>
<path d="M14.06 17.82C14.61 17.53 15.49 17.27 16.47 17.76C16.82 17.93 16.94 18.38 16.71 18.69C16.43 19.07 15.95 19.49 15.25 19.42C14.66 19.37 14.23 19.1 13.94 18.84C13.62 18.55 13.68 18.03 14.07 17.82H14.06Z" fill="white"/>
</g>
<defs>
<clipPath id="clip0_42_8221">
<rect width="21.49" height="20.22" fill="white" transform="translate(1 2)"/>
</clipPath>
</defs>
</svg>
