<svg width="24" height="24" viewBox="0 0 24 24" fill="none" xmlns="http://www.w3.org/2000/svg">
<path d="M16.51 19.6899C15.43 19.6899 14.67 18.9399 14.67 17.7799V14.4499C14.67 13.7599 14.87 13.0799 15.25 12.4999L16.47 10.6099C16.94 9.87994 17.74 9.43994 18.61 9.43994H21.99" stroke="white" stroke-width="1.5" stroke-miterlimit="10" stroke-linecap="round"/>
<path d="M18.75 21.92C19.98 21.92 20.98 20.92 20.98 19.69C20.98 18.46 19.98 17.46 18.75 17.46C17.52 17.46 16.52 18.46 16.52 19.69C16.52 20.92 17.52 21.92 18.75 21.92Z" stroke="white" stroke-width="1.5" stroke-linecap="round" stroke-linejoin="round"/>
<path d="M22 13.26H15.08" stroke="white" stroke-width="1.5" stroke-miterlimit="10" stroke-linecap="round"/>
<path d="M21.45 19.6899H21.98" stroke="white" stroke-width="1.5" stroke-miterlimit="10" stroke-linecap="round"/>
<path d="M9.16002 21.92C11 21.92 12.49 20.43 12.49 18.59C12.49 16.75 11 15.26 9.16002 15.26C7.32002 15.26 5.83002 16.75 5.83002 18.59C5.83002 20.43 7.32002 21.92 9.16002 21.92Z" stroke="white" stroke-width="1.5" stroke-miterlimit="10" stroke-linecap="round"/>
<path d="M9.16 15.26V12.17L6.25 9.26001" stroke="white" stroke-width="1.5" stroke-linecap="round" stroke-linejoin="round"/>
<path d="M2.02002 18.59H3.59002C4.43002 18.59 5.22002 18.2 5.73002 17.53L7.78002 14.79" stroke="white" stroke-width="1.5" stroke-linecap="round" stroke-linejoin="round"/>
<path d="M2 13.3001L2.52 12.6201L2.54 12.6101C3.63 11.9101 5.07 12.0701 5.98 12.9901L7.78 14.7901L8.26 15.2601" stroke="white" stroke-width="1.5" stroke-linecap="round" stroke-linejoin="round"/>
<path d="M15.76 5.83V4.62C15.76 3.94 15.76 3.59 15.59 3.37C15.42 3.15 15.04 3.04 14.28 2.82C13.76 2.67 13.3 2.49 12.93 2.33C12.43 2.11 12.18 2 12 2C11.82 2 11.57 2.11 11.07 2.33C10.7 2.49 10.24 2.67 9.71999 2.82C8.95999 3.04 8.56999 3.15 8.40999 3.37C8.23999 3.59 8.23999 3.94 8.23999 4.62V5.83C8.23999 8.18 10.36 9.58 11.41 10.14C11.66 10.27 11.79 10.34 12 10.34C12.21 10.34 12.33 10.27 12.59 10.14C13.65 9.58 15.76 8.17 15.76 5.83Z" stroke="white" stroke-width="1.5" stroke-linecap="round"/>
</svg>
