<svg width="24" height="24" viewBox="0 0 24 24" fill="none" xmlns="http://www.w3.org/2000/svg">
<path d="M7.02 16.98C7.07 18.7 7.26 19.76 7.91 20.54C8.08 20.74 8.26 20.93 8.46 21.09C9.57 22 11.21 22 14.5 22C17.79 22 19.43 22 20.54 21.09C20.74 20.92 20.93 20.74 21.09 20.54C22 19.43 22 17.79 22 14.5C22 11.21 22 9.57 21.09 8.46C20.92 8.26 20.74 8.07 20.54 7.91C19.76 7.27 18.71 7.08 17 7.03M7.02 16.98C5.3 16.93 4.24 16.74 3.46 16.09C3.26 15.92 3.07 15.74 2.91 15.54C2 14.43 2 12.79 2 9.5C2 6.21 2 4.57 2.91 3.46C3.08 3.26 3.26 3.07 3.46 2.91C4.57 2 6.21 2 9.5 2C12.79 2 14.43 2 15.54 2.91C15.74 3.08 15.93 3.26 16.09 3.46C16.73 4.24 16.92 5.3 16.98 7.02H17L7.02 16.98Z" stroke="white" stroke-width="1.5" stroke-linecap="round" stroke-linejoin="round"/>
<path d="M4.95996 10.43L5.74996 8.54M5.74996 8.54L7.32996 4.75L8.90996 8.54H5.74996ZM9.68996 10.43L8.89996 8.54" stroke="white" stroke-width="1.5" stroke-linecap="round" stroke-linejoin="round"/>
<path d="M12.8001 14.2801C13.1901 13.8901 14.1801 13.5101 14.7701 13.8901C15.8701 14.6101 15.1701 15.8201 13.9801 16.0101C14.5101 16.0101 15.5601 16.2401 15.5601 17.1701C15.5601 18.6001 13.9801 19.3901 12.8001 18.8001C11.6201 18.2201 11.6201 17.2701 11.6201 16.6901" stroke="white" stroke-width="1.5" stroke-linecap="round" stroke-linejoin="round"/>
<path d="M17.5799 15.49C17.2699 16.72 16.2499 16.56 15.6699 16.28" stroke="white" stroke-width="1.5" stroke-linecap="round" stroke-linejoin="round"/>
<path d="M17.6904 14.0701V19.0101" stroke="white" stroke-width="1.5" stroke-linecap="round" stroke-linejoin="round"/>
<path d="M16.7002 13.53C17.1902 13.67 17.8502 13.82 18.6702 13.53" stroke="white" stroke-width="1.5" stroke-linecap="round" stroke-linejoin="round"/>
</svg>
