<svg width="24" height="24" viewBox="0 0 24 24" fill="none" xmlns="http://www.w3.org/2000/svg">
<path d="M19.8588 14.2101H19.1988V8.15012C19.1883 7.5445 18.9383 6.96774 18.5035 6.54605C18.0687 6.12436 17.4845 5.89209 16.8788 5.90012H14.6288V5.17014C14.6311 5.01949 14.5873 4.87176 14.5033 4.74668C14.4193 4.62159 14.2991 4.52508 14.1589 4.47013C14.0196 4.41627 13.8676 4.40461 13.7217 4.43662C13.5759 4.46863 13.4427 4.54289 13.3388 4.65012L11.9288 6.13016C11.8038 6.26663 11.7344 6.44503 11.7344 6.63016C11.7344 6.81528 11.8038 6.99369 11.9288 7.13016L13.3388 8.61014C13.4079 8.68463 13.4914 8.7443 13.5842 8.78556C13.677 8.82681 13.7773 8.84878 13.8788 8.85013C13.9754 8.85054 14.0709 8.83008 14.1589 8.79013C14.2975 8.73579 14.4166 8.64084 14.5004 8.51773C14.5843 8.39463 14.629 8.24908 14.6288 8.10013V7.37015H16.8788C16.9821 7.36478 17.0854 7.37997 17.1828 7.41489C17.2801 7.4498 17.3695 7.50373 17.4458 7.57352C17.5221 7.64331 17.5838 7.72754 17.6272 7.82138C17.6707 7.91522 17.695 8.01681 17.6988 8.12015V14.1801H16.4789C15.9272 14.1801 15.3981 14.3993 15.0081 14.7893C14.618 15.1794 14.3988 15.7085 14.3988 16.2601V19.3901C14.3988 19.9418 14.618 20.4709 15.0081 20.8609C15.3981 21.251 15.9272 21.4701 16.4789 21.4701H19.8588C20.4088 21.4675 20.9353 21.2472 21.3232 20.8574C21.7111 20.4676 21.9289 19.94 21.9288 19.3901V16.2601C21.921 15.7154 21.6998 15.1956 21.3127 14.8122C20.9256 14.4289 20.4036 14.2127 19.8588 14.2101V14.2101ZM20.4288 19.4201C20.4289 19.5722 20.3691 19.7183 20.2625 19.8268C20.1559 19.9352 20.0109 19.9975 19.8588 20.0002H16.4789C16.325 20.0002 16.1775 19.939 16.0687 19.8302C15.96 19.7215 15.8988 19.574 15.8988 19.4201V16.2901C15.8988 16.1363 15.96 15.9888 16.0687 15.88C16.1775 15.7713 16.325 15.7101 16.4789 15.7101H19.8588C20.0109 15.7127 20.1559 15.775 20.2625 15.8835C20.3691 15.992 20.4289 16.138 20.4288 16.2901V19.4201Z" fill="#121212"/>
<path d="M11.6 15.86C11.4961 15.7528 11.3629 15.6785 11.2171 15.6465C11.0713 15.6145 10.9192 15.6261 10.78 15.68C10.6397 15.735 10.5195 15.8314 10.4356 15.9565C10.3516 16.0816 10.3078 16.2294 10.31 16.38V17.11H8.06C7.95624 17.114 7.8527 17.0975 7.75531 17.0615C7.65792 17.0254 7.5686 16.9706 7.49244 16.9C7.41628 16.8294 7.35479 16.7445 7.31147 16.6501C7.26815 16.5557 7.24386 16.4537 7.24 16.35V10.2599C8.1393 10.1733 8.97452 9.75631 9.58409 9.08948C10.1937 8.42264 10.5343 7.55341 10.54 6.64996C10.5374 5.68273 10.152 4.7559 9.46803 4.07196C8.78409 3.38802 7.85723 3.00264 6.89 3H6.65C5.68196 3 4.75357 3.38452 4.06906 4.06903C3.38455 4.75354 3 5.68192 3 6.64996C3.00148 7.4549 3.27046 8.23657 3.76464 8.87195C4.25883 9.50733 4.95019 9.9604 5.73 10.16V16.35C5.74053 16.9565 5.99023 17.5343 6.42475 17.9576C6.85927 18.3809 7.44342 18.6154 8.05 18.61H10.3V19.34C10.2998 19.4889 10.3446 19.6345 10.4284 19.7576C10.5123 19.8807 10.6313 19.9756 10.77 20.03C10.8579 20.0699 10.9534 20.0904 11.05 20.09C11.1516 20.0886 11.2518 20.0666 11.3446 20.0254C11.4375 19.9841 11.5209 19.9245 11.59 19.85L13 18.35C13.1251 18.2135 13.1945 18.0351 13.1945 17.85C13.1945 17.6649 13.1251 17.4865 13 17.35L11.6 15.86ZM4.51 6.64996C4.50869 6.36809 4.56307 6.08873 4.67002 5.82794C4.77698 5.56715 4.9344 5.33009 5.13325 5.13031C5.3321 4.93053 5.56845 4.77199 5.82874 4.66382C6.08903 4.55565 6.36813 4.5 6.65 4.5H6.89C7.45325 4.51048 7.98989 4.7416 8.38448 5.14368C8.77908 5.54575 9.0001 6.08661 9 6.64996C9 6.93184 8.94432 7.21096 8.83615 7.47125C8.72798 7.73154 8.56945 7.9679 8.36968 8.16675C8.1699 8.3656 7.93281 8.52299 7.67201 8.62994C7.41122 8.7369 7.13187 8.7913 6.85 8.78998H6.61C6.0494 8.7795 5.5153 8.54943 5.12258 8.14923C4.72986 7.74903 4.5099 7.21066 4.51 6.64996V6.64996Z" fill="#121212"/>
</svg>
