<svg width="20" height="20" viewBox="0 0 20 20" fill="none" xmlns="http://www.w3.org/2000/svg">
<path d="M2.61813 12.6181C2.37403 12.4316 2.15213 12.1983 1.88586 11.382C1.81363 11.1796 1.54067 10.1647 1.30891 9.23637C1.11341 8.45331 0.939209 7.73857 1.02043 7.55716C1.08701 7.37058 1.17576 7.23064 1.46423 7.04406C1.64175 6.92925 2.55156 6.69423 2.72908 6.64758C2.9066 6.60094 3.15069 6.57761 3.35041 6.64758C3.72764 6.71755 4.50431 7.90699 4.70402 8.04693C4.79277 8.14022 5.08125 8.41161 5.41411 8.44341C5.6582 8.46673 5.9023 8.39676 6.16859 8.28015C6.41267 8.17326 11.228 5.71468 11.6718 5.50478C15.2888 3.91885 17.9162 6.5263 18.3156 7.08604C18.7283 7.62712 18.8171 7.79038 18.7061 8.25683C18.5627 8.7466 18.1736 8.83989 17.9517 8.90986C17.7298 8.97982 14.6675 9.84275 13.4692 10.1926C13.2075 10.2822 13.0796 10.462 13.0476 10.4958C12.8923 10.729 12.1866 12.3149 11.9869 12.6648C11.8493 13.0379 11.4721 13.5044 10.9839 13.691C10.4735 13.8775 9.58592 14.0874 9.3862 14.1574C9.18649 14.2274 8.72049 14.3673 8.56516 14.3207C8.36545 14.274 8.17461 14.0641 8.26337 13.7376C8.35213 13.4111 8.52078 12.5015 8.54297 12.3616C8.56516 12.2217 8.78706 11.6386 8.54297 11.6153C8.49859 11.5453 8.03257 11.7552 7.34467 11.9185C6.8336 12.0697 6.29838 12.2193 5.92449 12.3149C4.48212 12.7581 3.70096 12.8747 3.52793 12.8747C3.19508 12.8747 2.95098 12.828 2.61813 12.6181Z" stroke="#F0F0F6" stroke-width="1.25"/>
</svg>
