<svg width="24" height="24" viewBox="0 0 24 24" fill="none" xmlns="http://www.w3.org/2000/svg">
<path d="M5.01599 19.985L13.1147 11.885C14.156 10.8437 15.844 10.8437 16.8853 11.885L20.3333 15.333" stroke="white" stroke-width="1.5" stroke-linecap="round" stroke-linejoin="round"/>
<path d="M17.6667 3.6665H6.33335C4.86059 3.6665 3.66669 4.86041 3.66669 6.33317V17.6665C3.66669 19.1393 4.86059 20.3332 6.33335 20.3332H17.6667C19.1394 20.3332 20.3334 19.1393 20.3334 17.6665V6.33317C20.3334 4.86041 19.1394 3.6665 17.6667 3.6665Z" stroke="white" stroke-width="1.5" stroke-linecap="round" stroke-linejoin="round"/>
<path d="M8.33335 11.3333C9.25383 11.3333 10 10.5871 10 9.66667C10 8.74619 9.25383 8 8.33335 8C7.41288 8 6.66669 8.74619 6.66669 9.66667C6.66669 10.5871 7.41288 11.3333 8.33335 11.3333Z" fill="white"/>
</svg>
