<svg width="24" height="24" viewBox="0 0 24 24" fill="none" xmlns="http://www.w3.org/2000/svg">
<g clip-path="url(#clip0_42_8279)">
<path d="M6.10395 2.72C3.75395 3.25 2.00395 5.35 2.00395 7.86C2.00395 8.16 1.98395 8.19 2.03395 8.48M6.10395 2.72L4.34395 2M6.10395 2.72L5.51395 4.35M12.004 10.21C12.354 9.5 12.554 8.71 12.554 7.87C12.554 5.26 11.104 3.14 8.60395 2.72M12.004 10.21L13.724 9.04M12.004 10.21L11.084 8.45M2.89395 10.79C3.84395 12.2 5.45395 13.13 7.28395 13.13C8.63395 13.13 9.52395 12.96 10.464 12.13M2.89395 10.79H4.93395M2.89395 10.79V12.84" stroke="white" stroke-width="1.5" stroke-linecap="round" stroke-linejoin="round"/>
<path d="M2.01392 15.1599V17.9099C2.01392 19.0499 2.75392 19.7899 3.81392 19.7899" stroke="white" stroke-width="1.5" stroke-miterlimit="10" stroke-linecap="round"/>
<path d="M20.284 19.7801C21.314 19.7801 22.014 19.0201 22.014 17.9001V15.6901C22.014 15.1201 21.624 14.6201 21.064 14.4801L17.014 13.4701L15.774 11.9401C15.634 11.7701 15.264 11.2601 15.104 11.1101" stroke="white" stroke-width="1.5" stroke-miterlimit="10" stroke-linecap="round"/>
<path d="M17.644 21.9701C18.854 21.9701 19.834 20.9901 19.834 19.7801C19.834 18.5701 18.854 17.5901 17.644 17.5901C16.434 17.5901 15.454 18.5701 15.454 19.7801C15.454 20.9901 16.434 21.9701 17.644 21.9701Z" stroke="white" stroke-width="1.5" stroke-linecap="round" stroke-linejoin="round"/>
<path d="M6.01397 21.9701C7.22397 21.9701 8.20397 20.9901 8.20397 19.7801C8.20397 18.5701 7.22397 17.5901 6.01397 17.5901C4.80397 17.5901 3.82397 18.5701 3.82397 19.7801C3.82397 20.9901 4.80397 21.9701 6.01397 21.9701Z" stroke="white" stroke-width="1.5" stroke-linecap="round" stroke-linejoin="round"/>
<path d="M12.6639 13.47H17.0139" stroke="white" stroke-width="1.5" stroke-miterlimit="10" stroke-linecap="round"/>
<path d="M8.73389 19.78H15.3039" stroke="white" stroke-width="1.5" stroke-miterlimit="10" stroke-linecap="round"/>
</g>
<defs>
<clipPath id="clip0_42_8279">
<rect width="24" height="24" fill="white"/>
</clipPath>
</defs>
</svg>
