<svg width="24" height="24" viewBox="0 0 24 24" fill="none" xmlns="http://www.w3.org/2000/svg">
<g clip-path="url(#clip0_42_8167)">
<path d="M6.87 8.5H5.61C4.76 8.5 3.97 8.93 3.51 9.65L2.31 11.51C1.94 12.08 1.75 12.74 1.75 13.42V16.69C1.75 17.83 2.49 18.57 3.55 18.57" stroke="white" stroke-width="1.5" stroke-linecap="round" stroke-linejoin="round"/>
<path d="M20.02 18.56C21.05 18.56 21.75 17.8 21.75 16.68V14.47C21.75 13.9 21.36 13.4 20.8 13.26L16.75 12.25L15.51 10.72C15.03 10.13 14.35 9.39 13.72 9" stroke="white" stroke-width="1.5" stroke-linecap="round" stroke-linejoin="round"/>
<path d="M17.3799 20.7501C18.5899 20.7501 19.5699 19.7701 19.5699 18.5601C19.5699 17.3501 18.5899 16.3701 17.3799 16.3701C16.1699 16.3701 15.1899 17.3501 15.1899 18.5601C15.1899 19.7701 16.1699 20.7501 17.3799 20.7501Z" stroke="white" stroke-width="1.5" stroke-linecap="round" stroke-linejoin="round"/>
<path d="M5.75006 20.7501C6.96006 20.7501 7.94006 19.7701 7.94006 18.5601C7.94006 17.3501 6.96006 16.3701 5.75006 16.3701C4.54006 16.3701 3.56006 17.3501 3.56006 18.5601C3.56006 19.7701 4.54006 20.7501 5.75006 20.7501Z" stroke="white" stroke-width="1.5" stroke-linecap="round" stroke-linejoin="round"/>
<path d="M2.21997 12.25H9.68997" stroke="white" stroke-width="1.5" stroke-linecap="round" stroke-linejoin="round"/>
<path d="M8.46997 18.5601H15.04" stroke="white" stroke-width="1.5" stroke-linecap="round" stroke-linejoin="round"/>
<path d="M12.87 3.75H9.37" stroke="white" stroke-width="1.5" stroke-linecap="round" stroke-linejoin="round"/>
<path d="M12.87 6.21997H9.37" stroke="white" stroke-width="1.5" stroke-linecap="round" stroke-linejoin="round"/>
<path d="M12.57 11.25L9.35999 8.65H9.79999C12.76 8.65 12.76 3.75 9.79999 3.75" stroke="white" stroke-width="1.5" stroke-linecap="round" stroke-linejoin="round"/>
</g>
<defs>
<clipPath id="clip0_42_8167">
<rect width="21.5" height="18.5" fill="white" transform="translate(1 3)"/>
</clipPath>
</defs>
</svg>
