<svg width="24" height="24" viewBox="0 0 24 24" fill="none" xmlns="http://www.w3.org/2000/svg">
<path d="M2 8.18568C2 5.87502 3.66533 3.90169 5.94267 3.51235L14.692 2.01902C15.2707 1.92035 15.8467 2.21235 16.1093 2.73769L16.18 2.87902" stroke="white" stroke-width="1.5" stroke-linecap="round" stroke-linejoin="round"/>
<path d="M20 15.8525V18.5192C20 19.9925 18.8067 21.1859 17.3333 21.1859H4.66667C3.19333 21.1859 2 19.9925 2 18.5192V8.51921C2 7.04587 3.19333 5.85254 4.66667 5.85254H17.3333C18.8067 5.85254 20 7.04587 20 8.51921V11.1859" stroke="white" stroke-width="1.5" stroke-linecap="round" stroke-linejoin="round"/>
<path d="M20 15.8522H16.3333C15.0453 15.8522 14 14.8069 14 13.5189C14 12.2295 15.0453 11.1855 16.3333 11.1855H20C20.736 11.1855 21.3333 11.7829 21.3333 12.5189V14.5189C21.3333 15.2549 20.736 15.8522 20 15.8522Z" stroke="white" stroke-width="1.5" stroke-linecap="round" stroke-linejoin="round"/>
</svg>
