<svg width="24" height="24" viewBox="0 0 24 24" fill="none" xmlns="http://www.w3.org/2000/svg">
<g clip-path="url(#clip0_42_8181)">
<path d="M2.21997 13.1101H16.75" stroke="white" stroke-width="1.5" stroke-miterlimit="10" stroke-linecap="round"/>
<path d="M4.19 9.69995C4.06 9.82995 3.61 10.34 3.51 10.5L2.31 12.36C1.94 12.93 1.75 13.59 1.75 14.27V17.54C1.75 18.68 2.49 19.41 3.55 19.41" stroke="white" stroke-width="1.5" stroke-miterlimit="10" stroke-linecap="round"/>
<path d="M20.0201 19.4101C21.0501 19.4101 21.7501 18.6501 21.7501 17.5401V15.3301C21.7501 14.7601 21.3601 14.2601 20.8001 14.1201L16.7501 13.1101L15.5101 11.5801C15.0201 10.9801 14.0601 10.0401 13.4301 9.58008" stroke="white" stroke-width="1.5" stroke-miterlimit="10" stroke-linecap="round"/>
<path d="M17.3799 21.6C18.5899 21.6 19.5699 20.62 19.5699 19.41C19.5699 18.2 18.5899 17.22 17.3799 17.22C16.1699 17.22 15.1899 18.2 15.1899 19.41C15.1899 20.62 16.1699 21.6 17.3799 21.6Z" stroke="white" stroke-width="1.5" stroke-linecap="round" stroke-linejoin="round"/>
<path d="M5.75995 21.6C6.96995 21.6 7.94995 20.62 7.94995 19.41C7.94995 18.2 6.96995 17.22 5.75995 17.22C4.54995 17.22 3.56995 18.2 3.56995 19.41C3.56995 20.62 4.54995 21.6 5.75995 21.6Z" stroke="white" stroke-width="1.5" stroke-linecap="round" stroke-linejoin="round"/>
<path d="M8.46997 19.4102H15.03" stroke="white" stroke-width="1.5" stroke-miterlimit="10" stroke-linecap="round"/>
<path d="M11.93 6.01007V3.73007C10.11 3.73007 8.74005 2.82007 8.74005 2.82007C8.74005 2.82007 7.37005 3.73007 5.55005 3.73007V6.01007C5.55005 9.20007 8.74005 10.1101 8.74005 10.1101C8.74005 10.1101 11.93 9.20007 11.93 6.01007Z" stroke="white" stroke-width="1.5" stroke-linecap="round" stroke-linejoin="round"/>
<path d="M18.93 4.65004L18.67 4.77004C17.86 5.14004 17.51 6.10004 17.88 6.91004L18.35 7.94004C18.72 8.75004 19.68 9.10004 20.49 8.73004L20.75 8.61004C21.56 8.24004 21.91 7.28004 21.54 6.47004L21.07 5.44004C20.7 4.63004 19.74 4.28004 18.93 4.65004Z" stroke="white" stroke-width="1.5" stroke-miterlimit="10" stroke-linecap="round"/>
<path d="M19.1 1.75L19.77 3.2C19.84 3.36 19.81 3.54 19.68 3.68L18.8 4.63L17.46 4.7C17.27 4.7 17.11 4.61 17.03 4.46L16.36 3.01" stroke="white" stroke-width="1.5" stroke-miterlimit="10" stroke-linecap="round"/>
</g>
<defs>
<clipPath id="clip0_42_8181">
<rect width="21.5" height="21.35" fill="white" transform="translate(1 1)"/>
</clipPath>
</defs>
</svg>
