<svg width="24" height="24" viewBox="0 0 24 24" fill="none" xmlns="http://www.w3.org/2000/svg">
<path d="M10.8601 9.66779L12.1901 8.44779C11.3801 5.62779 12.9901 3.19779 15.1501 2.34779C16.4501 1.84779 17.9601 1.89779 19.0601 2.42779C18.6801 2.81779 18.1401 3.32779 17.6601 3.81779C17.1501 4.32779 16.6301 4.81779 16.3601 5.15779C15.2301 6.98779 17.3301 8.60779 18.7701 7.64779C19.0101 7.48779 19.3701 7.05779 19.7901 6.65779C20.4001 6.06779 20.9301 5.51779 21.5301 4.92779C22.1201 6.30779 22.1101 7.68779 21.6201 8.86779C21.1401 10.0178 20.2001 10.9778 19.1201 11.5278C18.0201 11.9078 16.9301 12.2378 15.5301 11.7978L14.2101 13.1078" stroke="white" stroke-width="1.5" stroke-linecap="round" stroke-linejoin="round"/>
<path d="M13.8499 21.9379C13.2199 21.9379 12.6099 21.6979 12.1299 21.2279L8.76993 17.9079C8.64993 17.7879 8.57993 17.6079 8.57993 17.4279V16.8379L7.80993 16.7479C7.65993 16.7279 7.51993 16.6679 7.40993 16.5579L5.86993 15.0379C5.74993 14.9179 5.67993 14.7479 5.67993 14.5679C5.67993 14.3879 5.74993 14.2279 5.86993 14.0979L7.20993 12.7679L8.37993 11.6179C8.63993 11.3579 9.04993 11.3579 9.30993 11.6179L10.8399 13.1379C10.9499 13.2479 11.0199 13.3879 11.0299 13.5379L11.1199 14.2979H11.7199C11.9099 14.2979 12.0599 14.3579 12.1999 14.4879L15.5599 17.8079C16.0199 18.2679 16.2699 18.8779 16.2699 19.5179C16.2699 20.1579 16.0099 20.7679 15.5599 21.2279C15.0799 21.6979 14.4699 21.9379 13.8399 21.9379H13.8499Z" stroke="white" stroke-width="1.5" stroke-linecap="round" stroke-linejoin="round"/>
<path d="M2 7.06787L7.22 12.7879" stroke="white" stroke-width="1.5" stroke-linecap="round" stroke-linejoin="round"/>
</svg>
