<svg width="24" height="24" viewBox="0 0 24 24" fill="none" xmlns="http://www.w3.org/2000/svg">
<path d="M3.76 8.93994L2.56 10.7999C2.19 11.3699 2 12.0299 2 12.7099V15.9799C2 17.1199 2.74 17.8599 3.8 17.8599" stroke="white" stroke-width="1.5" stroke-linecap="round" stroke-linejoin="round"/>
<path d="M20.28 17.86C21.31 17.86 22.01 17.1 22.01 15.98V13.77C22.01 13.2 21.62 12.7 21.06 12.56L17 11.55L15.75 10.02" stroke="white" stroke-width="1.5" stroke-linecap="round" stroke-linejoin="round"/>
<path d="M17.64 20.0499C18.85 20.0499 19.83 19.0699 19.83 17.8599C19.83 16.6499 18.85 15.6699 17.64 15.6699C16.43 15.6699 15.45 16.6499 15.45 17.8599C15.45 19.0699 16.43 20.0499 17.64 20.0499Z" stroke="white" stroke-width="1.5" stroke-linecap="round" stroke-linejoin="round"/>
<path d="M6.01001 20.0499C7.22001 20.0499 8.20001 19.0699 8.20001 17.8599C8.20001 16.6499 7.22001 15.6699 6.01001 15.6699C4.80001 15.6699 3.82001 16.6499 3.82001 17.8599C3.82001 19.0699 4.80001 20.0499 6.01001 20.0499Z" stroke="white" stroke-width="1.5" stroke-linecap="round" stroke-linejoin="round"/>
<path d="M12.91 17.8599H15.29" stroke="white" stroke-width="1.5" stroke-linecap="round" stroke-linejoin="round"/>
<path d="M8.39999 17.8599H9.96999" stroke="white" stroke-width="1.5" stroke-linecap="round" stroke-linejoin="round"/>
<path d="M4.89001 3.57C5.79001 2.58 6.85001 2 7.99001 2C11.18 2 13.76 6.48 13.76 12.01C13.76 17.54 11.17 22.02 7.99001 22.02C7.53001 22.02 7.08001 21.93 6.64001 21.75" stroke="white" stroke-width="1.5" stroke-linecap="round"/>
<path d="M6.13999 5.49002L3.60999 5.60002C3.35999 5.61002 3.14999 5.42002 3.13999 5.17002L3.02999 2.64002C3.00999 2.24002 3.48999 2.01002 3.78999 2.29002L6.42999 4.71002C6.72999 4.98002 6.54999 5.48002 6.13999 5.50002V5.49002Z" fill="white"/>
<path d="M10.22 7.70996H5.85C5 7.70996 4.21 8.14996 3.75 8.86996" stroke="white" stroke-width="1.5" stroke-linecap="round" stroke-linejoin="round"/>
<path d="M15.75 9.95994C15.13 9.17994 14.33 8.57994 13.44 8.18994" stroke="white" stroke-width="1.5" stroke-linecap="round" stroke-linejoin="round"/>
<path d="M2.79999 12.1899L11.02 12.3299" stroke="white" stroke-width="1.5" stroke-miterlimit="10" stroke-linecap="round"/>
</svg>
