<svg width="24" height="24" viewBox="0 0 24 24" fill="none" xmlns="http://www.w3.org/2000/svg">
<path d="M18.6544 14.2874L13.0723 19.8695" stroke="white" stroke-width="1.5" stroke-linecap="round" stroke-linejoin="round"/>
<path d="M13.3877 15.7907C14.154 15.7907 14.7753 15.1694 14.7753 14.403C14.7753 13.6367 14.154 13.0154 13.3877 13.0154C12.6213 13.0154 12 13.6367 12 14.403C12 15.1694 12.6213 15.7907 13.3877 15.7907Z" fill="white"/>
<path d="M18.6123 20.9523C19.3787 20.9523 19.9999 20.331 19.9999 19.5647C19.9999 18.7983 19.3787 18.177 18.6123 18.177C17.8459 18.177 17.2246 18.7983 17.2246 19.5647C17.2246 20.331 17.8459 20.9523 18.6123 20.9523Z" fill="white"/>
<path d="M10.3032 20.4924C6.78143 20.2597 4 17.3196 4 13.745V9.76851C4 6.03525 7.03525 3 10.7685 3C14.5018 3 17.537 6.03525 17.537 9.76851V10.9636" stroke="white" stroke-width="1.5" stroke-linecap="round" stroke-linejoin="round"/>
</svg>
