<svg width="24" height="24" viewBox="0 0 24 24" fill="none" xmlns="http://www.w3.org/2000/svg">
<path d="M3.12252 8.20683H7.76012C8.51084 8.20683 9.12012 7.5889 9.12012 6.82752V2.14062" stroke="white" stroke-width="1.5" stroke-linecap="round" stroke-linejoin="round"/>
<path d="M11 22H5.72C4.2172 22 3 20.7655 3 19.2414V8.77793C3 8.41241 3.1428 8.06207 3.39848 7.80276L8.72152 2.40414C8.97584 2.14483 9.32264 2 9.68304 2H17.28C18.7828 2 20 3.23448 20 4.75862V19.2414C20 20.5127 19.1531 21.5825 18 21.9024" stroke="white" stroke-width="1.5" stroke-linecap="round" stroke-linejoin="round"/>
<path d="M14 4H15" stroke="white" stroke-width="1.5" stroke-linecap="round" stroke-linejoin="round"/>
<path d="M15 7H16" stroke="white" stroke-width="1.5" stroke-linecap="round" stroke-linejoin="round"/>
<path d="M14 10H15" stroke="white" stroke-width="1.5" stroke-linecap="round" stroke-linejoin="round"/>
<path d="M15 13H16" stroke="white" stroke-width="1.5" stroke-linecap="round" stroke-linejoin="round"/>
<path d="M14 16H15" stroke="white" stroke-width="1.5" stroke-linecap="round" stroke-linejoin="round"/>
<path d="M16 22V20.5C16 19.6716 15.3284 19 14.5 19C13.6716 19 13 19.6716 13 20.5V22H16Z" stroke="white" stroke-width="1.5" stroke-linecap="round" stroke-linejoin="round"/>
</svg>
