<svg width="24" height="24" viewBox="0 0 24 24" fill="none" xmlns="http://www.w3.org/2000/svg">
<path d="M10.2232 3.80615V7.86214C10.2232 9.30214 9.05922 10.4662 7.61922 10.4662H3.80322C2.36322 10.4662 1.19922 9.30214 1.19922 7.86214V3.80615C1.19922 2.36615 2.36322 1.20215 3.80322 1.20215H7.61922C9.05922 1.20215 10.2232 2.36615 10.2232 3.80615ZM7.61922 12.7221H3.80322C2.36322 12.7221 1.19922 13.8861 1.19922 15.3261V19.3822C1.19922 20.8222 2.36322 21.9861 3.80322 21.9861H7.61922C9.05922 21.9861 10.2232 20.8222 10.2232 19.3822V15.3261C10.2232 13.8861 9.05922 12.7221 7.61922 12.7221ZM19.0792 1.20215H15.2632C13.8232 1.20215 12.6592 2.36615 12.6592 3.80615V7.86214C12.6592 9.30214 13.8232 10.4662 15.2632 10.4662H19.0792C20.5192 10.4662 21.6832 9.30214 21.6832 7.86214V3.80615C21.6832 2.36615 20.5192 1.20215 19.0792 1.20215Z" fill="url(#paint0_linear_27413_22173)"/>
<path d="M18.0025 13.624H16.3465C14.8089 13.624 13.5625 14.8705 13.5625 16.408V18.304C13.5625 19.8416 14.8089 21.088 16.3465 21.088H18.0025C19.5401 21.088 20.7865 19.8416 20.7865 18.304V16.408C20.7865 14.8705 19.5401 13.624 18.0025 13.624Z" stroke="white" stroke-width="1.8" stroke-linecap="round" stroke-linejoin="round"/>
<path d="M19.9766 20.2607L21.5726 21.9047" stroke="white" stroke-width="1.8" stroke-linecap="round" stroke-linejoin="round"/>
<defs>
<linearGradient id="paint0_linear_27413_22173" x1="11.4352" y1="1.33415" x2="11.4352" y2="22.1181" gradientUnits="userSpaceOnUse">
<stop stop-color="white"/>
<stop offset="1" stop-color="#A46CFF"/>
</linearGradient>
</defs>
</svg>
