<svg width="108" height="108" viewBox="0 0 108 108" fill="none" xmlns="http://www.w3.org/2000/svg">
<g opacity="0.8" filter="url(#filter0_f_27331_21235)">
<circle cx="54" cy="54" r="18" fill="#631FE6" fill-opacity="0.7"/>
</g>
<path d="M52.6217 46.6069V50.6629C52.6217 52.1029 51.4577 53.2669 50.0177 53.2669H46.2017C44.7617 53.2669 43.5977 52.1029 43.5977 50.6629V46.6069C43.5977 45.1669 44.7617 44.0029 46.2017 44.0029H50.0177C51.4577 44.0029 52.6217 45.1669 52.6217 46.6069ZM50.0177 55.5229H46.2017C44.7617 55.5229 43.5977 56.6869 43.5977 58.1269V62.1829C43.5977 63.6229 44.7617 64.7869 46.2017 64.7869H50.0177C51.4577 64.7869 52.6217 63.6229 52.6217 62.1829V58.1269C52.6217 56.6869 51.4577 55.5229 50.0177 55.5229ZM61.4777 44.0029H57.6617C56.2217 44.0029 55.0577 45.1669 55.0577 46.6069V50.6629C55.0577 52.1029 56.2217 53.2669 57.6617 53.2669H61.4777C62.9177 53.2669 64.0817 52.1029 64.0817 50.6629V46.6069C64.0817 45.1669 62.9177 44.0029 61.4777 44.0029Z" fill="url(#paint0_linear_27331_21235)"/>
<path d="M60.4009 56.4248H58.7449C57.2074 56.4248 55.9609 57.6712 55.9609 59.2088V61.1048C55.9609 62.6424 57.2074 63.8888 58.7449 63.8888H60.4009C61.9385 63.8888 63.1849 62.6424 63.1849 61.1048V59.2088C63.1849 57.6712 61.9385 56.4248 60.4009 56.4248Z" stroke="white" stroke-width="1.8" stroke-linecap="round" stroke-linejoin="round"/>
<path d="M62.375 63.0615L63.971 64.7055" stroke="white" stroke-width="1.8" stroke-linecap="round" stroke-linejoin="round"/>
<defs>
<filter id="filter0_f_27331_21235" x="0" y="0" width="108" height="108" filterUnits="userSpaceOnUse" color-interpolation-filters="sRGB">
<feFlood flood-opacity="0" result="BackgroundImageFix"/>
<feBlend mode="normal" in="SourceGraphic" in2="BackgroundImageFix" result="shape"/>
<feGaussianBlur stdDeviation="18" result="effect1_foregroundBlur_27331_21235"/>
</filter>
<linearGradient id="paint0_linear_27331_21235" x1="53.8337" y1="44.1349" x2="53.8337" y2="64.9189" gradientUnits="userSpaceOnUse">
<stop stop-color="white"/>
<stop offset="1" stop-color="#A46CFF"/>
</linearGradient>
</defs>
</svg>
