<svg preserveAspectRatio="none" width="100%" height="100%" overflow="visible" style="display: block;" viewBox="0 0 47.0332 36" fill="none" xmlns="http://www.w3.org/2000/svg">
<g id="Group">
<path id="Vector" d="M47.0332 12.5288V23.43C47.0332 24.2681 46.6525 24.9907 45.8791 25.4912C36.2175 31.7458 28.9032 34.3726 26.3431 35.1041C22.8149 36.114 20.9443 36.0074 20.6385 35.9866C14.1935 35.5276 3.33887 26.7617 3.33887 26.7617C3.33887 26.7617 12.197 28.8998 32.6623 19.275C36.4993 17.4714 40.783 15.5229 45.7622 13.2426C45.7622 13.2426 46.8503 12.7775 47.0332 12.5317V12.5288Z" fill="var(--fill-0, #5427C1)"/>
<path id="Vector_2" d="M46.5236 12.1584C46.5806 12.111 46.6525 12.0488 46.6855 12.0073C46.7305 11.9511 46.7694 11.8948 46.7934 11.8267C46.8593 11.6431 46.8384 11.4151 46.7334 11.2463C46.5446 10.9383 46.2268 10.7339 45.8791 10.5088C36.2175 4.25416 28.9032 1.62735 26.3431 0.895864C22.8149 -0.113999 20.9443 -0.00737968 20.6385 0.0133506C14.1935 0.472379 3.33887 9.23846 3.33887 9.23846C3.33887 9.23846 12.197 7.10021 32.6623 16.725C33.3218 17.036 33.9933 17.3499 34.6797 17.6668L45.8611 12.5434C45.8611 12.5434 46.4247 12.2354 46.5236 12.1584Z" fill="var(--fill-0, #986DFA)"/>
<path id="Vector_3" d="M13.7144 17.9897C13.7264 15.665 14.0202 13.3373 14.5628 11.0362L14.6347 10.7489C10.6058 9.81304 7.63212 9.61475 5.8485 9.61475C4.37663 9.61475 3.59422 9.74791 3.32743 9.80418C2.8478 9.90783 2.50908 10.287 2.26627 10.6038C0.824382 12.4933 0 15.1852 0 17.9897C0 20.7942 0.824382 23.4892 2.26627 25.3756C2.50908 25.6925 2.8478 26.0687 3.32743 26.1753C3.59422 26.2316 4.37663 26.3647 5.8485 26.3647C7.63212 26.3647 10.6028 26.1664 14.6347 25.2306L14.5628 24.9433C14.0202 22.6422 13.7264 20.3145 13.7144 17.9897Z" fill="var(--fill-0, #B99AFA)"/>
</g>
</svg>
