<svg width="32" height="32" viewBox="0 0 32 32" fill="none" xmlns="http://www.w3.org/2000/svg">
<path d="M14.6667 24H20M18 10.6667H19.2572C21.0044 10.6667 21.8782 10.6667 22.6188 11.086C23.3595 11.5054 23.8534 12.2796 24.8411 13.8282C25.5336 14.9139 26.2607 15.702 27.283 16.4032C28.3122 17.1091 28.8016 17.4542 29.0732 18.008C29.3334 18.5384 29.3334 19.1667 29.3334 20.4231C29.3334 22.0795 29.3334 22.9078 28.868 23.434C28.848 23.4567 28.8276 23.4787 28.8066 23.5C28.3167 24 27.5459 24 26.004 24H25.3334" stroke="#141414" stroke-width="2" stroke-linecap="round" stroke-linejoin="round"/>
<path d="M6.66669 24C4.78107 24 3.83826 24 3.25247 23.4143C2.66669 22.8284 2.66669 21.8856 2.66669 20V10.6667C2.66669 8.78107 2.66669 7.83826 3.25247 7.25247C3.83826 6.66669 4.78107 6.66669 6.66669 6.66669H14C15.8856 6.66669 16.8284 6.66669 17.4143 7.25247C18 7.83826 18 8.78107 18 10.6667V24H12" stroke="#141414" stroke-width="2" stroke-linecap="round" stroke-linejoin="round"/>
<path d="M29.3333 20H28" stroke="#141414" stroke-width="2" stroke-linecap="round" stroke-linejoin="round"/>
<path d="M10.6667 12V17.3333M13.3333 14.6667H8" stroke="#141414" stroke-width="2" stroke-linecap="round" stroke-linejoin="round"/>
<path d="M22.6667 26.6666C24.1394 26.6666 25.3333 25.4727 25.3333 24C25.3333 22.5272 24.1394 21.3333 22.6667 21.3333C21.1939 21.3333 20 22.5272 20 24C20 25.4727 21.1939 26.6666 22.6667 26.6666Z" stroke="#141414" stroke-width="2"/>
<path d="M9.33335 26.6666C10.8061 26.6666 12 25.4727 12 24C12 22.5272 10.8061 21.3333 9.33335 21.3333C7.86059 21.3333 6.66669 22.5272 6.66669 24C6.66669 25.4727 7.86059 26.6666 9.33335 26.6666Z" stroke="#141414" stroke-width="2"/>
</svg>
