<svg width="32" height="32" viewBox="0 0 32 32" fill="none" xmlns="http://www.w3.org/2000/svg">
<path d="M16.9462 28.4048H6.51953C5.97286 28.4048 5.51953 27.9515 5.51953 27.4048V7.49817C5.51953 6.35151 6.1462 5.31151 7.1462 4.77817C8.87953 3.85817 12.3862 2.64484 16.3595 4.79151C17.3462 5.32484 17.9595 6.36484 17.9595 7.49817V27.3915C17.9595 27.9382 17.5062 28.3915 16.9595 28.3915L16.9462 28.4048ZM7.51953 26.4048H15.9462V7.51151C15.9462 7.11151 15.7329 6.73817 15.3862 6.55151C12.2395 4.84484 9.45286 5.81817 8.0662 6.55151C7.71953 6.73817 7.5062 7.09817 7.5062 7.49817V26.4048H7.51953Z" fill="#121212"/>
<path d="M11.7328 11.9644C12.83 11.9644 13.7194 11.075 13.7194 9.97776C13.7194 8.88055 12.83 7.99109 11.7328 7.99109C10.6356 7.99109 9.74609 8.88055 9.74609 9.97776C9.74609 11.075 10.6356 11.9644 11.7328 11.9644Z" fill="#121212"/>
<path d="M6.52 10.8036H5C4.45333 10.8036 4 10.3503 4 9.80359C4 9.25692 4.45333 8.80359 5 8.80359H6.52C7.06667 8.80359 7.52 9.25692 7.52 9.80359C7.52 10.3503 7.06667 10.8036 6.52 10.8036Z" fill="#121212"/>
<path d="M11.7328 18.4466C12.83 18.4466 13.7194 17.5571 13.7194 16.4599C13.7194 15.3627 12.83 14.4733 11.7328 14.4733C10.6356 14.4733 9.74609 15.3627 9.74609 16.4599C9.74609 17.5571 10.6356 18.4466 11.7328 18.4466Z" fill="#121212"/>
<path d="M6.52 17.2857H5C4.45333 17.2857 4 16.8324 4 16.2857C4 15.739 4.45333 15.2857 5 15.2857H6.52C7.06667 15.2857 7.52 15.739 7.52 16.2857C7.52 16.8324 7.06667 17.2857 6.52 17.2857Z" fill="#121212"/>
<path d="M11.7328 24.9245C12.83 24.9245 13.7194 24.035 13.7194 22.9378C13.7194 21.8406 12.83 20.9512 11.7328 20.9512C10.6356 20.9512 9.74609 21.8406 9.74609 22.9378C9.74609 24.035 10.6356 24.9245 11.7328 24.9245Z" fill="#121212"/>
<path d="M6.52 23.7634H5C4.45333 23.7634 4 23.31 4 22.7634C4 22.2167 4.45333 21.7634 5 21.7634H6.52C7.06667 21.7634 7.52 22.2167 7.52 22.7634C7.52 23.31 7.06667 23.7634 6.52 23.7634Z" fill="#121212"/>
<path d="M25.5211 24.3361C25.2944 24.3361 25.0678 24.2561 24.8811 24.1095L19.7211 19.8161C19.4011 19.5495 19.2811 19.1095 19.4144 18.7095C19.5611 18.3095 19.9344 18.0561 20.3611 18.0561H21.5611C22.9744 18.0561 24.1344 16.9095 24.1344 15.4828C24.1344 13.9895 22.9211 12.7761 21.4278 12.7761H20.1211C19.5744 12.7761 19.1211 12.3228 19.1211 11.7761C19.1211 11.2295 19.5744 10.7761 20.1211 10.7761H21.4278C24.0278 10.7761 26.1344 12.8828 26.1344 15.4828C26.1344 17.5361 24.7611 19.2828 22.8944 19.8561L26.1611 22.5761C26.5878 22.9361 26.6411 23.5628 26.2944 23.9895C26.0944 24.2295 25.8144 24.3495 25.5211 24.3495V24.3361Z" fill="#121212"/>
<path d="M27.0011 16.5352H20.1211C19.5744 16.5352 19.1211 16.0818 19.1211 15.5352C19.1211 14.9885 19.5744 14.5352 20.1211 14.5352H27.0011C27.5478 14.5352 28.0011 14.9885 28.0011 15.5352C28.0011 16.0818 27.5478 16.5352 27.0011 16.5352Z" fill="#121212"/>
<path d="M26.9996 12.7761H20.9063C20.3596 12.7761 19.9062 12.3228 19.9062 11.7761C19.9062 11.2295 20.3596 10.7761 20.9063 10.7761H26.9996C27.5462 10.7761 27.9996 11.2295 27.9996 11.7761C27.9996 12.3228 27.5462 12.7761 26.9996 12.7761Z" fill="#121212"/>
</svg>
