<svg preserveAspectRatio="xMidYMid meet" width="100%" height="100%" overflow="visible" style="display: block;" viewBox="0 0 12.9167 17.9167" fill="none" xmlns="http://www.w3.org/2000/svg">
<g id="Group 1171276146">
<path id="Vector" d="M0.625001 6.45833C0.625001 3.70833 0.625001 2.33333 1.48333 1.48333C2.33333 0.625001 3.70833 0.625001 6.45833 0.625001C9.20833 0.625001 10.5833 0.625001 11.4333 1.48333C12.2917 2.34167 12.2917 3.71667 12.2917 6.45833V11.4583C12.2917 14.2083 12.2917 15.5833 11.4333 16.4333C10.575 17.2917 9.2 17.2917 6.45833 17.2917C3.71667 17.2917 2.33333 17.2917 1.48333 16.4333C0.625001 15.575 0.625001 14.2 0.625001 11.4583V6.45833Z" stroke="var(--stroke-0, #FBFBFB)" stroke-width="1.25" stroke-linecap="round"/>
<path id="Vector_2" d="M5.625 14.7917H7.29167" stroke="var(--stroke-0, #FBFBFB)" stroke-width="1.25" stroke-linecap="round" stroke-linejoin="round"/>
<path id="Vector_3" d="M3.95833 0.624993L4.03333 1.06666C4.2 2.07499 4.29167 2.54999 4.65 2.84166C4.99167 3.11666 5.48333 3.11666 6.45833 3.11666C7.43333 3.11666 7.96667 3.10833 8.30833 2.79999C8.64167 2.50833 8.71667 2.02499 8.88333 1.05833L8.95833 0.616659" stroke="var(--stroke-0, #FBFBFB)" stroke-width="1.25" stroke-linejoin="round"/>
</g>
</svg>
