<svg preserveAspectRatio="none" width="100%" height="100%" overflow="visible" style="display: block;" viewBox="0 0 18.0001 18.0005" fill="none" xmlns="http://www.w3.org/2000/svg">
<g id="Group 12160">
<path id="Vector" d="M17.25 13.2905C16.84 13.2905 16.5 13.6305 16.5 14.0405C16.5 15.4005 15.45 16.5005 14.16 16.5005H3.84C2.55 16.5005 1.5 15.4005 1.5 14.0405C1.5 13.6305 1.16 13.2905 0.75 13.2905C0.34 13.2905 0 13.6305 0 14.0405C0 16.2305 1.72 18.0005 3.84 18.0005H14.16C16.28 18.0005 18 16.2205 18 14.0405C18 13.6305 17.66 13.2905 17.25 13.2905V13.2905Z" fill="var(--fill-0, #121212)"/>
<path id="Vector_2" d="M8.48987 12.2901C8.48987 12.2901 8.56987 12.3401 8.60987 12.3701C8.64987 12.3901 8.67987 12.42 8.71987 12.44C8.80987 12.48 8.90987 12.5001 8.99987 12.5001C9.08987 12.5001 9.18987 12.48 9.27987 12.44C9.31987 12.42 9.34987 12.3901 9.38987 12.3701C9.42987 12.3401 9.46987 12.3301 9.50987 12.2901L13.2099 8.80005C13.5099 8.52005 13.5299 8.04005 13.2399 7.74005C12.9599 7.44005 12.4799 7.43005 12.1799 7.71005L9.73987 10.0101V0.750049C9.73987 0.340049 9.39987 4.88758e-05 8.98987 4.88758e-05C8.57987 4.88758e-05 8.23987 0.340049 8.23987 0.750049V10.0001L5.79987 7.70005C5.49987 7.42005 5.01987 7.43005 4.73987 7.73005C4.45987 8.03005 4.46987 8.51005 4.76987 8.79005L8.46987 12.2801L8.48987 12.2901Z" fill="var(--fill-0, #121212)"/>
</g>
</svg>
