<svg width="24" height="24" viewBox="0 0 24 24" fill="none" xmlns="http://www.w3.org/2000/svg">
<path d="M3.75014 20.85C3.55014 20.85 3.36014 20.77 3.22014 20.63C3.05014 20.46 2.97014 20.22 3.01014 19.99L3.91014 13.92C3.93014 13.76 4.01014 13.61 4.12014 13.5L13.9901 3.72C14.9501 2.76 16.5201 2.76 17.4901 3.72L20.2701 6.48C20.7401 6.95 21.0001 7.56 21.0001 8.22C21.0001 8.88 20.7401 9.5 20.2701 9.96L10.4501 19.69C10.3401 19.8 10.1901 19.87 10.0301 19.9L3.85014 20.84C3.85014 20.84 3.77014 20.84 3.74014 20.84L3.75014 20.85ZM5.36014 14.39L4.65014 19.21L9.58014 18.46L19.2201 8.9C19.4001 8.72 19.5001 8.48 19.5001 8.22C19.5001 7.96 19.4001 7.72 19.2201 7.54L16.4401 4.78C16.0601 4.4 15.4401 4.4 15.0501 4.78L5.36014 14.39Z" fill="#121212"/>
<path d="M16.8209 13.0797C16.6309 13.0797 16.4409 13.0097 16.2909 12.8597L11.0709 7.6797C10.7809 7.3897 10.7709 6.9097 11.0709 6.6197C11.3609 6.3297 11.8409 6.3197 12.1309 6.6197L17.3509 11.7997C17.6409 12.0897 17.6509 12.5697 17.3509 12.8597C17.2009 13.0097 17.0109 13.0797 16.8209 13.0797Z" fill="#121212"/>
</svg>
