<svg preserveAspectRatio="none" width="100%" height="100%" overflow="visible" style="display: block;" viewBox="0 0 18.0001 14.8591" fill="none" xmlns="http://www.w3.org/2000/svg">
<g id="Group 10560">
<path id="Vector" d="M16.1543 14.85H1.84255C0.82094 14.85 0 14.029 0 13.0165V1.84262C0 0.82101 0.82094 6.97374e-05 1.84255 6.97374e-05H16.1543C17.1668 6.97374e-05 17.9877 0.82101 17.9877 1.84262V13.0165C17.9877 14.029 17.1668 14.8591 16.1543 14.8591V14.85ZM1.84255 1.3683C1.58715 1.3683 1.36823 1.5781 1.36823 1.84262V13.0165C1.36823 13.2719 1.57803 13.4908 1.84255 13.4908H16.1543C16.4097 13.4908 16.6195 13.2811 16.6195 13.0165V1.84262C16.6195 1.58722 16.4097 1.3683 16.1543 1.3683H1.84255Z" fill="var(--fill-0, #121212)"/>
<path id="Vector_2" d="M8.94901 8.56539C8.8578 8.56539 8.7757 8.54715 8.69361 8.51979L0.429481 5.16305C0.0828617 5.01711 -0.0904478 4.62488 0.055497 4.26914C0.201442 3.9134 0.593669 3.74921 0.949409 3.89516L8.95813 7.14243L17.0581 3.89516C17.4138 3.75834 17.806 3.92252 17.952 4.27826C18.0888 4.62488 17.9246 5.02623 17.5689 5.17218L9.21354 8.51979C9.13144 8.55627 9.04935 8.56539 8.95813 8.56539H8.94901Z" fill="var(--fill-0, #121212)"/>
</g>
</svg>
