<svg preserveAspectRatio="none" width="100%" height="100%" overflow="visible" style="display: block;" viewBox="0 0 18 18" fill="none" xmlns="http://www.w3.org/2000/svg">
<path id="Vector" d="M12.6766 17.9972C9.94197 17.9972 6.76661 16.449 4.16222 13.8422C-0.024833 9.65727 -1.24691 4.30374 1.38753 1.66693L2.66972 0.388477C2.94313 0.13861 3.30053 0 3.67141 0C4.04228 0 4.39969 0.13861 4.67309 0.388477L8.02873 3.74443C8.16501 3.87908 8.27318 4.03933 8.34701 4.21591C8.42084 4.39248 8.45889 4.58188 8.45889 4.77319C8.45889 4.96449 8.42084 5.15389 8.34701 5.33047C8.27318 5.50704 8.16501 5.66729 8.02873 5.80194L6.72661 7.10036C6.60656 7.22149 6.53276 7.38071 6.51812 7.55038C6.50349 7.72004 6.54886 7.88947 6.64639 8.02926C7.08845 8.67197 7.59162 9.27066 8.14892 9.81707C8.69421 10.3748 9.29124 10.8797 9.93196 11.3253C10.0733 11.4212 10.2439 11.4648 10.4141 11.4484C10.5843 11.432 10.7433 11.3566 10.8636 11.2354L12.1557 9.93692C12.4334 9.67197 12.803 9.52409 13.1874 9.52409C13.5718 9.52409 13.9415 9.67197 14.2192 9.93692L17.5748 13.2929C17.847 13.5645 18 13.9327 18 14.3166C18 14.7006 17.847 15.0688 17.5748 15.3404L16.3027 16.6188C15.8206 17.0776 15.2516 17.4358 14.629 17.6724C14.0063 17.9091 13.3426 18.0195 12.6766 17.9972ZM3.66138 1.44719L2.4594 2.72565C0.456026 4.72323 1.74821 9.3077 5.22407 12.7935C7.51794 15.0807 10.3727 16.499 12.6766 16.499C13.1517 16.5247 13.6271 16.4548 14.0746 16.2936C14.522 16.1323 14.9322 15.8828 15.2809 15.5601L16.5531 14.2817L13.2075 10.9957L11.9754 12.2941C11.6088 12.6584 11.1267 12.8844 10.6114 12.9336C10.0962 12.9828 9.57988 12.8521 9.15061 12.5638C8.4278 12.0694 7.75663 11.5039 7.14724 10.8758C6.51978 10.2658 5.95293 9.59685 5.45444 8.87821C5.16714 8.44954 5.03711 7.9351 5.08639 7.42187C5.13567 6.90864 5.36126 6.42816 5.72492 6.06164L7.02704 4.76319L3.66138 1.44719Z" fill="var(--fill-0, #121212)"/>
</svg>
