<svg preserveAspectRatio="none" width="100%" height="100%" overflow="visible" style="display: block;" viewBox="0 0 16 16" fill="none" xmlns="http://www.w3.org/2000/svg">
<path id="&#240;&#159;&#142;&#168;-Color" d="M1.21476 0.0863958L15.5174 7.2035C15.9401 7.41386 16.1189 7.94095 15.9168 8.38078C15.8332 8.56267 15.6922 8.7093 15.5174 8.79629L1.21476 15.9134C0.79202 16.1238 0.285427 15.9377 0.0832488 15.4979C-0.00460771 15.3068 -0.0234685 15.0891 0.0301096 14.8847L1.46066 9.42702C1.4965 9.2903 1.60743 9.18911 1.74241 9.17003L8.6731 8.19052C8.73283 8.18164 8.78232 8.1408 8.80518 8.08505L8.81709 8.0407C8.82845 7.95796 8.78271 7.88044 8.71098 7.85129L8.6731 7.84095L1.75052 6.86146C1.61556 6.84237 1.50465 6.74118 1.46882 6.60447L0.0301096 1.11507C-0.0931861 0.644696 0.17335 0.15939 0.625434 0.0311069C0.821887 -0.0246385 1.03106 -0.00501467 1.21476 0.0863958Z" fill="var(--fill-0, #5920C5)" fill-opacity="0.5"/>
</svg>
