<svg width="32" height="32" viewBox="0 0 32 32" fill="none" xmlns="http://www.w3.org/2000/svg">
<path d="M27.6852 13.1294H4.32787C3.80854 13.1294 3.37787 12.6987 3.37787 12.1794V9.88669C3.37787 9.51936 3.5932 9.17736 3.9352 9.02536L15.7152 3.59136C15.9685 3.47736 16.2599 3.47736 16.5132 3.59136L28.0779 9.03803C28.4072 9.19003 28.6225 9.53203 28.6225 9.89936V12.192C28.6225 12.7114 28.1919 13.142 27.6725 13.142L27.6852 13.1294ZM5.27787 11.2294H26.7352V10.4947L16.1079 5.50403L5.27787 10.5074V11.242V11.2294Z" fill="#121212"/>
<path d="M18.2908 15.5363H13.2494C12.7301 15.5363 12.2994 15.967 12.2994 16.4863C12.2994 17.0056 12.7301 17.4363 13.2494 17.4363H14.8328V23.111C14.8328 23.6303 15.2634 24.061 15.7828 24.061C16.3021 24.061 16.7328 23.6303 16.7328 23.111V17.4363H18.3034C18.8228 17.4363 19.2534 17.0056 19.2534 16.4863C19.2534 15.967 18.8228 15.5363 18.3034 15.5363H18.2908Z" fill="#121212"/>
<path d="M23.4978 15.5363C21.2558 15.5363 19.4318 17.487 19.4318 19.8683C19.4318 22.2496 21.2558 24.2003 23.4978 24.2003C25.7398 24.2003 27.5638 22.2496 27.5638 19.8683C27.5638 17.487 25.7398 15.5363 23.4978 15.5363ZM23.4978 22.313C22.3072 22.313 21.3318 21.2236 21.3318 19.881C21.3318 18.5383 22.3072 17.449 23.4978 17.449C24.6885 17.449 25.6638 18.5383 25.6638 19.881C25.6638 21.2236 24.6885 22.313 23.4978 22.313Z" fill="#121212"/>
<path d="M11.7678 18.488C11.7678 16.9047 10.4885 15.6254 8.90516 15.6254H6.05516C5.53583 15.6254 5.10516 16.056 5.10516 16.5754V23.1114C5.10516 23.6307 5.53583 24.0614 6.05516 24.0614C6.5745 24.0614 7.00516 23.6307 7.00516 23.1114V21.3254H8.25916L10.0578 23.6814C10.2478 23.922 10.5265 24.0614 10.8178 24.0614C11.0205 24.0614 11.2232 23.998 11.3878 23.8714C11.8058 23.5547 11.8818 22.9594 11.5652 22.5414L10.3365 20.9327C11.1852 20.4387 11.7552 19.5267 11.7552 18.4754L11.7678 18.488ZM7.00516 17.538H8.90516C9.43716 17.538 9.85516 17.9687 9.85516 18.488C9.85516 19.0074 9.4245 19.438 8.90516 19.438H7.00516V17.5254V17.538Z" fill="#121212"/>
<path d="M27.7166 28.4941H4.28331C3.76398 28.4941 3.33331 28.0634 3.33331 27.5441C3.33331 27.0247 3.76398 26.5941 4.28331 26.5941H27.7166C28.236 26.5941 28.6666 27.0247 28.6666 27.5441C28.6666 28.0634 28.236 28.4941 27.7166 28.4941Z" fill="#121212"/>
</svg>
