<svg width="24" height="24" viewBox="0 0 24 24" fill="none" xmlns="http://www.w3.org/2000/svg">
<path d="M19.1543 19.4202H4.84255C3.82094 19.4202 3 18.5993 3 17.5868V6.41287C3 5.39125 3.82094 4.57031 4.84255 4.57031H19.1543C20.1668 4.57031 20.9877 5.39125 20.9877 6.41287V17.5868C20.9877 18.5993 20.1668 19.4293 19.1543 19.4293V19.4202ZM4.84255 5.93855C4.58715 5.93855 4.36823 6.14834 4.36823 6.41287V17.5868C4.36823 17.8422 4.57803 18.0611 4.84255 18.0611H19.1543C19.4097 18.0611 19.6195 17.8513 19.6195 17.5868V6.41287C19.6195 6.15746 19.4097 5.93855 19.1543 5.93855H4.84255Z" fill="#121212"/>
<path d="M11.9494 13.1358C11.8581 13.1358 11.776 13.1175 11.694 13.0902L3.42982 9.73342C3.0832 9.58747 2.9099 9.19525 3.05584 8.83951C3.20179 8.48377 3.59401 8.31958 3.94975 8.46552L11.9585 11.7128L20.0584 8.46552C20.4142 8.3287 20.8064 8.49289 20.9523 8.84863C21.0892 9.19525 20.925 9.5966 20.5692 9.74254L12.2139 13.0902C12.1318 13.1266 12.0497 13.1358 11.9585 13.1358H11.9494Z" fill="#121212"/>
</svg>
