<svg width="20" height="20" viewBox="0 0 20 20" fill="none" xmlns="http://www.w3.org/2000/svg">
<path d="M10.3201 1.95273L15.9224 3.89743C16.3625 4.0537 16.6667 4.49646 16.6667 5V12.0833C16.6667 15.5907 11.6647 17.8059 10.3281 18.2747C10.112 18.3529 9.88795 18.3529 9.67186 18.2747C8.32733 17.8059 3.33333 15.5907 3.33333 12.0833V5C3.33333 4.49646 3.62945 4.0537 4.07763 3.89743L9.67186 1.95273C9.87995 1.88327 10.112 1.88327 10.3201 1.95273Z" stroke="#141414" stroke-width="1.25" stroke-linecap="round" stroke-linejoin="round"/>
<path d="M14.6978 15.6528C14.6978 15.6528 13.3333 13.3785 9.99999 13.3333C6.66666 13.2881 5.29407 15.4618 5.29407 15.4618" stroke="#141414" stroke-width="1.25" stroke-linecap="round" stroke-linejoin="round"/>
<path d="M12.5 8.33334C12.5 9.71684 11.3835 10.8333 9.99999 10.8333C8.6165 10.8333 7.49999 9.71684 7.49999 8.33334C7.49999 6.94985 8.6165 5.83334 9.99999 5.83334C11.3835 5.83334 12.5 6.94985 12.5 8.33334Z" stroke="#141414" stroke-width="1.26365"/>
</svg>
