<svg width="48" height="48" viewBox="0 0 48 48" fill="none" xmlns="http://www.w3.org/2000/svg">
<path d="M24.0314 42C14.0897 42.007 6.02642 33.9452 6.00012 24.0151C5.9746 14.3124 13.8307 6.13386 23.8095 6.00162C33.8687 5.86784 42.048 14.0263 42.0704 23.8705C42.0928 33.929 34.0489 41.993 24.0314 42ZM24.0662 8.6997C15.6936 8.69893 8.79951 15.5226 8.79177 23.8202C8.78327 32.3104 15.5791 39.1465 24.0391 39.1565C32.4296 39.1674 39.295 32.3228 39.2973 23.9455C39.2996 15.5605 32.4473 8.70048 24.0662 8.6997Z" fill="white"/>
<path d="M32.2301 27.7006C32.145 29.0183 31.282 30.1211 30.0262 30.4373C28.7665 30.7544 27.4696 30.1922 26.8541 29.0222C26.1403 27.6658 25.4551 26.2947 24.7584 24.9298C23.8799 23.2092 22.9952 21.4917 22.126 19.7664C21.5607 18.6444 21.7293 17.3916 22.5359 16.5332C23.9023 15.0786 26.213 15.4266 27.1433 17.2369C28.2739 19.437 29.3913 21.6425 30.5157 23.8456C30.9425 24.6831 31.3926 25.5098 31.7893 26.3612C31.9865 26.7842 32.087 27.2529 32.2309 27.7006H32.2301Z" fill="white"/>
<path d="M19.2547 30.5233C17.4157 30.5295 15.931 29.051 15.9333 27.2159C15.9356 25.4025 17.4165 23.9239 19.2315 23.9224C21.0727 23.9208 22.5536 25.3955 22.5536 27.2314C22.5536 29.044 21.0781 30.5172 19.2547 30.5233Z" fill="white"/>
</svg>
