<svg width="48" height="48" viewBox="0 0 48 48" fill="none" xmlns="http://www.w3.org/2000/svg">
<path d="M19.9429 20.6085L7.37793 14.778V21.377L12.8469 23.8176L7.37793 26.3487V32.9476L19.9429 27.117L23.3327 28.6538C23.6491 28.9701 23.6491 29.2413 23.6491 29.2413L23.2423 29.8289L11.9429 34.9815L22.0672 39.5916L22.926 39.8628C23.4232 39.8628 23.7395 39.5916 23.7395 39.5916L38.926 32.6764C40.4627 31.908 40.4627 31.004 40.4627 31.004C40.4627 29.9645 38.926 29.2866 38.926 29.2866L27.039 23.8176L38.926 18.3487C40.4627 17.6707 40.4627 16.7215 40.4627 16.7215C40.4627 15.7724 38.926 15.0492 38.926 15.0492L23.7395 8.04362L22.926 7.86279L22.0672 8.04362L11.9429 12.6989C17.5926 15.2752 23.2423 17.8967 23.2423 17.8967C23.6491 18.0775 23.6491 18.4843 23.6491 18.4843C23.6491 18.8458 23.3327 19.0266 23.3327 19.0266C21.6604 19.795 19.9429 20.6085 19.9429 20.6085Z" fill="white"/>
</svg>
