<svg width="48" height="48" viewBox="0 0 48 48" fill="none" xmlns="http://www.w3.org/2000/svg">
<path fill-rule="evenodd" clip-rule="evenodd" d="M24 7.10629C14.6699 7.10629 7.10629 14.6699 7.10629 24C7.10629 33.3301 14.6699 40.8937 24 40.8937C33.3301 40.8937 40.8937 33.3301 40.8937 24C40.8937 14.6699 33.3301 7.10629 24 7.10629ZM6 24C6 14.0589 14.0589 6 24 6C33.9411 6 42 14.0589 42 24C42 33.9411 33.9411 42 24 42C14.0589 42 6 33.9411 6 24Z" fill="white"/>
<path d="M13.3323 24.0005C13.3323 18.1085 18.1084 13.3325 24.0005 13.3323C29.8923 13.3325 34.6681 18.1084 34.6684 24.0005C34.6681 29.8923 29.8923 34.6681 24.0005 34.6685C18.1084 34.6681 13.3323 29.8923 13.3323 24.0005ZM16.8826 16.8829C15.0606 18.7054 13.9347 21.2199 13.9345 24.0005C13.9347 26.781 15.0606 29.2956 16.8826 31.118C18.7052 32.9398 21.2197 34.0659 24.0005 34.0662C26.7807 34.0659 29.2952 32.9398 31.1178 31.118C32.9397 29.2956 34.0657 26.781 34.0659 24.0005C34.0657 21.2199 32.9397 18.7054 31.1178 16.8829C29.2952 15.0608 26.7807 13.935 24.0005 13.9347C21.2197 13.935 18.7052 15.0608 16.8826 16.8829Z" fill="white"/>
<path d="M13.3369 23.9999H24.0059V13.3323H24.0051C18.1133 13.3325 13.3373 18.1081 13.3369 23.9999Z" fill="white"/>
<path d="M34.666 23.9946H23.9971V34.6692H23.9978C29.8896 34.669 34.6657 29.8864 34.666 23.9946Z" fill="white"/>
<path d="M36.3621 14.134L33.9846 15.7068L35.1096 13.5186C34.8172 13.1731 34.3744 12.8099 34.3744 12.8099L32.2041 13.8996L33.7967 11.5644C33.5323 11.3424 33.2263 11.1578 32.9329 10.9352L30.7039 14.412C30.7039 14.412 31.126 14.6603 31.6425 15.1373L33.9494 13.9439L32.741 16.2144C33.0128 16.5014 33.2547 16.8492 33.5065 17.1596L37.0176 14.9879C37.0175 14.9879 36.8026 14.6501 36.3621 14.134ZM24.2475 11.7633L25.3173 9.39941L25.4141 12.3962C25.8449 12.4154 26.4805 12.5775 26.4805 12.5775L26.2885 8.33294C25.4818 8.21568 24.838 8.18359 24.838 8.18359L23.8074 10.7476L22.8009 8.20424C22.8009 8.20424 22.1361 8.26902 21.3293 8.38617L21.1361 12.6635C21.1361 12.6635 21.773 12.4792 22.2038 12.4602L22.2948 9.41748L23.3673 11.7632H24.2475V11.7633ZM15.1935 13.1531L15.1936 13.1488C15.2455 12.9582 15.2437 12.757 15.1883 12.5674C15.1329 12.3778 15.0261 12.2072 14.8798 12.0745C14.4458 11.6786 13.7992 11.6652 13.1093 12.3538C13.1093 12.3538 11.8375 13.629 10.976 14.8779L14.07 17.6996L16.4018 15.0854C16.9091 14.525 16.9289 13.7313 16.4649 13.3078C16.1179 12.9919 15.6149 12.947 15.1935 13.1531ZM12.209 14.6697C13.3051 13.3119 13.7439 12.9408 13.7439 12.9408C14.0313 12.6921 14.2438 12.6703 14.4163 12.8276C14.5889 12.9847 14.5671 13.2902 14.368 13.5098L12.8188 15.2255L12.209 14.6697ZM15.6921 14.5556L14.0651 16.3619L13.4536 15.8044L15.0807 13.9981C15.2796 13.7785 15.578 13.7249 15.7469 13.8789C15.9158 14.0329 15.8911 14.3361 15.6921 14.5556Z" fill="white"/>
</svg>
