<svg width="48" height="48" viewBox="0 0 48 48" fill="none" xmlns="http://www.w3.org/2000/svg">
<g clip-path="url(#clip0_42_7343)">
<path d="M17.031 20.5984H16.9982C16.6539 20.5983 16.313 20.6661 15.995 20.7978C15.677 20.9295 15.388 21.1226 15.1446 21.366C14.9011 21.6094 14.7081 21.8984 14.5764 22.2164C14.4447 22.5344 14.3769 22.8753 14.377 23.2196V27.3368C14.377 27.6536 14.2511 27.9574 14.0271 28.1815C13.8031 28.4055 13.4993 28.5313 13.1825 28.5313C12.8657 28.5313 12.5618 28.4055 12.3378 28.1815C12.1138 27.9574 11.988 27.6536 11.988 27.3368V25.1109C11.988 24.4244 11.7152 23.7659 11.2297 23.2804C10.7442 22.7949 10.0858 22.5222 9.39918 22.5222C8.71258 22.5222 8.05411 22.7949 7.56861 23.2804C7.08312 23.7659 6.81036 24.4244 6.81036 25.1109V25.4815C6.81036 25.6664 6.8838 25.8438 7.01454 25.9745C7.14528 26.1052 7.32263 26.1787 7.50752 26.1787C7.69242 26.1787 7.86974 26.1052 8.00048 25.9745C8.13122 25.8438 8.20465 25.6664 8.20465 25.4815V25.1109C8.20465 24.7941 8.33051 24.4903 8.55452 24.2663C8.77854 24.0423 9.08238 23.9165 9.39918 23.9165C9.71598 23.9165 10.0198 24.0423 10.2438 24.2663C10.4678 24.4903 10.5937 24.7941 10.5937 25.1109V27.3368C10.6029 28.0173 10.8797 28.6667 11.3641 29.1446C11.8486 29.6226 12.5017 29.8905 13.1822 29.8905C13.8627 29.8905 14.5159 29.6226 15.0003 29.1446C15.4848 28.6667 15.7616 28.0173 15.7708 27.3368V25.2489H16.6542C16.8391 25.2489 17.0164 25.1755 17.1472 25.0447C17.2779 24.914 17.3514 24.7367 17.3514 24.5518C17.3514 24.3669 17.2779 24.1896 17.1472 24.0588C17.0164 23.9281 16.8391 23.8546 16.6542 23.8546H15.7708V23.2191C15.7708 23.0579 15.8024 22.8984 15.8641 22.7495C15.9257 22.6006 16.0161 22.4653 16.13 22.3514C16.2439 22.2375 16.3792 22.1471 16.5281 22.0855C16.677 22.0238 16.8365 21.9922 16.9977 21.9922H17.0305C17.2154 21.9922 17.3927 21.9188 17.5235 21.788C17.6542 21.6573 17.7276 21.48 17.7276 21.2951C17.7276 21.1102 17.6542 20.9328 17.5235 20.8021C17.3927 20.6714 17.2154 20.5979 17.0305 20.5979L17.031 20.5984Z" fill="white"/>
<path d="M37.4779 26.8804C37.2945 26.8577 37.1095 26.9087 36.9637 27.0223C36.8178 27.1358 36.723 27.3026 36.7001 27.486C36.6587 27.7846 36.5059 28.0565 36.2725 28.2472C36.039 28.438 35.7422 28.5334 35.4413 28.5145C35.1405 28.4955 34.8579 28.3635 34.6502 28.145C34.4426 27.9265 34.3252 27.6376 34.3216 27.3362V25.2488H35.2054C35.3903 25.2488 35.5677 25.1753 35.6984 25.0446C35.8291 24.9138 35.9026 24.7365 35.9026 24.5516C35.9026 24.3667 35.8291 24.1894 35.6984 24.0586C35.5677 23.9279 35.3903 23.8544 35.2054 23.8544H34.3216V22.1852C34.3216 22.0003 34.2481 21.823 34.1174 21.6922C33.9866 21.5615 33.8093 21.488 33.6244 21.488C33.4395 21.488 33.2622 21.5615 33.1314 21.6922C33.0007 21.823 32.9272 22.0003 32.9272 22.1852V27.3362C32.9279 27.9945 33.1794 28.6278 33.6304 29.1074C34.0814 29.5869 34.6982 29.8766 35.3552 29.9177C36.0122 29.9587 36.6602 29.7479 37.1673 29.3282C37.6745 28.9085 38.0028 28.3113 38.0854 27.6582C38.0966 27.5673 38.0898 27.475 38.0653 27.3866C38.0409 27.2983 37.9993 27.2156 37.9429 27.1434C37.8864 27.0712 37.8163 27.0107 37.7365 26.9656C37.6568 26.9205 37.5689 26.8916 37.4779 26.8804Z" fill="white"/>
<path d="M30.6129 24.7842C30.5214 24.7842 30.4307 24.8022 30.3462 24.8372C30.2616 24.8723 30.1848 24.9236 30.1201 24.9883C30.0554 25.053 30.004 25.1298 29.969 25.2144C29.934 25.299 29.916 25.3896 29.916 25.4811V27.3364C29.916 27.6532 29.7901 27.957 29.5661 28.181C29.3421 28.405 29.0383 28.5309 28.7215 28.5309C28.4047 28.5309 28.1009 28.405 27.8769 28.181C27.6529 27.957 27.527 27.6532 27.527 27.3364V25.1105C27.527 24.4239 27.2542 23.7655 26.7687 23.28C26.2832 22.7945 25.6248 22.5217 24.9382 22.5217C24.2516 22.5217 23.5931 22.7945 23.1076 23.28C22.6221 23.7655 22.3494 24.4239 22.3494 25.1105V25.4816C22.3494 25.6665 22.4228 25.8438 22.5535 25.9745C22.6843 26.1053 22.8616 26.1787 23.0465 26.1787C23.2314 26.1787 23.4087 26.1053 23.5395 25.9745C23.6702 25.8438 23.7437 25.6665 23.7437 25.4816V25.1105C23.7437 24.7937 23.8695 24.4899 24.0936 24.2659C24.3176 24.0419 24.6214 23.916 24.9382 23.916C25.255 23.916 25.5588 24.0419 25.7828 24.2659C26.0068 24.4899 26.1327 24.7937 26.1327 25.1105V27.3364C26.1327 28.023 26.4054 28.6814 26.8909 29.1669C27.3764 29.6524 28.0349 29.9252 28.7215 29.9252C29.4081 29.9252 30.0665 29.6524 30.552 29.1669C31.0375 28.6814 31.3103 28.023 31.3103 27.3364V25.4811C31.3103 25.3896 31.2922 25.2989 31.2572 25.2143C31.2221 25.1297 31.1708 25.0529 31.106 24.9881C31.0413 24.9234 30.9643 24.8721 30.8797 24.8371C30.7951 24.8021 30.7044 24.7841 30.6129 24.7842Z" fill="white"/>
<path d="M23.1167 26.8792C23.0258 26.868 22.9336 26.8747 22.8454 26.8991C22.7571 26.9235 22.6745 26.9651 22.6023 27.0214C22.5301 27.0777 22.4698 27.1477 22.4246 27.2274C22.3795 27.3071 22.3506 27.3948 22.3394 27.4857C22.2995 27.7855 22.1474 28.0589 21.9138 28.251C21.6802 28.443 21.3825 28.5392 21.0807 28.5204C20.7789 28.5015 20.4955 28.3688 20.2877 28.1492C20.0798 27.9295 19.963 27.6392 19.9608 27.3368V25.4816C19.9608 25.2967 19.8874 25.1193 19.7566 24.9886C19.6259 24.8579 19.4486 24.7844 19.2637 24.7844C19.0788 24.7844 18.9014 24.8579 18.7707 24.9886C18.64 25.1193 18.5665 25.2967 18.5665 25.4816V27.3368C18.5659 27.9961 18.8168 28.6309 19.2681 29.1115C19.7194 29.5921 20.3371 29.8824 20.9952 29.9232C21.6532 29.964 22.302 29.7521 22.8092 29.3309C23.3164 28.9097 23.6439 28.3108 23.7246 27.6565C23.7359 27.5655 23.729 27.4732 23.7046 27.3849C23.6801 27.2965 23.6384 27.2139 23.5819 27.1417C23.5254 27.0695 23.4553 27.0092 23.3755 26.9641C23.2956 26.9191 23.2077 26.8902 23.1167 26.8792Z" fill="white"/>
<path d="M7.57006 26.8792C7.47919 26.868 7.38698 26.8747 7.29872 26.8991C7.21047 26.9235 7.12789 26.9651 7.0557 27.0214C6.98351 27.0777 6.92316 27.1477 6.87804 27.2274C6.83291 27.3071 6.80391 27.3948 6.79273 27.4857C6.75285 27.7855 6.60077 28.0589 6.36717 28.251C6.13356 28.443 5.83584 28.5392 5.53404 28.5204C5.23224 28.5015 4.94884 28.3688 4.741 28.1492C4.53317 27.9295 4.41637 27.6392 4.41419 27.3368V25.4816C4.41419 25.2967 4.34075 25.1193 4.21001 24.9886C4.07927 24.8579 3.90195 24.7844 3.71706 24.7844C3.53216 24.7844 3.35481 24.8579 3.22407 24.9886C3.09333 25.1193 3.0199 25.2967 3.0199 25.4816V27.3368C3.01926 27.9961 3.27018 28.6309 3.7215 29.1115C4.17282 29.5921 4.79051 29.8824 5.44856 29.9232C6.1066 29.964 6.75542 29.7521 7.26263 29.3309C7.76984 28.9097 8.09721 28.3108 8.17799 27.6565C8.18923 27.5655 8.18241 27.4732 8.15793 27.3849C8.13344 27.2965 8.09179 27.2139 8.03531 27.1417C7.97884 27.0695 7.90865 27.0092 7.82881 26.9641C7.74898 26.9191 7.66106 26.8902 7.57006 26.8792Z" fill="white"/>
<path d="M41.7764 29.9252H42.3601C42.545 29.9252 42.7223 29.8518 42.853 29.721C42.9838 29.5903 43.0572 29.413 43.0572 29.2281C43.0572 29.0432 42.9838 28.8659 42.853 28.7351C42.7223 28.6044 42.545 28.5309 42.3601 28.5309H41.7764C41.4602 28.5305 41.157 28.4048 40.9335 28.1812C40.7099 27.9576 40.5841 27.6545 40.5838 27.3383V24.5511C40.5838 24.3662 40.5103 24.1889 40.3795 24.0582C40.2488 23.9274 40.0715 23.854 39.8866 23.854C39.7017 23.854 39.5244 23.9274 39.3936 24.0582C39.2629 24.1889 39.1895 24.3662 39.1895 24.5511V27.3383C39.1902 28.0242 39.463 28.6817 39.948 29.1667C40.4329 29.6517 41.0905 29.9245 41.7764 29.9252Z" fill="white"/>
<path d="M44.4488 23.8547C44.264 23.8547 44.0867 23.9282 43.956 24.0589C43.8254 24.1895 43.7519 24.3668 43.7519 24.5517V30.2435C43.7522 30.5761 43.6624 30.9025 43.4922 31.1882C43.322 31.474 43.0776 31.7083 42.7851 31.8664C42.4925 32.0245 42.1626 32.1006 41.8303 32.0865C41.4981 32.0724 41.1758 31.9686 40.8977 31.7862C40.7431 31.6849 40.5545 31.6491 40.3735 31.6867C40.1925 31.7244 40.0339 31.8324 39.9325 31.987C39.8311 32.1416 39.7953 32.3301 39.833 32.5112C39.8706 32.6922 39.9786 32.8508 40.1332 32.9522C40.6216 33.2718 41.1873 33.4535 41.7704 33.4779C42.3535 33.5024 42.9324 33.3688 43.4458 33.0913C43.9593 32.8137 44.3881 32.4025 44.687 31.9012C44.9859 31.3999 45.1438 30.8271 45.1439 30.2435V24.5517C45.1439 24.3672 45.0707 24.1902 44.9404 24.0595C44.8101 23.9289 44.6333 23.8552 44.4488 23.8547Z" fill="white"/>
<path d="M3.71584 24.0359C4.13384 24.0359 4.47269 23.6971 4.47269 23.2791C4.47269 22.8611 4.13384 22.5222 3.71584 22.5222C3.29784 22.5222 2.95898 22.8611 2.95898 23.2791C2.95898 23.6971 3.29784 24.0359 3.71584 24.0359Z" fill="white"/>
<path d="M19.3846 24.0267C19.7972 23.9598 20.0775 23.5711 20.0106 23.1584C19.9437 22.7458 19.555 22.4656 19.1424 22.5325C18.7298 22.5993 18.4495 22.9881 18.5164 23.4007C18.5833 23.8133 18.972 24.0935 19.3846 24.0267Z" fill="white"/>
<path d="M31.313 23.5687C31.473 23.1826 31.2896 22.7398 30.9034 22.5799C30.5172 22.4199 30.0745 22.6033 29.9145 22.9895C29.7546 23.3757 29.9379 23.8184 30.3241 23.9784C30.7103 24.1383 31.153 23.9549 31.313 23.5687Z" fill="white"/>
<path d="M11.9789 14.4092C11.9782 14.364 11.9866 14.319 12.0036 14.2771C12.0206 14.2352 12.0458 14.1971 12.0778 14.1651C12.1098 14.1331 12.1479 14.1079 12.1898 14.0909C12.2318 14.0739 12.2766 14.0655 12.3219 14.0662H13.7157C14.0851 14.042 14.449 14.1654 14.7275 14.4092C14.8126 14.4926 14.8795 14.5926 14.9242 14.703C14.9689 14.8134 14.9904 14.9319 14.9873 15.0509V15.0619C14.9909 15.2442 14.9402 15.4236 14.8418 15.5772C14.7434 15.7308 14.6017 15.8518 14.4345 15.9248C14.6521 15.9674 14.848 16.0846 14.9883 16.2562C15.1287 16.4278 15.2047 16.6431 15.2033 16.8648V16.8758C15.2033 17.567 14.6324 17.9375 13.7709 17.9375H12.3219C12.2766 17.9382 12.2318 17.9298 12.1898 17.9129C12.1479 17.8959 12.1098 17.8706 12.0778 17.8386C12.0458 17.8067 12.0206 17.7686 12.0036 17.7266C11.9866 17.6847 11.9782 17.6398 11.9789 17.5945V14.4092ZM13.5773 15.6979C14.014 15.6979 14.307 15.5266 14.307 15.1746V15.1637C14.307 14.8597 14.0639 14.6713 13.6268 14.6713H12.6482V15.6998L13.5773 15.6979ZM13.7761 17.3348C14.2404 17.3348 14.5225 17.1526 14.5225 16.8039V16.793C14.5225 16.4666 14.2628 16.273 13.7262 16.273H12.6478V17.3348H13.7761Z" fill="white"/>
<path d="M15.5786 16.0127V16.0018C15.5851 15.4703 15.8005 14.9627 16.1782 14.5886C16.5559 14.2146 17.0655 14.0041 17.5971 14.0027C18.1286 14.0013 18.6394 14.209 19.0191 14.581C19.3988 14.9529 19.6169 15.4594 19.6264 15.9908V16.0018C19.6198 16.5333 19.4044 17.0408 19.0267 17.4149C18.649 17.7889 18.1394 17.9994 17.6079 18.0008C17.0763 18.0023 16.5655 17.7946 16.1858 17.4226C15.8062 17.0506 15.588 16.5442 15.5786 16.0127ZM18.9133 16.0127V16.0018C18.9201 15.8242 18.8912 15.6471 18.8282 15.4809C18.7652 15.3147 18.6695 15.1629 18.5467 15.0345C18.424 14.906 18.2766 14.8035 18.1135 14.7331C17.9503 14.6627 17.7747 14.6258 17.597 14.6246C17.4205 14.6248 17.2459 14.6607 17.0837 14.7302C16.9214 14.7997 16.7749 14.9013 16.653 15.0289C16.5311 15.1565 16.4363 15.3075 16.3742 15.4727C16.3122 15.638 16.2843 15.814 16.2921 15.9903V16.0013C16.2854 16.1785 16.3145 16.3554 16.3775 16.5212C16.4406 16.687 16.5364 16.8383 16.6592 16.9663C16.7821 17.0943 16.9294 17.1963 17.0925 17.2661C17.2556 17.3359 17.431 17.3722 17.6084 17.3728C17.7846 17.3732 17.959 17.3379 18.1211 17.269C18.2833 17.2001 18.4298 17.099 18.5517 16.9719C18.6737 16.8447 18.7687 16.6942 18.8308 16.5293C18.893 16.3645 18.921 16.1887 18.9133 16.0127Z" fill="white"/>
<path d="M20.2795 16.2948V14.3758C20.2795 14.2856 20.3153 14.1991 20.3791 14.1353C20.4429 14.0715 20.5294 14.0356 20.6197 14.0356C20.7099 14.0356 20.7963 14.0715 20.8601 14.1353C20.9239 14.1991 20.9598 14.2856 20.9598 14.3758V16.2672C20.9598 16.986 21.3303 17.3675 21.9388 17.3675C22.5472 17.3675 22.9121 17.0079 22.9121 16.2948V14.3758C22.9121 14.2856 22.9479 14.1991 23.0117 14.1353C23.0755 14.0715 23.162 14.0356 23.2522 14.0356C23.3424 14.0356 23.4289 14.0715 23.4927 14.1353C23.5565 14.1991 23.5923 14.2856 23.5923 14.3758V16.2629C23.5923 17.4189 22.9396 17.9992 21.9273 17.9992C20.915 17.9992 20.2795 17.4174 20.2795 16.2948Z" fill="white"/>
<path d="M24.5266 14.3867C24.5264 14.3416 24.5351 14.2968 24.5522 14.2551C24.5694 14.2134 24.5946 14.1755 24.6265 14.1436C24.6584 14.1117 24.6963 14.0864 24.7381 14.0693C24.7798 14.0521 24.8245 14.0434 24.8696 14.0437H24.9414C25.0123 14.045 25.0817 14.0638 25.1434 14.0985C25.2052 14.1332 25.2574 14.1827 25.2954 14.2425L27.231 16.7476V14.3691C27.231 14.2803 27.2663 14.1952 27.329 14.1324C27.3918 14.0697 27.4769 14.0344 27.5657 14.0344C27.6544 14.0344 27.7396 14.0697 27.8023 14.1324C27.8651 14.1952 27.9003 14.2803 27.9003 14.3691V17.6206C27.9009 17.6646 27.8927 17.7084 27.8762 17.7493C27.8597 17.7902 27.8353 17.8274 27.8043 17.8588C27.7733 17.8902 27.7365 17.9151 27.6958 17.9321C27.6551 17.9491 27.6114 17.9578 27.5673 17.9578H27.5398C27.4684 17.9559 27.3986 17.9362 27.3368 17.9005C27.275 17.8648 27.2231 17.8142 27.1858 17.7533L25.195 15.1764V17.6315C25.195 17.7202 25.1597 17.8054 25.097 17.8681C25.0342 17.9309 24.9491 17.9662 24.8603 17.9662C24.7716 17.9662 24.6864 17.9309 24.6237 17.8681C24.5609 17.8054 24.5256 17.7202 24.5256 17.6315L24.5266 14.3867Z" fill="white"/>
<path d="M28.7238 16.0126V16.0017C28.7179 15.7376 28.7656 15.4749 28.8639 15.2297C28.9622 14.9844 29.1091 14.7616 29.2958 14.5746C29.4824 14.3876 29.705 14.2403 29.95 14.1415C30.1951 14.0428 30.4576 13.9946 30.7218 13.9999C31.2019 13.9838 31.6722 14.1386 32.049 14.4366C32.0905 14.4685 32.1241 14.5096 32.1471 14.5567C32.1701 14.6037 32.182 14.6554 32.1817 14.7078C32.1802 14.77 32.1616 14.8305 32.1281 14.8829C32.0945 14.9353 32.0472 14.9775 31.9913 15.0048C31.9354 15.0322 31.8731 15.0438 31.8112 15.0382C31.7492 15.0326 31.6899 15.0101 31.6399 14.9732C31.3844 14.7492 31.0563 14.6255 30.7165 14.625C30.5422 14.6282 30.3702 14.6664 30.2109 14.7373C30.0516 14.8082 29.9082 14.9104 29.7891 15.0377C29.6699 15.1651 29.5776 15.3151 29.5175 15.4788C29.4574 15.6425 29.4308 15.8166 29.4392 15.9908V16.0017C29.4302 16.1763 29.4564 16.3509 29.5162 16.5152C29.576 16.6795 29.6682 16.8301 29.7874 16.958C29.9065 17.0859 30.0502 17.1886 30.2098 17.2599C30.3694 17.3313 30.5418 17.3698 30.7165 17.3732C31.0748 17.3793 31.4215 17.2464 31.6841 17.0026C31.7406 16.9527 31.8133 16.9251 31.8887 16.925C31.9726 16.9258 32.053 16.959 32.1128 17.0179C32.1726 17.0767 32.2072 17.1565 32.2093 17.2404C32.209 17.2864 32.1991 17.3319 32.1801 17.3738C32.1611 17.4156 32.1334 17.4531 32.099 17.4835C31.717 17.8343 31.2125 18.021 30.6942 18.0035C30.4328 18.0067 30.1735 17.9572 29.9316 17.858C29.6898 17.7588 29.4703 17.612 29.2865 17.4262C29.1026 17.2404 28.958 17.0195 28.8613 16.7766C28.7647 16.5338 28.7179 16.2739 28.7238 16.0126Z" fill="white"/>
<path d="M32.9761 17.5943V14.407C32.9754 14.3618 32.9838 14.3168 33.0008 14.2749C33.0178 14.233 33.043 14.1949 33.075 14.1629C33.107 14.1309 33.1451 14.1057 33.187 14.0887C33.229 14.0717 33.2739 14.0633 33.3191 14.064H35.5697C35.6501 14.0648 35.7269 14.097 35.7838 14.1539C35.8406 14.2107 35.8729 14.2876 35.8737 14.368C35.8738 14.4079 35.8659 14.4475 35.8507 14.4844C35.8354 14.5213 35.813 14.5548 35.7848 14.5831C35.7565 14.6113 35.723 14.6337 35.6861 14.6489C35.6492 14.6642 35.6096 14.672 35.5697 14.672H33.6564V15.6786H35.3214C35.4026 15.6797 35.4802 15.7129 35.5371 15.7709C35.594 15.8289 35.6258 15.907 35.6254 15.9882C35.6245 16.0681 35.592 16.1444 35.535 16.2004C35.4781 16.2564 35.4013 16.2875 35.3214 16.287H33.6564V17.3264H35.5973C35.6777 17.3272 35.7546 17.3594 35.8114 17.4163C35.8683 17.4731 35.9005 17.55 35.9013 17.6304C35.9013 17.6703 35.8935 17.7099 35.8783 17.7468C35.863 17.7837 35.8406 17.8173 35.8124 17.8455C35.7841 17.8737 35.7506 17.8961 35.7137 17.9114C35.6768 17.9266 35.6372 17.9344 35.5973 17.9344H33.3191C33.2741 17.9351 33.2295 17.9268 33.1877 17.91C33.146 17.8932 33.108 17.8682 33.0761 17.8365C33.0441 17.8048 33.0188 17.7671 33.0017 17.7255C32.9845 17.6839 32.9758 17.6392 32.9761 17.5943Z" fill="white"/>
</g>
<defs>
<clipPath id="clip0_42_7343">
<rect width="42.1868" height="19.4808" fill="white" transform="translate(2.95892 14)"/>
</clipPath>
</defs>
</svg>
