<svg width="48" height="48" viewBox="0 0 48 48" fill="none" xmlns="http://www.w3.org/2000/svg">
<path fill-rule="evenodd" clip-rule="evenodd" d="M34.2414 33.6543C36.4204 33.6543 37.7241 32.0951 37.7241 30.1715C37.7241 28.2482 36.4204 26.6893 34.2414 26.6893H27.1768V33.6543H34.2414ZM34.2414 21.515C36.1589 21.515 37.326 20.1343 37.326 18.4306C37.326 16.727 36.1589 15.346 34.2414 15.346H27.1768V21.515H34.2414ZM17.2261 26.689V28.4138H12.8492V19.7905H17.2261V21.5153H21.4059V15.346H10.878V17.5351H6.49976L6.50043 15.346V10.968H34.2414C38.5828 10.968 42.1019 14.4874 42.1019 18.8288C42.1048 20.7348 41.4122 22.5765 40.154 24.0084C41.6056 25.4965 42.4998 27.5308 42.4998 29.7737C42.4998 34.335 38.8025 38.0325 34.2411 38.0325H6.50065L6.49998 33.6545V31.4654H10.878V33.6545H21.4059V26.6895L17.2261 26.689Z" fill="white"/>
</svg>
