<svg width="48" height="48" viewBox="0 0 48 48" fill="none" xmlns="http://www.w3.org/2000/svg">
<g clip-path="url(#clip0_42_7155)">
<path fill-rule="evenodd" clip-rule="evenodd" d="M24.2684 11.8181C13.2298 11.8181 4.25244 17.3483 4.25244 24.18C4.25244 30.9592 13.2298 36.5099 24.2684 36.5099C35.3686 36.5099 44.2524 30.9592 44.2524 24.18C44.2524 17.3482 35.3686 11.8181 24.2684 11.8181ZM24.2684 14.188C34.591 14.188 42.9394 18.6242 42.9394 24.18C42.9394 29.6846 34.591 34.14 24.2684 34.14C14.0151 34.14 5.66158 29.6846 5.66158 24.18C5.66158 18.6242 14.0151 14.188 24.2684 14.188ZM9.95298 19.5683V28.7597H12.3229V24.8846H16.3261V26.5178H12.8353V28.7597H17.3189L18.664 27.8309V24.7565L18.0555 24.18L18.664 23.6356V21.0095L17.447 19.5684L9.95298 19.5683ZM19.6248 19.5683V24.0839L20.6175 25.0447L22.8273 25.0127V22.835L22.411 22.4507V19.5684H19.6248V19.5683ZM26.4142 19.5683V22.4506L25.9979 22.8349H23.3397V28.7597H26.094V25.0127L28.1756 25.0446L29.1683 24.1159V19.5683H26.4142ZM30.1292 19.5683V28.7597H32.6272V21.8742H35.3493L36.0859 22.7069V26.4859H33.1396V28.7597H38.5519V21.2018L37.1748 19.5684L30.1292 19.5683ZM12.3229 21.8101H16.2941V23.4434H12.3229V21.8101Z" fill="white"/>
</g>
<defs>
<clipPath id="clip0_42_7155">
<rect width="40" height="24.752" fill="white" transform="translate(4.25244 11.7878)"/>
</clipPath>
</defs>
</svg>
