<svg width="48" height="48" viewBox="0 0 48 48" fill="none" xmlns="http://www.w3.org/2000/svg">
<path fill-rule="evenodd" clip-rule="evenodd" d="M19.3845 36.7333C11.7534 35.2038 6 30.0812 6 23.9994C6 22.5326 6.32683 21.122 6.92866 19.8026C16.0097 21.3473 19.5984 30.2152 19.3845 36.7333ZM24.0009 37.2001C24.1602 37.2001 24.3194 37.1982 24.4778 37.1963C24.0935 27.2038 25.436 15.256 26.2045 10.8985C24.7379 10.7672 23.263 10.7672 21.7964 10.8985C22.5649 15.256 23.9074 27.2038 23.5232 37.1963C23.6815 37.1982 23.8407 37.2001 24.0009 37.2001ZM25.3407 37.1734C25.6925 37.1563 25.7786 37.1326 26.1249 37.1031C25.7369 24.5621 30.508 16.6315 33.2069 12.6552C32.0529 12.1533 30.8591 11.7538 29.6386 11.4613C27.2535 15.7474 25.436 26.1619 25.3407 37.1734ZM26.948 37.008C27.086 37.0175 27.4452 36.9928 27.7239 36.9168C27.7156 23.4043 35.7707 18.891 39.1631 16.8853C38.3546 15.9688 37.4416 15.1556 36.4438 14.4632C27.6368 22.1344 26.7619 29.5821 26.948 37.008ZM28.6164 36.7333C36.2475 35.2038 42 30.0812 42 23.9994C42 22.5326 41.6741 21.122 41.0713 19.8026C31.9913 21.3473 28.4026 30.2152 28.6164 36.7333ZM22.6603 37.1734C22.3084 37.1563 22.2223 37.1326 21.876 37.1031C22.264 24.5621 17.4929 16.6315 14.794 12.6552C15.9479 12.153 17.1418 11.7536 18.3623 11.4613C20.7465 15.7474 22.5649 26.1619 22.6603 37.1734ZM21.0529 37.008C20.914 37.0175 20.5557 36.9928 20.2761 36.9168C20.2845 23.4043 12.2302 18.891 8.83689 16.8853C9.64557 15.969 10.5585 15.1558 11.5562 14.4632C20.3641 22.1344 21.239 29.5821 21.0529 37.008Z" fill="white"/>
</svg>
