<svg width="48" height="48" viewBox="0 0 48 48" fill="none" xmlns="http://www.w3.org/2000/svg">
<path fill-rule="evenodd" clip-rule="evenodd" d="M17.009 12.5104C18.203 12.4989 19.399 12.4868 20.593 12.5143C24.1924 12.5114 27.7921 12.5188 31.3909 12.5113C31.7039 12.5308 31.9373 12.8903 31.8411 13.1891C31.7977 13.3725 31.6381 13.4911 31.4817 13.5758C29.0099 13.6021 26.5375 13.577 24.0657 13.5885C23.7726 13.624 23.4769 13.6343 23.1877 13.6979C23.095 13.7282 22.9988 13.7434 22.9026 13.7525C22.8047 13.78 22.7062 13.8054 22.6106 13.8375C22.3739 13.8301 22.1445 13.8838 21.9299 13.9811C21.8354 14.0223 21.7398 14.0605 21.6448 14.0982C21.4741 14.1806 21.2438 14.2594 21.0891 14.1021C20.9391 14.0077 20.9508 13.8044 21.0383 13.6705C21.1237 13.5326 21.0828 13.3706 21.0344 13.2281C20.9576 13.1726 20.877 13.0812 20.7717 13.1207C20.3365 13.2324 20.0252 13.5852 19.6633 13.8307C19.5883 13.8467 19.5161 13.8724 19.4592 13.9254C18.9089 14.3409 18.3587 14.7581 17.8049 15.1695C17.69 15.2462 17.5974 15.3512 17.4944 15.441C16.5843 16.1318 15.6662 16.8117 14.7561 17.5025C14.5671 17.633 14.4014 17.8035 14.1829 17.8854C13.9285 18.0576 13.6813 18.2433 13.4651 18.4625C13.1577 18.6519 12.8743 18.9072 12.7502 19.2574C12.7434 19.3724 12.7393 19.4876 12.7444 19.6031C12.3004 20.0255 11.8139 20.4015 11.3625 20.817C10.9717 21.1288 10.6146 21.4825 10.2141 21.7828C9.98032 21.8869 9.83786 22.1119 9.62231 22.2418C9.61378 22.2647 9.59667 22.3107 9.58813 22.3336C9.24443 22.6317 8.89579 22.9246 8.55493 23.2262C8.07864 23.5599 7.69533 24.1263 7.79321 24.734C7.86775 25.0767 7.92812 25.4232 7.97876 25.7711C8.04702 26.0147 8.12591 26.2798 8.34595 26.4303C8.73115 26.2363 9.02807 25.8992 9.43481 25.7486C9.65622 25.5443 9.89597 25.3582 10.1487 25.1939C10.3131 25.0927 10.4759 25.2529 10.592 25.357C10.575 25.4874 10.6326 25.669 10.4954 25.7486C10.1231 25.914 9.79538 26.1666 9.49146 26.4361C9.43462 26.4773 9.41843 26.5476 9.38892 26.607C9.43444 26.7255 9.51756 26.8264 9.63989 26.8687C9.78496 26.8625 9.93078 26.8648 10.0764 26.8717C10.0963 26.8586 10.1365 26.8318 10.1565 26.818C10.4718 26.8088 10.7995 26.8651 11.1057 26.7701C11.3737 26.6705 11.484 26.3889 11.6018 26.152C11.7718 26.0708 11.9388 25.982 12.1184 25.9225C12.329 25.7994 12.5866 25.822 12.8 25.7047C13.3185 25.5215 13.8021 25.2454 14.3411 25.1246C14.7309 25.0594 15.1287 25.1135 15.5208 25.0826C15.8275 25.0157 16.1436 25.0657 16.4543 25.0377C16.4736 25.0263 16.513 25.0029 16.5325 24.9908C16.6264 24.9868 16.7227 24.9784 16.8137 24.9498C17.0344 24.8812 17.2483 24.791 17.4485 24.6744C17.6779 24.477 17.8933 24.252 18.0237 23.9732C18.092 23.8251 18.2268 23.7259 18.3401 23.6148C18.4738 23.6028 18.6092 23.6028 18.7434 23.6148C19.3957 24.1597 19.6255 25.0179 19.9329 25.7779C20.0495 25.9902 20.104 26.2289 20.1848 26.4566C20.4438 27.2213 20.6831 27.9931 20.9563 28.7525C21.0752 29.0753 21.1722 29.4067 21.2991 29.7271C21.4032 29.9057 21.44 30.1127 21.5305 30.2975C21.5555 30.3912 21.5663 30.4889 21.5793 30.5855C21.6213 30.6786 21.6598 30.7739 21.6956 30.8697C21.7348 30.9641 21.773 31.0602 21.8088 31.1568C21.8617 31.2918 21.9254 31.4228 21.9817 31.5572C22.2953 32.2731 22.634 32.9811 23.0471 33.6461C23.3118 33.9563 23.4941 34.3297 23.7708 34.6324C24.0707 35.038 24.4667 35.3569 24.803 35.7311C24.8997 35.8392 24.8761 35.9936 24.8801 36.1275C24.8044 36.2894 24.6586 36.4361 24.468 36.4225C21.8413 36.4167 19.2143 36.435 16.5881 36.4127C16.5694 36.3995 16.5307 36.3735 16.512 36.3609C16.2492 36.3871 15.9975 36.2965 15.7375 36.2965L15.6575 36.2486C15.5717 36.2452 15.4859 36.2399 15.4006 36.233C15.3101 36.1878 15.2071 36.184 15.1086 36.1783C15.0865 36.1663 15.042 36.1415 15.0198 36.1295C14.8348 36.1043 14.6558 36.0512 14.4788 35.9957C13.8259 35.8303 13.2078 35.5532 12.5959 35.2779C12.4174 35.2053 12.2515 35.1066 12.0803 35.0191C11.4303 34.6586 10.8096 34.2442 10.2239 33.7857C9.98495 33.6456 9.74866 33.4851 9.59106 33.2506C9.49601 33.1006 9.31884 33.0351 9.21411 32.8932C9.03829 32.6472 8.80259 32.4541 8.61938 32.2145C8.03508 31.5191 7.52604 30.7624 7.10278 29.9576C7.08349 29.9165 7.06446 29.8755 7.04517 29.8355C6.88712 29.6091 6.79057 29.3497 6.67798 29.0992C6.63985 29.0036 6.60283 28.9077 6.5647 28.8121C6.14407 27.7218 5.88598 26.5704 5.77954 25.4068C5.77612 25.079 5.76226 24.7511 5.7395 24.4244C5.77932 24.0886 5.76574 23.7493 5.78735 23.4117C5.85281 22.8617 5.9167 22.3077 6.05103 21.7691C6.2394 21.0704 6.43454 20.3694 6.7356 19.7096C6.9496 19.194 7.2134 18.6997 7.50024 18.2213C7.65736 17.9084 7.92357 17.6728 8.10278 17.3736C8.51535 16.8038 8.98698 16.2801 9.49341 15.7926C9.59415 15.7004 9.65292 15.5699 9.75708 15.4801C10.2283 15.0933 10.7025 14.7044 11.218 14.3766C11.5754 14.178 11.8978 13.8924 12.3069 13.8082C12.5009 13.7258 12.6796 13.608 12.8782 13.5348C13.0073 13.4707 13.1397 13.4127 13.2756 13.3629C13.3705 13.3223 13.4681 13.285 13.5647 13.2467C13.7929 13.1173 14.0533 13.0625 14.302 12.9869C15.1812 12.7163 16.0945 12.5825 17.009 12.5104ZM38.8645 27.5074C39.4967 27.5131 40.1297 27.5022 40.762 27.5143C40.8159 27.5325 40.8721 27.5486 40.929 27.5641C41.0319 27.6419 41.1223 27.7356 41.2053 27.8346C41.2576 27.9919 41.2558 28.1565 41.1995 28.3121C41.0919 28.4968 40.9013 28.6303 40.6829 28.6246H38.5793C38.4843 28.628 38.3979 28.5876 38.3108 28.5602C38.0888 28.397 37.9653 28.0903 38.0979 27.8316C38.1663 27.6681 38.3278 27.5774 38.4905 27.5328C38.6122 27.4997 38.7394 27.5069 38.8645 27.5074ZM41.2737 25.3873C41.453 25.4915 41.6539 25.641 41.6653 25.8687C41.7048 26.1856 41.3947 26.4895 41.0813 26.4508C39.6784 26.4462 38.2748 26.4537 36.8713 26.4469C36.5345 26.432 36.2414 26.0539 36.3987 25.7301C36.48 25.4892 36.7477 25.397 36.9788 25.3912C38.4101 25.3889 39.8423 25.397 41.2737 25.3873ZM41.387 23.2174C41.4529 23.2711 41.5218 23.3219 41.594 23.3687C41.7401 23.549 41.7765 23.7912 41.7014 24.0104C41.5916 24.1819 41.4124 24.3444 41.1975 24.3326C39.1297 24.3303 37.0607 24.336 34.9934 24.3297C34.6304 24.3157 34.3478 23.8871 34.5208 23.5553C34.5994 23.3454 34.8269 23.2138 35.0442 23.2154C37.1581 23.2171 39.2725 23.2151 41.387 23.2174ZM40.9124 21.0982C41.0851 21.0909 41.2517 21.1831 41.3694 21.3053C41.4627 21.4631 41.4116 21.6591 41.4211 21.8336C41.3853 21.8816 41.3512 21.9309 41.3176 21.9801C41.1743 22.1082 40.984 22.1595 40.7952 22.1441C38.2351 22.131 35.6746 22.1601 33.1145 22.1578C32.8493 22.1738 32.6115 22.0056 32.4885 21.7779C32.4077 21.4357 32.7093 21.0811 33.0559 21.0982C35.6746 21.0994 38.2936 21.0994 40.9124 21.0982ZM39.8303 18.9234C40.0574 18.9315 40.3289 18.8731 40.5071 19.0563C40.7409 19.2616 40.7453 19.6479 40.5237 19.8648C40.4042 19.9507 40.2712 20.0286 40.1204 20.024C36.987 20.0275 33.8533 20.0235 30.72 20.027C30.6519 20.0258 30.585 20.0169 30.5198 20.0016C30.2693 19.922 30.0898 19.6638 30.1399 19.3971C30.1467 19.1658 30.3459 19.0184 30.5315 18.9205C33.6311 18.9285 36.7307 18.9217 39.8303 18.9234ZM38.7991 16.7975C39.1417 16.7998 39.3932 17.1838 39.2805 17.5025C39.2564 17.6567 39.1141 17.744 39.0168 17.8502H27.8752C27.523 17.8559 27.3891 17.4135 27.4846 17.1285C27.5699 16.9821 27.705 16.8754 27.8557 16.8033C30.5178 16.8045 33.181 16.8179 35.843 16.7916C36.8282 16.7956 37.8139 16.7837 38.7991 16.7975ZM27.7629 14.6168C30.6851 14.6185 33.6078 14.6136 36.5305 14.6188C36.7627 14.609 36.9644 14.7627 37.0588 14.9693C37.0634 15.1014 37.0647 15.2328 37.0579 15.3648C36.96 15.5394 36.8034 15.7103 36.5872 15.7018C32.5079 15.7069 28.4281 15.703 24.3489 15.7047C24.1804 15.7213 24.0321 15.6404 23.8938 15.5563C23.8284 15.4151 23.7379 15.2704 23.7639 15.107C23.7776 14.8867 23.96 14.7255 24.1438 14.6305C25.3492 14.6002 26.5564 14.6254 27.7629 14.6168Z" fill="white"/>
</svg>
