<svg width="48" height="48" viewBox="0 0 48 48" fill="none" xmlns="http://www.w3.org/2000/svg">
<path d="M10 45.9123V45.3184H10.3291C10.4946 45.3184 10.8236 45.2834 10.8236 44.8881V41.3269C10.8236 41.1128 10.808 40.6007 10.3953 40.6007H10.0156L10.4459 39.8433H35.8123V40.6007H12.4747C12.2605 40.6007 11.9802 40.6493 11.9802 41.0797V42.2012C12.0288 42.3316 12.2274 42.3822 12.3267 42.3822C12.426 42.3822 12.7726 42.3647 12.7726 41.8215H13.2652V43.6517H12.7707C12.7707 43.4862 12.5877 43.2097 12.3423 43.1903C12.1437 43.1747 11.9802 43.2409 11.9802 43.5057V44.8901C11.9802 45.0381 12.1612 45.3204 12.5896 45.3204H12.8856V45.9142H10V45.9123Z" fill="white"/>
<path d="M24.6401 41.4592C24.6401 41.5916 24.8036 41.724 24.9029 41.7552C25.0197 41.6734 25.6292 41.3268 26.1062 41.3268C26.5832 41.3268 26.8325 41.5741 26.8325 41.9538V43.7685H25.6778V42.3646C25.6778 42.1835 25.6292 42.0531 25.4637 42.0356C25.2982 42.018 24.8698 42.3666 24.7549 42.5321V45.0379C24.7549 45.2696 24.9866 45.4332 25.1833 45.4332V45.9122H23.172V45.4176C23.3706 45.4176 23.5847 45.3514 23.6003 45.0535V42.2653C23.6003 42.1836 23.4679 41.9538 23.172 41.9538V41.4573H24.6401V41.4592ZM38.4448 41.4592H36.4335V41.9557C36.7294 41.9557 36.8618 42.1855 36.8618 42.2673V45.0555C36.8462 45.3514 36.6301 45.4196 36.4335 45.4196V45.9141H38.4448V45.4332C38.2462 45.4332 38.0164 45.2696 38.0164 45.0379V42.3023C38.0164 42.1037 38.2306 41.9557 38.4448 41.9557V41.4592ZM20.1891 41.4592C20.1891 41.5916 20.3526 41.724 20.4519 41.7552C20.5687 41.6734 21.1782 41.3268 21.6552 41.3268C22.1342 41.3268 22.3815 41.5741 22.3815 41.9538V43.7685H21.2269V42.3646C21.2269 42.1835 21.1782 42.0531 21.0127 42.0356C20.8472 42.018 20.4188 42.3646 20.3039 42.5301V45.036C20.3039 45.2677 20.5356 45.4313 20.7323 45.4313V45.9102H18.721V45.4157C18.9196 45.4157 19.1338 45.3495 19.1493 45.0516V42.2634C19.1493 42.1816 19.0169 41.9518 18.721 41.9518V41.4553H20.1891L20.1891 41.4592ZM33.5635 41.4592C33.5635 41.5916 33.729 41.724 33.8283 41.7552C33.9451 41.6734 34.5545 41.3268 35.0316 41.3268C35.5086 41.3268 35.7578 41.5741 35.7578 41.9538V43.7685H34.6032V42.3646C34.6032 42.1835 34.5545 42.0531 34.389 42.0356C34.2235 42.018 33.7952 42.3646 33.6803 42.5301V45.036C33.6803 45.2677 33.9101 45.4313 34.1087 45.4313V45.9102H32.0973V45.4157C32.2959 45.4157 32.5082 45.3495 32.5257 45.0516V42.2634C32.5257 42.1816 32.3933 41.9518 32.0973 41.9518V41.4553H33.5635V41.4592ZM17.8487 44.5298H16.696V44.9756C16.696 45.1567 16.6629 45.5364 16.1197 45.5364C15.5765 45.5364 15.411 45.1723 15.411 44.9094V43.971C15.411 43.8872 15.4772 43.7724 15.592 43.7724H17.8506V42.5691C17.8506 42.0239 17.7358 41.8584 17.5041 41.6286C17.2724 41.3989 16.4643 41.3327 16.1022 41.3327C15.1793 41.3327 14.8813 41.4631 14.6185 41.6793C14.3537 41.8934 14.2544 42.3393 14.2544 42.6684V44.5337C14.2544 45.0282 14.3537 45.3748 14.6672 45.6883C14.9807 45.9998 15.9367 45.9998 16.1353 45.9998C16.3339 45.9998 16.992 46.0173 17.471 45.6707C17.9499 45.3203 17.8487 44.5298 17.8487 44.5298ZM15.409 42.4834C15.409 42.2186 15.4908 41.8233 16.0691 41.8233C16.6473 41.8233 16.696 42.2536 16.696 42.4834V43.0772C16.695 43.1865 16.6067 43.2748 16.4974 43.2758H15.6076C15.5103 43.2758 15.409 43.1941 15.409 43.0948V42.4834ZM31.0751 45.0379V42.5652C31.0751 42.1855 31.0576 41.7902 30.6623 41.5079C30.2671 41.2275 29.6226 41.2451 29.3753 41.2451C29.1281 41.2451 28.3044 41.2451 27.9228 41.6734C27.5451 42.1037 27.6093 42.5145 27.6093 42.68H28.69C28.69 42.68 28.764 42.1193 28.9139 41.9713C29.0619 41.8233 29.4571 41.6578 29.7628 41.9226C29.8757 42.02 29.9205 42.1446 29.9205 42.2867V42.9955C29.9205 43.0617 29.8543 43.161 29.7706 43.161C29.7706 43.161 28.2694 43.1941 28.0065 43.3907C27.7437 43.5893 27.512 43.7198 27.512 44.446C27.512 45.1723 27.6931 45.4527 27.9072 45.6007C28.1214 45.7486 28.2207 45.9141 29.1943 45.9141H31.5035V45.4332C31.3049 45.4332 31.0751 45.2696 31.0751 45.0379ZM29.9205 45.3203C29.9205 45.3612 29.8543 45.4196 29.8037 45.4196H29.2351C28.8301 45.4196 28.7153 45.073 28.7153 44.8588V44.2241C28.7153 43.6069 29.3578 43.6205 29.6129 43.6205C29.8699 43.6205 29.9186 43.8347 29.9186 43.9768V45.3203L29.9205 45.3203ZM37.3622 40.5947C37.9405 40.5947 38.4078 40.4195 38.4078 40.2034C38.4078 39.9872 37.9405 39.812 37.3622 39.812C36.7859 39.812 36.3186 39.9872 36.3186 40.2034C36.3186 40.4195 36.7859 40.5947 37.3622 40.5947Z" fill="white"/>
<path d="M36.5756 15.2965L36.4354 15.2323V15.4445L36.3244 15.5691L36.1239 15.869L36.0109 15.943L35.5728 16.5212L35.4229 16.8581L35.2594 16.8853L35.1094 16.7958L35.0218 16.3966L35.0452 15.9332L35.1464 15.5049L35.898 14.3541L36.1959 13.7428L36.2348 13.3144L36.1881 13.1801L36.0985 13.2677L35.9486 13.6415L35.7208 14.0173L34.9965 14.6657L34.4202 15.3433L34.3072 15.3316L34.2683 15.2167L34.2936 14.4281L34.4689 13.8538L34.7823 13.2151L35.1971 12.7011L35.7111 12.263L35.7578 12.1598L35.6955 12.1131L35.2204 12.3896L34.4065 13.1022L34.0833 13.5422L33.7679 14.1166L33.5946 14.58L33.5187 15.6684L33.8185 16.8853L34.1067 17.7713L34.4065 19.6463L34.3579 20.5478L34.1437 21.348L33.616 22.012L33.0806 22.5007L32.3913 22.8882L31.7293 22.9271L31.6398 22.6039L31.4022 22.1385L30.5767 21.0384L29.9614 20.4504L29.0618 19.7242L28.1993 19.1381L26.959 18.1003L26.2853 17.2592L25.5435 16.0462L25.3429 15.3199L25.3936 14.8682L25.4948 14.7806L26.1724 15.1563L26.5073 15.1427L27.3095 15.5711L27.8001 15.9352L28.0844 15.9741L28.1506 15.8495L28.0747 15.8359L27.9871 15.8748L27.8469 15.7852L27.547 15.3102L27.2082 14.9986L26.6845 14.8351L26.7215 14.7358H26.9843L27.2861 14.8351L27.9248 15.2109L28.0007 15.1096L27.8761 14.9344L27.5373 14.6326L27.0096 14.358L26.3729 14.1088L26.2483 14.0076L26.3729 13.918L26.6572 14.0582L27.1849 14.1458L28.0474 14.5196L28.5751 14.5936L28.9509 14.543L29.4513 14.2665L29.5759 14.1458L29.5895 14.0582L29.4746 14.066L29.3617 14.1828L28.6627 14.3561L28.3862 14.3172L28.1214 14.1069L27.8819 13.8284L27.5996 13.6182L26.7604 13.3903L26.5832 13.2774L26.5969 13.1801L26.7604 13.2034L28.0611 13.1431L28.2246 13.2774L28.6997 13.3417L28.799 13.2677L28.6257 13.2171L28.1857 12.8666L27.8216 12.6758L27.2472 12.6018L27.1479 12.5414L27.3484 12.4285H27.6736L28.5751 12.8004L28.9762 12.814L29.1884 12.7128L29.2507 12.5765L29.0891 12.5025L28.7523 12.4889L28.4641 12.3896L28.2129 12.1754L27.9364 12.0371L27.5723 11.9768L27.2589 11.8639L27.1226 11.6867L27.1459 11.5991L27.5976 11.7159L27.7476 11.8269L27.9617 11.8522L27.9851 11.7392L27.7612 11.5621L27.6969 11.4024L27.9987 11.4491L28.283 11.5991L28.6471 11.6399L28.7873 11.9028L29.1611 12.1267L29.1826 12.1228L29.2643 12.0878L29.3617 12.0274L29.315 11.9534L29.1748 11.9632L28.799 11.4024L28.3609 11.013L27.9111 10.8105L27.512 10.3354L27.2608 10.2011L27.2219 10.0745L27.3348 9.99857L28.3745 10.2965L28.5361 10.5243L28.799 10.6606H28.9995L29.2663 10.7346L29.5544 10.6839L29.6654 10.5846L29.5038 10.4464L28.9898 10.3471L28.8262 10.2088L28.6121 9.89732L28.5614 9.69482L27.6463 9.04645L27.2744 8.69598L27.2491 8.59473H27.3348L27.8235 8.98414L28.5887 9.47286L28.9255 9.78633L29.4006 9.99857L29.4882 9.86032L29.3636 9.81359L29.1027 9.57605L29.0268 9.31125L28.5244 8.82059L28.4115 8.53632L28.0241 7.95609L27.4964 7.49464L27.473 7.34666L27.6599 7.37002L28.3492 7.6835L28.7873 7.70687L29.1125 7.86069L29.4629 7.92105L29.7608 7.83148L29.7375 7.70687L29.3967 7.63288L28.1701 7.03124L28.0007 6.81901L28.061 6.74502L28.1506 6.80538L28.285 6.85405L28.4621 6.86963L29.3753 6.81901L29.6635 6.93193L29.9633 7.14417L30.0899 7.18311L30.1035 7.07018L30.0023 6.96893L29.7024 6.69244L29.2371 6.4549L28.2616 6.37897L27.7865 5.87857L27.2881 5.50473L27.401 5.41711L28.2402 5.78122L28.7153 5.89415H29.1261L29.4649 6.27188L29.7414 6.43348L29.8407 6.33223L29.4649 5.77927L28.8769 5.35481L28.3881 5.23798L27.9734 4.80379L27.6093 4.59156L27.1109 4.465L27.3874 4.22745L28.2402 3.95097L28.3258 3.83804L28.2791 3.75042L27.8839 3.6628L26.4722 3.69006L26.2211 3.41163L25.5707 3.0631L25.0957 2.98717H24.6848L24.1864 2.42251L23.721 2L23.4348 2.47509L23.4212 2.62306L23.5555 2.80025L23.5692 2.95017L23.4718 3.03779L23.1544 3.0631L22.0173 2.77688L21.3281 2.87618L21.3787 3.02416L21.6182 3.01443L21.7155 3.03195L21.7117 3.16435L21.5734 3.1955L21.3923 3.17019L20.9173 3.29286L20.7537 3.30454L20.7031 3.37463L20.7615 3.47393L20.8842 3.50119L20.999 3.46809L21.1314 3.40968L21.2677 3.40384L21.5559 3.41552L22.0368 3.54597L22.4204 3.71926L22.4554 3.80299L22.4165 3.86724L22.2354 3.9315L22.1264 3.98212L21.2775 4.5234L20.2436 5.053L19.3849 5.13478L19.2564 5.16983L19.1824 5.3256L19.124 5.49499L19.0598 5.61181L18.7385 6.12584L18.6333 6.25824L18.6236 6.41206L18.6333 6.85404L18.7735 6.97866L18.8962 7.04291L19.0422 7.03123L19.9126 6.74112L20.0586 6.74696L20.0917 6.84042L20.0586 6.92804L19.9359 6.99229L19.2856 7.21231L19.2311 7.30382L19.2214 7.40312L19.3129 7.4849L19.5076 7.51021H19.6633L20.0742 7.4518L20.3818 7.28825L20.5863 7.24736L20.7615 7.21231L20.8939 7.25515L21.2794 7.27072L21.4352 7.36224L21.9998 7.48295L22.1731 7.50827L22.4418 7.46154L22.7825 7.4849L22.9325 7.54331L23.0142 7.68155L22.8741 8.33966L22.4379 9.54879L21.5208 10.8241L20.559 11.747L20.4402 12.1364L20.2747 12.3331L19.42 12.9308L19.0909 13.0983L18.7307 13.5325L18.5808 13.6259L18.3705 13.7311L18.2342 13.6999L16.7369 12.9308L15.8179 12.1968L15.444 12.0624L15.115 12.0021L14.6944 12.0916L14.1376 12.4382L13.569 14.0154L13.5515 14.4515L13.2224 15.5146L13.0277 15.8904L12.9226 16.2642L12.8603 16.7296L12.5877 17.3429L12.5604 18.6026L12.4865 18.8752L12.5293 19.1128L12.5118 19.5022L12.6481 19.8157L12.7532 19.8897L12.9479 19.8293L13.386 19.3542L13.6099 18.9921L13.6995 18.6942L13.3393 17.1307L13.3996 16.5602L13.5495 16.0987L13.9409 15.5711L14.1337 15.5535L14.2252 15.4971L14.6457 15.0609L14.7528 14.6715L14.8093 14.2198L14.9144 14.0874L15.0196 14.0562L15.1539 14.101L15.3486 14.2062L16.0379 15.0746L16.55 15.5107L16.7895 15.6158L16.8635 15.7658L16.7895 15.8398L15.261 15.5711H14.4043L13.9078 15.9449L13.6975 16.3051L13.5379 16.714L13.5203 17.0138L13.6118 17.5532L13.8221 18.2424L14.3147 20.4173L14.4063 21.0151L14.4939 21.2254L14.932 21.6167L15.1695 21.9769L15.335 22.3994L15.5901 22.7713L15.9639 23.1335L16.2365 23.299L16.4156 23.3126L16.5656 23.2698L16.7583 22.8784L16.8206 22.6253V22.0392L16.7486 21.8737C16.7349 21.8737 16.7349 21.7666 16.7349 21.753L16.7038 21.6479L16.3572 21.2429L15.9386 21.0618L15.7867 21.0151L15.7595 20.76L15.7731 20.5984L15.4888 20.2674L15.3077 19.8488L15.0352 18.6961L14.8288 18.26L14.7548 17.7343L14.8736 17.4169L15.0838 17.2981H15.2474L15.4888 17.5084L15.8354 17.7167L17.064 18.2716L17.4846 18.5131V18.7389L17.872 18.9629L18.3685 19.1303H19.4044L19.3304 19.325L19.2856 19.4302L19.6731 20.0591L20.5726 21.0014L21.7818 21.9808L22.8994 22.5786L24.0812 23.4022L24.57 23.8169L25.0801 24.5062L25.1035 24.7943L25.2183 25.0922L25.5318 25.3161L25.8161 25.4291L25.9913 25.4057L26.3321 25.0552L26.3788 24.7671L26.6163 24.3562L26.7293 23.4158L26.8091 23.2425L26.9687 23.1646H27.1206L27.1304 23.2795L27.0174 23.4022L26.8441 23.8305L26.8169 24.4536L26.7565 24.6678L26.0673 25.8555L25.9212 26.4435L25.8472 27.0588L25.9212 27.7461L26.0186 28.1472L26.7974 29.7886L27.1226 30.3006L27.51 30.7777L27.584 30.9393V31.0522L27.5334 31.1924L26.7448 32.2789L25.9056 33.194L25.378 33.4315L25.1677 33.634L25.0548 33.8599L24.1689 34.849L23.9547 35.2209L23.7541 35.9101L23.7678 36.1613L23.9177 36.321L24.7063 36.2976L25.2806 35.9997L25.3332 35.8731H25.4461L25.6194 35.7972L25.783 35.6453L25.8706 35.0456L25.82 34.921L25.7966 34.7964L25.8842 34.8217L25.9816 34.849L26.0848 34.775L26.2464 34.6718L26.6339 34.1442L26.7448 33.8696L26.7702 33.6457L26.9084 33.5425L27.2725 33.3322L27.4068 33.0557L28.2363 32.2555L29.0618 31.7512L29.1611 31.6539L29.2001 31.5507L29.2877 31.4377L29.2274 31.2878L29.1592 30.7563L29.0949 30.6063L28.6121 29.8625L28.5887 29.3349L28.7756 28.6963L28.9158 28.4723L29.0638 28.3847L30.1035 27.5592L31.0187 26.5428L31.6047 25.4193L31.7313 24.991L31.7916 24.292L31.8929 24.1927L32.0058 24.1654L32.1051 24.2297L32.1927 24.438L32.257 25.0027L32.2064 26.093L32.2803 26.5798L32.3699 26.7044L32.4439 26.6947L32.4809 26.6051L32.4303 26.4046V26.0638L32.5335 25.7796L32.6308 25.0767L32.6951 24.9423H32.771L32.8314 25.0027L32.9443 25.468L32.8469 26.3169L32.405 27.2476L32.2803 27.6351V28.1491L32.3699 28.4139H32.5335L32.6172 28.2971L32.5705 28.1725L32.5335 27.9486L33.47 26.4474L33.6569 25.433V24.8586L33.544 24.4575L33.3201 24.146L33.2928 23.996L33.3941 23.9474L33.5187 24.0077L33.8847 24.5724L34.021 25.5537L34.1456 25.9451L34.1593 25.9548L34.3326 26.3423L34.4455 26.3832L34.4961 26.2819L34.4825 26.2196L34.3968 25.9334V25.2188L34.4727 24.5062L34.4455 24.3056L34.0716 23.6164L34.132 23.5034L34.3695 23.4548L35.0452 23.1179L35.3587 22.8414L35.7598 22.3021L36.1745 21.4259L36.2485 20.1253L35.8746 17.6603L36.0246 16.8211L36.2348 16.3596L36.5366 15.8846L36.6496 15.5828L36.6729 15.4328L36.5756 15.2965ZM19.5504 6.23682L19.4531 6.33417L19.3129 6.41205L19.1259 6.45294L19.0617 6.41205L19.0383 6.27965L19.0928 6.09273L19.2252 5.90776L19.3343 5.85324L19.4336 5.86298L19.5524 5.96228L19.6069 6.0499L19.5504 6.23682ZM20.0411 6.1122L20.006 6.12973L19.9398 6.13362L19.8834 6.10636L19.8405 6.05574L19.8464 5.99343L19.897 5.91166L19.9379 5.8844H19.9924L20.0411 5.89608L20.0586 5.9467L20.0644 6.03432L20.0411 6.1122ZM20.6447 6.66906L20.594 6.69438H20.5298L20.4928 6.67296L20.4733 6.61844L20.4792 6.55224L20.5181 6.51135L20.5648 6.5094L20.6155 6.52303L20.6388 6.56003L20.6544 6.62039L20.6447 6.66906ZM21.8032 4.9167L21.7253 4.93812L21.6299 4.96149L21.5247 5.04911L21.2891 5.19124L20.5726 5.34506L20.4753 5.33338L20.631 5.20098L21.4838 4.80183L21.6085 4.74147L21.7039 4.72784L21.7817 4.74537L21.8441 4.84467L21.8032 4.9167ZM13.055 18.9979L12.9537 18.9745L12.9031 18.8752L13.0044 18.8246L13.092 18.8343L13.1153 18.9239L13.055 18.9979ZM14.3712 13.7467L14.2077 14.3113L14.0441 14.5625L13.9565 14.5858L13.9253 14.5196V14.3872L14.0071 13.8654L14.1512 13.6182L14.2252 13.5305L14.3342 13.4974L14.3751 13.5597L14.3712 13.7467ZM15.0936 12.7498L14.93 12.8121L14.7742 12.8276L14.6788 12.7906L14.6555 12.7225L14.6827 12.631L14.7645 12.5745L14.9339 12.5531L15.0215 12.5453L15.0819 12.5628L15.1364 12.6135L15.1403 12.6699L15.0936 12.7498ZM16.4215 14.5411L16.3864 14.545L16.3066 14.4943L16.1898 14.4301L16.0905 14.3483L15.999 14.2568L15.9581 14.2062L15.9483 14.1322L15.9678 14.0932L16.0029 14.0971L16.0613 14.1069L16.1255 14.1653L16.2015 14.2315L16.3202 14.3035L16.3923 14.3892L16.4351 14.4534L16.439 14.5099L16.4215 14.5411ZM14.1901 16.3246L14.1298 16.4103L14.0694 16.4336L14.0285 16.3986L14.0305 16.2779L14.1337 16.1007L14.1648 16.05L14.2154 16.0267L14.2641 16.0578V16.1591L14.233 16.2311L14.1901 16.3246ZM14.6146 19.4808L14.5932 19.5119H14.5698L14.527 19.473L14.4919 19.4087L14.4374 19.29L14.3595 19.1323L14.2407 18.6572L14.2719 18.1256L14.2933 18.0945H14.3303L14.3693 18.1295L14.4063 18.2892L14.4101 18.4527L14.6341 19.3893L14.6146 19.4808ZM16.1314 22.3722L16.1722 22.3624L16.2696 22.3839L16.3144 22.4306L16.3241 22.4871L16.3144 22.5552L16.256 22.598L16.1839 22.5844L16.1333 22.5377L16.1138 22.4306L16.1314 22.3722ZM17.1107 17.7966L17.0095 17.8024L16.8771 17.781L16.7856 17.7401L16.1236 17.3079L16.0418 17.2475L16.1508 17.2436L16.2696 17.2864L16.8771 17.524L17.0328 17.596L17.1146 17.67L17.1283 17.7382L17.1107 17.7966ZM18.2439 14.8662L17.9752 15.6509L17.7533 15.9274L17.6423 16.0131L17.5235 16.0559L17.4554 16.0092L17.4495 15.9196L17.543 15.8183L17.7669 15.3783L17.909 14.8584L18.0414 14.6112L18.131 14.4846L18.205 14.4651L18.2731 14.4924L18.2926 14.5742L18.2439 14.8662ZM23.6918 6.92024L23.8048 6.7781L23.9333 6.65738L24.0481 6.5795L24.1338 6.56977L24.1922 6.60871V6.71385L24.1611 6.83067L23.8787 7.04875L23.723 7.08963L23.647 7.06432L23.6393 7.00202L23.6918 6.92024ZM23.2362 4.28585L23.3452 4.24886L23.4212 4.21381L23.5146 4.24691L23.5458 4.31506L23.4757 4.39684L23.3783 4.43578L23.2576 4.44162L23.2128 4.35984L23.2362 4.28585ZM22.2919 5.16593L22.249 5.04521L22.3133 4.91476L22.4554 4.79404L22.6832 4.78431L22.8487 4.81546L22.9792 4.90308L23.0434 5.0569L23.098 5.22045L23.0882 5.36064L22.9461 5.4171H22.7923L22.4457 5.25355L22.2919 5.16593ZM22.656 6.95334H22.4827L22.4515 6.89493L22.4944 6.83457L22.5469 6.80342L23.0941 6.43347L23.2187 6.35559H23.2635L23.2693 6.4471L23.1856 6.5133L23.1466 6.65155L23.0396 6.8151L22.656 6.95334ZM20.5882 13.1178L20.5648 13.0808L20.5707 12.9893L20.631 12.9211L21.2891 12.6933L22.0057 12.6388L22.2296 12.6855L22.4399 12.7926L22.6054 12.9562L22.6151 13.0477L22.5976 13.1119L22.5255 13.1255L22.4184 13.1119L22.2529 13.0652L22.0972 13.0185L21.0789 13.0457L20.9172 13.0866L20.7615 13.1216L20.6602 13.1294L20.5882 13.1178ZM23.4056 22.3391L21.7039 21.1747L20.816 20.357L20.7167 20.2031L20.6797 20.0201L20.6855 19.8507L20.7498 19.7865L20.8627 19.7923L21.2288 20.0805L22.0193 20.9742L23.4173 22.2223L23.4601 22.2923L23.4913 22.343L23.4056 22.3391ZM23.5614 14.5722L23.4893 14.6131L23.316 14.6151L23.2012 14.5878L23.1369 14.5021L23.0804 14.4359V14.3249L23.1642 14.2159L23.2927 14.1147L23.4153 14.0971L23.5283 14.1283L23.5614 14.1886L23.575 14.323L23.5925 14.4651L23.5614 14.5722ZM23.9041 8.9744L23.6724 9.65392L23.2206 10.4483L22.841 10.9818L22.5528 11.2836L22.3522 11.3615L22.288 11.3576L22.2763 11.307L22.3386 11.1648L23.2829 9.39886L23.5847 8.91404L23.7405 8.76606L23.8593 8.74464L23.9099 8.82837L23.9041 8.9744ZM24.5992 7.15973L24.5622 7.25124L24.4298 7.407L24.0618 7.57056L23.8729 7.57445H23.7541L23.7132 7.51993L23.758 7.44205L23.8632 7.39532L24.2565 7.17725L24.3558 7.10715L24.5057 7.03511L24.5992 7.05653L24.5992 7.15973ZM25.5941 12.8899L25.526 12.9094L25.4383 12.9036L25.3799 12.8452L25.3936 12.7965L25.452 12.7556L25.5396 12.7498L25.6155 12.8101L25.6175 12.8607L25.5941 12.8899ZM25.6973 12.5589H25.5941L25.5415 12.5278V12.4519L25.5649 12.4012L25.6194 12.3837H25.6915L25.7596 12.4285L25.7655 12.4811L25.6973 12.5589ZM25.8842 12.0449L25.8161 12.08L25.744 12.0897L25.67 12.0722L25.6467 12.0216V11.9612L25.707 11.9184L25.783 11.9047H25.855L25.8979 11.9417L25.9076 12.0001L25.8842 12.0449ZM25.9796 11.6127L25.8881 11.6399L25.7849 11.636L25.7304 11.599L25.7265 11.5582L25.744 11.4978L25.8258 11.4608L25.9134 11.4452L25.9894 11.4842L26.0166 11.5543L25.9796 11.6127ZM26.1996 11.0091L26.149 11.0772L26.1023 11.1376L26.0069 11.1571H25.9115L25.8297 11.1162L25.8219 11.0519L25.8803 10.9916L25.9251 10.9409L25.9894 10.9176L26.0945 10.8864H26.1763L26.2133 10.9312L26.1996 11.0091ZM26.3359 10.5028L26.2912 10.5729L26.2133 10.5866L26.1315 10.608L26.0303 10.6041L25.9855 10.5535L25.9913 10.4795L26.0264 10.4289L26.0945 10.3821L26.1996 10.3665L26.2951 10.388L26.3359 10.4444V10.5028ZM26.48 10.129L26.3729 10.1718L26.2912 10.201H26.1899L26.149 10.1933L26.0984 10.1757L26.0711 10.1251L26.0848 10.0609L26.1529 10.0005L26.2113 9.96935L26.2756 9.94209L26.3671 9.93819L26.4547 9.96935L26.4917 10.0414L26.48 10.129ZM26.4917 9.54878L26.4547 9.60914L26.3905 9.66171L26.2951 9.69675L26.1821 9.70844L26.0906 9.69286L26.0672 9.64029L26.0809 9.59745L26.1179 9.56824L26.2814 9.48452L26.3593 9.467L26.4547 9.47673L26.4917 9.51178V9.54878ZM26.2347 8.1722L26.2658 8.15078L26.2795 8.09042L26.2912 8.04175L26.3184 8.0067L26.369 8.00475L26.4294 8.02228L26.4839 8.05343L26.4898 8.11768L26.4839 8.22282L26.4021 8.29292L26.2989 8.34549L26.2542 8.33965L26.2094 8.32212L26.1646 8.26566L26.1588 8.2053L26.1763 8.17025H26.2347L26.2347 8.1722ZM26.1763 7.73606V7.68738L26.2211 7.64065L26.2912 7.61534L26.3768 7.61144L26.4275 7.62702L26.4411 7.66986L26.4138 7.71659L26.369 7.76526L26.2989 7.78084H26.223L26.1763 7.73606ZM26.1802 9.11263L26.2405 9.07369L26.3126 9.05617L26.3846 9.05033L26.4352 9.05422L26.4547 9.08537V9.13405L26.4314 9.19051L26.3846 9.24503L26.2639 9.29566L26.2055 9.28981L26.151 9.27229L26.1373 9.21583L26.1471 9.15157L26.1802 9.11263ZM26.4839 8.69401L26.4683 8.73879L26.3944 8.78942L26.2912 8.82836L26.2347 8.81473L26.1802 8.78163L26.1685 8.72906L26.1743 8.66091L26.2152 8.62002L26.2736 8.57914L26.3574 8.56161L26.4294 8.55966L26.4781 8.57329L26.4937 8.62002L26.4839 8.69401ZM26.5131 7.25708L26.5034 7.31549L26.4645 7.36806L26.4021 7.38948L26.3457 7.40311L26.2951 7.4109L26.2269 7.40311L26.2094 7.36417L26.2269 7.30965L26.2678 7.27265L26.3106 7.24734L26.3846 7.19672L26.4645 7.20061L26.5131 7.25708ZM26.406 6.75863L26.4469 6.78199L26.4528 6.8404L26.4508 6.89298L26.3846 6.95139L26.3243 6.97475L26.2853 6.96891L26.2542 6.95333V6.89687L26.2581 6.8404L26.3028 6.79367L26.3437 6.76836L26.406 6.75863ZM26.3282 6.4763L26.3126 6.53861L26.2678 6.56976L26.2269 6.59507L26.1724 6.60286L26.1276 6.57365L26.1179 6.52692L26.1393 6.48604L26.1802 6.43152L26.2211 6.41205L26.2756 6.40815L26.3184 6.43541L26.3282 6.4763ZM25.7713 5.3801L25.8706 5.37426L26.0088 5.31974L26.1354 5.29053L26.2405 5.28275L26.2951 5.33337L26.2211 5.4463L26.1451 5.46772L26.0186 5.51055L25.857 5.60206L25.7012 5.68384L25.5201 5.75977L25.4598 5.76562L25.4091 5.75004L25.415 5.67411L25.3877 5.60206V5.47356L25.4461 5.32753L25.5279 5.23991L25.5785 5.17176L25.6331 5.10556H25.7148L25.7732 5.16203L25.7577 5.30417L25.7713 5.3801ZM25.7129 4.02689L25.7499 4.0522L25.7382 4.08725L25.6837 4.1515L25.6077 4.15929L25.5201 4.14566L25.4695 4.12229L25.4306 4.07751L25.4753 4.04052L25.5396 4.01326L25.6369 4.00937L25.7129 4.02689ZM25.2456 3.49923L25.415 3.48171L25.5065 3.51286L25.5785 3.5518L25.5824 3.61216L25.5201 3.64137L25.4267 3.64526L25.3332 3.64137L25.2631 3.62579L25.2008 3.58101L25.2456 3.49923ZM26.5599 21.1436L26.4781 21.2176L26.4021 21.3032L26.3282 21.459L26.3048 21.568L26.2542 21.6089L26.1568 21.5953L26.1101 21.5388L26.1821 21.0735L26.2094 20.9313L26.2736 20.7503L26.3204 20.6977L26.3924 20.6821H26.4878L26.5287 20.7211L26.6007 20.8281L26.6144 21.0287L26.5599 21.1436ZM26.2951 18.4625L25.6973 17.8744L25.3566 17.4461L25.0567 16.9593L24.8192 16.3577L24.7199 15.943L24.7666 15.7054L24.901 15.6665L25.0411 15.7307L25.341 16.7198L26.1704 17.9718L26.7195 18.6844L26.2951 18.4625ZM26.6572 26.2585L26.6105 26.387L26.4528 26.8232L26.4333 26.8913L26.4099 26.9342H26.3457L26.2951 26.7803L26.2912 26.607L26.4138 26.0443L26.6786 25.6861L26.7916 25.6725L26.8227 25.7737L26.6572 26.2585ZM27.2491 29.5471L27.2258 29.551L27.1829 29.5296L27.1011 29.4089L26.9785 29.2083L26.9201 29.0779L26.885 28.8949V28.7235L26.8909 28.6223L26.9162 28.5911H26.9707L27.0272 28.6145L27.1031 28.704L27.1576 28.8559L27.1946 29.0584L27.1985 29.222L27.2004 29.2784L27.2316 29.3583L27.2628 29.514L27.2491 29.5471ZM24.7374 35.4214L24.6868 35.5207L24.6264 35.6122L24.5271 35.6765L24.4317 35.6979H24.3928L24.3499 35.6629L24.3363 35.5908L24.3538 35.5032L24.4045 35.4L24.5427 35.2618L24.6478 35.1975L24.7238 35.1936L24.7608 35.2248L24.7705 35.2968L24.7374 35.4214ZM25.67 33.9183L25.6194 33.9903L25.5552 34.0273L25.4773 34.0565L25.4189 34.039L25.3838 33.9786L25.3916 33.9163L25.4481 33.8462L25.5649 33.7762L25.6486 33.7606L25.6895 33.7859L25.6993 33.8462L25.67 33.9183ZM27.7495 31.8466L27.399 32.3022L26.5287 33.1375L26.4294 33.2018L26.3652 33.1979L26.334 33.1492L26.3476 33.0635L27.4808 31.868L27.5684 31.7726L27.7008 31.6869L27.7476 31.6986L27.7885 31.7493L27.7495 31.8466ZM28.616 31.1768L28.6744 31.1573L28.7484 31.1593L28.7834 31.1768L28.7873 31.2158L28.7561 31.2625L28.688 31.3228L28.6276 31.391H28.5868L28.54 31.3637L28.5303 31.3053L28.5498 31.2489L28.616 31.1768ZM31.1218 24.3387L31.1082 24.4516L31.0732 24.5568L31.0517 24.6522L30.9836 24.6931L30.9193 24.6756L30.8843 24.6133L30.8629 24.401L30.7207 24.2024L30.7071 24.0408L30.7889 23.9376L30.8726 23.9104L30.9544 23.9162L31.0225 23.9766L31.1004 24.0759L31.1218 24.1888V24.3387ZM35.3509 20.4563L35.345 20.6159L35.09 21.5252L34.7629 22.0548L34.2021 22.6467L34.0483 22.6857L33.9665 22.6467L33.9529 22.5377L34.0171 22.3916L34.7609 21.2701L34.9556 20.7542L35.0432 19.8215L34.9654 18.9726L34.9478 18.8129L35.0355 18.7234L35.0919 18.7545L35.1367 18.8928L35.345 19.8157V20.4563L35.3509 20.4563Z" fill="white"/>
<path d="M22.8156 23.4371L22.876 23.2892L23.0162 23.1957L23.1758 23.1704L23.5574 23.3203L24.4881 24.0719L24.8737 24.6307L25.0138 25.2284L25.672 25.7172L25.744 25.9508L25.6836 26.2195L25.635 27.2203L25.8258 28.2425L26.0049 28.7312L26.4021 29.5217L26.443 29.7807L26.1762 30.3629L25.9348 30.4232L25.4831 30.4038L25.3117 30.2811L24.3771 29.9111L23.1855 29.6113L22.1458 29.4711L21.9569 29.5217L21.7973 29.4711L21.2365 29.4614L21.1333 29.4322L21.0769 29.3115L20.9542 29.2511L20.3253 29.4224L19.4764 29.4516L19.1648 29.3504L18.6236 29.0116L18.4639 28.9434L18.0531 28.3399L18.0433 28.2016L18.094 28.1315L18.2439 28.0887L18.4542 28.0011L20.1462 28.042L20.4032 28.1315L21.0457 28.2016L21.1859 28.1413L21.6746 28.1705L22.7747 28.5618L23.8281 28.7215L24.8951 28.741L25.0236 28.6903L25.0547 28.5501L25.045 28.3827L24.5368 27.6915L23.8962 26.5719L23.2362 25.1214L22.9947 24.3192L22.8156 23.4371Z" fill="white"/>
<path d="M23.207 2.58598L23.2342 2.8761H22.8331L22.4418 2.62298L22.4554 2.44969L22.5936 2.32507L22.582 2.17515L22.6696 2.05054L22.7961 2.08753L23.207 2.58598Z" fill="white"/>
</svg>
