<svg width="48" height="48" viewBox="0 0 48 48" fill="none" xmlns="http://www.w3.org/2000/svg">
<path d="M36.2676 19.947L36.1206 19.8796V20.1022L36.0041 20.2329L35.7938 20.5475L35.6753 20.6251L35.2158 21.2316L35.0585 21.585L34.887 21.6135L34.7297 21.5196L34.6378 21.1009L34.6623 20.6149L34.7685 20.1655L35.5569 18.9585L35.8694 18.3172L35.9102 17.8679L35.8612 17.727L35.7672 17.8189L35.61 18.211L35.371 18.6052L34.6113 19.2853L34.0068 19.996L33.8883 19.9838L33.8475 19.8633L33.874 19.0361L34.0578 18.4337L34.3866 17.7638L34.8216 17.2246L35.3608 16.7651L35.4098 16.6568L35.3445 16.6078L34.8462 16.8978L33.9925 17.6453L33.6534 18.1069L33.3226 18.7094L33.1408 19.1954L33.0612 20.3371L33.3757 21.6135L33.6779 22.5428L33.9925 24.5096L33.9414 25.4552L33.7167 26.2946L33.1633 26.991L32.6016 27.5036L31.8787 27.91L31.1843 27.9509L31.0903 27.6119L30.8412 27.1237L29.9752 25.9698L29.3298 25.353L28.3863 24.5913L27.4815 23.9765L26.1806 22.888L25.4739 22.0057L24.6958 20.7333L24.4855 19.9715L24.5386 19.4977L24.6448 19.4058L25.3555 19.8L25.7068 19.7857L26.5482 20.235L27.0629 20.6169L27.361 20.6577L27.4305 20.527L27.3508 20.5127L27.2589 20.5536L27.1119 20.4596L26.7974 19.9613L26.442 19.6345L25.8926 19.463L25.9314 19.3588H26.2071L26.5237 19.463L27.1936 19.8572L27.2732 19.7509L27.1425 19.5671L26.7872 19.2506L26.2337 18.9626L25.5658 18.7012L25.4351 18.595L25.5658 18.501L25.864 18.6481L26.4175 18.74L27.3222 19.1321L27.8757 19.2097L28.2699 19.1566L28.7948 18.8666L28.9255 18.74L28.9398 18.6481L28.8193 18.6563L28.7008 18.7788L27.9676 18.9606L27.6776 18.9197L27.3998 18.6992L27.1486 18.4071L26.8525 18.1865L25.9723 17.9476L25.7864 17.8291L25.8007 17.727L25.9723 17.7515L27.3365 17.6882L27.5081 17.8291L28.0064 17.8965L28.1106 17.8189L27.9288 17.7658L27.4672 17.3982L27.0853 17.1981L26.4828 17.1204L26.3787 17.0571L26.589 16.9387H26.9301L27.8757 17.3288L28.2964 17.3431L28.519 17.2369L28.5844 17.0939L28.4149 17.0163L28.0615 17.002L27.7593 16.8978L27.4958 16.6732L27.2058 16.5282L26.8239 16.4649L26.4951 16.3464L26.3521 16.1606L26.3766 16.0687L26.8505 16.1912L27.0077 16.3076L27.2324 16.3342L27.2569 16.2157L27.022 16.0299L26.9546 15.8624L27.2712 15.9114L27.5693 16.0687L27.9513 16.1115L28.0983 16.3873L28.4904 16.6221L28.5129 16.618L28.5987 16.5813L28.7008 16.518L28.6518 16.4404L28.5047 16.4506L28.1106 15.8624L27.651 15.4539L27.1793 15.2415L26.7606 14.7432L26.4971 14.6023L26.4563 14.4695L26.5747 14.3899L27.6653 14.7023L27.8349 14.9413L28.1106 15.0843H28.3209L28.6007 15.1619L28.903 15.1088L29.0194 15.0046L28.8499 14.8596L28.3107 14.7554L28.1392 14.6104L27.9145 14.2837L27.8614 14.0713L26.9015 13.3912L26.5114 13.0236L26.4849 12.9174H26.5747L27.0874 13.3258L27.89 13.8384L28.2433 14.1673L28.7416 14.3899L28.8335 14.2449L28.7028 14.1958L28.4292 13.9467L28.3495 13.6689L27.8226 13.1543L27.7041 12.8561L27.2977 12.2475L26.7443 11.7634L26.7197 11.6082L26.9158 11.6327L27.6388 11.9615L28.0983 11.9861L28.4394 12.1474L28.807 12.2107L29.1195 12.1168L29.095 11.9861L28.7376 11.9084L27.4509 11.2774L27.2732 11.0548L27.3365 10.9772L27.4305 11.0405L27.5714 11.0915L27.7572 11.1079L28.7151 11.0548L29.0174 11.1732L29.3319 11.3958L29.4646 11.4367L29.4789 11.3182L29.3727 11.212L29.0582 10.922L28.5701 10.6728L27.5469 10.5932L27.0486 10.0683L26.5257 9.67619L26.6442 9.58428L27.5244 9.9662L28.0227 10.0847H28.4537L28.809 10.4809L29.099 10.6504L29.2032 10.5442L28.809 9.96415L28.1923 9.51893L27.6796 9.39639L27.2446 8.94095L26.8627 8.71834L26.3399 8.58559L26.6299 8.33642L27.5244 8.04641L27.6143 7.92796L27.5653 7.83605L27.1507 7.74415L25.67 7.77274L25.4065 7.48068L24.7244 7.11511L24.2261 7.03546H23.7951L23.2723 6.44318L22.7842 6L22.484 6.49833L22.4697 6.65354L22.6106 6.8394L22.6249 6.99665L22.5228 7.08856L22.1899 7.11511L20.9972 6.81489L20.2742 6.91905L20.3273 7.07426L20.5785 7.06405L20.6806 7.08243L20.6765 7.22131L20.5315 7.25399L20.3416 7.22744L19.8432 7.35611L19.6717 7.36836L19.6186 7.44188L19.6799 7.54604L19.8085 7.57463L19.929 7.53991L20.0679 7.47864L20.2109 7.47252L20.5131 7.48477L21.0176 7.6216L21.4199 7.80337L21.4567 7.89119L21.4158 7.95859L21.2259 8.02599L21.1115 8.07909L20.2211 8.64685L19.1366 9.20236L18.2359 9.28814L18.1011 9.3249L18.0235 9.48829L17.9623 9.66597L17.8949 9.78851L17.5579 10.3277L17.4476 10.4666L17.4374 10.6279L17.4476 11.0915L17.5947 11.2222L17.7233 11.2896L17.8765 11.2774L18.7894 10.9731L18.9426 10.9792L18.9773 11.0772L18.9426 11.1691L18.8139 11.2365L18.1318 11.4673L18.0746 11.5633L18.0644 11.6674L18.1604 11.7532L18.3646 11.7798H18.528L18.9589 11.7185L19.2816 11.547L19.4961 11.5041L19.6799 11.4673L19.8187 11.5122L20.2231 11.5286L20.3865 11.6246L20.9788 11.7512L21.1606 11.7777L21.4424 11.7287L21.7998 11.7532L21.9571 11.8145L22.0428 11.9595L21.8958 12.6498L21.4383 13.9181L20.4764 15.2558L19.4675 16.2239L19.3429 16.6323L19.1693 16.8386L18.2727 17.4656L17.9276 17.6412L17.5497 18.0967L17.3925 18.1947L17.1719 18.305L17.0289 18.2723L15.4584 17.4656L14.4944 16.6956L14.1023 16.5547L13.7571 16.4914L13.316 16.5853L12.7319 16.9489L12.1355 18.6032L12.1171 19.0606L11.772 20.1757L11.5678 20.5699L11.4575 20.962L11.3921 21.4502L11.1062 22.0935L11.0776 23.4149L11 23.7008L11.0449 23.95L11.0266 24.3584L11.1695 24.6872L11.2798 24.7648L11.484 24.7015L11.9436 24.2032L12.1784 23.8233L12.2724 23.5109L11.8945 21.8709L11.9578 21.2725L12.1151 20.7884L12.5256 20.235L12.7278 20.2166L12.8238 20.1574L13.2649 19.6999L13.3773 19.2914L13.4365 18.8176L13.5468 18.6787L13.6571 18.6461L13.798 18.693L14.0022 18.8033L14.7252 19.7142L15.2623 20.1717L15.5135 20.2819L15.5911 20.4392L15.5135 20.5168L13.9103 20.235H13.0117L12.4909 20.6271L12.2703 21.0049L12.1028 21.4338L12.0845 21.7483L12.1805 22.3141L12.401 23.037L12.9177 25.3183L13.0137 25.9453L13.1056 26.1659L13.5651 26.5764L13.8143 26.9542L13.9879 27.3974L14.2555 27.7875L14.6476 28.1674L14.9335 28.341L15.1214 28.3553L15.2787 28.3103L15.4808 27.8998L15.5462 27.6343V27.0196L15.4706 26.846C15.4563 26.846 15.4563 26.7337 15.4563 26.7194L15.4237 26.6091L15.0601 26.1843L14.621 25.9943L14.4617 25.9453L14.4331 25.6778L14.4474 25.5083L14.1493 25.1611L13.9593 24.722L13.6734 23.5129L13.4569 23.0554L13.3793 22.504L13.5039 22.1711L13.7245 22.0465H13.896L14.1493 22.2671L14.5128 22.4856L15.8015 23.0677L16.2426 23.3209V23.5578L16.6491 23.7927L17.1698 23.9683H18.2564L18.1788 24.1726L18.1318 24.2829L18.5382 24.9425L19.4818 25.931L20.75 26.9583L21.9223 27.5853L23.162 28.4492L23.6746 28.8842L24.2097 29.6072L24.2342 29.9095L24.3547 30.2219L24.6836 30.4568L24.9817 30.5753L25.1655 30.5507L25.523 30.1831L25.572 29.8809L25.8211 29.4499L25.9396 28.4635L26.0233 28.2817L26.1908 28.2H26.3501L26.3603 28.3205L26.2418 28.4492L26.0601 28.8985L26.0315 29.552L25.9682 29.7767L25.2452 31.0225L25.092 31.6393L25.0144 32.2847L25.092 33.0056L25.1941 33.4263L26.0111 35.148L26.3521 35.6851L26.7586 36.1855L26.8362 36.355V36.4735L26.7831 36.6205L25.9559 37.7601L25.0757 38.72L24.5222 38.9692L24.3016 39.1816L24.1832 39.4185L23.2539 40.456L23.0293 40.8461L22.8189 41.5691L22.8332 41.8325L22.9905 42L23.8176 41.9755L24.4201 41.663L24.4752 41.5303H24.5937L24.7755 41.4506L24.947 41.2913L25.0389 40.6623L24.9858 40.5316L24.9613 40.4009L25.0532 40.4274L25.1553 40.456L25.2636 40.3784L25.4331 40.2702L25.8395 39.7167L25.9559 39.4287L25.9825 39.1939L26.1275 39.0856L26.5094 38.865L26.6503 38.575L27.5203 37.7356L28.3863 37.2067L28.4904 37.1046L28.5313 36.9963L28.6232 36.8779L28.5599 36.7206L28.4884 36.163L28.421 36.0058L27.9145 35.2256L27.89 34.6722L28.0861 34.0023L28.2331 33.7674L28.3883 33.6755L29.4789 32.8096L30.4388 31.7435L31.0536 30.565L31.1863 30.1157L31.2496 29.3825L31.3558 29.2784L31.4743 29.2498L31.5784 29.3172L31.6703 29.5357L31.7377 30.128L31.6846 31.2717L31.7622 31.7823L31.8562 31.913L31.9338 31.9028L31.9726 31.8088L31.9195 31.5985V31.2411L32.0277 30.9429L32.1299 30.2056L32.1973 30.0647H32.2769L32.3402 30.128L32.4587 30.6161L32.3566 31.5066L31.893 32.4828L31.7622 32.8892V33.4284L31.8562 33.7062H32.0277L32.1156 33.5836L32.0665 33.4529L32.0277 33.218L33.0101 31.6434L33.2062 30.5794V29.9769L33.0877 29.5562L32.8528 29.2294L32.8243 29.0721L32.9305 29.0211L33.0612 29.0844L33.4451 29.6767L33.5881 30.706L33.7188 31.1165L33.7331 31.1267L33.9148 31.5331L34.0333 31.576L34.0864 31.4698L34.0721 31.4045L33.9822 31.1042V30.3547L34.0619 29.6072L34.0333 29.3969L33.6412 28.6739L33.7045 28.5554L33.9536 28.5044L34.6623 28.151L34.9912 27.861L35.4119 27.2953L35.8469 26.3763L35.9245 25.012L35.5324 22.4264L35.6896 21.5462L35.9102 21.0621L36.2268 20.5638L36.3452 20.2472L36.3697 20.09L36.2676 19.947ZM18.4095 10.4441L18.3074 10.5462L18.1604 10.6279L17.9643 10.6708L17.8969 10.6279L17.8724 10.489L17.9296 10.293L18.0685 10.0989L18.1828 10.0417L18.287 10.052L18.4116 10.1561L18.4688 10.248L18.4095 10.4441ZM18.9242 10.3134L18.8874 10.3318L18.818 10.3358L18.7588 10.3073L18.7138 10.2542L18.72 10.1888L18.7731 10.103L18.816 10.0744H18.8731L18.9242 10.0867L18.9426 10.1398L18.9487 10.2317L18.9242 10.3134ZM19.5573 10.8975L19.5042 10.924H19.4368L19.398 10.9016L19.3776 10.8444L19.3837 10.7749L19.4246 10.7321L19.4736 10.73L19.5267 10.7443L19.5512 10.7831L19.5675 10.8464L19.5573 10.8975ZM20.7725 9.05939L20.6908 9.08186L20.5907 9.10637L20.4805 9.19827L20.2333 9.34736L19.4818 9.50871L19.3796 9.49645L19.543 9.35758L20.4376 8.9389L20.5683 8.87559L20.6683 8.86129L20.75 8.87967L20.8154 8.98383L20.7725 9.05939ZM11.5963 23.8295L11.4901 23.805L11.437 23.7008L11.5432 23.6477L11.6352 23.6579L11.6597 23.7519L11.5963 23.8295ZM12.977 18.3213L12.8054 18.9136L12.6338 19.1771L12.5419 19.2016L12.5093 19.1321V18.9932L12.595 18.4459L12.7462 18.1865L12.8238 18.0946L12.9382 18.0599L12.981 18.1253L12.977 18.3213ZM13.7347 17.2757L13.5631 17.341L13.3997 17.3573L13.2996 17.3185L13.2751 17.2471L13.3037 17.1511L13.3895 17.0918L13.5672 17.0694L13.6591 17.0612L13.7224 17.0796L13.7796 17.1327L13.7837 17.1919L13.7347 17.2757ZM15.1275 19.1546L15.0908 19.1587L15.007 19.1056L14.8845 19.0382L14.7803 18.9524L14.6843 18.8564L14.6415 18.8033L14.6312 18.7257L14.6517 18.6849L14.6884 18.6889L14.7497 18.6992L14.8171 18.7604L14.8967 18.8299L15.0213 18.9054L15.0969 18.9953L15.1418 19.0627L15.1459 19.1219L15.1275 19.1546ZM12.787 21.0254L12.7237 21.1152L12.6604 21.1397L12.6175 21.103L12.6196 20.9763L12.7278 20.7905L12.7605 20.7374L12.8136 20.7129L12.8646 20.7456V20.8518L12.832 20.9273L12.787 21.0254ZM13.2322 24.336L13.2098 24.3686H13.1853L13.1403 24.3278L13.1036 24.2604L13.0464 24.1358L12.9647 23.9704L12.8401 23.4721L12.8728 22.9145L12.8953 22.8818H12.9341L12.9749 22.9186L13.0137 23.0861L13.0178 23.2576L13.2527 24.24L13.2322 24.336ZM14.8232 27.3688L14.8661 27.3586L14.9682 27.3811L15.0152 27.4301L15.0254 27.4893L15.0152 27.5608L14.9539 27.6057L14.8784 27.5914L14.8253 27.5424L14.8048 27.4301L14.8232 27.3688ZM15.8505 22.5694L15.7443 22.5755L15.6054 22.553L15.5094 22.5101L14.8151 22.0567L14.7293 21.9934L14.8436 21.9893L14.9682 22.0343L15.6054 22.2834L15.7688 22.359L15.8546 22.4366L15.8689 22.5081L15.8505 22.5694ZM17.0391 19.4957L16.7573 20.3187L16.5245 20.6087L16.4081 20.6986L16.2835 20.7435L16.212 20.6945L16.2059 20.6006L16.3039 20.4944L16.5388 20.0328L16.6879 19.4875L16.8267 19.2281L16.9207 19.0954L16.9983 19.0749L17.0698 19.1035L17.0902 19.1893L17.0391 19.4957ZM22.7536 11.1609L22.872 11.0119L23.0068 10.8852L23.1273 10.8035L23.2172 10.7933L23.2784 10.8342V10.9445L23.2458 11.067L22.9496 11.2957L22.7862 11.3386L22.7066 11.3121L22.6984 11.2467L22.7536 11.1609ZM22.2757 8.39768L22.39 8.35888L22.4697 8.32211L22.5677 8.35683L22.6004 8.42832L22.5269 8.51409L22.4247 8.55494L22.2981 8.56107L22.2511 8.47529L22.2757 8.39768ZM21.2851 9.32081L21.2402 9.19419L21.3076 9.05735L21.4567 8.93073L21.6956 8.92052L21.8692 8.9532L22.0061 9.0451L22.0735 9.20644L22.1306 9.378L22.1204 9.52505L21.9713 9.58427H21.81L21.4465 9.41272L21.2851 9.32081ZM21.667 11.1957H21.4853L21.4526 11.1344L21.4975 11.0711L21.5527 11.0384L22.1266 10.6504L22.2573 10.5687H22.3042L22.3104 10.6647L22.2225 10.7341L22.1817 10.8791L22.0694 11.0507L21.667 11.1957ZM19.4981 17.6617L19.4736 17.6229L19.4797 17.5269L19.543 17.4554L20.2333 17.2164L20.9849 17.1592L21.2198 17.2083L21.4403 17.3206L21.6139 17.4921L21.6241 17.5881L21.6058 17.6555L21.5302 17.6698L21.4179 17.6555L21.2443 17.6065L21.0809 17.5575L20.0128 17.5861L19.8432 17.629L19.6799 17.6657L19.5737 17.6739L19.4981 17.6617ZM22.4533 27.3341L20.6683 26.1128L19.737 25.255L19.6329 25.0937L19.5941 24.9017L19.6002 24.724L19.6676 24.6566L19.7861 24.6627L20.17 24.965L20.9992 25.9024L22.4656 27.2116L22.5105 27.2851L22.5432 27.3382L22.4533 27.3341ZM22.6167 19.1873L22.5412 19.2302L22.3594 19.2322L22.2389 19.2036L22.1715 19.1137L22.1123 19.0443V18.9279L22.2001 18.8135L22.3349 18.7073L22.4635 18.6889L22.582 18.7216L22.6167 18.7849L22.631 18.9259L22.6494 19.0749L22.6167 19.1873ZM22.9762 13.3156L22.7331 14.0284L22.2593 14.8616L21.8611 15.4212L21.5588 15.7378L21.3484 15.8195L21.281 15.8154L21.2688 15.7623L21.3341 15.6132L22.3247 13.7608L22.6412 13.2523L22.8046 13.0971L22.9292 13.0746L22.9823 13.1624L22.9762 13.3156ZM23.7053 11.4121L23.6665 11.5081L23.5276 11.6715L23.1416 11.8431L22.9435 11.8472H22.8189L22.776 11.79L22.823 11.7083L22.9333 11.6593L23.3458 11.4305L23.45 11.357L23.6072 11.2814L23.7053 11.3039L23.7053 11.4121ZM24.7489 17.4227L24.6774 17.4431L24.5855 17.437L24.5243 17.3757L24.5385 17.3247L24.5998 17.2818L24.6917 17.2757L24.7714 17.339L24.7734 17.3921L24.7489 17.4227ZM24.8572 17.0755H24.7489L24.6938 17.0428V16.9632L24.7183 16.9101L24.7755 16.8917H24.851L24.9225 16.9387L24.9286 16.9938L24.8572 17.0755ZM25.0532 16.5363L24.9817 16.5731L24.9062 16.5833L24.8286 16.5649L24.804 16.5118V16.4485L24.8674 16.4036L24.947 16.3893H25.0226L25.0675 16.4281L25.0777 16.4894L25.0532 16.5363ZM25.1533 16.0829L25.0573 16.1115L24.9491 16.1074L24.8919 16.0686L24.8878 16.0258L24.9062 15.9624L24.9919 15.9236L25.0838 15.9073L25.1635 15.9481L25.1921 16.0217L25.1533 16.0829ZM25.3841 15.4498L25.331 15.5213L25.2819 15.5846L25.1819 15.605H25.0818L24.996 15.5621L24.9879 15.4948L25.0491 15.4314L25.0961 15.3783L25.1635 15.3538L25.2738 15.3212H25.3596L25.3984 15.3681L25.3841 15.4498ZM25.527 14.9188L25.4801 14.9923L25.3984 15.0066L25.3126 15.0291L25.2064 15.025L25.1594 14.9719L25.1655 14.8943L25.2023 14.8412L25.2738 14.7922L25.3841 14.7759L25.4841 14.7983L25.527 14.8575V14.9188ZM25.6782 14.5267L25.5658 14.5716L25.4801 14.6023H25.3739L25.331 14.5941L25.2779 14.5757L25.2493 14.5226L25.2636 14.4552L25.3351 14.3919L25.3963 14.3592L25.4637 14.3306L25.5597 14.3265L25.6516 14.3592L25.6904 14.4348L25.6782 14.5267ZM25.6904 13.9181L25.6516 13.9814L25.5842 14.0365L25.4841 14.0733L25.3657 14.0855L25.2697 14.0692L25.2452 14.0141L25.2595 13.9691L25.2983 13.9385L25.4698 13.8507L25.5515 13.8323L25.6516 13.8425L25.6904 13.8793V13.9181ZM25.4208 12.4742L25.4535 12.4517L25.4678 12.3884L25.4801 12.3373L25.5086 12.3006L25.5617 12.2985L25.6251 12.3169L25.6822 12.3496L25.6884 12.417L25.6822 12.5273L25.5965 12.6008L25.4882 12.6559L25.4412 12.6498L25.3943 12.6314L25.3473 12.5722L25.3412 12.5089L25.3596 12.4721H25.4208L25.4208 12.4742ZM25.3596 12.0167V11.9656L25.4065 11.9166L25.4801 11.89L25.5699 11.886L25.623 11.9023L25.6373 11.9472L25.6087 11.9963L25.5618 12.0473L25.4882 12.0636H25.4086L25.3596 12.0167ZM25.3636 13.4606L25.427 13.4197L25.5025 13.4014L25.5781 13.3952L25.6312 13.3993L25.6516 13.432V13.4831L25.6271 13.5423L25.5781 13.5995L25.4515 13.6526L25.3902 13.6464L25.333 13.6281L25.3187 13.5688L25.3289 13.5014L25.3636 13.4606ZM25.6822 13.0215L25.6659 13.0685L25.5883 13.1216L25.4801 13.1624L25.4208 13.1481L25.3636 13.1134L25.3514 13.0583L25.3575 12.9868L25.4004 12.9439L25.4617 12.901L25.5495 12.8826L25.6251 12.8806L25.6761 12.8949L25.6925 12.9439L25.6822 13.0215ZM25.7129 11.5143L25.7027 11.5755L25.6618 11.6307L25.5965 11.6531L25.5372 11.6674L25.4841 11.6756L25.4127 11.6674L25.3943 11.6266L25.4127 11.5694L25.4556 11.5306L25.5005 11.504L25.5781 11.4509L25.6618 11.455L25.7129 11.5143ZM25.6006 10.9914L25.6434 11.0159L25.6496 11.0772L25.6475 11.1323L25.5781 11.1936L25.5148 11.2181L25.4739 11.212L25.4413 11.1957V11.1364L25.4453 11.0772L25.4923 11.0282L25.5352 11.0016L25.6006 10.9914ZM25.5189 10.6953L25.5025 10.7606L25.4556 10.7933L25.4127 10.8199L25.3555 10.828L25.3085 10.7974L25.2983 10.7484L25.3208 10.7055L25.3636 10.6483L25.4065 10.6279L25.4637 10.6238L25.5087 10.6524L25.5189 10.6953ZM24.9348 9.54546L25.0389 9.53933L25.1839 9.48215L25.3167 9.45151L25.427 9.44334L25.4841 9.49644L25.4065 9.6149L25.3269 9.63736L25.1941 9.68229L25.0246 9.77828L24.8612 9.86406L24.6713 9.94371L24.608 9.94984L24.5549 9.9335L24.561 9.85385L24.5324 9.77828V9.64349L24.5937 9.49031L24.6795 9.39841L24.7326 9.32693L24.7898 9.25749H24.8755L24.9368 9.31672L24.9205 9.46581L24.9348 9.54546ZM24.8735 8.12605L24.9123 8.1526L24.9 8.18936L24.8429 8.25676L24.7632 8.26493L24.6713 8.25063L24.6182 8.22612L24.5774 8.17915L24.6243 8.14034L24.6917 8.11175L24.7938 8.10767L24.8735 8.12605ZM24.3833 7.57258L24.561 7.5542L24.657 7.58687L24.7326 7.62772L24.7367 7.69103L24.6713 7.72167L24.5733 7.72575L24.4752 7.72167L24.4017 7.70533L24.3364 7.65836L24.3833 7.57258ZM25.7619 26.0801L25.6761 26.1577L25.5965 26.2476L25.5189 26.411L25.4944 26.5253L25.4413 26.5682L25.3391 26.5539L25.2901 26.4947L25.3657 26.0066L25.3943 25.8575L25.4617 25.6676L25.5107 25.6124L25.5863 25.5961H25.6863L25.7292 25.6369L25.8048 25.7492L25.8191 25.9596L25.7619 26.0801ZM25.4841 23.2678L24.8572 22.651L24.4997 22.2017L24.1852 21.6912L23.9361 21.0601L23.8319 20.6251L23.8809 20.3759L24.0218 20.3351L24.1689 20.4024L24.4834 21.4399L25.3534 22.7532L25.9294 23.5007L25.4841 23.2678ZM25.864 31.4453L25.815 31.5801L25.6496 32.0376L25.6291 32.109L25.6046 32.154H25.5372L25.4841 31.9926L25.4801 31.8109L25.6087 31.2206L25.8865 30.8448L26.0049 30.8305L26.0376 30.9367L25.864 31.4453ZM26.4849 34.8948L26.4604 34.8989L26.4154 34.8764L26.3297 34.7498L26.201 34.5394L26.1397 34.4026L26.103 34.2106V34.0309L26.1091 33.9247L26.1356 33.892H26.1928L26.2521 33.9165L26.3317 34.0104L26.3889 34.1697L26.4277 34.3821L26.4318 34.5537L26.4338 34.6129L26.4665 34.6967L26.4992 34.86L26.4849 34.8948ZM23.8503 41.0565L23.7972 41.1606L23.7339 41.2566L23.6297 41.324L23.5296 41.3465H23.4888L23.4439 41.3097L23.4296 41.2341L23.4479 41.1422L23.501 41.034L23.6461 40.889L23.7563 40.8216L23.836 40.8175L23.8748 40.8502L23.885 40.9257L23.8503 41.0565ZM24.8286 39.4798L24.7755 39.5553L24.7081 39.5942L24.6264 39.6248L24.5651 39.6064L24.5283 39.5431L24.5365 39.4777L24.5957 39.4042L24.7183 39.3307L24.8061 39.3144L24.849 39.3409L24.8592 39.4042L24.8286 39.4798ZM27.0098 37.3068L26.6421 37.7847L25.7292 38.6608L25.6251 38.7282L25.5577 38.7241L25.525 38.6731L25.5393 38.5832L26.7279 37.3292L26.8198 37.2291L26.9587 37.1393L27.0077 37.1515L27.0506 37.2046L27.0098 37.3068ZM27.9186 36.6042L27.9799 36.5838L28.0575 36.5858L28.0942 36.6042L28.0983 36.645L28.0656 36.6941L27.9942 36.7574L27.9308 36.8288H27.888L27.8389 36.8003L27.8287 36.739L27.8492 36.6798L27.9186 36.6042ZM30.5471 29.4316L30.5328 29.55L30.496 29.6603L30.4735 29.7604L30.4021 29.8033L30.3347 29.7849L30.2979 29.7195L30.2754 29.4969L30.1263 29.2886L30.112 29.1191L30.1978 29.0108L30.2856 28.9823L30.3714 28.9884L30.4429 29.0517L30.5246 29.1559L30.5471 29.2743V29.4316ZM34.983 25.3592L34.9769 25.5266L34.7093 26.4804L34.3662 27.0359L33.778 27.6568L33.6167 27.6976L33.5309 27.6568L33.5166 27.5424L33.584 27.3892L34.3642 26.2129L34.5684 25.6716L34.6603 24.6934L34.5786 23.8029L34.5602 23.6354L34.6521 23.5415L34.7114 23.5742L34.7583 23.7192L34.9769 24.6872V25.3592L34.983 25.3592Z" fill="white"/>
<path d="M21.8345 28.4859L21.8978 28.3307L22.0448 28.2326L22.2123 28.2061L22.6126 28.3633L23.5888 29.1517L23.9932 29.7378L24.1403 30.3648L24.8306 30.8774L24.9061 31.1225L24.8428 31.4044L24.7918 32.4541L24.9919 33.5263L25.1798 34.0389L25.5964 34.8681L25.6393 35.1398L25.3595 35.7504L25.1063 35.8137L24.6325 35.7933L24.4527 35.6646L23.4724 35.2766L22.2225 34.9621L21.1319 34.815L20.9338 34.8681L20.7663 34.815L20.1781 34.8048L20.0699 34.7742L20.0107 34.6476L19.882 34.5843L19.2223 34.764L18.3319 34.7946L18.0051 34.6884L17.4373 34.333L17.2699 34.2616L16.8389 33.6284L16.8287 33.4834L16.8818 33.4099L17.0391 33.365L17.2597 33.2731L19.0344 33.316L19.304 33.4099L19.978 33.4834L20.125 33.4201L20.6377 33.4508L21.7916 33.8613L22.8965 34.0287L24.0157 34.0492L24.1505 33.9961L24.1831 33.849L24.1729 33.6734L23.6399 32.9484L22.968 31.774L22.2756 30.2525L22.0224 29.411L21.8345 28.4859Z" fill="white"/>
<path d="M22.245 6.61465L22.2736 6.91895H21.8529L21.4423 6.65345L21.4566 6.47169L21.6016 6.34098L21.5894 6.18372L21.6813 6.05301L21.8141 6.09181L22.245 6.61465Z" fill="white"/>
</svg>
