<svg width="48" height="48" viewBox="0 0 48 48" fill="none" xmlns="http://www.w3.org/2000/svg">
<path d="M12.3174 11.6924L12.3398 14.9092H8.09863L8.08691 22.918H11.335V26.1006H8.08691L8.1709 36.3076H4.29688L3.5 11.6924H12.3174ZM18.4209 11.6924L18.3398 36.3076H14.3389L13.8486 11.6924H18.4209ZM43.4756 11.6924L43.5 14.7939H40.3662L39.5439 36.3076H35.6729L35.7637 14.7969H32.6035V11.6924H43.4756ZM29.4922 11.6924C32.4016 16.6379 33.4552 23.7405 33.1152 36.3066H29.5225C29.5017 33.4702 29.4161 27.9255 29.0674 26.1289H24.6299L24.5879 36.3066H20.8848L20.5459 11.6924H29.4922ZM24.4971 14.7236L24.4541 23.085H28.9053C28.3951 19.0485 27.7442 16.5855 26.7314 14.7236H24.4971Z" fill="white"/>
</svg>
