<svg width="48" height="48" viewBox="0 0 48 48" fill="none" xmlns="http://www.w3.org/2000/svg">
<g clip-path="url(#clip0_42_7282)">
<path fill-rule="evenodd" clip-rule="evenodd" d="M28.7547 12.4869L27.9234 14.1735L25.2881 14.2364C25.2881 14.2364 24.4646 14.2364 23.9029 15.1233L21.1562 20.1105C21.1562 20.1105 20.998 20.3795 20.7367 20.3873L18.5837 20.2765C18.5837 20.2765 18.3544 20.3007 18.5363 19.976C18.5363 19.976 20.4987 15.938 22.074 13.3893C22.074 13.3893 22.4553 12.5764 23.6997 12.5261C23.6997 12.5261 25.7245 12.4468 28.7547 12.4869ZM22.7165 17.7538L23.3383 16.5399C23.3383 16.5399 23.4089 16.4093 23.6397 16.4093C23.87 16.4093 26.77 16.3691 26.77 16.3691C26.77 16.3691 26.9103 16.3594 26.8402 16.5099L26.1681 17.7843C26.1681 17.7843 26.1381 17.8641 25.947 17.8641L22.7664 17.9043C22.7664 17.9043 22.6561 17.8941 22.7165 17.7538ZM31.0499 16.4064C31.0499 20.4971 27.7338 23.8132 23.6431 23.8132C19.5523 23.8132 16.2362 20.4971 16.2362 16.4064C16.2362 12.3161 19.5523 9.00001 23.6431 9.00001C27.7338 9.00001 31.0499 12.3161 31.0499 16.4064ZM30.0919 16.4064C30.0919 19.9678 27.205 22.8553 23.6431 22.8553C20.0816 22.8553 17.1942 19.9678 17.1942 16.4064C17.1942 12.845 20.0816 9.95798 23.6431 9.95798C27.205 9.95798 30.0919 12.845 30.0919 16.4064Z" fill="white"/>
<path d="M10.6065 38.9152C10.5978 38.8581 10.5886 38.8034 10.5765 38.7502C10.5649 38.6974 10.5519 38.6491 10.5354 38.6045L9.79566 36.3422L9.64567 38.1043C9.63842 38.1928 9.63116 38.3075 9.62293 38.4483C9.61519 38.59 9.60842 38.7458 9.60261 38.9152H9.21313C9.26587 38.5542 9.31425 38.1256 9.35683 37.6287C9.39989 37.1318 9.43473 36.5933 9.46182 36.0127H10.0927C10.1077 36.0771 10.1213 36.1375 10.1348 36.1946C10.1484 36.2517 10.1624 36.3049 10.1764 36.3553L10.9085 38.6258L11.82 36.4515C11.8485 36.3828 11.8766 36.3132 11.9032 36.2406C11.9303 36.168 11.9574 36.0921 11.983 36.0127H12.6101C12.6009 36.1608 12.5936 36.332 12.5864 36.5241C12.5849 36.5672 12.5844 36.5972 12.5844 36.6141L12.5268 38.2707C12.5268 38.2838 12.5259 38.3022 12.5244 38.3263C12.523 38.3505 12.522 38.3684 12.522 38.3805C12.522 38.472 12.523 38.5615 12.5249 38.6505C12.5273 38.7395 12.5312 38.8281 12.5346 38.9152H12.1108C12.1195 38.8078 12.1277 38.7071 12.1359 38.6123C12.1437 38.5179 12.1495 38.44 12.1538 38.3805L12.2095 37.0316C12.2138 36.9441 12.2167 36.872 12.2182 36.8139C12.2196 36.7563 12.2206 36.7007 12.2206 36.6484C12.2206 36.6155 12.2196 36.5643 12.2182 36.4941C12.2167 36.4249 12.2162 36.3707 12.2162 36.3335L11.2897 38.5639C11.2708 38.6084 11.2515 38.6602 11.2326 38.7192C11.2137 38.7787 11.1934 38.8436 11.1712 38.9152H10.6065ZM15.8231 37.5343C15.8231 37.8982 15.9247 38.1788 16.1275 38.3747C16.3297 38.5712 16.619 38.6689 16.9945 38.6689C17.3723 38.6689 17.6621 38.56 17.8629 38.3423C18.0642 38.1246 18.1648 37.8111 18.1648 37.4022C18.1648 37.0326 18.0642 36.7491 17.8629 36.5531C17.6621 36.3567 17.3723 36.259 16.9945 36.259C16.6132 36.259 16.3229 36.3678 16.1231 36.5856C15.9233 36.8033 15.8231 37.1192 15.8231 37.5343ZM16.9238 38.9771C16.454 38.9771 16.0863 38.8494 15.8197 38.5944C15.5536 38.3389 15.4206 37.9853 15.4206 37.5343C15.4206 37.0355 15.5624 36.6465 15.8468 36.3693C16.1308 36.0916 16.53 35.9527 17.0433 35.9527C17.5243 35.9527 17.8983 36.0814 18.1663 36.3378C18.4338 36.5947 18.5674 36.9542 18.5674 37.4168C18.5674 37.9093 18.4242 38.292 18.1373 38.5658C17.8499 38.8402 17.4459 38.9771 16.9238 38.9771ZM21.9217 38.9152C21.9551 38.6128 21.9856 38.2335 22.0141 37.7782C22.0427 37.3234 22.0649 36.8318 22.0828 36.302C21.8941 36.3049 21.7306 36.3093 21.5927 36.3151C21.4539 36.3204 21.3281 36.3282 21.2153 36.3388L21.2284 36.0127H23.3282L23.3195 36.3364C23.2368 36.3277 23.139 36.3209 23.0268 36.3156C22.914 36.3107 22.7316 36.3069 22.4786 36.304L22.3823 37.9669C22.3765 38.0399 22.3726 38.1154 22.3712 38.1943C22.3697 38.2722 22.3688 38.3868 22.3688 38.5383C22.3688 38.62 22.3697 38.6887 22.3707 38.7463C22.3712 38.8034 22.3712 38.8595 22.3712 38.9152H21.9217ZM26.2394 37.5343C26.2394 37.8982 26.341 38.1788 26.5432 38.3747C26.7454 38.5712 27.0348 38.6689 27.4107 38.6689C27.7881 38.6689 28.0784 38.56 28.2792 38.3423C28.48 38.1246 28.5806 37.8111 28.5806 37.4022C28.5806 37.0326 28.48 36.7491 28.2792 36.5531C28.0784 36.3567 27.7881 36.259 27.4107 36.259C27.029 36.259 26.7392 36.3678 26.5389 36.5856C26.3395 36.8033 26.2394 37.1192 26.2394 37.5343ZM27.3396 38.9771C26.8698 38.9771 26.5021 38.8494 26.2355 38.5944C25.9699 38.3389 25.8368 37.9853 25.8368 37.5343C25.8368 37.0355 25.9786 36.6465 26.2626 36.3693C26.5471 36.0916 26.9457 35.9527 27.4596 35.9527C27.94 35.9527 28.314 36.0814 28.582 36.3378C28.8496 36.5947 28.9831 36.9542 28.9831 37.4168C28.9831 37.9093 28.8404 38.292 28.553 38.5658C28.2661 38.8402 27.8621 38.9771 27.3396 38.9771ZM31.7409 38.9152C31.7811 38.5629 31.814 38.1386 31.8396 37.6427C31.8653 37.1463 31.8822 36.6044 31.8909 36.0146L32.9113 36.0127C33.2272 36.0127 33.4488 36.0659 33.577 36.1733C33.7057 36.2803 33.7696 36.4559 33.7696 36.7017C33.7696 36.947 33.6936 37.1449 33.5417 37.2953C33.3898 37.4463 33.1759 37.5343 32.8987 37.56L33.6965 38.9152H33.2306C33.1876 38.8237 33.1426 38.7342 33.0947 38.6462C33.0468 38.5586 32.9916 38.4628 32.9287 38.3583L32.2978 37.2963C32.3312 37.2977 32.3713 37.2997 32.4159 37.3021C32.4613 37.304 32.4884 37.305 32.4986 37.305C32.7894 37.305 33.0081 37.2576 33.1532 37.1618C33.2988 37.066 33.3719 36.9228 33.3719 36.7317C33.3719 36.5773 33.3308 36.4699 33.2495 36.4085C33.1687 36.3475 32.9955 36.3165 32.7318 36.3165H32.2678C32.262 36.3736 32.2567 36.437 32.2523 36.5072C32.248 36.5768 32.2426 36.6678 32.2378 36.7805L32.188 37.9732C32.1807 38.1589 32.1754 38.3297 32.1715 38.4879C32.1672 38.6457 32.1633 38.7879 32.1604 38.9152H31.7409ZM36.3556 38.8019L36.3343 38.4212C36.5274 38.5228 36.6832 38.5915 36.8012 38.6273C36.9198 38.6641 37.0359 38.682 37.1506 38.682C37.3107 38.682 37.4365 38.6486 37.5294 38.5804C37.6218 38.5126 37.6687 38.4197 37.6687 38.3012C37.6687 38.2286 37.6455 38.1556 37.5991 38.083C37.5526 38.0099 37.4786 37.9296 37.377 37.8411L36.8656 37.3979C36.6875 37.2436 36.569 37.1168 36.5124 37.0171C36.4553 36.917 36.4268 36.8067 36.4268 36.6847C36.4268 36.4612 36.5047 36.2846 36.6609 36.1549C36.8177 36.0258 37.0315 35.9614 37.3049 35.9614C37.42 35.9614 37.5342 35.9721 37.6465 35.9924C37.7597 36.0137 37.8647 36.0437 37.9614 36.0833L37.9958 36.4259C37.8419 36.3707 37.7089 36.3306 37.5981 36.3049C37.4868 36.2803 37.3862 36.2677 37.2962 36.2677C37.1477 36.2677 37.0286 36.3035 36.9386 36.3751C36.8491 36.4457 36.8037 36.5372 36.8037 36.6489C36.8037 36.7157 36.8235 36.7805 36.8627 36.8434C36.9014 36.9063 36.9686 36.9794 37.063 37.0616L37.632 37.5561C37.7834 37.6862 37.8908 37.8048 37.9542 37.9112C38.018 38.0186 38.0495 38.1328 38.0495 38.2538C38.0495 38.4783 37.9701 38.6549 37.8124 38.786C37.6547 38.9166 37.4399 38.9814 37.1675 38.9814C37.0359 38.9814 36.9014 38.9664 36.7649 38.9355C36.6275 38.905 36.4916 38.8605 36.3556 38.8019Z" fill="white"/>
<path fill-rule="evenodd" clip-rule="evenodd" d="M1 34.4035H46.2859V34.7915H1V34.4035Z" fill="white"/>
<path fill-rule="evenodd" clip-rule="evenodd" d="M13.4831 25.539C16.568 25.539 19.0844 27.2542 19.0844 29.3574C19.0844 31.4606 16.568 33.1757 13.4831 33.1757C10.3983 33.1757 7.88239 31.4606 7.88239 29.3574C7.88239 27.2542 10.3983 25.539 13.4831 25.539ZM29.2877 33.0422H26.1477L24.5772 30.6908C24.3416 30.3676 24.0643 29.9733 23.8945 29.998L23.0894 29.9931V33.0422H20.1947V25.7335H24.4766C24.7286 25.7335 24.9657 25.7374 25.1878 25.7456C25.4094 25.7534 25.6745 25.7727 25.9822 25.8037C26.2895 25.8351 26.5531 25.8874 26.7767 25.944C27.6427 26.1637 28.456 26.8033 28.456 27.799C28.456 28.7947 27.635 29.3961 26.7612 29.6075L29.2877 33.0422ZM25.4244 27.799C25.4103 27.1807 24.6449 26.9649 24.4567 26.9649H23.0894V28.7531H24.4567C25.0136 28.7778 25.4379 28.4178 25.4244 27.799ZM39.6967 33.0698V25.7563H46.2859V27.2808H42.3809V28.6287H46.2859V30.1271H42.3809V31.4717H46.2859V33.0698H39.6967ZM1 33.0393V25.7563H7.54468V27.2837H3.65668V28.7511H6.57558V30.16H3.65668V33.0393H1ZM37.8277 28.1764C36.5963 27.3103 33.1965 26.8405 32.673 29.2577C32.673 31.5389 35.7545 31.7504 37.3071 30.7885L38.5921 32.0939C35.5721 34.3591 29.3003 33.1699 29.3279 29.4333C29.6414 24.9797 36.4377 24.9507 38.8568 26.6417L37.8277 28.1764ZM13.4831 27.7153C14.9578 27.7153 16.1606 28.4526 16.1606 29.3574C16.1606 30.2616 14.9578 30.999 13.4831 30.999C12.0084 30.999 10.8057 30.2616 10.8057 29.3574C10.8057 28.4526 12.0084 27.7153 13.4831 27.7153Z" fill="white"/>
</g>
<defs>
<clipPath id="clip0_42_7282">
<rect width="48" height="48" fill="white"/>
</clipPath>
</defs>
</svg>
