<svg width="48" height="48" viewBox="0 0 48 48" fill="none" xmlns="http://www.w3.org/2000/svg">
<path fill-rule="evenodd" clip-rule="evenodd" d="M36.4231 14.4741L34.403 18.573L27.9984 18.7259C27.9984 18.7259 25.9971 18.7259 24.632 20.8811L17.9569 33.0015C17.9569 33.0015 17.5724 33.6552 16.9375 33.674L11.7051 33.4048C11.7051 33.4048 11.1477 33.4636 11.5898 32.6746C11.5898 32.6746 16.359 22.8612 20.1874 16.667C20.1874 16.667 21.114 14.6916 24.1382 14.5694C24.1382 14.5694 29.059 14.3765 36.4231 14.4741ZM21.7489 27.2741L23.2598 24.3239C23.2598 24.3239 23.4315 24.0065 23.9924 24.0065C24.552 24.0065 31.5999 23.9089 31.5999 23.9089C31.5999 23.9089 31.9409 23.8854 31.7704 24.251L30.1372 27.3481C30.1372 27.3481 30.0643 27.5422 29.5998 27.5422L21.87 27.6397C21.87 27.6397 21.6019 27.6151 21.7489 27.2741ZM42.0012 23.9994C42.0012 33.9409 33.9421 42 24.0006 42C14.0591 42 6 33.9409 6 23.9994C6 14.0591 14.0591 6 24.0006 6C33.9421 6 42.0012 14.0591 42.0012 23.9994ZM39.6731 23.9994C39.6731 32.6546 32.657 39.6719 24.0006 39.6719C15.3454 39.6719 8.32812 32.6546 8.32812 23.9994C8.32812 15.3442 15.3454 8.32812 24.0006 8.32812C32.657 8.32812 39.6731 15.3442 39.6731 23.9994Z" fill="white"/>
</svg>
