<svg width="48" height="48" viewBox="0 0 48 48" fill="none" xmlns="http://www.w3.org/2000/svg">
<g clip-path="url(#clip0_42_7189)">
<path d="M24.2809 9.99983C16.4635 9.93104 10.0705 16.2108 9.99968 24.0281C9.92887 31.8455 16.2107 38.2385 24.028 38.3093C31.8453 38.3801 38.2384 32.0984 38.3092 24.281C38.38 16.4637 32.0982 10.0706 24.2809 9.99983ZM37.065 24.2547C37.0427 26.3224 36.3852 28.2524 35.2563 29.9114L29.2234 20.8822L29.2051 20.8559L28.5658 19.9495C27.789 18.8489 26.2028 18.7316 25.2702 19.7027L24.9485 20.0365L18.8731 26.3729V13.8599C20.5199 13.2146 22.3468 12.8585 24.2687 12.8727C31.4002 12.9273 37.1277 18.0235 37.0629 24.2547H37.065ZM24.0381 35.4365C16.9066 35.3819 11.1792 30.2856 11.2439 24.0544C11.2823 20.344 13.3661 17.0686 16.5505 15.0374V28.8614C16.5505 29.883 17.2849 30.7591 18.2904 30.9351C18.9823 31.0585 19.6904 30.8258 20.178 30.318L21.928 28.4932L27.1051 23.0935C27.5442 22.6342 28.2968 22.701 28.6488 23.229L34.0849 31.364C31.6916 33.8787 28.0722 35.4689 24.0381 35.4385V35.4365Z" fill="white"/>
</g>
<defs>
<clipPath id="clip0_42_7189">
<rect width="28.3095" height="28.3095" fill="white" transform="translate(10 10)"/>
</clipPath>
</defs>
</svg>
