<svg width="48" height="48" viewBox="0 0 48 48" fill="none" xmlns="http://www.w3.org/2000/svg">
<path fill-rule="evenodd" clip-rule="evenodd" d="M23.9801 9C24.9954 9.00001 28.3133 9.04904 29.7311 9.14746C31.3422 9.22129 33.8719 9.41796 35.2897 9.66406C38.1011 10.1481 41.323 11.1825 41.8063 16.0801C41.9271 17.4008 41.9755 19.1397 41.9997 21.0264C41.9513 24.1356 41.6857 26.2446 41.5407 27.6885C41.4439 28.6734 41.041 31.6835 40.5094 33.2256C39.7845 35.3584 39.1402 35.9656 38.3669 36.6055C36.9654 37.7784 34.6623 38.1232 34.1784 38.2217C31.5845 38.7139 26.3397 38.7881 24.0036 38.7881C21.6673 38.7881 16.4234 38.6893 13.8297 38.2217C13.346 38.1232 11.0347 37.7538 9.64127 36.6055C8.86796 35.9656 8.22366 35.3584 7.49869 33.2256C6.97517 31.6835 6.56419 28.6898 6.46744 27.6885C6.32244 26.22 6.05679 24.1356 6.00846 21.0264C5.9843 19.1644 6.00803 17.4254 6.15299 16.0801C6.6363 11.1826 9.85831 10.1563 12.6696 9.66406C14.0873 9.41796 16.6171 9.2213 18.2282 9.14746C19.654 9.04902 22.9651 9 23.9801 9ZM23.9801 10.1729C22.5624 10.1729 20.0568 10.2219 18.5182 10.3203C16.6172 10.4188 14.5954 10.616 13.1051 10.8867C9.90712 11.4528 8.41685 12.9955 8.05436 16.0801C7.78856 18.1393 7.7641 21.9542 7.93326 24.3086C8.19103 28.2214 8.55349 30.5757 9.03678 32.2656C9.47177 33.7341 9.99587 34.7355 10.7692 35.4492C12.0741 36.6466 13.8547 36.8922 14.9098 37.0645C17.1735 37.409 20.9917 37.5322 23.9801 37.5322C26.9687 37.5322 30.7869 37.409 33.0504 37.0645C34.1138 36.8922 35.8942 36.6468 37.1911 35.4492C37.9644 34.7437 38.4875 33.7587 38.9225 32.2656C39.3978 30.5757 39.736 28.2297 40.026 24.3086C40.1952 21.9379 40.1717 18.1147 39.9059 16.0801C39.5193 13.0201 38.0287 11.4774 34.8307 10.8867C33.3405 10.616 31.3186 10.4188 29.4176 10.3203C27.9033 10.2219 25.3738 10.1483 23.9801 10.1729ZM33.4528 11.5752C33.9279 11.5998 34.339 11.649 34.7497 11.6982C34.7497 11.6982 34.267 19.4433 34.0495 22.7002C33.84 26.154 33.4286 31.9377 33.0661 36.3184C33.0483 36.3208 32.3506 36.4174 31.2135 36.4902C30.0324 36.5629 29.4987 36.5644 29.4821 36.5645C28.9988 34.6284 28.3782 31.9532 27.6774 30.8047C27.0976 29.8781 26.2357 29.7799 25.7282 29.7061C24.9549 29.583 24.3099 29.583 23.9958 29.583C23.7057 29.583 23.0374 29.6077 22.2643 29.7061C21.7568 29.7799 20.8941 29.8777 20.3141 30.8047C19.6133 31.9614 19.0179 34.6284 18.5104 36.5645C18.5104 36.5645 17.9538 36.5641 16.7536 36.4902C15.6019 36.441 14.901 36.3184 14.901 36.3184C14.5466 31.9377 14.1361 26.1294 13.9186 22.7002C13.7011 19.4187 13.2174 11.6982 13.2174 11.6982C13.6282 11.649 14.007 11.5998 14.5143 11.5752C14.8688 11.5506 15.6911 11.5264 15.6911 11.5264C16.5127 15.2752 16.8426 16.9899 17.5192 19.7051C18.1475 22.2974 18.6553 24.7263 19.5172 25.8994C20.379 27.0968 21.5548 27.3429 22.3522 27.4414C22.763 27.4906 23.0776 27.5156 23.9635 27.5156C24.8496 27.5156 25.164 27.4906 25.5749 27.4414C26.3643 27.343 27.5489 27.0971 28.4108 25.8994C29.2807 24.7262 29.7798 22.3056 30.4323 19.7051C30.7706 18.3598 31.0228 17.2524 31.2926 16.0127L32.277 11.5264C32.2859 11.5266 33.0922 11.5507 33.4528 11.5752Z" fill="white"/>
</svg>
