<svg width="48" height="48" viewBox="0 0 48 48" fill="none" xmlns="http://www.w3.org/2000/svg">
<path d="M21.0432 22.0003L20.2152 23.7963L19.3875 22.0003H16.5449V25.8683H18.7858V23.9012L19.6208 25.8683H20.8103L21.6453 23.9012V25.8683H23.8853V22.0003H21.0432ZM28.8648 22.0003L28.0368 23.7963L27.2089 22.0003H24.3666V25.8683H26.6071V23.9012L27.4422 25.8683H28.6318L29.4673 23.9012V25.8683H31.7072V22.0003H28.8648ZM7.4921 22.0003V23.4201H6.3746V22.0003H4V25.8683H6.3746V24.4058H7.4921V25.8683H9.8669V22.0003H7.4921ZM37.2931 22.9313V22.0003H32.2V25.8683L37.2931 25.868V24.9371H34.5753V24.3586H37.2931V23.5113H34.5753V22.9313H37.2931ZM12.673 22.0015L12.6727 24.5964C12.6773 24.9305 12.9017 25.0138 13.2074 25.0138C13.5062 25.0138 13.734 24.9251 13.734 24.5892V22.0015H16.102V24.6045C16.102 25.7523 15.2477 26.0003 13.2074 26C11.1646 25.9997 10.3043 25.7564 10.3043 24.6043V22.0015H12.673ZM40.8046 23.7662C41.2481 23.7662 41.4599 23.6086 41.4599 23.2884C41.4599 22.8867 41.1923 22.779 40.8021 22.779H40.1078V23.7662H40.8046ZM41.4654 25.8671L40.1091 24.4806V25.8683H37.7338V22.0003L41.5486 22C42.3493 22 43.6746 21.9786 43.6038 23.2692C43.5706 23.8726 42.9264 24.3129 42.4147 24.4212L44 25.8671H41.4654Z" fill="white"/>
</svg>
