<svg width="48" height="48" viewBox="0 0 48 48" fill="none" xmlns="http://www.w3.org/2000/svg">
<path fill-rule="evenodd" clip-rule="evenodd" d="M24.0002 14.3677C12.9546 14.3677 4 18.7889 4 24.2411C4 29.6938 12.9546 34.1154 24.0002 34.1154C35.045 34.1154 44 29.6941 44 24.2411C43.9996 18.7893 35.0446 14.3677 24.0002 14.3677ZM22.1027 16.5652C24.3855 15.7582 31.1676 16.5652 33.8019 17.8305C34.645 18.6391 30.0426 21.237 24.5627 22.3631C16.7278 23.9431 20.4514 17.9002 22.1027 16.5652ZM8.64757 28.2644C6.92529 27.0364 3.55288 23.5221 9.13947 19.8687C12.0905 18.1476 13.7415 17.7599 15.7789 17.3389C16.7631 17.1273 17.4655 17.3738 16.5871 18.1119C14.7253 20.0443 10.8606 26.4371 10.5098 27.8434C10.2279 28.7928 9.66627 29.0373 8.64757 28.2644ZM24.7371 32.3408C21.4352 32.6912 14.093 31.6027 13.9519 30.6554C14.093 28.3702 25.6158 24.5761 27.6881 26.684C28.5673 28.335 26.8811 32.235 24.7371 32.3408ZM41.5309 25.699C40.6871 27.6318 37.8418 29.8111 31.8699 31.2868C30.9555 31.4961 30.6396 30.9348 31.2365 30.4076C32.2211 29.8107 36.9638 21.8712 37.5608 20.2892C37.9124 19.4806 38.5795 19.7981 39.0016 20.1136C40.8991 21.3428 42.3392 23.3457 41.5309 25.699Z" fill="white"/>
</svg>
