<svg width="48" height="48" viewBox="0 0 48 48" fill="none" xmlns="http://www.w3.org/2000/svg">
<path d="M21.4136 27.644C21.5554 27.644 22.4174 27.6395 23.1132 27.5925C23.9542 27.5355 24.3876 27.2558 24.7052 26.855C25.0992 26.3589 25.0966 25.4287 25.0961 24.7049C25.0956 23.8965 25.1071 21.5545 25.1035 21.3456C25.1007 21.136 25.019 21.0271 24.7719 21.0291C24.5245 21.0306 23.8271 21.0291 23.5877 21.0311L23.1612 21.0291C22.9138 21.0271 22.8323 21.136 22.8288 21.3456V21.5701C22.8323 21.8181 22.8254 24.181 22.8244 24.735V24.9804C22.8177 25.4906 22.7536 25.9869 22.0098 26.0638C21.6889 26.0966 21.5418 26.1113 21.1442 26.1113C20.7462 26.1113 20.5996 26.0966 20.2743 26.0638C19.5307 25.9879 19.4856 25.4906 19.4787 24.9804V24.735C19.4776 24.181 19.4707 21.8181 19.4738 21.5701V21.3456C19.4707 21.136 19.3887 21.0271 19.1419 21.0291L18.7148 21.0311C18.4754 21.0291 17.7785 21.0306 17.5309 21.0291C17.2841 21.0271 17.2023 21.136 17.1995 21.3456C17.1959 21.5545 17.1985 23.8965 17.1975 24.7049C17.197 25.4287 17.1949 26.3589 17.5884 26.855C17.9052 27.2558 18.3327 27.5355 19.1708 27.5925C19.8668 27.64 20.7031 27.644 20.8884 27.644H21.4136H21.4136ZM6.29788 27.34C6.293 27.5675 6.2238 27.6573 5.98364 27.6628C5.74268 27.6695 4.56388 27.6658 4.34912 27.6641C4.13532 27.6618 4.0036 27.5989 4.00308 27.3764C4.00156 27.1541 4.00156 21.5646 4 21.3523C3.99948 21.1409 4.10228 21.0407 4.32808 21.0474C4.5534 21.0527 5.71116 21.0415 6.01848 21.0467C6.25096 21.0449 6.30556 21.175 6.30632 21.4072C6.31196 21.7195 6.30352 27.1138 6.29788 27.34ZM38.4176 25.0789C38.422 25.6035 38.5527 25.9546 39.1725 26.0481C39.6687 26.0979 40.34 26.1081 40.8552 26.0573C41.3268 26.0071 41.69 25.8216 41.7113 25.3037C41.7351 24.8663 41.7372 24.7909 41.7387 24.3297C41.7413 23.2103 41.7287 21.5843 41.7326 21.4247L41.7346 21.3568C41.7308 21.1089 41.8474 21.0042 42.0637 21.0042L42.1932 21C42.4395 21.002 43.4306 21.0043 43.6706 21.0043C43.8869 21.0043 44.0035 21.1089 43.9999 21.3568L43.9968 21.4342C44.0014 21.6679 43.994 24.1442 43.9915 24.875C43.9779 25.242 43.951 26.0969 43.6595 26.6389C43.4058 27.1094 42.9516 27.4712 42.1793 27.5455C40.695 27.689 39.3416 27.6293 38.2994 27.587C37.5249 27.5482 37.0258 27.3799 36.6118 26.9336C36.1433 26.4219 36.1187 25.5473 36.1256 24.5443C36.1167 22.331 36.1098 21.6933 36.1133 21.4821V21.3568C36.1097 21.1089 36.2264 21.0042 36.4427 21.0042L36.5714 21C36.82 21.002 37.8483 21.0043 38.0888 21.0043C38.3043 21.0043 38.422 21.1089 38.4176 21.3568C38.414 21.6057 38.4166 24.4401 38.4176 25.0645M26.8718 21.0238C27.1036 21.0172 31.2477 21.0219 32.5434 21.0288C33.6906 21.0412 34.1148 21.1996 34.4263 21.604C34.7856 22.0712 34.8228 22.6565 34.5324 23.1381C34.324 23.4835 33.9385 23.7849 33.3602 24.0586C32.9012 24.2874 32.0974 24.6345 31.3118 24.9699C30.2596 25.4208 29.3068 25.8111 29.1467 25.8925C28.9298 26.0029 29.0118 26.1682 29.1841 26.1657C29.6337 26.1605 33.9746 26.1262 34.2064 26.1257C34.4391 26.1254 34.5147 26.2068 34.5147 26.4492C34.5142 26.7028 34.5167 27.1364 34.5172 27.3331C34.5119 27.5696 34.4342 27.6342 34.2032 27.6365C33.9395 27.6392 29.3153 27.6405 28.9864 27.6419C28.2554 27.6402 27.5026 27.6429 27.0536 27.4318C26.4928 27.1675 26.3031 26.6377 26.3026 26.2662C26.3292 25.3609 26.8493 25.0709 27.7864 24.6497C28.8283 24.1909 31.9041 22.9002 32.0874 22.8176C32.3145 22.7149 32.244 22.513 32.0333 22.5198C31.8716 22.523 27.1602 22.5463 26.9275 22.5461C26.6955 22.5454 26.5479 22.509 26.5479 22.2907C26.5484 22.0734 26.5458 21.5284 26.5458 21.3041C26.5458 21.0788 26.6391 21.031 26.8718 21.0238ZM14.7043 24.4283C13.6621 24.0084 10.6212 23.0752 10.2178 22.8815C10.0235 22.8004 10.0366 22.5598 10.2995 22.5598C10.7486 22.5662 15.2059 22.5747 15.4387 22.5762C15.6711 22.5767 15.7691 22.4889 15.7691 22.246C15.7701 21.9926 15.7683 21.5276 15.7652 21.3235C15.7621 21.1159 15.685 21.0373 15.4927 21.0367C15.3005 21.0367 10.1526 21.0427 10.1526 21.0427C8.716 21.0395 8.34744 21.2446 7.9404 21.7188C7.40976 22.3375 7.5784 23.175 7.88292 23.6068C8.22588 24.0899 8.79212 24.3035 9.69304 24.6094C10.7844 24.9538 13.3548 25.8308 13.3548 25.8308C13.5903 25.9295 13.5724 26.1689 13.2815 26.1689C13.2815 26.1689 8.3784 26.1261 8.14616 26.1257C7.91344 26.1254 7.79988 26.2356 7.79888 26.4536C7.79888 26.6717 7.7968 27.0713 7.7958 27.298C7.7958 27.5223 7.86292 27.6504 8.09568 27.6583C8.32688 27.6661 12.5428 27.6506 13.8392 27.6481C14.8255 27.6457 15.7782 27.35 15.9738 26.2933C16.091 25.3827 15.6936 24.8182 14.7043 24.4283Z" fill="white"/>
</svg>
