<svg width="48" height="48" viewBox="0 0 48 48" fill="none" xmlns="http://www.w3.org/2000/svg">
<g clip-path="url(#clip0_42_7149)">
<path d="M9.34111 16.7123C9.34111 16.7123 9.36846 16.6323 9.37688 16.6113C9.38529 16.5924 9.46102 16.382 9.65245 16.3631C9.65245 16.3631 9.76394 16.3568 9.93223 16.3568C9.93223 16.3568 9.84808 16.6239 9.52202 16.6807C9.52202 16.6807 9.39371 16.7102 9.34322 16.7123H9.34111ZM42.2225 25.3581C42.1552 25.5916 41.8228 25.9029 41.4189 26.0817C40.994 26.2731 40.1063 26.3215 39.5951 26.2374C39.5951 26.2374 38.6022 26.1364 37.7334 25.2298C37.46 24.9437 37.1234 24.6176 36.81 24.2979C36.6732 24.1548 36.3366 23.8182 35.7771 23.7425C35.1944 23.6626 33.7681 23.6247 33.2338 23.448C32.8762 23.3281 32.4429 23.0862 31.8686 22.2342C31.5909 21.8261 31.3953 21.7146 31.0187 21.4769C31.0187 21.4769 31.3069 21.7062 31.471 21.9944C31.7066 22.4151 31.8265 22.7223 31.9548 22.9452C32.0832 23.1703 32.2283 23.3702 32.4471 23.5448C32.7184 23.7635 32.8888 23.8056 33.1854 23.854C33.4673 23.9024 34.4224 23.8919 35.2407 23.8792C36.0463 23.8666 36.404 24.1275 36.669 24.3504C36.913 24.5566 37.3337 25.1456 37.5925 25.4044C37.8996 25.7115 38.1247 26.0228 38.7326 26.3299C38.943 26.4372 39.2901 26.7002 39.2712 26.9526C38.9977 27.2261 38.659 27.2976 37.8449 27.0809C37.9017 27.1377 38.3288 27.5858 39.0587 27.3733C38.8378 27.5563 38.6233 27.6363 38.3982 27.6237C37.6346 27.5816 36.8878 26.6413 36.4692 26.2942C36.1515 26.0312 36.1137 25.9639 35.573 25.5895C34.7526 25.0215 32.9078 25.1814 32.9078 25.1814L31.5552 25.2508C28.9214 25.4506 27.815 23.1156 27.5226 22.6297C27.4216 22.4614 27.329 22.3247 27.2428 22.2132C27.1081 22.0344 26.3887 21.1004 25.6609 20.7933C25.6609 20.7933 26.3761 21.4096 26.334 21.8156C26.334 21.8156 26.0374 21.6768 25.2317 21.7925C21.7608 22.2868 20.5807 21.418 20.5807 21.418C20.7426 20.7238 20.2567 20.0086 20.2567 20.0086C20.5239 20.0928 22.2299 20.6691 23.8518 20.341C23.8518 20.341 21.216 20.3557 19.3669 18.8811C19.3669 18.8811 20.5176 20.322 20.2441 21.2666C20.2441 21.2666 20.0548 22.2721 18.05 21.8661C17.8355 21.824 17.5851 21.7525 14.5812 20.9195C13.8765 20.7091 13.6325 21.0457 13.5041 21.2476C13.4978 21.5442 13.1486 21.8913 12.9719 22.0007C12.0421 21.8324 12.4124 20.97 12.4124 20.97C11.8276 21.8051 12.4397 22.1753 12.6333 22.2027C12.5176 22.2595 12.4082 22.2994 12.3135 22.3331C12.3135 22.3331 11.5541 21.8808 11.979 21.1403C12.5701 20.1075 13.1739 19.7772 14.2783 19.6762C14.7621 19.63 15.1639 19.5963 15.471 19.6384C16.2725 19.7499 16.7752 20.2021 17.9764 20.3178C15.4289 19.5669 15.4226 18.0922 15.4142 18.0628V18.0607C15.2733 18.5466 15.3511 18.9568 15.4752 19.3039C15.4395 19.2913 14.882 18.9253 14.6695 18.7969C13.7545 18.2374 13.0329 18.1406 13.0329 18.1406C12.73 18.1027 12.5891 17.7325 12.5891 17.7325C12.5786 17.7136 12.568 17.6968 12.5575 17.6799C12.1347 16.9584 11.7182 16.9437 11.7182 16.9437C11.9538 17.2634 11.958 17.7178 11.958 17.7178C12.0821 18.6139 11.0703 18.8895 11.0703 18.8895C10.4497 19.6783 10.4813 19.6952 10.3445 19.7141C10.2057 19.733 9.90278 19.5795 9.90278 19.5795C9.85229 19.5059 9.92381 19.4322 9.92381 19.4322C10.0395 19.3397 10.1363 19.2492 10.1363 19.2492C10.7926 18.5782 10.8725 18.25 10.7905 17.8146C10.6243 16.9416 10.0016 17.0425 10.0016 17.0425C9.70714 17.0594 9.57461 17.3223 9.57461 17.3223C9.47154 17.4843 9.24856 17.9765 9.24856 17.9765C9.11393 18.271 8.97509 18.3362 8.90357 18.3489C8.87201 18.3552 8.81521 18.3531 8.79628 18.3531C8.58592 18.3447 8.42394 18.1511 8.42394 18.1511C8.41343 18.1406 8.40501 18.1301 8.3987 18.1217C8.20517 17.9134 8.34611 17.6442 8.34611 17.6442C8.60696 17.0383 9.11182 16.95 9.17914 16.9416C9.25066 16.9331 9.48206 16.8995 9.48206 16.8995C10.1237 16.7922 10.4266 16.1233 10.4266 16.1233C9.99323 16.1191 9.78287 16.1464 9.78287 16.1464C9.35794 16.2221 9.2128 16.7228 9.2128 16.7207C8.85308 16.8027 8.86149 16.4935 8.9246 16.3988C8.9814 16.3105 9.19386 15.9402 10.578 15.6205C10.578 15.6205 11.2617 15.4143 12.7195 15.4817L12.6585 15.5931C12.5302 15.8372 12.0169 16.3399 11.1712 16.1548C11.1712 16.1548 11.1797 16.5314 12.0968 16.666C12.0968 16.666 12.9257 16.8153 14.333 17.945C14.333 17.945 13.6598 16.6092 12.5176 16.2621C12.5176 16.2621 12.3745 16.2305 12.4439 16.1422C12.4439 16.1422 13.1486 15.488 14.0574 15.4606C14.0574 15.4606 17.1329 15.164 18.8389 17.5137C18.8389 17.5137 18.3235 16.5166 17.9343 16.0812C17.9343 16.0812 19.7203 16.5861 22.4655 17.5411C22.4655 17.5411 24.3398 18.2058 25.5389 18.6791C27.1565 19.3165 31.2039 20.8921 33.785 22.2973C34.2457 22.5477 38.9136 24.9836 38.9136 24.9836C40.2073 25.5642 41.1013 25.2108 41.1013 25.2108C41.3916 25.0993 41.9196 24.6954 42.151 24.9247C42.2709 25.0425 42.2856 25.2024 42.2288 25.3602L42.2225 25.3581ZM42.5023 24.7901C42.313 24.3694 41.7913 24.5061 41.7913 24.5061C41.5452 24.5587 41.2633 24.8406 40.8447 24.9647C39.9464 25.2298 39.2312 24.9205 39.2312 24.9205C37.8491 24.3231 33.4084 21.7798 31.1492 20.6691C31.1492 20.6691 28.5239 19.4533 24.7163 17.945C24.7163 17.945 17.2338 14.7517 12.2399 15.0147C12.2399 15.0147 9.57672 15.0841 8.73948 16.26C8.73948 16.26 8.59644 16.422 8.67848 16.5966C8.67848 16.5966 8.69321 16.6471 8.66165 16.6807C8.66165 16.6807 8.21358 17.0825 7.9864 17.4401C7.90646 17.5705 7.82863 17.7788 7.98219 17.9408C7.98219 17.9408 8.05581 17.9976 8.08737 18.0481C8.15258 18.1553 8.21358 18.3131 8.29352 18.4078C8.40922 18.5466 8.64482 18.7864 8.97719 18.7296C9.12444 18.7044 9.12655 18.6623 9.12655 18.6623C9.29273 18.8264 9.56199 18.8222 9.56199 18.8222C9.52834 18.717 9.41264 18.5087 9.39581 18.3846C9.37898 18.2458 9.41895 18.1154 9.41895 18.1154C9.46523 17.9597 9.55989 17.762 9.66086 17.6631C9.75132 17.5747 9.98061 17.4717 10.1657 17.6C10.313 17.7052 10.4897 18.0459 10.3424 18.534C10.3361 18.5719 10.1741 18.9168 10.0016 18.9694C10.0016 18.9694 9.98482 18.9757 9.95326 18.9757C9.83546 18.9757 9.61879 18.8537 9.61879 18.8537C9.61879 18.8537 9.61248 18.8853 9.64403 19.0115C9.66297 19.083 9.68821 19.163 9.70925 19.224C9.70925 19.224 9.66717 19.2997 9.63983 19.3439C9.60407 19.3902 9.56199 19.5626 9.65245 19.6279C9.65245 19.6279 10.0374 19.8887 10.4097 19.9118C10.6664 19.9266 10.7653 19.7541 10.7653 19.7541C10.9546 19.4932 11.0976 19.2702 11.2975 19.0893C11.8423 18.5908 12.6101 18.4562 12.6101 18.4562C12.6606 18.4498 13.4978 18.2163 14.9199 19.3544C14.5139 19.388 14.03 19.4848 13.6598 19.55C12.6059 19.7393 11.9306 20.7323 11.7329 21.1361C11.2217 22.1922 12.2672 22.5561 12.2672 22.5561C12.2777 22.5456 13.2664 22.4677 13.7419 21.418C13.7419 21.418 13.9165 20.9531 14.3813 21.1025C14.6843 21.2014 17.3664 22.1375 17.9701 22.2973C17.9701 22.2973 19.7645 22.7643 20.4418 21.9397C21.5231 22.2952 22.537 22.4656 25.1939 22.1227C25.6546 22.0617 26.0185 22.0765 26.0185 22.0765C26.639 22.1227 27.2049 22.5392 27.3774 22.8148C28.0758 23.9318 28.9614 26.1553 32.039 25.884L33.4295 25.7578C34.2793 25.7073 34.9693 25.6736 35.6719 26.0438C35.9769 26.2037 36.1473 26.2626 36.6648 26.757C37.3737 27.4322 38.0258 28.1601 38.8946 27.7625C39.2017 27.6215 39.5488 27.0704 39.5488 27.0704C39.5152 26.8201 39.4037 26.5782 39.1281 26.372C39.917 26.5592 41.6945 26.6812 42.3824 25.478C42.5591 25.1982 42.5801 24.9479 42.5128 24.7964L42.5023 24.7901ZM11.5415 15.8919C11.5751 15.8919 11.613 15.894 11.6593 15.894C11.8444 15.8961 12.0527 15.8203 12.1915 15.7572C12.2904 15.711 12.3535 15.671 12.3451 15.671C12.2167 15.671 12.0127 15.6668 11.9349 15.6668C11.6025 15.6668 11.4279 15.8561 11.4258 15.8729C11.4258 15.8834 11.47 15.8877 11.5415 15.8919Z" fill="white"/>
<path d="M29.7923 29.6916V31.2756C29.7923 31.6858 29.7481 32.0097 29.5398 32.2811C29.2033 32.7228 28.5869 32.9753 26.8683 32.9753H26.8514C25.1412 32.9753 24.5206 32.7207 24.1862 32.2811C23.98 32.0097 23.9358 31.6858 23.9358 31.2756V29.6916H25.1181V31.2293C25.1181 31.6416 25.1707 31.8835 25.3221 32.0981C25.5788 32.4599 26.0205 32.5882 26.8157 32.5882H26.9166C27.7476 32.5882 28.1536 32.4578 28.4102 32.096C28.5617 31.8835 28.6143 31.629 28.6143 31.2293V29.6895H29.7965L29.7923 29.6916ZM41.5619 30.0912C42.0058 30.0912 42.2014 30.1312 42.3361 30.2343C42.4644 30.3311 42.5107 30.4762 42.5107 30.7055V30.7644C42.5107 30.9705 42.4623 31.1367 42.3108 31.2419C42.1614 31.345 41.9553 31.3681 41.5767 31.3681H39.2311V30.0912H41.5619ZM42.1383 31.7468C42.5822 31.7321 42.9608 31.6647 43.2511 31.5091C43.5519 31.3471 43.695 31.04 43.695 30.7223C43.695 30.2974 43.5057 30.026 43.1607 29.8725C42.8535 29.7378 42.4728 29.6916 41.7176 29.6916H38.0489V32.8701H39.2311V31.7678H40.7857L42.559 32.8701H44L42.1383 31.7468ZM21.4494 32.4452V31.4102H22.6274V32.8701H19.2027C18.5611 32.8701 18.0542 32.7944 17.6734 32.6408C17.0381 32.3842 16.7457 31.9151 16.7457 31.2756C16.7457 30.6697 17.0634 30.2511 17.4652 30.0239C17.8943 29.7841 18.376 29.6916 19.1817 29.6916H22.5075V30.1165H19.5519C18.9187 30.1165 18.5738 30.2111 18.3108 30.4257C18.0773 30.615 17.9532 30.899 17.9532 31.2798C17.9532 31.6731 18.0836 31.9634 18.3339 32.1549C18.5969 32.3547 18.9524 32.4452 19.5625 32.4452H21.4515H21.4494ZM9.07599 29.6916V31.2419C9.07599 31.7426 8.96029 32.0476 8.72259 32.2916C8.30607 32.7165 7.50881 32.8701 6.38128 32.8701H4V32.4431H6.18985C6.863 32.4431 7.31738 32.3316 7.59085 32.0602C7.79911 31.8562 7.89166 31.5701 7.89166 31.1451V29.6895H9.07389L9.07599 29.6916ZM35.087 32.1927H31.5803L30.9997 32.8701H30.314L33.0718 29.6916H34.2372L36.9971 32.8701H35.6697L35.087 32.1927ZM31.9337 31.7825H34.7336L33.3305 30.1543L31.9337 31.7825ZM14.3897 32.1927H10.883L10.3024 32.8701H9.61662L12.3744 29.6916H13.5398L16.2998 32.8701H14.9724L14.3897 32.1927ZM11.2364 31.7825H14.0363L12.6332 30.1543L11.2364 31.7825Z" fill="white"/>
</g>
<defs>
<clipPath id="clip0_42_7149">
<rect width="40" height="17.9753" fill="white" transform="translate(4 15)"/>
</clipPath>
</defs>
</svg>
