<svg width="48" height="48" viewBox="0 0 48 48" fill="none" xmlns="http://www.w3.org/2000/svg">
<path d="M37.3731 24.5388C37.3405 26.3225 37.7284 27.2673 39.2091 27.2673C40.6874 27.2673 40.8995 25.6579 40.8995 24.4332C40.8995 23.2078 40.619 22.0181 39.0659 22.0181C38.1132 22.0181 37.4097 22.7533 37.3731 24.5388ZM34.3776 31.9926V19.9187H37.4097V20.4084C37.4097 21.0617 37.675 20.7923 37.8888 20.5377C37.9246 20.4952 38.6004 19.6738 40.1222 19.6738C41.6396 19.6738 44 20.7234 44 24.4333C44 27.3029 42.5918 29.4023 40.1597 29.4023C38.8196 29.4023 38.0448 28.8783 37.8676 28.6668C37.6902 28.4583 37.4439 28.4219 37.4439 28.6668V31.9925L34.3776 31.9926ZM10.9419 16H14.2195V24.5388C14.2195 26.0076 13.5845 29.0882 9.03908 29.0882C4.49317 29.0882 4 26.2169 4 24.6083V23.0337H7.17185V24.5728C7.17185 25.5176 7.80637 26.392 9.00384 26.392C10.2018 26.392 10.9419 25.7274 10.9419 24.6083V16ZM21.0741 23.2436C21.0741 22.3678 20.5817 21.528 19.454 21.528C18.3615 21.528 17.9736 22.2972 17.9736 23.2436H21.0741ZM19.1379 19.5687C21.7119 19.5687 23.9662 20.5483 23.9662 25.0628H17.8702C17.8702 26.4976 18.4687 27.0927 19.5258 27.0927C20.5833 27.0927 20.9355 26.2522 20.9355 26.2522H23.9318C23.9318 27.5475 22.1343 29.2972 19.4201 29.2625C16.3198 29.2625 14.8042 26.9877 14.8042 24.6428C14.8042 22.2972 16.1424 19.5687 19.1379 19.5687ZM30.8194 23.2436C30.8194 22.3678 30.3265 21.528 29.1988 21.528C28.1069 21.528 27.7181 22.2972 27.7181 23.2436H30.8194ZM28.8832 19.5687C31.4569 19.5687 33.7108 20.5483 33.7108 25.0628H27.615C27.615 26.4976 28.214 27.0927 29.272 27.0927C30.3284 27.0927 30.681 26.2522 30.681 26.2522H33.6774C33.6774 27.5475 31.8796 29.2972 29.1662 29.2625C26.0643 29.2625 24.5487 26.9877 24.5487 24.6428C24.5487 22.2972 25.8885 19.5687 28.8832 19.5687ZM41.993 30.5451C41.993 30.0669 42.385 29.6784 42.8682 29.6784C43.3497 29.6784 43.7409 30.0669 43.7409 30.5451C43.7409 31.0225 43.3497 31.4133 42.8682 31.4133C42.3851 31.4133 41.993 31.0225 41.993 30.5451ZM41.8921 30.5451C41.8921 31.0801 42.3284 31.5144 42.8682 31.5144C43.4045 31.5144 43.8432 31.0801 43.8432 30.5451C43.8432 30.01 43.4045 29.5758 42.8682 29.5758C42.3284 29.5758 41.8921 30.01 41.8921 30.5451Z" fill="white"/>
</svg>
