<svg width="48" height="48" viewBox="0 0 48 48" fill="none" xmlns="http://www.w3.org/2000/svg">
<path fill-rule="evenodd" clip-rule="evenodd" d="M25.3025 12.0657C23.208 14.6926 17.234 23.1733 16.5532 24.2714C15.2425 26.3753 15.1267 27.3949 15.0881 28.0742C15.0501 28.741 15.0501 29.9432 16.1163 30.9235C17.9025 32.5439 20.4076 32.2821 22.6307 32.2821H40.9404C41.7242 32.2821 41.9558 32.0466 42.3798 31.472C43.8444 29.1979 44.5 26.7281 44.5 24.5194C44.5 19.7886 41.4809 13.8301 33.8353 11.1378L32.9738 12.3923C39.0384 15.3189 41.5446 19.148 41.5446 24.5057C41.5832 25.9435 41.21 27.4984 40.2848 28.9361H22.4757C21.4095 28.9361 21.2551 27.7078 21.6405 27.0148C23.1673 24.2513 24.8713 21.5929 26.7413 19.057C28.5404 16.6133 30.3131 14.3262 32.1766 11.9349C32.6778 11.2686 32.3433 10.628 31.3414 10.4192C29.2598 9.97486 27.0887 9.66138 24.4544 9.66138C9.84581 9.66138 4.5 18.1944 4.5 24.5194C4.5 31.3804 9.88383 39.3388 24.493 39.3388C32.6006 39.3388 37.9078 36.6852 40.9784 33.2749H37.8815C35.1957 35.7971 30.5828 37.5882 24.493 37.5882C12.1192 37.5882 7.55834 30.5178 7.55834 24.4278C7.64783 18.9915 12.5433 11.4905 24.8018 11.2425C25.2644 11.2294 25.6247 11.6607 25.3025 12.0657Z" fill="white"/>
</svg>
