<svg width="48" height="48" viewBox="0 0 48 48" fill="none" xmlns="http://www.w3.org/2000/svg">
<path fill-rule="evenodd" clip-rule="evenodd" d="M20.5159 38.3184C20.5159 37.887 20.5159 37.4556 20.5159 37.0242C21.6352 37.0242 22.7429 37.0242 23.8506 37.0242C24.9582 37.0242 26.0659 37.0242 27.1736 37.0242C27.1736 37.4556 27.1736 37.887 27.1736 38.3184C26.0659 38.3184 24.9582 38.3184 23.8506 38.3184C22.7429 38.3184 21.6352 38.3184 20.5159 38.3184Z" fill="white"/>
<path fill-rule="evenodd" clip-rule="evenodd" d="M23.8507 41.0125C24.5503 41.0125 25.2499 41.0125 25.9495 41.0125C25.9495 40.3362 25.9495 39.6716 25.9495 38.9954C25.2499 38.9954 24.5503 38.9954 23.8507 38.9954C23.1511 38.9954 22.4515 38.9954 21.752 38.9954C21.752 39.6716 21.752 40.3362 21.752 41.0125C22.4515 41.0125 23.1511 41.0125 23.8507 41.0125Z" fill="white"/>
<path fill-rule="evenodd" clip-rule="evenodd" d="M21.752 36.3484C21.7403 35.2407 21.4605 34.1447 20.5627 33.4102C21.6587 33.4102 22.7547 33.4102 23.8507 33.4102C24.9467 33.4102 26.0428 33.4102 27.1388 33.4102C26.241 34.1447 25.9495 35.2407 25.9495 36.3484C25.2499 36.3484 24.5503 36.3484 23.8507 36.3484C23.1511 36.3484 22.4516 36.3484 21.752 36.3484Z" fill="white"/>
<path fill-rule="evenodd" clip-rule="evenodd" d="M16.1901 31.2644C16.1901 30.9496 16.1901 30.6232 16.1901 30.3083C18.7435 30.3083 21.297 30.3083 23.8505 30.3083C26.404 30.3083 28.9575 30.3083 31.4993 30.3083C31.4993 30.6232 31.4993 30.9496 31.4993 31.2644C28.9575 31.2644 26.404 31.2644 23.8505 31.2644C21.297 31.2644 18.7435 31.2644 16.1901 31.2644Z" fill="white"/>
<path fill-rule="evenodd" clip-rule="evenodd" d="M16.878 34.7277C17.7758 34.5295 18.7319 34.0281 19.3731 33.4102C18.487 33.4102 17.6009 33.4102 16.7147 33.4102C16.773 33.8416 16.8197 34.2846 16.878 34.7277Z" fill="white"/>
<path fill-rule="evenodd" clip-rule="evenodd" d="M30.8231 34.7277C29.9253 34.5295 28.9575 34.0281 28.3162 33.4102C29.214 33.4102 30.1002 33.4102 30.9863 33.4102C30.928 33.8416 30.8697 34.2846 30.8231 34.7277Z" fill="white"/>
<path fill-rule="evenodd" clip-rule="evenodd" d="M15.9336 28.198C15.0941 23.231 13.4734 18.0541 11.6895 14.6494C13.6133 15.6871 15.6654 17.3428 17.8691 19.5931C16.948 19.3483 16.0385 19.1617 15.1291 19.0218C16.4 22.03 17.4494 25.0965 18.4055 28.198C17.5776 28.198 16.7614 28.198 15.9336 28.198Z" fill="white"/>
<path fill-rule="evenodd" clip-rule="evenodd" d="M31.7676 28.198C32.5954 23.231 34.2161 18.0541 36.0001 14.6494C34.0879 15.6871 32.0358 17.3428 29.8321 19.5931C30.7415 19.3483 31.6626 19.1617 32.5721 19.0218C31.3012 22.03 30.2518 25.0965 29.2957 28.198C30.1119 28.198 30.9397 28.198 31.7676 28.198Z" fill="white"/>
<path fill-rule="evenodd" clip-rule="evenodd" d="M15.3858 29.8071C15.3858 29.4806 15.3858 29.1542 15.3858 28.8394C18.2075 28.8394 21.0291 28.8394 23.8508 28.8394C26.6724 28.8394 29.4941 28.8394 32.3157 28.8394C32.3157 29.1542 32.3157 29.4806 32.3157 29.8071C29.4941 29.8071 26.6724 29.8071 23.8508 29.8071C21.0291 29.8071 18.2075 29.8071 15.3858 29.8071Z" fill="white"/>
<path fill-rule="evenodd" clip-rule="evenodd" d="M20.994 14.1246C22.2999 11.8743 23.4192 9.32083 23.8506 6.67407C24.2704 9.32083 25.3897 11.8743 26.7073 14.1246C26.2409 13.9148 25.7395 13.6932 25.1915 13.46C24.7251 13.2385 24.5269 13.3668 24.5385 13.8565C24.7018 18.637 25.4014 24.0704 27.8965 28.1979C26.9171 28.1979 25.9377 28.1979 24.9583 28.1979C24.4919 27.1019 24.1304 26.0176 23.8506 24.9449C23.5708 26.0176 23.1977 27.1019 22.7429 28.1979C21.7635 28.1979 20.7841 28.1979 19.8047 28.1979C22.2999 24.0704 22.9995 18.637 23.1627 13.8565C23.1744 13.3668 22.9761 13.2385 22.4981 13.46C21.9501 13.6932 21.4604 13.9148 20.994 14.1246Z" fill="white"/>
<path fill-rule="evenodd" clip-rule="evenodd" d="M15.3858 32.7339C15.3858 32.4074 15.3858 32.0926 15.3858 31.7661C18.2075 31.7661 21.0291 31.7661 23.8508 31.7661C26.6724 31.7661 29.4941 31.7661 32.3157 31.7661C32.3157 32.0926 32.3157 32.4074 32.3157 32.7339C29.4941 32.7339 26.6724 32.7339 23.8508 32.7339C21.0291 32.7339 18.2075 32.7339 15.3858 32.7339Z" fill="white"/>
</svg>
