<svg width="48" height="48" viewBox="0 0 48 48" fill="none" xmlns="http://www.w3.org/2000/svg">
<path d="M22.4858 12.1033C20.817 12.6724 18.9521 14.0113 16.7478 16.2204C15.6862 17.282 14.5099 18.6543 13.6253 19.8688C12.8123 20.9735 11.8273 22.8478 11.4446 24.0099C11.0956 25.0475 11.0572 25.7742 11.3204 26.2572C11.4925 26.568 11.612 26.6683 12.1955 26.9936C13.9551 27.9786 16.8004 28.8729 19.282 29.222C20.5875 29.4036 21.1421 29.442 22.7727 29.442C24.4032 29.442 24.9578 29.4038 26.2633 29.222C28.573 28.8969 31.0403 28.1557 32.9099 27.2232C33.7038 26.8262 33.9907 26.6349 34.1531 26.3719C34.3587 26.0469 34.4065 25.8268 34.3779 25.3057C34.3347 24.5455 34.0191 23.5843 33.3879 22.3361C32.9336 21.4228 31.9437 19.8067 31.6952 19.5532C31.6523 19.5101 31.6236 19.4577 31.6284 19.4337C31.6476 19.3811 30.8106 18.3101 30.1891 17.5881C29.6106 16.9137 28.224 15.5271 27.5065 14.9007C25.9954 13.581 24.5943 12.6389 23.5473 12.242C23.1598 12.0986 22.6866 12.0364 22.4858 12.1033ZM23.5186 13.0119C24.3793 13.4375 26.928 15.2976 27.9368 16.2347C29.7875 17.9513 31.4991 20.3231 32.8381 23.0342C33.9236 25.2338 34.0144 25.8219 33.3306 26.2714C32.3933 26.8931 30.4234 27.6246 28.1998 28.1744C26.2584 28.6574 24.9721 28.8151 22.9161 28.8151C21.3811 28.8198 20.8073 28.7817 19.502 28.5808C16.9341 28.1839 13.4197 27.0268 12.3198 26.2138C11.7365 25.7882 11.8415 25.181 12.8744 23.0818C13.8404 21.1214 15.0548 19.2469 16.3219 17.7742C16.8191 17.1859 18.0767 15.9428 18.5884 15.5219C19.8939 14.4509 21.7443 13.198 22.476 12.8872C22.83 12.7392 23.0164 12.7632 23.5186 13.0119Z" fill="white"/>
<path d="M19.1291 17.8173L19.1149 20.3228L18.6559 20.0693C18.4071 19.9259 17.6946 19.5003 17.0779 19.1226C16.3654 18.6827 15.9448 18.4532 15.9256 18.4866C15.9064 18.5153 15.8874 20.5523 15.8874 23.0149V27.4905L16.2843 27.6387C16.4996 27.7201 16.7099 27.7917 16.7481 27.8014C16.8102 27.8156 16.8247 27.3616 16.8436 24.0285L16.8676 20.2415L17.8812 20.8058C18.4406 21.1166 18.9475 21.4083 19.0144 21.4514L19.1386 21.528V28.3515L19.416 28.4041C19.5642 28.4328 19.789 28.471 19.9132 28.4902L20.1428 28.5189L20.1522 25.339L20.1665 22.1592L21.4957 22.9672L22.8202 23.7706L24.1494 22.9625L25.4739 22.1592L25.4881 25.3343C25.4976 27.9116 25.512 28.5094 25.5597 28.5094C25.5931 28.5094 25.751 28.4854 25.9087 28.4615C26.0617 28.4328 26.2625 28.3994 26.3486 28.3849L26.5015 28.361V24.9516C26.5015 22.2787 26.5157 21.5278 26.5636 21.4896C26.5923 21.4656 27.104 21.1693 27.697 20.8392L28.773 20.2415L28.7969 24.0285C28.8161 27.3613 28.8304 27.8156 28.8925 27.8014C28.9307 27.7919 29.1412 27.7201 29.361 27.6387L29.7532 27.4905V23.0149C29.7532 20.5523 29.734 18.5153 29.715 18.4866C29.6958 18.4532 29.2752 18.6827 28.5627 19.1226C27.9459 19.5003 27.2334 19.9259 26.9847 20.0693L26.5257 20.3228L26.5114 17.8173C26.502 15.7037 26.4922 15.3118 26.4349 15.3118C26.3967 15.3118 25.5694 15.7755 24.594 16.3399L22.8199 17.3727L21.0459 16.3399C20.0704 15.7755 19.2432 15.3118 19.205 15.3118C19.1481 15.3115 19.1386 15.6942 19.1291 17.8173ZM21.4959 17.7454C22.2037 18.1424 22.8014 18.4674 22.8251 18.4674C22.8444 18.4674 23.4516 18.1376 24.1688 17.731L25.4743 16.9945L25.4886 18.9599C25.4981 20.4949 25.4838 20.9395 25.4407 20.9827C25.4072 21.0113 24.8048 21.3843 24.1017 21.8099L22.8204 22.5893L21.4959 21.7765L20.1667 20.9684L20.1525 18.9746C20.1477 17.8749 20.1572 16.9902 20.1764 16.9997C20.2001 17.014 20.7931 17.3485 21.4959 17.7454Z" fill="white"/>
<path fill-rule="evenodd" clip-rule="evenodd" d="M41.0334 32.0456H40.3436V35.8458H41.0334V34.0322H44.3095V35.8458H45V32.0456H44.3095V33.6865H41.0334V32.0456ZM38.5327 32.2183C38.0248 32.0535 37.4356 31.9592 36.8089 31.9592C35.1897 31.9592 33.8777 32.8487 33.8777 33.9456C33.8777 35.043 35.1897 35.9324 36.8089 35.9324C37.4356 35.9324 38.0248 35.8372 38.5327 35.6728V35.2725C38.0495 35.4704 37.4531 35.587 36.8089 35.587C35.5943 35.587 34.6102 34.8517 34.6102 33.9456C34.6102 33.0395 35.5943 32.3048 36.8089 32.3048C37.4531 32.3048 38.0495 32.421 38.5327 32.6186V32.2183ZM28.9446 34.7229L30.1695 32.6039L31.3953 34.7229H28.9446ZM29.8253 32.0456L27.5832 35.8458H28.2951L28.7445 35.0685H31.5946L32.0442 35.8458H32.7565L30.5144 32.0456H29.8253ZM22.4097 32.3911H24.2206C24.6493 32.3911 24.9968 32.6811 24.9968 33.0388C24.9968 33.3965 24.6493 33.6865 24.2206 33.6865H22.4097V32.3911ZM24.6519 34.0319C25.1281 34.0319 25.5139 34.3604 25.5139 34.7662C25.5139 35.1717 25.1281 35.5002 24.6519 35.5002H22.4097V34.0319H24.6519ZM25.2949 33.7509C25.5365 33.5705 25.6866 33.3181 25.6866 33.0388C25.6866 32.4902 25.1073 32.0456 24.3934 32.0456H21.7198V35.8458H24.8241C25.5859 35.8458 26.2036 35.3624 26.2036 34.7662C26.2036 34.2992 25.825 33.9015 25.2949 33.7509ZM19.2443 32.0456L17.5815 33.8592L15.9187 32.0456H15.1672L17.2259 34.2907V35.8458H17.9371V34.2907L19.9957 32.0456H19.2443ZM13.2888 34.7229H10.8381L12.0636 32.6039L13.2888 34.7229ZM11.7186 32.0456L9.47688 35.8458H10.1889L10.6383 35.0685H13.4886L13.938 35.8458H14.6499L12.4084 32.0456H11.7186ZM3.24753 32.6845L5.1659 34.5186L7.08442 32.6845V35.8458H7.75246V32.0456H7.06272L5.1659 33.8592L3.26908 32.0456H2.57935V35.8458H3.24753V32.6845Z" fill="white"/>
</svg>
