<svg width="48" height="48" viewBox="0 0 48 48" fill="none" xmlns="http://www.w3.org/2000/svg">
<path fill-rule="evenodd" clip-rule="evenodd" d="M31.9363 6H16.2274L6.00006 16.2271V31.8135L16.1456 42H31.7727L42.0001 31.7727V16.1455L31.9363 6ZM38.8911 30.3818L30.3819 38.891H17.6182L9.10925 30.4228V17.6182L17.6182 9.14998H30.5453L38.8909 17.5364V30.3818H38.8911Z" fill="white"/>
<path fill-rule="evenodd" clip-rule="evenodd" d="M16.3568 19.9086L14.1886 15.4903L10.9567 18.5177V29.3587L14.0658 32.5087V21.954L16.7659 27.9677L19.8339 19.9496V36.7632H23.2703V11.1541H19.6296L16.3568 19.9086ZM25.6732 11.1541V36.7632H29.6006L37.0461 29.3587V23.9585H31.3188V27.0677H33.446C34.0189 26.9857 34.0596 27.6405 33.6504 28.1312C33.2415 28.6221 29.1095 32.6722 29.1095 32.6722V15.245L33.9367 20.2767V21.504H37.0459V18.6403L29.6822 11.1541H25.6732Z" fill="white"/>
</svg>
