<svg width="48" height="48" viewBox="0 0 48 48" fill="none" xmlns="http://www.w3.org/2000/svg">
<path fill-rule="evenodd" clip-rule="evenodd" d="M35.6181 23.8788L31.0782 31.7009L27.2055 31.7163L35.6181 17L44 31.7163H40.066L35.6181 23.8788ZM23.3942 28.3113H27.7347L25.7178 31.7163H20.066L20.0813 27.5675V17.0844H23.4095L23.3942 28.3113ZM11.5 17.092C15.6334 17.1074 18.9847 20.3742 18.9693 24.4156C18.954 28.4417 15.6104 31.7086 11.4693 31.7086C7.35123 31.6933 4 28.4264 4 24.385C4.01534 20.3589 7.3589 17.092 11.5 17.092ZM11.4847 28.3037C13.7009 28.3037 15.4801 26.5629 15.4801 24.4156C15.4954 22.2684 13.7009 20.5123 11.5 20.5123C9.29908 20.4969 7.5046 22.2531 7.5046 24.4003C7.48927 26.5475 9.28374 28.3037 11.4847 28.3037Z" fill="white"/>
</svg>
