<svg width="48" height="48" viewBox="0 0 48 48" fill="none" xmlns="http://www.w3.org/2000/svg">
<path d="M44.6183 26.335L21.6443 23.8525H21.6388L15.3503 27.1257C15.3485 27.1263 15.3469 27.1275 15.3458 27.1291C15.3446 27.1306 15.344 27.1325 15.344 27.1345C15.344 27.1364 15.3446 27.1383 15.3458 27.1399C15.3469 27.1414 15.3485 27.1426 15.3503 27.1432H43.1058L44.6174 26.358C44.6204 26.358 44.6233 26.3569 44.6256 26.3548C44.6278 26.3528 44.6292 26.35 44.6294 26.347C44.6295 26.3454 44.6293 26.3439 44.6288 26.3425C44.6283 26.341 44.6275 26.3397 44.6265 26.3386C44.6255 26.3374 44.6242 26.3365 44.6228 26.3359C44.6214 26.3353 44.6199 26.335 44.6183 26.335Z" fill="white"/>
<path d="M23.8155 11.9098C26.999 11.9105 30.0519 13.1695 32.3028 15.4097C34.5537 17.65 35.8183 20.6881 35.8186 23.8561C35.8186 24.0583 35.8139 24.2588 35.8038 24.4592L36.7277 24.5585C36.7407 24.3259 36.7471 24.0924 36.7471 23.8561C36.7433 20.8146 35.6574 17.8727 33.6818 15.552C31.7062 13.2313 28.9687 11.6817 25.9545 11.1778C22.9403 10.674 19.8442 11.2486 17.2152 12.7997C14.5861 14.3508 12.5938 16.7782 11.5917 19.6515H12.5775C13.4378 17.3773 14.9743 15.418 16.9821 14.0349C18.9899 12.6518 21.3736 11.9105 23.8155 11.9098Z" fill="white"/>
<path d="M23.8156 35.8033C22.2385 35.804 20.6767 35.4955 19.2195 34.8954C17.7622 34.2953 16.438 33.4154 15.3226 32.306C14.2072 31.1965 13.3223 29.8792 12.7187 28.4293C12.115 26.9795 11.8042 25.4255 11.8042 23.8561C11.8042 23.6529 11.8098 23.4515 11.8199 23.2502L10.896 23.1509C10.8831 23.3844 10.8766 23.6195 10.8766 23.8561C10.8798 26.8983 11.9657 29.841 13.9416 32.1623C15.9175 34.4836 18.6558 36.0335 21.6707 36.5371C24.6857 37.0407 27.7824 36.4653 30.4117 34.9132C33.0409 33.361 35.0328 30.9323 36.0339 28.0579H35.0508C34.1913 30.3324 32.6555 32.2921 30.6482 33.6759C28.6409 35.0597 26.2575 35.8018 23.8156 35.8033Z" fill="white"/>
<path d="M25.9813 23.8532H25.9859L32.2752 20.5892C32.2764 20.5888 32.2775 20.5882 32.2784 20.5874C32.2793 20.5865 32.28 20.5855 32.2806 20.5844C32.2811 20.5833 32.2814 20.5821 32.2814 20.5809C32.2814 20.5797 32.2812 20.5784 32.2808 20.5773C32.2804 20.576 32.2797 20.5748 32.2787 20.5738C32.2777 20.5729 32.2766 20.5722 32.2752 20.5718H4.51609L3.00635 21.357C3.00451 21.3576 3.0029 21.3588 3.00176 21.3603C3.00061 21.3619 3 21.3638 3 21.3657C3 21.3676 3.00061 21.3695 3.00176 21.3711C3.0029 21.3727 3.00451 21.3738 3.00635 21.3744L25.9813 23.8532Z" fill="white"/>
</svg>
