<svg width="48" height="48" viewBox="0 0 48 48" fill="none" xmlns="http://www.w3.org/2000/svg">
<path fill-rule="evenodd" clip-rule="evenodd" d="M7.90474 24.7451V23.2059C7.90474 22.7147 8.25121 22.4209 8.72906 22.4209H12.8817C13.3595 22.4209 13.706 22.7147 13.706 23.2059V24.7451C13.706 25.2365 13.3595 25.5298 12.8817 25.5298H8.72906C8.25121 25.5298 7.90474 25.2365 7.90474 24.7451ZM1.38885 22.4211H6.47976C6.96644 22.4211 7.17699 22.8859 7.17699 23.3156V23.6751C7.17699 24.2188 6.85246 24.6137 6.28686 24.6137H2.09944V25.5298H1.38885V22.4211ZM14.4733 22.4211H19.5859C19.9498 22.4211 20.2832 22.6622 20.2832 23.0437V23.8506C20.2832 24.1883 20.0199 24.3678 19.7219 24.447C20.1515 24.6487 20.2393 25.0958 20.2832 25.5298H19.5859C19.5552 25.0608 19.3534 24.6137 18.8143 24.6137H15.1837V25.5298H14.4733V22.4211ZM26.7154 22.4211V23.0437H21.9888C21.8002 23.0437 21.7213 23.1796 21.7213 23.3594C21.7213 23.5304 21.809 23.662 21.9888 23.662H25.8431C26.4745 23.662 26.8165 23.9646 26.8165 24.6092C26.8165 25.1485 26.5272 25.5298 25.9661 25.5298H21.1208V24.9072H25.8433C26.0055 24.9072 26.0758 24.767 26.0758 24.6223C26.0758 24.4561 26.041 24.2803 25.8433 24.2803H21.8398C21.3223 24.2803 21.0243 23.8814 21.0243 23.3859C21.0243 22.7676 21.3574 22.4214 21.989 22.4214H26.7154V22.4211ZM33.0822 22.4211V23.0437H28.4167C28.3072 23.0437 28.2677 23.1489 28.2677 23.2412V24.7541C28.2677 24.8464 28.3249 24.9075 28.4167 24.9075H33.0822V25.53H28.4167C27.9081 25.53 27.5621 25.1793 27.5621 24.6661V23.3334C27.5621 22.7459 27.8118 22.4214 28.4167 22.4214H33.0822V22.4211ZM33.845 22.4211H34.5599V23.6313H38.6863V22.4211H39.4183V25.5298H38.6863V24.2539H34.5599V25.5298H33.845V22.4211ZM40.1682 22.4211H46V23.0437H40.8783V23.6446H46V24.2627H40.8783V24.9072H46V25.5298H40.1682V22.4211Z" fill="white"/>
<path fill-rule="evenodd" clip-rule="evenodd" d="M9.02742 24.9072H12.6318C12.851 24.9072 13.0308 24.8108 13.0308 24.5607V23.3902C13.0308 23.1403 12.8555 23.0437 12.6318 23.0437H9.02742C8.80375 23.0437 8.62396 23.1403 8.62396 23.3902V24.5607C8.62396 24.8108 8.80804 24.9072 9.02742 24.9072ZM2.09949 23.0437V23.9908H6.15099C6.32649 23.9908 6.47982 23.9207 6.47982 23.7233V23.3728C6.47982 23.1667 6.35701 23.0439 6.15099 23.0439H2.09949V23.0437ZM15.1837 23.0437V23.9908H19.4107C19.5509 23.9908 19.586 23.8723 19.586 23.754V23.3329C19.586 23.1312 19.5116 23.0435 19.3053 23.0435H15.1837V23.0437Z" fill="white"/>
</svg>
