<svg width="48" height="48" viewBox="0 0 48 48" fill="none" xmlns="http://www.w3.org/2000/svg">
<path d="M22.9892 13.0012V21.906H19.1038V19.8206C16.2963 21.3617 13.5974 22.8442 10.772 24.3948C13.5628 25.9298 16.2581 27.4124 19.0596 28.9534V26.8752H22.9796V35.7442C22.8054 35.6738 22.6657 35.6332 22.5404 35.564C16.7284 32.3387 10.9188 29.111 5.10799 25.8845C4.5577 25.5789 4.0492 25.2507 4.00384 24.5261C3.97161 24.0068 4.13753 23.5867 4.5577 23.2835C4.81434 23.0985 5.0865 22.9313 5.36343 22.7774C11.0513 19.6141 16.7391 16.4545 22.4282 13.2948C22.5953 13.2017 22.7672 13.117 22.9892 13V13.0012Z" fill="white"/>
<path d="M37.207 24.3965C34.3852 22.8459 31.6958 21.3693 28.9098 19.8379V21.8958H25.0089V13.0232C25.2488 13.1449 25.4231 13.2261 25.5914 13.3192C31.2434 16.4586 36.8955 19.5979 42.5475 22.7397C42.7731 22.865 43.0011 22.988 43.2147 23.1312C44.27 23.8402 44.2592 25.0136 43.1957 25.6952C43.062 25.7812 42.9235 25.8587 42.785 25.9351C37.0112 29.1413 31.2363 32.3475 25.4613 35.5514C25.3276 35.6254 25.1831 35.6779 24.9933 35.7626V26.8829H28.8788V28.973C31.6934 27.426 34.3935 25.9435 37.2082 24.3965H37.207Z" fill="white"/>
</svg>
