<svg width="48" height="48" viewBox="0 0 48 48" fill="none" xmlns="http://www.w3.org/2000/svg">
<path fill-rule="evenodd" clip-rule="evenodd" d="M22.0805 9.41594C23.4149 8.77374 25.0354 8.90076 26.3139 9.61809C28.9814 11.0734 31.6539 12.5223 34.3051 14.0097C34.6613 14.1933 35.0189 14.438 35.4379 14.4218C37.6174 14.4341 39.8003 14.4039 41.9818 14.4325C41.9743 15.8195 42.1617 17.2884 41.4867 18.5634C41.1809 19.3149 40.5196 19.8132 40.0678 20.4609C39.9312 21.77 40.2885 23.1624 39.7152 24.4013C39.4149 25.2121 38.8003 25.8331 38.268 26.4931C38.1328 27.6924 38.3866 28.9432 37.975 30.1083C37.6043 31.3021 36.7762 32.3316 35.7025 32.9677C32.5431 34.7266 29.3761 36.4725 26.1928 38.1884C24.8112 38.9399 23.0682 38.9226 21.6996 38.1493C18.5687 36.5091 15.5205 34.7175 12.3998 33.0575C10.8115 32.248 9.78129 30.511 9.79139 28.7343C9.75726 27.9916 9.84154 27.2411 9.74256 26.5019C9.26961 25.9034 8.66395 25.392 8.37245 24.6659C7.67621 23.326 7.96045 21.7807 7.83827 20.3398C7.33113 19.6942 6.67093 19.1437 6.39589 18.3417C5.81527 17.1152 6.05044 15.7324 6.03065 14.4247C8.22098 14.4049 10.4115 14.4371 12.6039 14.4159C12.9206 14.4303 13.1977 14.2572 13.4652 14.1132C15.0516 13.1781 16.7124 12.374 18.2953 11.4355C19.5579 10.7625 20.7858 10.0241 22.0805 9.41594ZM23.931 15.4853C18.3522 15.4907 12.7732 15.4868 7.19374 15.4882L7.14393 15.829C7.05686 16.6276 7.15511 17.448 7.50917 18.1747C8.09003 19.475 9.50721 20.2156 10.8744 20.3583C13.0041 20.5058 15.1475 20.2706 17.2738 20.4775C17.3257 20.9484 17.3602 21.4205 17.3568 21.8935C17.3316 24.4113 17.3628 26.9304 17.3383 29.4482C17.3328 30.4645 17.066 31.4545 16.9418 32.4579C18.8208 32.5767 20.7151 32.5867 22.5941 32.4482C22.6139 31.146 22.5798 29.8459 22.5873 28.5458C22.5764 28.1752 22.6801 27.8185 22.7914 27.4697C24.0214 28.4819 24.9085 29.8261 25.9896 30.9823C26.6477 31.6765 27.4398 32.371 28.4398 32.4413C30.1646 32.5887 31.9016 32.5527 33.6264 32.4325C34.7881 32.3459 35.8224 31.6158 36.475 30.6786C37.1548 29.6534 37.3164 28.3349 37.0433 27.1513C35.0038 27.7772 32.8511 27.4608 30.7543 27.54C29.783 27.6157 29.0745 26.8623 28.4574 26.2275C29.5489 25.3927 30.6751 24.3923 30.9017 22.9589C31.1822 21.2825 31.2042 19.3172 30.0316 17.9521C28.618 16.1228 26.1665 15.4027 23.931 15.4853ZM10.8969 27.5966C10.7896 29.07 11.1913 30.6889 12.4271 31.6015C13.3281 32.4449 14.6157 32.5553 15.7875 32.4618C16.2892 30.8735 16.3316 29.1934 16.2865 27.5429C14.4955 27.5156 12.6978 27.6188 10.9252 27.3056L10.8969 27.5966ZM38.9623 21.0761C36.7447 21.691 34.4323 21.3347 32.1683 21.4677L32.058 22.2197C31.9466 22.972 31.8101 23.7229 31.4877 24.4159C31.1532 25.1716 30.4967 25.7056 30.0277 26.3691C30.9791 26.5812 31.9575 26.4674 32.9232 26.4872C33.7975 26.4763 34.6745 26.5338 35.5453 26.4335C37.049 26.254 38.351 25.1026 38.8295 23.6835C39.0472 22.8331 38.9446 21.9443 38.9623 21.0761ZM9.07655 21.5654C8.94702 23.0865 9.20938 24.8133 10.5883 25.7001C12.277 26.6966 14.3448 26.4971 16.226 26.4179C16.2765 24.7613 16.3518 23.0906 16.1791 21.4394C13.8214 21.4073 11.4536 21.551 9.10682 21.2636L9.07655 21.5654ZM22.6264 20.037C23.4952 19.9654 24.4514 19.9328 25.2103 20.4364C26.0717 21.0371 26.0088 22.5331 25.0902 23.0458C24.3347 23.4308 23.4624 23.454 22.6351 23.3769C22.5635 22.2637 22.5636 21.1482 22.6264 20.037ZM40.9164 15.5214C36.9254 15.4641 32.9308 15.4691 28.9418 15.5155C29.7384 16.2562 30.6386 16.9097 31.2406 17.8339C31.796 18.5553 32.0032 19.456 32.1976 20.3261C33.6363 20.4339 35.0783 20.3639 36.5189 20.3769C37.8159 20.3892 39.1274 19.8679 40.014 18.915C40.8179 17.9908 40.9969 16.7048 40.9164 15.5214Z" fill="white"/>
</svg>
