<svg width="48" height="48" viewBox="0 0 48 48" fill="none" xmlns="http://www.w3.org/2000/svg">
<path fill-rule="evenodd" clip-rule="evenodd" d="M8.50632 34.7757C8.41934 33.9695 6.23941 32.9882 6.23941 32.9882C5.67257 32.6399 5.91216 32.2045 5.91216 32.2045C6.26122 31.4405 8.09209 32.1607 8.09209 32.1607L8.44022 31.3327C7.47005 30.6014 6.23153 30.7542 6.23153 30.7542C4.70913 30.9282 4.48183 31.9568 4.48183 31.9568C4.13463 33.5326 5.35042 33.9064 5.35042 33.9064C6.45882 34.4274 6.7928 34.6414 6.7928 34.6414C7.70128 35.2287 6.89949 35.6165 6.89949 35.6165C5.91146 36.0831 4.669 35.4423 4.669 35.4423L4.28168 36.3505C5.31053 37.0447 6.89949 36.7515 6.89949 36.7515C8.9166 36.4572 8.50632 34.7757 8.50632 34.7757Z" fill="white"/>
<path fill-rule="evenodd" clip-rule="evenodd" d="M11.7566 35.0976C11.6866 34.4447 9.92181 33.6512 9.92181 33.6512C9.46259 33.3685 9.65718 33.0157 9.65718 33.0157C9.93967 32.3983 11.422 32.9803 11.422 32.9803L11.7037 32.31C10.9184 31.7185 9.91602 31.8417 9.91602 31.8417C8.68399 31.9825 8.50007 32.8156 8.50007 32.8156C8.21874 34.091 9.20236 34.3941 9.20236 34.3941C10.0997 34.8155 10.3701 34.9886 10.3701 34.9886C11.1049 35.4642 10.4564 35.7771 10.4564 35.7771C9.65695 36.1561 8.65083 35.637 8.65083 35.637L8.33795 36.3725C9.17059 36.9347 10.4564 36.6967 10.4564 36.6967C12.089 36.4585 11.7566 35.0976 11.7566 35.0976Z" fill="white"/>
<path fill-rule="evenodd" clip-rule="evenodd" d="M13.2324 31.9546L11.4906 36.6301L12.4939 36.6482L12.9478 35.6265H15.0494L15.5037 36.5542H16.4686L14.6518 31.9546H13.2324ZM13.2885 34.7937L13.9512 33.1655L14.6704 34.7937H13.2885ZM19.7054 35.04L17.7562 31.9926H16.4686V36.5542L17.4153 36.5728V33.5825L19.4971 36.7057H20.6897V32.0107H19.7054V35.04ZM24.929 34.0554H23.3391V34.7749H24.4185V35.8724C23.68 36.1563 22.9044 35.8538 22.9044 35.8538C21.3709 34.8324 22.2038 33.5635 22.2038 33.5635C23.1505 32.0868 25.4028 32.9959 25.4028 32.9959V32.1441C22.6577 31.2541 21.4841 32.7494 21.4841 32.7494C19.9327 34.8883 21.8626 36.2896 21.8626 36.2896C23.7559 37.463 25.5733 36.4404 25.5733 36.4404V34.7556C25.5352 33.9805 24.929 34.0554 24.929 34.0554ZM42.9331 34.0554H41.3435V34.7749H42.4215V35.8724C41.683 36.1563 40.9072 35.8538 40.9072 35.8538C39.3739 34.8324 40.2068 33.5635 40.2068 33.5635C41.1535 32.0868 43.4058 32.9959 43.4058 32.9959V32.1441C40.6611 31.2541 39.4878 32.7494 39.4878 32.7494C37.9355 34.8883 39.8656 36.2896 39.8656 36.2896C41.7591 37.463 43.5761 36.4404 43.5761 36.4404V34.7556C43.539 33.9805 42.9331 34.0554 42.9331 34.0554Z" fill="white"/>
<path fill-rule="evenodd" clip-rule="evenodd" d="M29.1877 30.9509L27.73 33.3739L26.273 31.0086H25.0052L27.1812 34.5479L25.9701 36.819H27.1242L30.4751 30.9509H29.1877ZM31.6482 31.8897C30.2747 31.8897 29.1612 33.0039 29.1612 34.3777C29.1612 35.7514 30.2747 36.8651 31.6482 36.8651C33.0222 36.8651 34.1369 35.7514 34.1369 34.3777C34.1369 33.0039 33.0222 31.8897 31.6482 31.8897ZM31.6482 35.8915C30.8121 35.8915 30.1349 35.2135 30.1349 34.3774C30.1349 33.9759 30.2944 33.5909 30.5783 33.307C30.8622 33.0231 31.2472 32.8636 31.6487 32.8636C32.0502 32.8636 32.4352 33.0231 32.7191 33.307C33.003 33.5909 33.1625 33.9759 33.1625 34.3774C33.1624 34.779 33.0029 35.1641 32.7189 35.448C32.4349 35.732 32.0498 35.8915 31.6482 35.8915ZM37.7432 34.983L35.7935 31.9735H34.4685V36.648L35.4723 36.6299V33.6014L37.5349 36.6858H38.7458V31.9544H37.7432V34.983ZM36.5963 16.4966C35.8715 13.8204 32.4083 12.4715 32.4083 12.4715C31.4842 12.1333 31.8533 12.6644 31.8533 12.6644C31.8533 12.6644 35.8383 14.4988 35.8383 17.0521C35.8383 20.2145 31.4958 21.1603 31.4958 21.1603C35.4454 19.9037 35.4568 17.2221 35.4568 17.2221C35.3874 14.541 31.8533 12.6644 31.8533 12.6644C30.4907 11.8914 29.7515 11.698 29.7515 11.698C27.973 11.1021 28.5501 11.7947 28.5501 11.7947C28.5501 11.7947 33.9154 13.4852 33.9154 17.2147C33.9154 21.0239 26.4369 22.2476 26.4369 22.2476C33.4691 20.9428 33.4705 17.2462 33.4705 17.2462C33.4705 13.9166 28.5501 11.7947 28.5501 11.7947C27.8111 11.3923 26.5578 11.068 26.5578 11.068C25.3967 10.8206 26.0554 11.3278 26.0554 11.3278C30.7678 14.0818 30.7678 17.1256 30.7678 17.1256C30.7678 20.5081 27.6666 21.3533 27.6666 21.3533C26.7656 21.7037 25.0222 21.9841 25.0222 21.9841C24.7399 22.0676 24.5425 22.2618 24.5425 22.4893C24.5425 22.5811 24.5648 22.6721 24.6318 22.7442C24.8021 22.926 25.3752 23.3523 25.3752 23.3523C25.5804 23.5455 25.7003 23.7846 25.7003 24.0435C25.7003 24.6785 24.9702 25.1938 24.0631 25.2057H23.9963C23.0895 25.1938 22.3587 24.6787 22.3587 24.0435C22.3587 23.7846 22.4793 23.5455 22.6841 23.3523C22.6841 23.3523 23.2569 22.926 23.4272 22.7442C23.4942 22.6721 23.5172 22.5814 23.5172 22.4893C23.5172 22.2618 23.3193 22.0676 23.0373 21.9841C23.0373 21.9841 21.2936 21.704 20.3926 21.3533C20.3926 21.3533 17.2914 20.5084 17.2914 17.1256C17.2914 17.1256 17.2914 14.0815 22.0038 11.3278C22.0038 11.3278 22.6623 10.8206 21.5014 11.068C21.5014 11.068 20.2481 11.3923 19.5091 11.7947C19.5091 11.7947 14.5889 13.9164 14.5889 17.2462C14.5889 17.2462 14.5899 20.9428 21.6227 22.2476C21.6227 22.2476 14.1441 21.0242 14.1441 17.2147C14.1441 13.4852 19.5091 11.7947 19.5091 11.7947C19.5091 11.7947 20.0862 11.1021 18.3077 11.698C18.3077 11.698 17.5686 11.8912 16.2057 12.6644C16.2057 12.6644 12.6713 14.541 12.6022 17.2221C12.6022 17.2221 12.6136 19.9037 16.5636 21.1603C16.5636 21.1603 12.2209 20.2143 12.2209 17.0521C12.2209 14.4988 16.2057 12.6644 16.2057 12.6644C16.2057 12.6644 16.5752 12.1331 15.6514 12.4715C15.6514 12.4715 12.1875 13.8206 11.4632 16.4966C11.4632 16.4966 11.2435 17.5048 11.565 18.2412C11.9547 19.143 12.9707 20.6366 15.5586 21.4737C15.5586 21.4737 16.7369 21.9575 21.4495 22.8996L21.7271 22.9629C21.7271 22.9629 21.9298 23.0517 21.7846 23.2118L21.1354 23.7698C21.1354 23.7698 20.1834 24.5022 21.5423 25.1187C21.5423 25.1187 22.3714 25.4012 22.9559 26.0269C22.9559 26.0269 23.3318 26.3846 23.9685 26.4024V26.405H24.0109C24.0128 26.405 24.0144 26.4057 24.0158 26.4057V26.405H24.0432V26.4057L24.048 26.405H24.0773V26.4041C24.7223 26.3902 25.1029 26.0269 25.1029 26.0269C25.6876 25.4012 26.5163 25.1187 26.5163 25.1187C27.8756 24.5022 26.9231 23.7698 26.9231 23.7698L26.2744 23.2118C26.1294 23.0517 26.3319 22.9629 26.3319 22.9629L26.609 22.8996C31.3214 21.9575 32.5001 21.4737 32.5001 21.4737C35.088 20.6366 36.1041 19.1432 36.4942 18.2412C36.8159 17.5048 36.5963 16.4966 36.5963 16.4966Z" fill="white"/>
</svg>
