<svg width="48" height="48" viewBox="0 0 48 48" fill="none" xmlns="http://www.w3.org/2000/svg">
<path d="M13.7598 33.707H11.3428V40.4834H8.41705V33.707H6.00006V31.4062H13.7598V33.707ZM24.1905 40.4834H20.8839L18.8487 34.6025L16.6856 40.4834H13.5049L16.8126 31.4062H20.502L24.1905 40.4834ZM31.5694 33.707H29.1524V40.4834H26.2266V33.707H23.8096V31.4062H31.5694V33.707ZM42.0001 40.4834H38.6924L36.6573 34.6025L34.4952 40.4834H31.3145L34.6221 31.4062H38.3116L42.0001 40.4834ZM23.6485 8C29.5419 8.00013 34.6282 10.4654 36.8643 13.9805C33.4981 13.059 29.6016 12.349 25.5547 12.4844C24.9093 12.506 24.4102 12.6743 24.4102 13.2832V27.9424C23.9135 27.9606 23.4157 27.9608 22.919 27.9434V13.2832C22.919 12.6741 22.4198 12.5061 21.7745 12.4844C17.7118 12.3484 13.8002 13.0644 10.4249 13.9912C12.6572 10.47 17.7489 8 23.6485 8ZM19.8663 14.7861C20.6316 14.8096 20.6398 15.422 20.5059 16.3213L18.8565 27.3887C13.2524 26.0173 9.21896 22.3135 9.21881 17.9785C9.21881 17.3679 9.29869 16.7694 9.45221 16.1885C13.0357 15.2973 15.5584 14.6548 19.8663 14.7861ZM27.463 14.7861C31.7566 14.6553 34.2766 15.2936 37.8419 16.1797C37.9981 16.7664 38.0778 17.3714 38.0782 17.9785C38.0779 22.3053 34.059 26.0033 28.4717 27.3809L26.8233 16.3203C26.6895 15.4211 26.6977 14.8095 27.463 14.7861Z" fill="white"/>
</svg>
