<svg width="48" height="48" viewBox="0 0 48 48" fill="none" xmlns="http://www.w3.org/2000/svg">
<g clip-path="url(#clip0_42_7324)">
<path d="M23.5033 42.6906C20.862 37.2514 18.2208 31.8122 15.5676 26.3489C16.9349 25.3693 18.3015 24.3905 19.6897 23.3965C16.5721 21.9268 13.4883 20.4583 10.3975 19.0042C10.402 18.9927 10.4068 18.9811 10.4113 18.9692H37.0988C37.1044 18.98 37.1096 18.9912 37.1151 19.002C32.5874 22.155 28.0597 25.3079 23.5345 28.4594V42.6816C23.5241 42.6846 23.5137 42.6876 23.5033 42.6909V42.6906Z" fill="white"/>
<path d="M24.3213 28.6385C26.207 27.3426 28.0898 26.0486 29.9767 24.752C30.7072 25.1338 31.4333 25.513 32.1698 25.8978C29.4076 31.209 26.6532 36.5049 23.8992 41.8004C23.8903 41.7959 23.8814 41.7918 23.8724 41.7874C24.0217 37.4115 24.1713 33.0356 24.3213 28.6385Z" fill="white"/>
<path d="M31.0473 5.14726H32.8735C32.8735 5.37838 32.8735 5.59944 32.8735 5.82088C32.8735 6.03785 32.8735 6.2552 32.8735 6.47217C32.8735 6.69547 32.8709 6.91876 32.8743 7.14206C32.8776 7.35457 32.8594 7.56819 32.8862 7.80972C33.654 6.90574 34.3976 6.03004 35.1497 5.14429H37.3332C36.488 6.10186 35.6637 7.03599 34.8293 7.98129C35.6916 9.24069 36.5494 10.4934 37.4024 11.7394C37.3667 11.7882 37.3343 11.7785 37.3049 11.7785C36.6663 11.7781 36.0273 11.774 35.3886 11.7796C35.2673 11.7807 35.1962 11.7394 35.1307 11.6419C34.6674 10.9552 34.1996 10.2716 33.7332 9.58718C33.6748 9.50158 33.6257 9.40854 33.542 9.33038C33.36 9.496 33.2163 9.69213 33.0436 9.85848C32.9137 9.9839 32.8642 10.1197 32.8702 10.3025C32.8836 10.7424 32.8743 11.183 32.8735 11.6233C32.8735 11.6661 32.884 11.7104 32.8512 11.7651H31.063C31.063 11.7651 31.0566 11.7606 31.0525 11.7561C31.0485 11.7517 31.0436 11.7468 31.0425 11.7413C31.038 11.7234 31.0317 11.7055 31.0317 11.6873C31.0306 9.52912 31.0298 7.37094 31.0298 5.21239C31.0298 5.1949 31.0391 5.17741 31.0477 5.14652L31.0473 5.14726Z" fill="white"/>
<path d="M13.8125 11.7691H11.9725V6.74792H10.0001V5.14575H15.801V6.7494C15.1434 6.75722 14.4895 6.75052 13.8125 6.75462V11.7691Z" fill="white"/>
<path d="M18.667 23.457C18.1098 23.8384 17.5877 24.1961 17.0417 24.5697C14.722 22.9211 12.4008 21.2597 10.064 19.5943C10.1031 19.5746 10.1169 19.5619 10.1239 19.5649C12.9569 20.8548 15.7894 22.1455 18.667 23.4566V23.457Z" fill="white"/>
<path d="M13.2011 16.824H12.4158V15.2312C12.4039 15.2274 12.392 15.2241 12.3801 15.2204C12.1463 15.5769 11.9126 15.9331 11.6651 16.3108C11.4221 15.9416 11.1906 15.5896 10.9588 15.2375C10.9476 15.2408 10.9364 15.2442 10.9253 15.2475V16.821H10.1329V13.9405H10.9897C11.2092 14.297 11.4322 14.6584 11.6703 15.0443C11.9108 14.6584 12.1382 14.2933 12.3607 13.936H13.2011V16.8244V16.824Z" fill="white"/>
<path d="M37.1937 14.2787C37.0679 14.4585 36.938 14.6434 36.8029 14.8362C36.6019 14.687 36.3857 14.6018 36.1535 14.5571C36.0362 14.5348 35.9198 14.5255 35.81 14.588C35.679 14.6624 35.6715 14.7934 35.7947 14.8831C35.8814 14.946 35.9849 14.9657 36.0861 14.9922C36.3191 15.0536 36.5565 15.0975 36.778 15.1987C37.0619 15.3286 37.2636 15.5236 37.2815 15.8504C37.2997 16.1853 37.197 16.473 36.9015 16.6654C36.7545 16.7611 36.5941 16.8266 36.4207 16.8507C35.8156 16.9352 35.2688 16.7975 34.7698 16.4086C34.8855 16.2024 35.0638 16.0573 35.1963 15.8645C35.2949 15.9248 35.3812 15.981 35.4713 16.0312C35.6857 16.1503 35.9149 16.2121 36.1617 16.2117C36.2391 16.2117 36.3109 16.1942 36.376 16.1604C36.4988 16.0964 36.5104 15.9628 36.4025 15.8731C36.3303 15.8132 36.2406 15.7897 36.1516 15.764C35.9146 15.6955 35.6712 15.6528 35.4412 15.556C35.1483 15.4328 34.9328 15.2571 34.9045 14.9144C34.8732 14.5329 35.008 14.2382 35.3418 14.042C35.5454 13.9222 35.7709 13.8846 36.0016 13.8805C36.4073 13.8731 36.7843 13.9747 37.1248 14.2006C37.1401 14.2106 37.1561 14.2207 37.1691 14.2333C37.1773 14.2415 37.181 14.2542 37.194 14.2784L37.1937 14.2787Z" fill="white"/>
<path d="M22.9696 13.9338V14.6313H22.1274C22.1274 14.6313 22.1155 16.6253 22.1155 16.8192H21.3153V14.6391H20.4594V13.9338H22.9696Z" fill="white"/>
<path d="M28.7593 9.48668C28.7891 9.42416 28.8289 9.42081 28.8613 9.40443C29.4333 9.12308 29.8408 8.69844 30.0183 8.07358C30.1289 7.68504 30.1371 7.29278 30.0615 6.89754C29.9379 6.25407 29.5848 5.78142 29.0046 5.47773C28.5673 5.24885 28.0954 5.15135 27.6078 5.14725C26.5226 5.13795 25.4374 5.14167 24.3518 5.14093C24.3101 5.14093 24.2643 5.12827 24.2245 5.1707V11.7673H26.0537V9.7725H26.8575C26.8795 9.79744 26.9029 9.81828 26.9197 9.84359C27.3127 10.4357 27.7076 11.0263 28.0957 11.6218C28.1672 11.7312 28.2401 11.7848 28.3786 11.7826C28.9614 11.7733 29.5446 11.7777 30.1274 11.7747C30.1795 11.7747 30.2364 11.8004 30.3023 11.7457C29.7854 10.9891 29.268 10.2325 28.7589 9.48705L28.7593 9.48668ZM27.8203 8.2176C27.6789 8.28608 27.5252 8.31548 27.3704 8.31772C26.9558 8.3233 26.5412 8.32032 26.1262 8.31958C26.1091 8.31958 26.092 8.3099 26.0566 8.29948V6.75947C26.095 6.70997 26.1404 6.7189 26.1828 6.7189C26.5542 6.71816 26.9257 6.71592 27.2967 6.7189C27.4705 6.72002 27.6395 6.7457 27.8032 6.81455C28.1218 6.9489 28.2587 7.1949 28.2621 7.52836C28.2651 7.854 28.1076 8.07916 27.8203 8.21798V8.2176Z" fill="white"/>
<path d="M23.1996 7.79718C23.0813 7.1645 22.8107 6.61258 22.3767 6.14291C21.6596 5.36658 20.7537 5.02159 19.7121 5C19.5182 5.00595 19.3276 5.01191 19.1363 5.04019C18.3391 5.15817 17.6521 5.49163 17.0812 6.06216C16.6034 6.53964 16.3012 7.11538 16.1705 7.77225C16.0894 8.17902 16.0838 8.5925 16.1482 9.00969C16.2241 9.50281 16.3927 9.9561 16.6696 10.3651C17.1486 11.073 17.8069 11.5378 18.6313 11.7693C19.296 11.9557 19.9644 11.9673 20.6294 11.7942C21.4999 11.5679 22.1992 11.0856 22.7035 10.3342C23.0198 9.86306 23.197 9.33831 23.2469 8.77746C23.2759 8.45219 23.261 8.12469 23.2 7.79718H23.1996ZM21.3704 8.5363C21.3511 9.0015 21.1981 9.41684 20.8665 9.75886C20.5424 10.0934 20.1475 10.2464 19.6049 10.2535C18.9651 10.2207 18.4355 9.88614 18.1508 9.22071C17.8617 8.54523 17.9286 7.88911 18.3689 7.29141C18.8203 6.67846 19.6417 6.54373 20.2543 6.76071C20.9443 7.00559 21.4035 7.73429 21.3704 8.53593V8.5363Z" fill="white"/>
<path d="M32.2119 15.8446C32.2334 15.7914 32.2699 15.7824 32.3034 15.765C32.9379 15.4352 32.9413 14.4583 32.3842 14.1192C32.1765 13.9927 31.9499 13.9347 31.7132 13.9306C31.2238 13.9216 30.7344 13.928 30.2275 13.928V16.8189H31.0153C31.0232 16.5238 31.0105 16.241 31.0228 15.9548H31.3626C31.59 16.2346 31.7426 16.564 31.9688 16.8241H32.8777C32.6451 16.4825 32.4255 16.1598 32.2111 15.8446H32.2119ZM31.8002 15.2689C31.7679 15.286 31.7318 15.3009 31.696 15.3061C31.4757 15.337 31.255 15.3161 31.0261 15.3236V14.6213C31.2792 14.6179 31.5237 14.5841 31.7645 14.6544C31.8966 14.6931 31.9752 14.8074 31.9796 14.9481C31.9841 15.0902 31.9275 15.2004 31.7999 15.2685L31.8002 15.2689Z" fill="white"/>
<path d="M18.1839 14.4087C17.7742 13.9372 17.2405 13.7891 16.6372 13.907C15.7191 14.0868 15.2535 14.9521 15.4567 15.7626C15.6361 16.4776 16.3171 16.9033 16.9815 16.8825C17.1534 16.8884 17.3384 16.8538 17.5237 16.7906C18.5583 16.4359 18.8482 15.1728 18.1839 14.4087ZM17.696 15.5386C17.6402 15.804 17.4995 16.0049 17.2297 16.1155C16.9297 16.2383 16.5758 16.1229 16.3893 15.8668C16.0883 15.4534 16.2286 14.9003 16.6119 14.6882C16.7276 14.6242 16.8493 14.587 16.9744 14.5952C17.4928 14.6034 17.7898 15.0957 17.6964 15.5386H17.696Z" fill="white"/>
<path d="M27.571 14.2998C27.095 13.8546 26.3667 13.743 25.7556 14.027C24.9357 14.4081 24.6935 15.3813 25.0627 16.0709C25.357 16.6206 25.8356 16.8632 26.2856 16.8829C26.9919 16.8852 27.4478 16.6563 27.7538 16.235C28.1572 15.679 28.1084 14.8018 27.571 14.2998ZM26.1873 16.1092C25.8513 15.9711 25.66 15.5826 25.7344 15.2104C25.8051 14.8565 26.072 14.618 26.4021 14.5964C26.8911 14.5647 27.2078 14.9804 27.2007 15.398C27.1873 15.9127 26.702 16.321 26.1873 16.1092Z" fill="white"/>
</g>
<defs>
<clipPath id="clip0_42_7324">
<rect width="27.4028" height="37.6905" fill="white" transform="translate(10.0001 5)"/>
</clipPath>
</defs>
</svg>
