<svg width="48" height="48" viewBox="0 0 48 48" fill="none" xmlns="http://www.w3.org/2000/svg">
<g clip-path="url(#clip0_42_7273)">
<path d="M9.19817 34.6834H7.8084L7.26662 36.6856H14.0035L14.5217 34.6834H12.8964L14.5217 28.0172H15.6288L15.5346 29.1243H17.8666L18.8088 25.6145H7.5964L6.67773 29.1243H9.10395L9.59861 27.9936H10.7999L9.19817 34.6834ZM26.7706 25.6145H31.9763L25.0275 36.6856H20.6697L20.0573 27.6167H19.1621L19.6804 25.6145H25.4515L24.9332 27.6167H23.9439L23.9204 33.2936L27.2417 27.6167H26.1346L26.7706 25.6145ZM40.1265 28.8887C40.1265 27.7816 40.4799 26.7923 40.9274 25.7794C38.9723 25.4261 36.8523 25.2847 34.9208 25.7794C33.8372 26.0621 32.7066 26.7452 32.0941 27.711C31.3874 28.7945 31.5523 30.1843 32.4239 31.1029C32.8714 31.5505 33.4132 31.8567 33.9785 32.1158C34.4261 32.3278 35.2034 32.6576 35.3212 33.1758C35.651 34.4949 33.531 34.6127 32.7065 34.3536V33.3172H30.4923L29.6443 36.4029C31.623 36.8976 33.6959 37.0625 35.6981 36.6149C36.8994 36.3323 37.983 35.7198 38.7839 34.754C39.4434 33.9296 39.8203 32.3985 39.1136 31.5034C38.7132 31.0087 38.2656 30.6318 37.7239 30.3256C37.2056 30.0194 36.6403 29.831 36.1692 29.4776C35.6039 29.0536 35.6039 28.3941 36.2163 28.0172C36.6874 27.711 37.4648 27.8523 37.983 27.9465L38.0772 28.8652H40.1265V28.8887Z" fill="white"/>
<path d="M33.8609 12.2606C32.9422 11.9073 32.0707 11.9308 31.1285 12.1664C30.2098 12.4019 29.5503 12.9202 28.82 13.4855C28.0898 14.0508 27.3125 14.6161 26.4645 14.993C25.5929 15.3699 24.6036 15.7704 23.6614 15.3935C24.3445 15.417 24.9805 15.2757 25.5694 14.8988C26.0169 14.6161 26.7943 14.0273 26.9592 13.4855H26.1818C26.7471 12.873 27.4538 12.4019 28.2311 12.1193L27.8543 11.6717C28.8907 10.965 30.0214 10.6353 31.2698 10.5882C31.8587 10.5646 32.4476 10.6353 32.9894 10.8002C33.5782 10.965 34.0258 11.2477 34.4498 11.6717L33.8609 12.2606ZM18.9503 14.7339C18.6205 14.7339 18.3378 14.7575 18.0081 14.8517C17.7018 14.9459 17.4192 15.0637 17.113 15.1815C16.5476 15.417 16.0058 15.7233 15.4641 16.0059C15.2285 16.1237 14.9459 16.265 14.6867 16.3121C14.4041 16.3593 14.0272 16.3593 13.7681 16.2415C13.4854 16.1001 13.2499 15.9588 13.0143 15.7468C12.7787 15.5348 12.5432 15.3228 12.3076 15.1579C12.0485 14.993 11.7894 14.8753 11.5303 14.7104C11.6481 14.7104 12.2605 14.6868 12.0956 14.4277C11.9543 14.2157 11.6245 14.1215 11.3654 14.0744C10.7765 13.9566 10.1876 13.9566 9.59875 13.9566C10.0934 13.5326 10.6352 13.3206 11.2948 13.3206C11.9072 13.3206 12.4019 13.6033 12.9201 13.9095C13.1792 14.0744 13.4854 14.357 13.7445 14.5219C14.0036 14.6868 14.2863 14.781 14.569 14.8753C15.1107 15.0637 15.7938 14.9695 16.3356 14.781C16.7832 14.6161 17.1836 14.4277 17.6783 14.4277C18.1258 14.357 18.5498 14.4748 18.9503 14.7339Z" fill="white"/>
<path d="M14.3333 19.4685C15.299 19.4214 16.0999 18.4792 16.6417 17.7725C17.2306 17.0188 17.631 15.8881 18.5497 15.4641C19.9159 14.8517 21.3528 15.3699 22.6012 16.0294C23.779 16.6183 25.4279 16.5241 26.6057 16.0059C27.9012 15.4405 28.8906 14.4748 29.9977 13.6503C31.0341 12.873 32.3768 12.3312 33.9785 12.7552L34.6852 11.9072L34.8265 13.297L37.3234 15.8174L36.8288 16.4063H35.227V16.0059C34.7559 15.6761 34.2612 15.4405 33.6723 15.5112C33.0599 15.5819 32.4003 15.8645 32.4946 16.5948C32.5652 17.0894 33.2719 17.537 33.6252 17.7961C34.1199 18.1259 34.6381 18.4321 35.1563 18.7619C36.2163 19.4214 37.2292 20.1516 38.2185 20.929C39.1372 21.6592 40.0794 22.413 40.7861 23.3316L38.619 22.9076C39.0194 22.625 38.5483 22.3188 38.2892 22.1068C37.9594 21.8476 37.6296 21.6356 37.2528 21.4236C36.5225 21.0232 35.7452 20.8112 34.9443 20.6228C33.4132 20.2459 31.4346 20.0103 30.0919 20.9761C30.0448 20.9996 29.9977 21.0468 29.9506 21.0703L29.1968 20.4343C26.7706 21.2588 24.0617 21.0468 21.8239 19.8219C20.9053 20.4579 19.8453 20.5992 18.7853 20.717C17.7724 20.8348 16.7124 20.7641 15.6759 20.6699C13.2026 22.7192 9.83417 23.9205 6.67773 22.837L8.79773 22.2952V22.7663C11.0826 22.7663 12.9906 21.1645 14.3333 19.4685Z" fill="white"/>
</g>
<defs>
<clipPath id="clip0_42_7273">
<rect width="48" height="48" fill="white"/>
</clipPath>
</defs>
</svg>
