<svg width="48" height="48" viewBox="0 0 48 48" fill="none" xmlns="http://www.w3.org/2000/svg">
<g clip-path="url(#clip0_42_7135)">
<path d="M41.3516 6.72299L33.1507 6.69816L33.0265 7.26972C33.0265 7.26972 34.9649 8.21409 35.5116 8.71109C36.0583 9.20812 36.156 9.30279 36.156 9.30279L33.5543 11.8529C34.5293 12.6425 35.4036 13.5285 36.1906 14.4982L38.6677 11.9169L40.8546 14.8494H41.3516V6.72299Z" fill="white"/>
<path d="M38.9219 13.8881L37.0607 15.7322L37.06 15.7326C38.5494 18.0793 39.4249 20.8562 39.4554 23.84C39.5425 32.3699 32.6983 39.3554 24.1683 39.4425C15.6384 39.5297 8.65293 32.6854 8.56578 24.1555C8.47864 15.6256 15.3229 8.6401 23.8528 8.55299C26.9821 8.521 29.9029 9.4228 32.3521 10.9976L34.2625 9.18495C31.2725 7.10687 27.7265 5.98718 24.0138 5.98718C23.9517 5.98718 23.8889 5.98744 23.8265 5.98814C19.016 6.03728 14.5125 7.95679 11.1457 11.3931C7.77895 14.8294 5.95179 19.3711 6.00097 24.1817C6.04974 28.9597 7.94722 33.4414 11.3439 36.8015C14.738 40.1592 19.2353 42.0083 24.0073 42.0083C24.0694 42.0083 24.1322 42.008 24.1945 42.0074C34.1252 41.9059 42.1217 33.7444 42.0202 23.8138C41.9835 20.2207 40.901 16.7951 38.9219 13.8881Z" fill="white"/>
<path d="M14.333 22.728H14.969L13.9055 24.6945L12.8277 22.7284L13.6006 22.728L13.6004 22.2388H10.4057L10.405 22.7284H11.1362L12.6221 25.4279L14.3425 25.4292L15.803 22.728L16.535 22.7284V22.2388H14.333V22.728Z" fill="white"/>
<path d="M25.1339 24.9339H24.4528V22.7277H25.1874V22.2392L22.2378 22.2388L22.2381 22.7277H22.9805L22.9814 24.9346H22.2378V25.4292L26.6654 25.4288V23.9515H26.1788C26.1788 24.5171 25.7651 24.9339 25.1339 24.9339Z" fill="white"/>
<path d="M19.1591 22.175C17.6945 22.175 16.9166 22.9056 16.9166 23.8224C16.9166 24.7519 17.6656 25.4929 19.1676 25.4929C20.6691 25.4929 21.4101 24.7519 21.4101 23.8224C21.4101 22.9056 20.624 22.175 19.1591 22.175ZM19.1429 24.9911C18.6081 24.9814 18.3729 24.3903 18.3832 23.8029C18.3938 23.1946 18.6849 22.6641 19.1859 22.6728C19.6869 22.6816 19.9515 23.2222 19.9407 23.8302C19.9306 24.4039 19.6938 25.0011 19.1429 24.9911Z" fill="white"/>
<path d="M30.4536 22.728H31.0896L30.0262 24.6945L28.9484 22.7284L29.7213 22.728L29.7211 22.2388H26.5263L26.5256 22.7284H27.2569L28.7427 25.4279L30.4631 25.4292L31.9236 22.728L32.6556 22.7284V22.2388H30.4536V22.728Z" fill="white"/>
<path d="M35.2715 22.1602C33.7948 22.1602 33.0106 22.8969 33.0106 23.8212C33.0106 24.7583 33.7658 25.5054 35.28 25.5054C36.7939 25.5054 37.541 24.7583 37.541 23.8212C37.541 22.8969 36.7484 22.1602 35.2715 22.1602ZM35.2551 24.9994C34.7159 24.9897 34.4789 24.3937 34.4892 23.8015C34.4999 23.1882 34.7934 22.6534 35.2985 22.6622C35.8037 22.6711 36.0703 23.2161 36.0594 23.8291C36.0492 24.4074 35.8105 25.0096 35.2551 24.9994Z" fill="white"/>
</g>
<defs>
<clipPath id="clip0_42_7135">
<rect width="36" height="36" fill="white" transform="translate(6 6)"/>
</clipPath>
</defs>
</svg>
