<svg width="24" height="24" viewBox="0 0 24 24" fill="none" xmlns="http://www.w3.org/2000/svg">
<path d="M11.9961 2C6.47551 2 2 6.47551 2 11.9961C2 13.8148 2.4936 15.5148 3.34155 16.9832C3.93443 18.0945 3.26848 20.7224 2 21.9923C3.72347 22.086 5.99432 21.307 7.0091 20.6507C7.68332 21.0395 8.75188 21.5552 10.1513 21.8199C10.7483 21.933 11.366 21.9923 11.9961 21.9923C17.5168 21.9923 21.9923 17.5168 21.9923 11.9961C21.9923 6.47551 17.5168 2 11.9961 2Z" fill="#757575" stroke="#757575" stroke-width="1.8" stroke-linecap="round" stroke-linejoin="round"/>
<path d="M12.3421 13.3747C11.4859 13.3747 10.791 12.6783 10.791 11.8236C10.791 10.9689 11.4859 10.2725 12.3421 10.2725C13.1984 10.2725 13.8933 10.9689 13.8933 11.8236C13.8933 12.6783 13.1984 13.3747 12.3421 13.3747Z" fill="#121312"/>
<path d="M7.68784 13.3747C6.83162 13.3747 6.13672 12.6783 6.13672 11.8236C6.13672 10.9689 6.83162 10.2725 7.68784 10.2725C8.54407 10.2725 9.23897 10.9689 9.23897 11.8236C9.23897 12.6783 8.54407 13.3747 7.68784 13.3747Z" fill="#121312"/>
<path d="M16.9945 13.3747C16.1383 13.3747 15.4434 12.6783 15.4434 11.8236C15.4434 10.9689 16.1383 10.2725 16.9945 10.2725C17.8507 10.2725 18.5456 10.9689 18.5456 11.8236C18.5456 12.6783 17.8507 13.3747 16.9945 13.3747Z" fill="#121312"/>
</svg>
