<svg width="32" height="32" viewBox="0 0 32 32" fill="none" xmlns="http://www.w3.org/2000/svg">
<path d="M2.66797 15.9984C2.66797 10.6558 2.66797 7.98449 4.23006 6.32477C5.79217 4.66504 8.30632 4.66504 13.3346 4.66504H18.668C23.6962 4.66504 26.2105 4.66504 27.7725 6.32477C29.3346 7.98449 29.3346 10.6558 29.3346 15.9984C29.3346 21.3409 29.3346 24.0122 27.7725 25.672C26.2105 27.3317 23.6962 27.3317 18.668 27.3317H13.3346C8.30632 27.3317 5.79217 27.3317 4.23006 25.672C2.66797 24.0122 2.66797 21.3409 2.66797 15.9984Z" stroke="black" stroke-width="2"/>
<path d="M9.18414 14.4419C10.4356 13.7108 11.5278 14.0053 12.184 14.4747C12.453 14.6671 12.5875 14.7633 12.6667 14.7633C12.7458 14.7633 12.8803 14.6671 13.1494 14.4747C13.8055 14.0053 14.8977 13.7108 16.1492 14.4419C17.7916 15.4013 18.1632 18.5667 14.3749 21.2371C13.6533 21.7457 13.2926 22 12.6667 22C12.0408 22 11.68 21.7457 10.9585 21.2371C7.17014 18.5667 7.54176 15.4013 9.18414 14.4419Z" stroke="black" stroke-width="2" stroke-linecap="round"/>
<path d="M24 22H20" stroke="black" stroke-width="2" stroke-linecap="round" stroke-linejoin="round"/>
</svg>
