<svg width="40" height="40" viewBox="0 0 40 40" fill="none" xmlns="http://www.w3.org/2000/svg">
<circle cx="20" cy="20" r="20" fill="url(#paint0_linear_6906_89143)"/>
<g style="mix-blend-mode:luminosity">
<path d="M20 32C26.6274 32 32 26.6274 32 20C32 13.3726 26.6274 8 20 8C13.3726 8 8 13.3726 8 20C8 26.6274 13.3726 32 20 32Z" fill="url(#paint1_linear_6906_89143)"/>
<path opacity="0.8" d="M20.0002 28.7992C24.8603 28.7992 28.8002 24.8593 28.8002 19.9992C28.8002 15.1391 24.8603 11.1992 20.0002 11.1992C15.1401 11.1992 11.2002 15.1391 11.2002 19.9992C11.2002 24.8593 15.1401 28.7992 20.0002 28.7992Z" fill="white"/>
<path d="M20.0002 24.7984C19.3377 24.7984 18.8002 24.2616 18.8002 23.5984C18.8002 22.9352 19.3377 22.3984 20.0002 22.3984C20.6627 22.3984 21.2002 22.9352 21.2002 23.5984C21.2002 24.2616 20.6627 24.7984 20.0002 24.7984Z" fill="url(#paint2_linear_6906_89143)"/>
<path d="M20.0002 21.1992C19.3377 21.1992 18.8002 20.6624 18.8002 19.9992C18.8002 19.5687 18.8002 17.6747 18.8002 16.3985C18.8002 15.7357 19.3374 15.1992 20.0002 15.1992C20.6629 15.1992 21.2002 15.7358 21.2002 16.3985C21.2002 17.7474 21.2002 19.7797 21.2002 19.9992C21.2002 20.6624 20.6627 21.1992 20.0002 21.1992Z" fill="url(#paint3_linear_6906_89143)"/>
</g>
<defs>
<linearGradient id="paint0_linear_6906_89143" x1="20" y1="0" x2="20" y2="40" gradientUnits="userSpaceOnUse">
<stop stop-color="#DC2626" stop-opacity="0.56"/>
<stop offset="1" stop-color="#EF4444" stop-opacity="0.08"/>
</linearGradient>
<linearGradient id="paint1_linear_6906_89143" x1="23.3591" y1="42.2098" x2="23.3591" y2="-0.311522" gradientUnits="userSpaceOnUse">
<stop stop-color="#7D7D7F"/>
<stop offset="1" stop-color="white"/>
</linearGradient>
<linearGradient id="paint2_linear_6906_89143" x1="20.0002" y1="22.3984" x2="20.4663" y2="25.9936" gradientUnits="userSpaceOnUse">
<stop stop-color="#FFAB00"/>
<stop offset="1" stop-color="#FFC400"/>
</linearGradient>
<linearGradient id="paint3_linear_6906_89143" x1="20.0002" y1="18.7992" x2="20.4663" y2="22.3944" gradientUnits="userSpaceOnUse">
<stop stop-color="#FFAB00"/>
<stop offset="1" stop-color="#FFC400"/>
</linearGradient>
</defs>
</svg>
