<svg width="20" height="20" viewBox="0 0 20 20" fill="none" xmlns="http://www.w3.org/2000/svg">
<path d="M16.684 13.3833C17.5423 13.3833 18.1257 12.75 18.1257 11.8167V9.975C18.1257 9.5 17.8007 9.08333 17.334 8.96667L13.959 8.125L12.9257 6.85C11.9757 5.68333 10.5423 5 9.03398 5H4.67565C3.96732 5 3.30898 5.35833 2.92565 5.95833L1.92565 7.50833C1.61732 7.98333 1.45898 8.53333 1.45898 9.1V11.825C1.45898 12.775 2.07565 13.3917 2.95898 13.3917" stroke="#F5F5F5" stroke-width="1.25" stroke-miterlimit="10"/>
<path d="M14.4832 15.2081C15.4915 15.2081 16.3082 14.3914 16.3082 13.3831C16.3082 12.3748 15.4915 11.5581 14.4832 11.5581C13.4749 11.5581 12.6582 12.3748 12.6582 13.3831C12.6582 14.3914 13.4749 15.2081 14.4832 15.2081Z" stroke="#F5F5F5" stroke-width="1.25" stroke-linejoin="round"/>
<path d="M4.7918 15.2081C5.80013 15.2081 6.6168 14.3914 6.6168 13.3831C6.6168 12.3748 5.80013 11.5581 4.7918 11.5581C3.78346 11.5581 2.9668 12.3748 2.9668 13.3831C2.9668 14.3914 3.78346 15.2081 4.7918 15.2081Z" stroke="#F5F5F5" stroke-width="1.25" stroke-linejoin="round"/>
<path d="M1.85156 8.125H13.9682" stroke="#F5F5F5" stroke-width="1.25" stroke-miterlimit="10"/>
<path d="M7.05859 13.3833H12.5336" stroke="#F5F5F5" stroke-width="1.25" stroke-miterlimit="10"/>
</svg>
