<svg preserveAspectRatio="none" width="100%" height="100%" overflow="visible" style="display: block;" viewBox="0 0 17.9167 11.4583" fill="none" xmlns="http://www.w3.org/2000/svg">
<g id="Group 1171276077">
<path id="Vector" d="M15.85 9.00833C16.7083 9.00833 17.2917 8.375 17.2917 7.44167V5.6C17.2917 5.125 16.9667 4.70833 16.5 4.59167L13.125 3.75L12.0917 2.475C11.1417 1.30833 9.70833 0.625 8.2 0.625H3.84167C3.13333 0.625 2.475 0.983333 2.09167 1.58333L1.09167 3.13333C0.783333 3.60833 0.625 4.15833 0.625 4.725V7.45C0.625 8.4 1.24167 9.01667 2.125 9.01667" stroke="var(--stroke-0, #A6A6A6)" stroke-width="1.25" stroke-miterlimit="10"/>
<path id="Vector_2" d="M13.65 10.8333C14.6583 10.8333 15.475 10.0167 15.475 9.00833C15.475 8 14.6583 7.18333 13.65 7.18333C12.6417 7.18333 11.825 8 11.825 9.00833C11.825 10.0167 12.6417 10.8333 13.65 10.8333Z" stroke="var(--stroke-0, #A6A6A6)" stroke-width="1.25" stroke-linejoin="round"/>
<path id="Vector_3" d="M3.95833 10.8333C4.96666 10.8333 5.78333 10.0167 5.78333 9.00833C5.78333 8 4.96666 7.18333 3.95833 7.18333C2.95 7.18333 2.13333 8 2.13333 9.00833C2.13333 10.0167 2.95 10.8333 3.95833 10.8333Z" stroke="var(--stroke-0, #A6A6A6)" stroke-width="1.25" stroke-linejoin="round"/>
<path id="Vector_4" d="M1.01667 3.75H13.1333" stroke="var(--stroke-0, #A6A6A6)" stroke-width="1.25" stroke-miterlimit="10"/>
<path id="Vector_5" d="M6.225 9.00833H11.7" stroke="var(--stroke-0, #A6A6A6)" stroke-width="1.25" stroke-miterlimit="10"/>
</g>
</svg>
