<svg width="20" height="20" viewBox="0 0 20 20" fill="none" xmlns="http://www.w3.org/2000/svg">
<path d="M4.16602 7.50814C4.16602 4.75814 4.16602 3.38314 5.02435 2.53314C5.87435 1.6748 7.24935 1.6748 9.99935 1.6748C12.7493 1.6748 14.1243 1.6748 14.9743 2.53314C15.8327 3.39147 15.8327 4.76647 15.8327 7.50814V12.5081C15.8327 15.2581 15.8327 16.6331 14.9743 17.4831C14.116 18.3415 12.741 18.3415 9.99935 18.3415C7.25768 18.3415 5.87435 18.3415 5.02435 17.4831C4.16602 16.6248 4.16602 15.2498 4.16602 12.5081V7.50814Z" stroke="#F5F5F5" stroke-width="1.25" stroke-linecap="round"/>
<path d="M9.16602 15.8413H10.8327" stroke="#F5F5F5" stroke-width="1.25" stroke-linecap="round" stroke-linejoin="round"/>
<path d="M7.5 1.67484L7.575 2.1165C7.74167 3.12484 7.83333 3.59984 8.19167 3.8915C8.53333 4.1665 9.025 4.1665 10 4.1665C10.975 4.1665 11.5083 4.15817 11.85 3.84984C12.1833 3.55817 12.2583 3.07484 12.425 2.10817L12.5 1.6665" stroke="#F5F5F5" stroke-width="1.25" stroke-linejoin="round"/>
</svg>
