<svg preserveAspectRatio="none" width="100%" height="100%" overflow="visible" style="display: block;" viewBox="0 0 18.0001 17.85" fill="none" xmlns="http://www.w3.org/2000/svg">
<g id="Group 1171275205">
<path id="Vector" d="M0.750143 17.85C0.550143 17.85 0.360143 17.77 0.220143 17.63C0.0501434 17.46 -0.0298566 17.22 0.0101434 16.99L0.910144 10.92C0.930144 10.76 1.01014 10.61 1.12014 10.5L10.9901 0.72C11.9501 -0.24 13.5201 -0.24 14.4901 0.72L17.2701 3.48C17.7401 3.95 18.0001 4.56 18.0001 5.22C18.0001 5.88 17.7401 6.5 17.2701 6.96L7.45014 16.69C7.34014 16.8 7.19014 16.87 7.03014 16.9L0.850144 17.84C0.850144 17.84 0.770144 17.84 0.740144 17.84L0.750143 17.85ZM2.36014 11.39L1.65014 16.21L6.58014 15.46L16.2201 5.9C16.4001 5.72 16.5001 5.48 16.5001 5.22C16.5001 4.96 16.4001 4.72 16.2201 4.54L13.4401 1.78C13.0601 1.4 12.4401 1.4 12.0501 1.78L2.36014 11.39Z" fill="var(--fill-0, #121212)"/>
<path id="Vector_2" d="M13.8209 10.0797C13.6309 10.0797 13.4409 10.0097 13.2909 9.8597L8.07088 4.6797C7.78088 4.3897 7.77088 3.9097 8.07088 3.6197C8.36088 3.3297 8.84088 3.3197 9.13088 3.6197L14.3509 8.7997C14.6409 9.0897 14.6509 9.5697 14.3509 9.8597C14.2009 10.0097 14.0109 10.0797 13.8209 10.0797Z" fill="var(--fill-0, #121212)"/>
</g>
</svg>
