<svg width="20" height="20" viewBox="0 0 20 20" fill="none" xmlns="http://www.w3.org/2000/svg">
<path d="M17.3064 15C17.9314 15 18.4314 14.6083 18.873 14.0583C19.7897 12.9333 18.2897 12.0333 17.7147 11.5917C17.1314 11.1417 16.4814 10.8917 15.823 10.8333M14.998 9.16667C16.148 9.16667 17.0814 8.23333 17.0814 7.08333C17.0814 5.93333 16.148 5 14.998 5" stroke="#E8E8E8" stroke-width="1.25" stroke-linecap="round"/>
<path d="M2.69053 15C2.06553 15 1.56553 14.6083 1.12386 14.0583C0.207196 12.9333 1.7072 12.0333 2.27386 11.5917C2.8572 11.1417 3.5072 10.8917 4.16553 10.8333M4.5822 9.16667C3.4322 9.16667 2.49886 8.23333 2.49886 7.08333C2.49886 5.93333 3.4322 5 4.5822 5" stroke="#E8E8E8" stroke-width="1.25" stroke-linecap="round"/>
<path d="M6.73119 12.592C5.88119 13.117 3.64786 14.192 5.0062 15.542C5.67286 16.2003 6.4062 16.667 7.33953 16.667H12.6479C13.5812 16.667 14.3145 16.2003 14.9812 15.542C16.3395 14.2003 14.1062 13.1253 13.2562 12.592C11.2562 11.3587 8.72286 11.3587 6.73119 12.592Z" stroke="#E8E8E8" stroke-width="1.25" stroke-linecap="round" stroke-linejoin="round"/>
<path d="M12.9154 6.25016C12.9154 7.8585 11.607 9.16683 9.9987 9.16683C8.39036 9.16683 7.08203 7.8585 7.08203 6.25016C7.08203 4.64183 8.39036 3.3335 9.9987 3.3335C11.607 3.3335 12.9154 4.64183 12.9154 6.25016Z" stroke="#E8E8E8" stroke-width="1.25"/>
</svg>
