<svg preserveAspectRatio="none" width="100%" height="100%" overflow="visible" style="display: block;" viewBox="0 0 19.5797 14.5833" fill="none" xmlns="http://www.w3.org/2000/svg">
<g id="Group 1171276108">
<path id="Vector" d="M17.0982 12.2917C17.7232 12.2917 18.2232 11.9 18.6649 11.35C19.5815 10.225 18.0815 9.325 17.5065 8.88333C16.9232 8.43333 16.2732 8.18333 15.6149 8.125M14.7899 6.45833C15.9399 6.45833 16.8732 5.525 16.8732 4.375C16.8732 3.225 15.9399 2.29167 14.7899 2.29167" stroke="var(--stroke-0, #E8E8E8)" stroke-width="1.25" stroke-linecap="round"/>
<path id="Vector_2" d="M2.48158 12.2917C1.85658 12.2917 1.35658 11.9 0.914913 11.35C-0.00175351 10.225 1.49825 9.325 2.06491 8.88333C2.64825 8.43333 3.29825 8.18333 3.95658 8.125M4.37325 6.45833C3.22325 6.45833 2.28991 5.525 2.28991 4.375C2.28991 3.225 3.22325 2.29167 4.37325 2.29167" stroke="var(--stroke-0, #E8E8E8)" stroke-width="1.25" stroke-linecap="round"/>
<path id="Vector_3" d="M6.52322 9.88333C5.67322 10.4083 3.43989 11.4833 4.79822 12.8333C5.46489 13.4917 6.19822 13.9583 7.13156 13.9583H12.4399C13.3732 13.9583 14.1066 13.4917 14.7732 12.8333C16.1316 11.4917 13.8982 10.4167 13.0482 9.88333C11.0482 8.65 8.51489 8.65 6.52322 9.88333Z" stroke="var(--stroke-0, #E8E8E8)" stroke-width="1.25" stroke-linecap="round" stroke-linejoin="round"/>
<path id="Vector_4" d="M12.7065 3.54167C12.7065 5.15 11.3982 6.45833 9.78987 6.45833C8.18154 6.45833 6.8732 5.15 6.8732 3.54167C6.8732 1.93333 8.18154 0.625 9.78987 0.625C11.3982 0.625 12.7065 1.93333 12.7065 3.54167Z" stroke="var(--stroke-0, #E8E8E8)" stroke-width="1.25"/>
</g>
</svg>
