<svg width="40" height="40" viewBox="0 0 40 40" fill="none" xmlns="http://www.w3.org/2000/svg">
<circle cx="20" cy="20" r="20" fill="url(#paint0_linear_6906_89127)"/>
<g style="mix-blend-mode:luminosity">
<path d="M26.2512 17.0391C26.2512 17.0391 21.8454 17.1254 20.5263 17.7047C19.9247 17.9685 22.2324 18.1362 22.2324 18.1362L22.8414 18.3729L26.2487 17.0391H26.2512Z" fill="url(#paint1_linear_6906_89127)"/>
<path d="M26.4038 19.946C26.4038 19.946 27.8264 19.9016 28.0976 20.2764C28.3367 20.6067 28.7263 21.7384 27.8633 22.478C27.713 22.6062 27.5527 22.6876 27.3629 22.7492C27.0325 22.8626 26.3545 22.9909 25.9403 22.9194C25.9403 22.9194 23.2283 22.2537 23.2085 22.0071C21.8328 20.9889 22.5157 19.7266 23.3195 19.7266C23.3195 19.7266 26.3052 19.9411 26.4063 19.946H26.4038Z" fill="url(#paint2_linear_6906_89127)"/>
<path d="M27.4837 22.7292C27.4837 22.7292 28.1445 23.4318 27.8388 24.3441C27.533 25.2563 26.8994 25.4757 26.7046 25.5127C26.5099 25.5497 25.0528 25.2735 23.6055 24.5191C22.1583 23.7647 22.1953 23.03 22.6317 22.421C22.6317 22.421 23.0607 22.0388 23.2061 22.0117C23.2061 22.0117 26.7071 23.0053 27.4837 22.7316V22.7292Z" fill="url(#paint3_linear_6906_89127)"/>
<path d="M22.3038 17.2642C22.3038 17.2642 22.3679 16.421 22.7057 15.4767C23.1889 14.1281 23.8275 12.8978 23.5587 11.5369C23.1963 9.69763 21.4088 9.58915 21.3447 9.99348C20.679 14.0837 19.3181 15.277 18.6179 15.8712C16.5173 17.6241 16.8477 18.0827 16.5913 18.2775C15.4054 19.1749 11.2412 19.5102 11.2412 19.5102L12.7427 27.4318C12.7427 27.4318 14.7027 26.384 16.187 26.2779C17.6712 26.1719 18.4108 26.8845 19.4611 27.2641C20.6988 27.7079 23.47 28.1616 25.0898 27.3011C25.0898 27.3011 22.893 26.9658 22.5725 25.5457C22.252 24.1256 22.8314 23.8667 22.8314 23.8667C22.8314 23.8667 22.6884 23.7681 22.5775 23.5881C22.3531 23.2035 22.0277 20.3781 23.0632 19.88L22.3038 17.2666V17.2642Z" fill="url(#paint4_linear_6906_89127)"/>
<path d="M18.4752 22.7298C23.4456 22.5399 22.6419 18.8984 22.6419 18.8984C22.6419 18.8984 23.1054 19.7811 23.5763 19.7318C23.5763 19.7318 22.9624 19.7638 22.6715 20.146C22.2819 20.6539 22.6715 21.6105 23.204 22.0099C23.204 22.0099 22.5014 22.3575 22.4323 22.9221C22.4323 22.9221 22.3559 23.499 22.8268 23.8614C22.8268 23.8614 21.7371 24.4704 22.595 25.8116L25.0852 27.2958C25.0852 27.2958 23.8944 28.0084 22.0107 27.7544C21.1355 27.6361 19.6439 27.5769 18.601 26.8447C17.5581 26.1124 17.24 23.6395 18.0635 22.6805L18.4752 22.7273V22.7298Z" fill="url(#paint5_linear_6906_89127)"/>
<path d="M16.4068 19.7578C16.4068 19.7578 16.5203 21.9447 18.219 22.7016C18.219 22.7016 16.8901 22.7016 16.5671 24.4447C16.5671 24.4447 15.7757 21.3333 16.4068 19.7578Z" fill="url(#paint6_radial_6906_89127)"/>
<path d="M26.6605 25.5203C26.6605 25.5203 27.4174 26.4818 26.1822 27.1154C25.2872 27.5617 24.2098 27.1623 23.6847 26.9108C23.4628 26.8023 23.2606 26.6643 23.1003 26.4695C22.7552 26.1071 22.23 25.4562 22.3015 24.7634C22.3015 24.7634 22.3952 24.0681 22.7798 23.8438C22.7798 23.8438 24.0027 24.8669 25.3439 25.1899C26.377 25.471 26.663 25.5178 26.663 25.5178L26.6605 25.5203Z" fill="url(#paint7_linear_6906_89127)"/>
<path d="M28.2285 17.5204C29.1555 18.5731 28.2926 19.8428 27.8735 20.1461C27.8735 20.1461 23.4898 19.9217 23.0041 19.6111C22.5184 19.3004 21.732 17.5746 24.476 17.1826C25.8986 16.978 27.7058 16.904 28.2285 17.5179V17.5204Z" fill="url(#paint8_linear_6906_89127)"/>
<path d="M14.6045 18.5898L9.2002 19.3295L10.9137 28.3655C11.8161 28.0943 14.5651 27.3793 16.1627 26.8023C16.2342 26.7875 14.607 18.5898 14.607 18.5898H14.6045Z" fill="url(#paint9_linear_6906_89127)"/>
<path d="M16.4277 13.7597L14.0088 12.5391L12.7881 14.958L15.2071 16.1787L16.4277 13.7597Z" fill="url(#paint10_linear_6906_89127)"/>
<path d="M17.1898 27.8109L15.46 28.6953L16.3444 30.4251L18.0742 29.5407L17.1898 27.8109Z" fill="url(#paint11_linear_6906_89127)"/>
<path d="M30.7974 14.3875L30.0923 16.5423C30.0923 16.5423 29.5647 15.815 28.3024 15.4008C27.04 14.9866 26.4902 15.1641 26.4902 15.1641L27.1954 13.0093C27.1954 13.0093 27.9843 12.9106 29.0272 13.2533C30.0701 13.596 30.7999 14.3875 30.7999 14.3875H30.7974Z" fill="url(#paint12_linear_6906_89127)"/>
</g>
<defs>
<linearGradient id="paint0_linear_6906_89127" x1="20" y1="0" x2="20" y2="40" gradientUnits="userSpaceOnUse">
<stop stop-color="#4ADE80" stop-opacity="0.56"/>
<stop offset="1" stop-color="#4ADE80" stop-opacity="0.16"/>
</linearGradient>
<linearGradient id="paint1_linear_6906_89127" x1="21.6259" y1="18.0203" x2="32.0697" y2="15.7989" gradientUnits="userSpaceOnUse">
<stop offset="0.11" stop-color="#939393"/>
<stop offset="0.23" stop-color="#A3A3A3"/>
<stop offset="0.32" stop-color="#A8A8A8"/>
<stop offset="0.43" stop-color="#B9B9B9"/>
<stop offset="0.51" stop-color="#CBCBCB"/>
<stop offset="0.62" stop-color="#E7E7E7"/>
<stop offset="0.84" stop-color="#F8F8F8"/>
<stop offset="1" stop-color="white"/>
</linearGradient>
<linearGradient id="paint2_linear_6906_89127" x1="24.7986" y1="22.9641" x2="26.507" y2="17.7045" gradientUnits="userSpaceOnUse">
<stop offset="0.11" stop-color="#939393"/>
<stop offset="0.23" stop-color="#A3A3A3"/>
<stop offset="0.32" stop-color="#A8A8A8"/>
<stop offset="0.43" stop-color="#B9B9B9"/>
<stop offset="0.51" stop-color="#CBCBCB"/>
<stop offset="0.62" stop-color="#E7E7E7"/>
<stop offset="0.84" stop-color="#F8F8F8"/>
<stop offset="1" stop-color="white"/>
</linearGradient>
<linearGradient id="paint3_linear_6906_89127" x1="23.991" y1="25.2196" x2="27.148" y2="20.8373" gradientUnits="userSpaceOnUse">
<stop offset="0.11" stop-color="#939393"/>
<stop offset="0.23" stop-color="#A3A3A3"/>
<stop offset="0.32" stop-color="#A8A8A8"/>
<stop offset="0.43" stop-color="#B9B9B9"/>
<stop offset="0.51" stop-color="#CBCBCB"/>
<stop offset="0.62" stop-color="#E7E7E7"/>
<stop offset="0.84" stop-color="#F8F8F8"/>
<stop offset="1" stop-color="white"/>
</linearGradient>
<linearGradient id="paint4_linear_6906_89127" x1="16.864" y1="24.8999" x2="33.0344" y2="6.58636" gradientUnits="userSpaceOnUse">
<stop offset="0.11" stop-color="#939393"/>
<stop offset="0.23" stop-color="#A3A3A3"/>
<stop offset="0.32" stop-color="#A8A8A8"/>
<stop offset="0.43" stop-color="#B9B9B9"/>
<stop offset="0.51" stop-color="#CBCBCB"/>
<stop offset="0.62" stop-color="#E7E7E7"/>
<stop offset="0.84" stop-color="#F8F8F8"/>
<stop offset="1" stop-color="white"/>
</linearGradient>
<linearGradient id="paint5_linear_6906_89127" x1="23.1589" y1="23.3282" x2="15.1416" y2="25.1561" gradientUnits="userSpaceOnUse">
<stop stop-color="#6A6A6A"/>
<stop offset="0.23" stop-color="#A3A3A3"/>
<stop offset="0.43" stop-color="#B6B6B6" stop-opacity="0.52"/>
<stop offset="0.56" stop-color="#C1C1C1" stop-opacity="0.24"/>
<stop offset="0.66" stop-color="#C8C8C8" stop-opacity="0.06"/>
</linearGradient>
<radialGradient id="paint6_radial_6906_89127" cx="0" cy="0" r="1" gradientUnits="userSpaceOnUse" gradientTransform="translate(17.8631 21.1173) rotate(79.27) scale(2.46301)">
<stop stop-color="#A3A3A3"/>
<stop offset="0.07" stop-color="#B3B3B3" stop-opacity="0.72"/>
<stop offset="0.26" stop-color="#919191" stop-opacity="0.47"/>
<stop offset="0.47" stop-color="#707070" stop-opacity="0.22"/>
<stop offset="0.64" stop-color="#5B5B5B" stop-opacity="0.06"/>
<stop offset="0.74" stop-color="#545454" stop-opacity="0"/>
</radialGradient>
<linearGradient id="paint7_linear_6906_89127" x1="23.1253" y1="26.925" x2="26.2823" y2="23.6819" gradientUnits="userSpaceOnUse">
<stop offset="0.07" stop-color="#939393"/>
<stop offset="0.16" stop-color="#A3A3A3"/>
<stop offset="0.26" stop-color="#A8A8A8"/>
<stop offset="0.4" stop-color="#B9B9B9"/>
<stop offset="0.51" stop-color="#CBCBCB"/>
<stop offset="0.62" stop-color="#E7E7E7"/>
<stop offset="0.84" stop-color="#F8F8F8"/>
<stop offset="1" stop-color="white"/>
</linearGradient>
<linearGradient id="paint8_linear_6906_89127" x1="24.6477" y1="21.0308" x2="27.4162" y2="14.0421" gradientUnits="userSpaceOnUse">
<stop offset="0.11" stop-color="#939393"/>
<stop offset="0.23" stop-color="#A3A3A3"/>
<stop offset="0.32" stop-color="#A8A8A8"/>
<stop offset="0.43" stop-color="#B9B9B9"/>
<stop offset="0.51" stop-color="#CBCBCB"/>
<stop offset="0.62" stop-color="#E7E7E7"/>
<stop offset="0.84" stop-color="#F8F8F8"/>
<stop offset="1" stop-color="white"/>
</linearGradient>
<linearGradient id="paint9_linear_6906_89127" x1="23.2287" y1="21.0356" x2="10.4921" y2="23.755" gradientUnits="userSpaceOnUse">
<stop offset="0.02" stop-color="#939393"/>
<stop offset="0.18" stop-color="#9E9E9E"/>
<stop offset="0.47" stop-color="#BCBCBC"/>
<stop offset="0.59" stop-color="#CBCBCB"/>
<stop offset="0.83" stop-color="#ECECEC"/>
<stop offset="1" stop-color="white"/>
</linearGradient>
<linearGradient id="paint10_linear_6906_89127" x1="13.9426" y1="15.6772" x2="15.2825" y2="13.022" gradientUnits="userSpaceOnUse">
<stop stop-color="#7C47E1"/>
<stop offset="0.9994" stop-color="#D0BDF4"/>
</linearGradient>
<linearGradient id="paint11_linear_6906_89127" x1="15.3456" y1="34.4709" x2="17.7817" y2="25.3055" gradientUnits="userSpaceOnUse">
<stop offset="0.11" stop-color="#939393"/>
<stop offset="0.23" stop-color="#A3A3A3"/>
<stop offset="0.32" stop-color="#A8A8A8"/>
<stop offset="0.43" stop-color="#B9B9B9"/>
<stop offset="0.51" stop-color="#CBCBCB"/>
<stop offset="0.62" stop-color="#E7E7E7"/>
<stop offset="0.84" stop-color="#F8F8F8"/>
<stop offset="1" stop-color="white"/>
</linearGradient>
<linearGradient id="paint12_linear_6906_89127" x1="34.2905" y1="17.9339" x2="24.6483" y2="12.3698" gradientUnits="userSpaceOnUse">
<stop offset="0.11" stop-color="#939393"/>
<stop offset="0.23" stop-color="#A3A3A3"/>
<stop offset="0.32" stop-color="#A8A8A8"/>
<stop offset="0.43" stop-color="#B9B9B9"/>
<stop offset="0.51" stop-color="#CBCBCB"/>
<stop offset="0.62" stop-color="#E7E7E7"/>
<stop offset="0.84" stop-color="#F8F8F8"/>
<stop offset="1" stop-color="white"/>
</linearGradient>
</defs>
</svg>
