<svg width="40" height="40" viewBox="0 0 40 40" fill="none" xmlns="http://www.w3.org/2000/svg">
<circle cx="20" cy="20" r="20" fill="url(#paint0_linear_6906_89155)"/>
<g style="mix-blend-mode:luminosity">
<path opacity="0.3" d="M19.805 30.7917C25.77 30.7817 30.605 29.9317 30.6 28.8867C30.6 27.8467 25.76 27.0067 19.795 27.0117C13.83 27.0217 9 27.8767 9 28.9167C9 29.9617 13.84 30.8017 19.805 30.7917Z" fill="url(#paint1_radial_6906_89155)"/>
<path d="M16.2147 9.69891C13.9147 11.2139 11.6497 11.6939 10.3747 11.8489C9.76469 11.9239 9.30469 12.4389 9.30469 13.0539V18.5939C9.30469 22.1489 11.4697 25.3389 14.7797 26.6689L16.4047 27.3239C16.5547 27.3839 16.7097 27.4089 16.8647 27.4089H17.8997L18.9497 26.6439C22.2647 25.2789 24.4247 22.0639 24.4247 18.5089V12.9639C24.4247 12.3539 23.9697 11.8439 23.3547 11.7739C22.0797 11.6339 20.2297 10.9939 17.9247 9.50391H16.8697C16.6447 9.50391 16.4147 9.56891 16.2197 9.69891H16.2147Z" fill="url(#paint2_linear_6906_89155)"/>
<path d="M17.2548 9.69688C14.9498 11.2119 12.6898 11.6919 11.4098 11.8469C10.7998 11.9219 10.3398 12.4369 10.3398 13.0519V18.5919C10.3398 22.1469 12.5048 25.3369 15.8148 26.6669L17.4398 27.3219C17.7348 27.4419 18.0698 27.4419 18.3648 27.3169L19.9898 26.6469C23.3048 25.2819 25.4648 22.0669 25.4648 18.5119V12.9619C25.4648 12.3519 25.0098 11.8419 24.3948 11.7719C23.1148 11.6319 20.8548 11.1719 18.5498 9.68688C18.1598 9.43688 17.6448 9.43688 17.2498 9.69188L17.2548 9.69688Z" fill="url(#paint3_linear_6906_89155)"/>
<path d="M17.345 10.9371C15.365 12.2371 13.425 12.6471 12.33 12.7821C11.805 12.8421 11.415 13.2871 11.415 13.8121V18.5671C11.415 21.6171 13.27 24.3571 16.115 25.4971L17.51 26.0571C17.765 26.1621 18.05 26.1571 18.3 26.0571L19.695 25.4821C22.54 24.3071 24.395 21.5471 24.395 18.4971V13.7421C24.395 13.2171 24.005 12.7771 23.48 12.7221C22.385 12.6021 20.44 12.2071 18.465 10.9321C18.13 10.7121 17.69 10.7171 17.35 10.9371H17.345Z" fill="url(#paint4_linear_6906_89155)"/>
<path d="M17.5752 14.0714C16.4202 14.8264 15.2902 15.0714 14.6502 15.1464C14.3452 15.1814 14.1152 15.4414 14.1152 15.7464V18.5164C14.1152 20.2964 15.1952 21.8914 16.8552 22.5564L17.6702 22.8814C17.8202 22.9414 17.9852 22.9414 18.1302 22.8814L18.9452 22.5464C20.6002 21.8614 21.6852 20.2514 21.6852 18.4764V15.7064C21.6852 15.4014 21.4602 15.1464 21.1502 15.1114C20.5102 15.0414 19.3802 14.8114 18.2252 14.0664C18.0302 13.9414 17.7702 13.9414 17.5752 14.0664V14.0714Z" fill="url(#paint5_linear_6906_89155)"/>
<path d="M29.0754 19.0216L26.4254 13.9766H25.1054C24.9804 13.9766 24.8504 14.0316 24.7654 14.1466L21.1404 19.0216C20.9304 19.3016 21.1304 19.7016 21.4804 19.7016H23.2154V27.6766H26.9904V19.7016H28.7254C29.0754 19.7016 29.2754 19.3016 29.0654 19.0216H29.0754Z" fill="url(#paint6_linear_6906_89155)"/>
<path d="M26.4246 13.9766H25.1046C24.9796 13.9766 24.8496 14.0316 24.7646 14.1466H26.4196V13.9766H26.4246Z" fill="url(#paint7_linear_6906_89155)"/>
<path d="M30.3946 19.0203L26.7696 14.1453C26.5996 13.9203 26.2546 13.9203 26.0896 14.1453L22.4646 19.0203C22.2546 19.3003 22.4546 19.7003 22.8046 19.7003H24.5396V27.6753H28.3146V19.7003H30.0496C30.3996 19.7003 30.5996 19.3003 30.3896 19.0203H30.3946Z" fill="url(#paint8_linear_6906_89155)"/>
<path d="M30.3946 19.0203L26.7696 14.1453C26.5996 13.9203 26.2546 13.9203 26.0896 14.1453L22.4646 19.0203C22.2546 19.3003 22.4546 19.7003 22.8046 19.7003H24.5396V27.6753H28.3146V19.7003H30.0496C30.3996 19.7003 30.5996 19.3003 30.3896 19.0203H30.3946Z" fill="#B191ED"/>
<path d="M24.5397 19.6953H23.2197V27.6653H24.5397V19.6953Z" fill="url(#paint9_linear_6906_89155)"/>
</g>
<defs>
<linearGradient id="paint0_linear_6906_89155" x1="20" y1="0" x2="20" y2="40" gradientUnits="userSpaceOnUse">
<stop stop-color="#3B82F6" stop-opacity="0.56"/>
<stop offset="1" stop-color="#3B82F6" stop-opacity="0.16"/>
</linearGradient>
<radialGradient id="paint1_radial_6906_89155" cx="0" cy="0" r="1" gradientUnits="userSpaceOnUse" gradientTransform="translate(19.6836 29.107) rotate(-0.33) scale(10.71 1.705)">
<stop stop-color="#848484"/>
<stop offset="1" stop-color="#878787" stop-opacity="0"/>
</radialGradient>
<linearGradient id="paint2_linear_6906_89155" x1="16.8647" y1="27.5539" x2="16.8647" y2="16.2839" gradientUnits="userSpaceOnUse">
<stop/>
<stop offset="0.5" stop-color="#666666"/>
<stop offset="0.73" stop-color="#777777"/>
<stop offset="0.95" stop-color="#939393"/>
<stop offset="1" stop-color="#989898"/>
</linearGradient>
<linearGradient id="paint3_linear_6906_89155" x1="13.5348" y1="32.7869" x2="22.6148" y2="-1.55812" gradientUnits="userSpaceOnUse">
<stop stop-color="#939393"/>
<stop offset="0.1" stop-color="#A3A3A3"/>
<stop offset="0.38" stop-color="#CBCBCB"/>
<stop offset="0.62" stop-color="#E7E7E7"/>
<stop offset="0.84" stop-color="#F8F8F8"/>
<stop offset="1" stop-color="white"/>
</linearGradient>
<linearGradient id="paint4_linear_6906_89155" x1="-11.06" y1="42.7321" x2="24.425" y2="11.9821" gradientUnits="userSpaceOnUse">
<stop stop-color="#939393"/>
<stop offset="0.1" stop-color="#A3A3A3"/>
<stop offset="0.38" stop-color="#CBCBCB"/>
<stop offset="0.62" stop-color="#E7E7E7"/>
<stop offset="0.84" stop-color="#F8F8F8"/>
<stop offset="1" stop-color="white"/>
</linearGradient>
<linearGradient id="paint5_linear_6906_89155" x1="8.88023" y1="35.7114" x2="23.9752" y2="5.33141" gradientUnits="userSpaceOnUse">
<stop stop-color="#939393"/>
<stop offset="0.1" stop-color="#A3A3A3"/>
<stop offset="0.38" stop-color="#CBCBCB"/>
<stop offset="0.62" stop-color="#E7E7E7"/>
<stop offset="0.84" stop-color="#F8F8F8"/>
<stop offset="1" stop-color="white"/>
</linearGradient>
<linearGradient id="paint6_linear_6906_89155" x1="25.1054" y1="27.7316" x2="25.1054" y2="17.2166" gradientUnits="userSpaceOnUse">
<stop stop-color="white"/>
<stop offset="0.67" stop-color="#666666"/>
<stop offset="0.78" stop-color="#777777"/>
<stop offset="0.95" stop-color="#939393"/>
<stop offset="1" stop-color="#989898"/>
</linearGradient>
<linearGradient id="paint7_linear_6906_89155" x1="25.5946" y1="14.1466" x2="25.5946" y2="13.8266" gradientUnits="userSpaceOnUse">
<stop stop-color="#939393"/>
<stop offset="0.1" stop-color="#A3A3A3"/>
<stop offset="0.38" stop-color="#CBCBCB"/>
<stop offset="0.62" stop-color="#E7E7E7"/>
<stop offset="0.84" stop-color="#F8F8F8"/>
<stop offset="1" stop-color="white"/>
</linearGradient>
<linearGradient id="paint8_linear_6906_89155" x1="26.4246" y1="12.6003" x2="26.4246" y2="27.5153" gradientUnits="userSpaceOnUse">
<stop stop-color="#939393"/>
<stop offset="0.1" stop-color="#A3A3A3"/>
<stop offset="0.47" stop-color="#CBCBCB"/>
<stop offset="0.74" stop-color="#E7E7E7"/>
<stop offset="0.93" stop-color="#F8F8F8"/>
<stop offset="1" stop-color="white"/>
</linearGradient>
<linearGradient id="paint9_linear_6906_89155" x1="23.8797" y1="27.6353" x2="23.8797" y2="19.6653" gradientUnits="userSpaceOnUse">
<stop stop-opacity="0"/>
<stop offset="1"/>
</linearGradient>
</defs>
</svg>
