<svg width="40" height="40" viewBox="0 0 40 40" fill="none" xmlns="http://www.w3.org/2000/svg">
<circle cx="20" cy="20" r="20" fill="url(#paint0_linear_6906_89169)"/>
<g style="mix-blend-mode:luminosity">
<path d="M15.4966 24.7033L19.131 24.6533L21.731 24.1501C22.0247 24.1095 22.3028 24.2939 22.3778 24.5814C22.4497 24.8501 22.2966 25.0939 22.0716 25.2564C21.7841 25.4658 21.3122 25.6283 21.3122 25.6283L15.4966 24.7033Z" fill="url(#paint1_linear_6906_89169)"/>
<path d="M15.4968 24.7041C15.4968 24.7041 16.7905 24.6354 18.5374 25.0135C20.2843 25.3916 21.7874 25.7947 23.2437 25.8291L20.3062 26.6572L15.4937 24.7041H15.4968Z" fill="url(#paint2_linear_6906_89169)"/>
<path d="M23.0283 27.7065L26.2064 27.2097L29.2064 25.6597L29.1533 25.5378C28.9596 25.0972 28.4314 24.9159 28.0064 25.1378L25.9627 26.2128L23.0283 27.7034V27.7065Z" fill="url(#paint3_linear_6906_89169)"/>
<path d="M23.0283 27.7065L26.1596 26.9065L29.9783 23.744L29.7533 23.5159C29.4252 23.1846 28.9002 23.1534 28.5377 23.4502L26.8533 24.8221L23.0314 27.7096L23.0283 27.7065Z" fill="url(#paint4_linear_6906_89169)"/>
<path d="M21.5656 28.1817L25.25 26.988C25.4094 26.9348 25.5469 26.8317 25.6406 26.6911L28.275 22.763L28.0187 22.6223C27.5781 22.3786 27.0219 22.5223 26.7562 22.9505L26.2875 23.6973L21.5625 28.1817H21.5656Z" fill="url(#paint5_linear_6906_89169)"/>
<path d="M12.5126 30.5038L13.9626 29.1413C14.8751 28.2851 16.1188 27.8695 17.3626 28.0132L20.4938 28.3726C20.8626 28.4163 21.2376 28.3507 21.5688 28.1851L24.4751 26.7476C24.5782 26.6976 24.6657 26.6195 24.7282 26.5226L26.5688 23.6851L26.1563 23.5507C25.8063 23.4351 25.4251 23.5382 25.1782 23.8101L23.4688 25.7132C23.4126 25.7788 23.3313 25.8195 23.247 25.8288L21.1501 26.0663C20.9063 26.0945 20.6626 26.0695 20.4282 25.9945L17.0907 24.9226C15.7438 24.4913 14.2751 24.6913 13.0938 25.4726L9.25635 28.007" fill="url(#paint6_linear_6906_89169)"/>
<path d="M12.1968 30.8007L13.9593 29.1413C14.8718 28.2851 16.1155 27.8695 17.3593 28.0132L20.4905 28.3726C20.8593 28.4163 21.2343 28.3507 21.5655 28.1851L24.4718 26.7476C24.5749 26.6976 24.6624 26.6195 24.7249 26.5226L26.5655 23.6851L26.153 23.5507C25.803 23.4351 25.4218 23.5382 25.1749 23.8101L23.4655 25.7132C23.4093 25.7788 23.328 25.8195 23.2437 25.8288L21.1468 26.0663C20.903 26.0945 20.6593 26.0695 20.4249 25.9945L17.0874 24.9226C15.7405 24.4913 14.2718 24.6913 13.0905 25.4726L8.8999 28.2445" fill="url(#paint7_linear_6906_89169)"/>
<path d="M19.2936 9.35234C17.4779 10.5461 15.6967 10.9242 14.6904 11.0461C14.2092 11.1055 13.8467 11.5117 13.8467 11.993V16.3586C13.8467 19.1586 15.5498 21.6711 18.1623 22.7211L19.4436 23.2367C19.5623 23.2836 19.6842 23.3055 19.8061 23.3055H20.6217L21.4498 22.7023C24.0592 21.6242 25.7654 19.093 25.7654 16.293V11.9273C25.7654 11.4461 25.4061 11.043 24.9217 10.9898C23.9154 10.8805 22.4561 10.3742 20.6404 9.19922H19.8092C19.6311 9.19922 19.4529 9.24922 19.2967 9.35234H19.2936Z" fill="url(#paint8_linear_6906_89169)"/>
<path d="M20.1097 9.35235C18.294 10.5461 16.5128 10.9242 15.5034 11.0461C15.0222 11.1055 14.6597 11.5117 14.6597 11.993V16.3586C14.6597 19.1586 16.3628 21.6711 18.9753 22.7211L20.2565 23.2367C20.4878 23.3305 20.7503 23.3305 20.9847 23.2305L22.2659 22.7024C24.8753 21.6242 26.5815 19.093 26.5815 16.293V11.9274C26.5815 11.4461 26.2222 11.043 25.7378 10.9899C24.7284 10.8805 22.9503 10.518 21.1315 9.3461C20.8222 9.14923 20.419 9.14923 20.1065 9.35235H20.1097Z" fill="url(#paint9_linear_6906_89169)"/>
<path d="M20.1813 10.3293C18.622 11.3543 17.0938 11.6793 16.2282 11.7824C15.8157 11.8324 15.5063 12.1824 15.5063 12.5949V16.3418C15.5063 18.7449 16.9688 20.9043 19.2095 21.8012L20.3095 22.2418C20.5095 22.3231 20.7345 22.3199 20.9345 22.2418L22.0345 21.7887C24.2751 20.8637 25.7376 18.6887 25.7376 16.2856V12.5387C25.7376 12.1262 25.4282 11.7793 25.0157 11.7356C24.1501 11.6387 22.622 11.3324 21.0626 10.3262C20.797 10.1543 20.4501 10.1574 20.1845 10.3324L20.1813 10.3293Z" fill="url(#paint10_linear_6906_89169)"/>
<path d="M20.3656 12.8035C19.4562 13.3973 18.5656 13.591 18.0625 13.6504C17.8219 13.6785 17.6406 13.8816 17.6406 14.1223V16.3066C17.6406 17.7066 18.4937 18.966 19.7969 19.491L20.4375 19.7473C20.5562 19.7941 20.6844 19.7941 20.8 19.7473L21.4406 19.4816C22.7469 18.9441 23.5969 17.6754 23.5969 16.2754V14.091C23.5969 13.8504 23.4188 13.6473 23.175 13.6223C22.6719 13.5691 21.7781 13.3879 20.8719 12.8004C20.7188 12.7004 20.5156 12.7035 20.3594 12.8004L20.3656 12.8035Z" fill="url(#paint11_linear_6906_89169)"/>
<path d="M29.2237 19.7539L28.9771 19.6685C28.9047 19.6423 28.8389 19.6061 28.7764 19.5634C28.7501 19.5437 28.7271 19.524 28.7008 19.5011C28.6745 19.4781 28.6482 19.4551 28.6251 19.4288C28.5462 19.3401 28.4804 19.2383 28.441 19.1234L28.3554 18.8771C28.3193 18.7753 28.1778 18.7753 28.1417 18.8771L28.0561 19.1234C28.0167 19.2416 27.9476 19.3467 27.8654 19.4354C27.8391 19.4616 27.8128 19.4879 27.7865 19.5109C27.7634 19.5306 27.7404 19.547 27.7174 19.5667C27.6582 19.6061 27.5924 19.6423 27.5233 19.6685L27.2767 19.7539C27.1747 19.79 27.1747 19.9312 27.2767 19.9674L27.5233 20.0527C27.6648 20.102 27.7865 20.1841 27.8851 20.2892C27.9114 20.3187 27.9377 20.3483 27.9608 20.3811C27.9641 20.3844 27.9673 20.391 27.9706 20.3943C28.0068 20.4501 28.0364 20.5125 28.0594 20.5781L28.1449 20.8244C28.1811 20.9262 28.3226 20.9262 28.3587 20.8244L28.4442 20.5781C28.4804 20.4698 28.5429 20.3745 28.6153 20.2892C28.7139 20.1841 28.8356 20.0987 28.9771 20.0495L29.2237 19.9641C29.3257 19.928 29.3257 19.7867 29.2237 19.7506V19.7539Z" fill="url(#paint12_linear_6906_89169)"/>
<path d="M14.1906 21.9632L13.8382 21.8412C13.7348 21.8037 13.6408 21.7521 13.5516 21.6911C13.514 21.6629 13.4811 21.6348 13.4435 21.602C13.4059 21.5691 13.3683 21.5363 13.3354 21.4987C13.2227 21.3721 13.1287 21.2267 13.0723 21.0625L12.9502 20.7106C12.8985 20.5652 12.6964 20.5652 12.6448 20.7106L12.5226 21.0625C12.4662 21.2314 12.3675 21.3815 12.2501 21.5081C12.2125 21.5457 12.1749 21.5832 12.1373 21.616C12.1044 21.6442 12.0715 21.6676 12.0386 21.6958C11.9541 21.7521 11.8601 21.8037 11.7614 21.8412L11.409 21.9632C11.2634 22.0148 11.2634 22.2165 11.409 22.2681L11.7614 22.3901C11.9635 22.4604 12.1373 22.5777 12.2783 22.7278C12.3159 22.7701 12.3534 22.8123 12.3863 22.8592C12.391 22.8639 12.3957 22.8733 12.4004 22.878C12.4521 22.9577 12.4944 23.0468 12.5273 23.1407L12.6495 23.4925C12.7011 23.6379 12.9032 23.6379 12.9549 23.4925L13.077 23.1407C13.1287 22.9858 13.218 22.8498 13.3213 22.7278C13.4623 22.5777 13.6361 22.4557 13.8382 22.3854L14.1906 22.2634C14.3362 22.2118 14.3362 22.0101 14.1906 21.9585V21.9632Z" fill="url(#paint13_linear_6906_89169)"/>
</g>
<defs>
<linearGradient id="paint0_linear_6906_89169" x1="20" y1="0" x2="20" y2="40" gradientUnits="userSpaceOnUse">
<stop stop-color="#3B82F6" stop-opacity="0.56"/>
<stop offset="1" stop-color="#3B82F6" stop-opacity="0.16"/>
</linearGradient>
<linearGradient id="paint1_linear_6906_89169" x1="18.9372" y1="25.4501" x2="18.9653" y2="22.6345" gradientUnits="userSpaceOnUse">
<stop stop-color="#939393"/>
<stop offset="0.1" stop-color="#A3A3A3"/>
<stop offset="0.47" stop-color="#CBCBCB"/>
<stop offset="0.74" stop-color="#E7E7E7"/>
<stop offset="0.93" stop-color="#F8F8F8"/>
<stop offset="1" stop-color="white"/>
</linearGradient>
<linearGradient id="paint2_linear_6906_89169" x1="19.4749" y1="24.5447" x2="19.2499" y2="26.101" gradientUnits="userSpaceOnUse">
<stop stop-color="white"/>
<stop offset="1" stop-color="#777777"/>
</linearGradient>
<linearGradient id="paint3_linear_6906_89169" x1="26.4908" y1="22.5034" x2="25.8783" y2="29.3222" gradientUnits="userSpaceOnUse">
<stop stop-color="white"/>
<stop offset="0.67" stop-color="#666666"/>
<stop offset="0.78" stop-color="#777777"/>
<stop offset="0.95" stop-color="#939393"/>
<stop offset="1" stop-color="#989898"/>
</linearGradient>
<linearGradient id="paint4_linear_6906_89169" x1="25.0096" y1="21.3284" x2="27.2908" y2="28.0502" gradientUnits="userSpaceOnUse">
<stop stop-color="white"/>
<stop offset="0.67" stop-color="#666666"/>
<stop offset="0.78" stop-color="#777777"/>
<stop offset="0.95" stop-color="#939393"/>
<stop offset="1" stop-color="#989898"/>
</linearGradient>
<linearGradient id="paint5_linear_6906_89169" x1="23.9156" y1="21.9442" x2="25.9781" y2="29.1817" gradientUnits="userSpaceOnUse">
<stop stop-color="white"/>
<stop offset="0.67" stop-color="#666666"/>
<stop offset="0.78" stop-color="#777777"/>
<stop offset="0.95" stop-color="#939393"/>
<stop offset="1" stop-color="#989898"/>
</linearGradient>
<linearGradient id="paint6_linear_6906_89169" x1="19.0938" y1="30.3288" x2="16.6407" y2="21.0257" gradientUnits="userSpaceOnUse">
<stop stop-color="#939393"/>
<stop offset="0.1" stop-color="#A3A3A3"/>
<stop offset="0.47" stop-color="#CBCBCB"/>
<stop offset="0.74" stop-color="#E7E7E7"/>
<stop offset="0.93" stop-color="#F8F8F8"/>
<stop offset="1" stop-color="white"/>
</linearGradient>
<linearGradient id="paint7_linear_6906_89169" x1="16.3218" y1="27.8976" x2="13.0749" y2="31.2538" gradientUnits="userSpaceOnUse">
<stop stop-color="white" stop-opacity="0"/>
<stop offset="1" stop-color="white"/>
</linearGradient>
<linearGradient id="paint8_linear_6906_89169" x1="19.8029" y1="23.4211" x2="19.8029" y2="14.543" gradientUnits="userSpaceOnUse">
<stop/>
<stop offset="0.5" stop-color="#666666"/>
<stop offset="0.73" stop-color="#777777"/>
<stop offset="0.95" stop-color="#939393"/>
<stop offset="1" stop-color="#989898"/>
</linearGradient>
<linearGradient id="paint9_linear_6906_89169" x1="17.1784" y1="27.543" x2="24.3347" y2="0.483603" gradientUnits="userSpaceOnUse">
<stop stop-color="#939393"/>
<stop offset="0.1" stop-color="#A3A3A3"/>
<stop offset="0.38" stop-color="#CBCBCB"/>
<stop offset="0.62" stop-color="#E7E7E7"/>
<stop offset="0.84" stop-color="#F8F8F8"/>
<stop offset="1" stop-color="white"/>
</linearGradient>
<linearGradient id="paint10_linear_6906_89169" x1="-2.19678" y1="35.3793" x2="25.7595" y2="11.1512" gradientUnits="userSpaceOnUse">
<stop stop-color="#939393"/>
<stop offset="0.1" stop-color="#A3A3A3"/>
<stop offset="0.38" stop-color="#CBCBCB"/>
<stop offset="0.62" stop-color="#E7E7E7"/>
<stop offset="0.84" stop-color="#F8F8F8"/>
<stop offset="1" stop-color="white"/>
</linearGradient>
<linearGradient id="paint11_linear_6906_89169" x1="13.5125" y1="29.8504" x2="25.4062" y2="5.9129" gradientUnits="userSpaceOnUse">
<stop stop-color="#939393"/>
<stop offset="0.1" stop-color="#A3A3A3"/>
<stop offset="0.38" stop-color="#CBCBCB"/>
<stop offset="0.62" stop-color="#E7E7E7"/>
<stop offset="0.84" stop-color="#F8F8F8"/>
<stop offset="1" stop-color="white"/>
</linearGradient>
<linearGradient id="paint12_linear_6906_89169" x1="28.2502" y1="20.9953" x2="28.2502" y2="18.6902" gradientUnits="userSpaceOnUse">
<stop stop-color="#7C47E1"/>
<stop offset="0.9994" stop-color="#D0BDF4"/>
</linearGradient>
<linearGradient id="paint13_linear_6906_89169" x1="12.7998" y1="23.7366" x2="12.7998" y2="20.4436" gradientUnits="userSpaceOnUse">
<stop stop-color="#7C47E1"/>
<stop offset="0.9994" stop-color="#D0BDF4"/>
</linearGradient>
</defs>
</svg>
