<svg width="18" height="18" viewBox="0 0 18 18" fill="none" xmlns="http://www.w3.org/2000/svg">
<g clip-path="url(#clip0_6906_89151)">
<path d="M14.0623 9.00164C14.0619 9.71264 13.9114 10.4155 13.6206 11.0644C13.3298 11.7132 12.9052 12.2932 12.3748 12.7666C12.0982 13.0064 11.9084 13.3306 11.8348 13.6891C11.8198 13.7657 11.8123 13.8436 11.8123 13.9216V15.0016C11.8124 15.2726 11.7592 15.5408 11.6557 15.7912C11.5521 16.0415 11.4002 16.2689 11.2086 16.4605C11.017 16.6521 10.7896 16.804 10.5393 16.9075C10.2889 17.0111 10.0207 17.0643 9.74975 17.0641H8.24975C7.97885 17.0643 7.71056 17.0111 7.46023 16.9075C7.20991 16.804 6.98246 16.6521 6.7909 16.4605C6.59934 16.2689 6.44743 16.0415 6.34385 15.7912C6.24027 15.5408 6.18706 15.2726 6.18725 15.0016V13.9966C6.1875 13.8937 6.17998 13.7909 6.16475 13.6891C6.10909 13.3604 5.94547 13.0595 5.69975 12.8341C5.0586 12.2805 4.56679 11.5747 4.26948 10.7815C3.97216 9.98823 3.87886 9.13303 3.99814 8.29436C4.11742 7.45569 4.44546 6.66042 4.95215 5.98155C5.45883 5.30268 6.12793 4.76197 6.89802 4.40904C7.66811 4.05611 8.51451 3.90228 9.35954 3.96166C10.2046 4.02105 11.0211 4.29175 11.7343 4.74892C12.4475 5.20608 13.0343 5.83507 13.4411 6.57813C13.8479 7.3212 14.0614 8.15453 14.0623 9.00164Z" fill="#D0BDF4"/>
<path d="M9 3.5625C8.85082 3.5625 8.70774 3.50324 8.60225 3.39775C8.49676 3.29226 8.4375 3.14918 8.4375 3V1.5C8.4375 1.35082 8.49676 1.20774 8.60225 1.10225C8.70774 0.996763 8.85082 0.9375 9 0.9375C9.14918 0.9375 9.29226 0.996763 9.39775 1.10225C9.50324 1.20774 9.5625 1.35082 9.5625 1.5V3C9.5625 3.14918 9.50324 3.29226 9.39775 3.39775C9.29226 3.50324 9.14918 3.5625 9 3.5625ZM13.2427 5.31975C13.1316 5.31965 13.0229 5.28661 12.9305 5.22479C12.8381 5.16298 12.7661 5.07516 12.7235 4.97244C12.681 4.86972 12.6699 4.7567 12.6915 4.64765C12.7132 4.5386 12.7667 4.43842 12.8453 4.35975L13.9058 3.3C14.0129 3.20421 14.1527 3.15307 14.2964 3.15709C14.44 3.16111 14.5767 3.21998 14.6784 3.32162C14.78 3.42326 14.8389 3.55995 14.8429 3.70363C14.8469 3.84732 14.7958 3.98709 14.7 4.09425L13.641 5.15475C13.5888 5.20722 13.5268 5.24882 13.4584 5.27714C13.39 5.30547 13.3167 5.31995 13.2427 5.31975ZM16.5 9.5625H15C14.8508 9.5625 14.7077 9.50324 14.6023 9.39775C14.4968 9.29226 14.4375 9.14918 14.4375 9C14.4375 8.85082 14.4968 8.70774 14.6023 8.60225C14.7077 8.49676 14.8508 8.4375 15 8.4375H16.5C16.6492 8.4375 16.7923 8.49676 16.8977 8.60225C17.0032 8.70774 17.0625 8.85082 17.0625 9C17.0625 9.14918 17.0032 9.29226 16.8977 9.39775C16.7923 9.50324 16.6492 9.5625 16.5 9.5625ZM4.75725 5.31975C4.68336 5.32002 4.61015 5.30556 4.5419 5.27723C4.47366 5.2489 4.41173 5.20727 4.35975 5.15475L3.3 4.09425C3.20421 3.98709 3.15307 3.84732 3.15709 3.70363C3.16111 3.55995 3.21998 3.42326 3.32162 3.32162C3.42326 3.21998 3.55995 3.16111 3.70363 3.15709C3.84732 3.15307 3.98709 3.20421 4.09425 3.3L5.15475 4.35975C5.23332 4.43842 5.28681 4.5386 5.30847 4.64765C5.33014 4.7567 5.319 4.86972 5.27647 4.97244C5.23393 5.07516 5.16191 5.16298 5.0695 5.22479C4.97709 5.28661 4.86843 5.31965 4.75725 5.31975ZM3 9.5625H1.5C1.35082 9.5625 1.20774 9.50324 1.10225 9.39775C0.996763 9.29226 0.9375 9.14918 0.9375 9C0.9375 8.85082 0.996763 8.70774 1.10225 8.60225C1.20774 8.49676 1.35082 8.4375 1.5 8.4375H3C3.14918 8.4375 3.29226 8.49676 3.39775 8.60225C3.50324 8.70774 3.5625 8.85082 3.5625 9C3.5625 9.14918 3.50324 9.29226 3.39775 9.39775C3.29226 9.50324 3.14918 9.5625 3 9.5625ZM11.8125 13.995V15C11.8127 15.2709 11.7595 15.5392 11.6559 15.7895C11.5523 16.0398 11.4004 16.2673 11.2088 16.4588C11.0173 16.6504 10.7898 16.8023 10.5395 16.9059C10.2892 17.0095 10.0209 17.0627 9.75 17.0625H8.25C7.97909 17.0627 7.71081 17.0095 7.46048 16.9059C7.21016 16.8023 6.98271 16.6504 6.79115 16.4588C6.59959 16.2673 6.44768 16.0398 6.3441 15.7895C6.24052 15.5392 6.1873 15.2709 6.1875 15V13.995H11.8125Z" fill="#B191ED"/>
</g>
<defs>
<clipPath id="clip0_6906_89151">
<rect width="18" height="18" fill="white"/>
</clipPath>
</defs>
</svg>
