<svg width="24" height="24" viewBox="0 0 24 24" fill="none" xmlns="http://www.w3.org/2000/svg">
<path d="M12.0002 21C10.0672 21 8.50024 19.433 8.50024 17.5H15.5002C15.5002 19.433 13.9332 21 12.0002 21Z" stroke="white" stroke-width="1.5" stroke-linecap="round" stroke-linejoin="round"/>
<path d="M19.2311 17.5H4.76887C3.79195 17.5 3 16.708 3 15.7311C3 15.262 3.18636 14.8121 3.51809 14.4803L4.12132 13.8771C4.68393 13.3145 5 12.5514 5 11.7558V9C5 5.13401 8.13401 2 12 2C15.866 2 19 5.13401 19 9V11.7558C19 12.5514 19.3161 13.3145 19.8787 13.8771L20.4819 14.4803C20.8136 14.8121 21 15.262 21 15.7311C21 16.708 20.208 17.5 19.2311 17.5Z" stroke="white" stroke-width="1.5" stroke-linecap="round" stroke-linejoin="round"/>
</svg>
