<svg width="32" height="32" viewBox="0 0 32 32" fill="none" xmlns="http://www.w3.org/2000/svg">
<path d="M11.0749 26.7066C10.5558 26.7066 10.1252 26.2761 10.1252 25.757V7.42253C10.1252 7.32123 10.0366 7.2326 9.92266 7.2326H6.74452C6.63056 7.2326 6.54193 7.32123 6.54193 7.42253V25.757C6.54193 26.2761 6.11142 26.7066 5.59228 26.7066C5.07314 26.7066 4.64264 26.2761 4.64264 25.757V7.42253C4.64264 6.27029 5.59228 5.33331 6.74452 5.33331H9.92266C11.0876 5.33331 12.0245 6.27029 12.0245 7.42253V25.757C12.0245 26.2761 11.594 26.7066 11.0749 26.7066Z" fill="#121212"/>
<path d="M11.4675 17.1212C11.0497 17.1212 10.6698 16.8426 10.5559 16.4248C10.4166 15.9183 10.7078 15.3992 11.2143 15.2599L24.6613 11.5373C25.6869 11.2587 26.2946 10.1951 26.0287 9.18218C25.8895 8.6757 25.5603 8.25786 25.1044 8.00462C24.6359 7.73872 24.0915 7.67541 23.585 7.82735L11.7334 11.2461C11.2396 11.398 10.7078 11.0941 10.5559 10.6003C10.4166 10.0938 10.7078 9.5747 11.2016 9.42275L23.0659 6.00404C24.0662 5.71281 25.1298 5.83943 26.0414 6.34591C26.9404 6.85238 27.5862 7.68807 27.8647 8.6757C28.4219 10.7016 27.2063 12.8035 25.1804 13.3606L11.7334 17.0832C11.6448 17.1085 11.5688 17.1212 11.4802 17.1212H11.4675Z" fill="#121212"/>
<path d="M15.5562 15.5132C15.037 15.5132 14.6065 15.0827 14.6065 14.5636V9.51147C14.6065 8.99233 15.037 8.56183 15.5562 8.56183C16.0753 8.56183 16.5058 8.99233 16.5058 9.51147V14.5636C16.5058 15.0827 16.0753 15.5132 15.5562 15.5132Z" fill="#121212"/>
<path d="M19.3052 14.5508C18.7861 14.5508 18.3556 14.1203 18.3556 13.6011V8.0932C18.3556 7.57406 18.7861 7.14355 19.3052 7.14355C19.8244 7.14355 20.2549 7.57406 20.2549 8.0932V13.6011C20.2549 14.1203 19.8244 14.5508 19.3052 14.5508Z" fill="#121212"/>
<path d="M23.0643 13.5888C22.5451 13.5888 22.1146 13.1583 22.1146 12.6392V7.13122C22.1146 6.61208 22.5451 6.18158 23.0643 6.18158C23.5834 6.18158 24.0139 6.61208 24.0139 7.13122V12.6392C24.0139 13.1583 23.5834 13.5888 23.0643 13.5888Z" fill="#121212"/>
<path d="M8.33993 13.7412C8.80846 13.7412 9.18827 13.367 9.18827 12.9055C9.18827 12.444 8.80846 12.0698 8.33993 12.0698C7.8714 12.0698 7.49158 12.444 7.49158 12.9055C7.49158 13.367 7.8714 13.7412 8.33993 13.7412Z" fill="#121212"/>
<path d="M27.0409 26.7065H3.61633C3.09719 26.7065 2.66669 26.276 2.66669 25.7568C2.66669 25.2377 3.09719 24.8072 3.61633 24.8072H27.0409C27.56 24.8072 27.9905 25.2377 27.9905 25.7568C27.9905 26.276 27.56 26.7065 27.0409 26.7065Z" fill="#121212"/>
</svg>
