<svg width="165" height="105" viewBox="0 0 165 105" fill="none" xmlns="http://www.w3.org/2000/svg">
<mask id="path-1-inside-1_6906_89186" fill="white">
<path d="M145.724 99.5693C145.919 98.8409 146.667 98.4091 147.396 98.6045L161.223 102.314C161.951 102.51 162.383 103.259 162.188 103.987C161.993 104.715 161.245 105.148 160.517 104.952L146.689 101.242C145.961 101.047 145.529 100.298 145.724 99.5693ZM17.6045 98.6035C18.3327 98.4084 19.0805 98.8411 19.2754 99.5693C19.4701 100.298 19.0377 101.046 18.3096 101.241L4.48242 104.951C3.75425 105.146 3.00646 104.715 2.81152 103.986C2.6166 103.258 3.04907 102.509 3.77734 102.313L17.6045 98.6035ZM16.0742 89.9873C16.8217 89.8889 17.5071 90.4147 17.6055 91.1621C17.7038 91.9098 17.1773 92.5958 16.4297 92.6943L2.2373 94.5654C1.48982 94.6638 0.804342 94.1372 0.706055 93.3896C0.608016 92.6422 1.13437 91.9569 1.88184 91.8584L16.0742 89.9873ZM148.927 89.9854L163.119 91.8564C163.867 91.9552 164.392 92.6412 164.294 93.3887C164.196 94.1363 163.51 94.663 162.763 94.5645L148.57 92.6934C147.823 92.5947 147.296 91.9087 147.395 91.1611C147.493 90.4135 148.179 89.8868 148.927 89.9854ZM15.6797 81.2422C16.4337 81.2422 17.0448 81.8534 17.0449 82.6074C17.0449 83.3615 16.4338 83.9727 15.6797 83.9727H1.36523C0.611199 83.9726 -2.77979e-08 83.3615 0 82.6074C9.67648e-05 81.8535 0.611258 81.2423 1.36523 81.2422H15.6797ZM163.635 81.2422C164.389 81.2423 165 81.8535 165 82.6074C165 83.3615 164.389 83.9726 163.635 83.9727H149.32C148.566 83.9727 147.954 83.3615 147.954 82.6074C147.954 81.8534 148.566 81.2422 149.32 81.2422H163.635ZM162.763 70.6514C163.51 70.5528 164.197 71.0786 164.295 71.8262C164.393 72.5737 163.867 73.2597 163.119 73.3584L148.927 75.2295C148.179 75.328 147.493 74.8014 147.395 74.0537C147.297 73.3063 147.823 72.6211 148.57 72.5225L162.763 70.6514ZM2.2373 70.6494L16.4297 72.5205C17.1772 72.6191 17.7036 73.3052 17.6055 74.0527C17.5072 74.8003 16.8217 75.3268 16.0742 75.2285L1.88184 73.3574C1.13423 73.2589 0.607758 72.5728 0.706055 71.8252C0.804341 71.0777 1.48983 70.5511 2.2373 70.6494ZM2.81055 61.2256C3.00547 60.4972 3.75415 60.0653 4.48242 60.2607L18.3096 63.9707C19.0378 64.1661 19.4703 64.9152 19.2754 65.6436C19.0803 66.3717 18.3316 66.8038 17.6035 66.6084L3.77637 62.8984C3.04819 62.703 2.61564 61.9539 2.81055 61.2256ZM160.517 60.2598C161.245 60.0644 161.994 60.4972 162.188 61.2256C162.383 61.9538 161.951 62.7021 161.223 62.8975L147.396 66.6074C146.667 66.8028 145.919 66.371 145.724 65.6426C145.529 64.9142 145.961 64.1651 146.689 63.9697L160.517 60.2598ZM6.28027 50.9951C6.56858 50.2989 7.36633 49.9684 8.0625 50.2568L21.2891 55.7422C21.9855 56.031 22.3165 56.8307 22.0283 57.5273C21.7401 58.224 20.9415 58.5545 20.2451 58.2656L7.01953 52.7803C6.3231 52.4914 5.99207 51.6918 6.28027 50.9951ZM156.937 50.2578C157.633 49.969 158.432 50.2994 158.72 50.9961C159.008 51.6927 158.677 52.4914 157.98 52.7803L144.755 58.2656C144.058 58.5545 143.26 58.224 142.972 57.5273C142.683 56.8306 143.015 56.032 143.711 55.7432L156.937 50.2578ZM11.0527 41.3047C11.4293 40.6518 12.2634 40.4285 12.916 40.8057L25.3145 47.9727C25.9671 48.35 26.191 49.1858 25.8145 49.8389C25.4379 50.4918 24.6038 50.7151 23.9512 50.3379L11.5527 43.1709C10.9001 42.7936 10.6762 41.9578 11.0527 41.3047ZM152.083 40.8047C152.736 40.4274 153.571 40.6506 153.947 41.3037C154.324 41.9566 154.1 42.7916 153.447 43.1689L141.049 50.3369C140.396 50.7141 139.562 50.4905 139.186 49.8379C138.809 49.1849 139.032 48.349 139.685 47.9717L152.083 40.8047ZM17.0479 32.3184C17.5063 31.7202 18.3623 31.6074 18.96 32.0664L30.3193 40.7939C30.9166 41.2532 31.0295 42.1099 30.5713 42.708C30.1129 43.3062 29.2569 43.419 28.6592 42.96L17.2998 34.2324C16.7026 33.7732 16.5897 32.9165 17.0479 32.3184ZM146.039 32.0654C146.637 31.6062 147.494 31.7191 147.952 32.3174C148.411 32.9156 148.297 33.7732 147.699 34.2324L136.341 42.96C135.743 43.4188 134.887 43.306 134.429 42.708C133.97 42.1098 134.083 41.2522 134.681 40.793L146.039 32.0654ZM24.1641 24.1934C24.6965 23.6606 25.5593 23.6606 26.0918 24.1934L36.2168 34.3311C36.7493 34.8643 36.7493 35.7295 36.2168 36.2627C35.6843 36.7958 34.8206 36.7958 34.2881 36.2627L24.1641 26.125C23.6315 25.5918 23.6315 24.7266 24.1641 24.1934ZM138.908 24.1924C139.441 23.6592 140.303 23.6592 140.836 24.1924C141.368 24.7256 141.368 25.5898 140.836 26.123L130.712 36.2607C130.179 36.794 129.316 36.794 128.783 36.2607C128.251 35.7276 128.251 34.8633 128.783 34.3301L138.908 24.1924ZM130.812 17.3213C131.27 16.7234 132.125 16.6105 132.723 17.0693C133.32 17.5284 133.433 18.3853 132.975 18.9834L124.258 30.3584C123.8 30.9563 122.944 31.0691 122.347 30.6104C121.749 30.1513 121.636 29.2944 122.095 28.6963L130.812 17.3213ZM32.2773 17.0674C32.8748 16.6085 33.7312 16.7214 34.1895 17.3193L42.9062 28.6943C43.3644 29.2923 43.2515 30.1493 42.6543 30.6084C42.0568 31.0675 41.2005 30.9545 40.7422 30.3564L32.0254 18.9824C31.5671 18.3844 31.6799 17.5264 32.2773 17.0674ZM41.25 11.0654C41.9021 10.6884 42.7359 10.912 43.1123 11.5645L50.2725 23.9824C50.6487 24.6351 50.4247 25.4696 49.7725 25.8467C49.1203 26.2235 48.2864 26.0002 47.9102 25.3477L40.751 12.9297C40.3748 12.2771 40.5978 11.4424 41.25 11.0654ZM121.888 11.5645C122.264 10.9119 123.098 10.6884 123.75 11.0654C124.402 11.4425 124.625 12.2771 124.249 12.9297L117.09 25.3477C116.714 26.0002 115.88 26.2234 115.228 25.8467C114.575 25.4697 114.351 24.635 114.728 23.9824L121.888 11.5645ZM112.29 7.02637C112.578 6.33035 113.376 5.99959 114.071 6.28809C114.767 6.57667 115.098 7.37524 114.81 8.07129L109.329 21.3184C109.041 22.0143 108.245 22.3449 107.549 22.0566C106.853 21.7681 106.522 20.9695 106.81 20.2734L112.29 7.02637ZM50.9287 6.28516C51.6244 5.99687 52.4221 6.32752 52.71 7.02344L58.1895 20.2705C58.4774 20.9666 58.147 21.7651 57.4512 22.0537C56.7555 22.3422 55.958 22.0122 55.6699 21.3164L50.1895 8.06836C49.9015 7.37231 50.2329 6.57374 50.9287 6.28516ZM61.1475 2.8125C61.8747 2.61759 62.6216 3.0491 62.8164 3.77637L66.5234 17.6279C66.7181 18.3555 66.286 19.1037 65.5586 19.2988C64.8313 19.4939 64.0834 19.0624 63.8887 18.335L60.1826 4.4834C59.9879 3.75582 60.42 3.00767 61.1475 2.8125ZM102.183 3.77441C102.377 3.04684 103.125 2.61538 103.853 2.81055C104.58 3.00572 105.012 3.75387 104.817 4.48145L101.11 18.333C100.915 19.0603 100.168 19.492 99.4404 19.2969C98.7132 19.1016 98.282 18.3534 98.4766 17.626L102.183 3.77441ZM93.2686 0.705078C94.015 0.803526 94.5403 1.48884 94.4424 2.23535L92.5732 16.4531C92.4751 17.1997 91.7905 17.7252 91.0439 17.627C90.2973 17.5285 89.771 16.8434 89.8691 16.0967L91.7383 1.87891C91.8367 1.13242 92.522 0.606666 93.2686 0.705078ZM71.7314 0.705078C72.4779 0.606671 73.1623 1.1315 73.2607 1.87793L75.1309 16.0957C75.229 16.8424 74.7027 17.5275 73.9561 17.626C73.2095 17.7243 72.5249 17.1988 72.4268 16.4521L70.5576 2.23438C70.4597 1.48784 70.9849 0.803514 71.7314 0.705078ZM82.5 0C83.253 0 83.8641 0.610329 83.8643 1.36328V15.7041C83.8642 16.4572 83.2531 17.0674 82.5 17.0674C81.747 17.0673 81.1368 16.4571 81.1367 15.7041V1.36328C81.1369 0.610383 81.7471 8.81126e-05 82.5 0Z"/>
</mask>
<path d="M145.724 99.5693C145.919 98.8409 146.667 98.4091 147.396 98.6045L161.223 102.314C161.951 102.51 162.383 103.259 162.188 103.987C161.993 104.715 161.245 105.148 160.517 104.952L146.689 101.242C145.961 101.047 145.529 100.298 145.724 99.5693ZM17.6045 98.6035C18.3327 98.4084 19.0805 98.8411 19.2754 99.5693C19.4701 100.298 19.0377 101.046 18.3096 101.241L4.48242 104.951C3.75425 105.146 3.00646 104.715 2.81152 103.986C2.6166 103.258 3.04907 102.509 3.77734 102.313L17.6045 98.6035ZM16.0742 89.9873C16.8217 89.8889 17.5071 90.4147 17.6055 91.1621C17.7038 91.9098 17.1773 92.5958 16.4297 92.6943L2.2373 94.5654C1.48982 94.6638 0.804342 94.1372 0.706055 93.3896C0.608016 92.6422 1.13437 91.9569 1.88184 91.8584L16.0742 89.9873ZM148.927 89.9854L163.119 91.8564C163.867 91.9552 164.392 92.6412 164.294 93.3887C164.196 94.1363 163.51 94.663 162.763 94.5645L148.57 92.6934C147.823 92.5947 147.296 91.9087 147.395 91.1611C147.493 90.4135 148.179 89.8868 148.927 89.9854ZM15.6797 81.2422C16.4337 81.2422 17.0448 81.8534 17.0449 82.6074C17.0449 83.3615 16.4338 83.9727 15.6797 83.9727H1.36523C0.611199 83.9726 -2.77979e-08 83.3615 0 82.6074C9.67648e-05 81.8535 0.611258 81.2423 1.36523 81.2422H15.6797ZM163.635 81.2422C164.389 81.2423 165 81.8535 165 82.6074C165 83.3615 164.389 83.9726 163.635 83.9727H149.32C148.566 83.9727 147.954 83.3615 147.954 82.6074C147.954 81.8534 148.566 81.2422 149.32 81.2422H163.635ZM162.763 70.6514C163.51 70.5528 164.197 71.0786 164.295 71.8262C164.393 72.5737 163.867 73.2597 163.119 73.3584L148.927 75.2295C148.179 75.328 147.493 74.8014 147.395 74.0537C147.297 73.3063 147.823 72.6211 148.57 72.5225L162.763 70.6514ZM2.2373 70.6494L16.4297 72.5205C17.1772 72.6191 17.7036 73.3052 17.6055 74.0527C17.5072 74.8003 16.8217 75.3268 16.0742 75.2285L1.88184 73.3574C1.13423 73.2589 0.607758 72.5728 0.706055 71.8252C0.804341 71.0777 1.48983 70.5511 2.2373 70.6494ZM2.81055 61.2256C3.00547 60.4972 3.75415 60.0653 4.48242 60.2607L18.3096 63.9707C19.0378 64.1661 19.4703 64.9152 19.2754 65.6436C19.0803 66.3717 18.3316 66.8038 17.6035 66.6084L3.77637 62.8984C3.04819 62.703 2.61564 61.9539 2.81055 61.2256ZM160.517 60.2598C161.245 60.0644 161.994 60.4972 162.188 61.2256C162.383 61.9538 161.951 62.7021 161.223 62.8975L147.396 66.6074C146.667 66.8028 145.919 66.371 145.724 65.6426C145.529 64.9142 145.961 64.1651 146.689 63.9697L160.517 60.2598ZM6.28027 50.9951C6.56858 50.2989 7.36633 49.9684 8.0625 50.2568L21.2891 55.7422C21.9855 56.031 22.3165 56.8307 22.0283 57.5273C21.7401 58.224 20.9415 58.5545 20.2451 58.2656L7.01953 52.7803C6.3231 52.4914 5.99207 51.6918 6.28027 50.9951ZM156.937 50.2578C157.633 49.969 158.432 50.2994 158.72 50.9961C159.008 51.6927 158.677 52.4914 157.98 52.7803L144.755 58.2656C144.058 58.5545 143.26 58.224 142.972 57.5273C142.683 56.8306 143.015 56.032 143.711 55.7432L156.937 50.2578ZM11.0527 41.3047C11.4293 40.6518 12.2634 40.4285 12.916 40.8057L25.3145 47.9727C25.9671 48.35 26.191 49.1858 25.8145 49.8389C25.4379 50.4918 24.6038 50.7151 23.9512 50.3379L11.5527 43.1709C10.9001 42.7936 10.6762 41.9578 11.0527 41.3047ZM152.083 40.8047C152.736 40.4274 153.571 40.6506 153.947 41.3037C154.324 41.9566 154.1 42.7916 153.447 43.1689L141.049 50.3369C140.396 50.7141 139.562 50.4905 139.186 49.8379C138.809 49.1849 139.032 48.349 139.685 47.9717L152.083 40.8047ZM17.0479 32.3184C17.5063 31.7202 18.3623 31.6074 18.96 32.0664L30.3193 40.7939C30.9166 41.2532 31.0295 42.1099 30.5713 42.708C30.1129 43.3062 29.2569 43.419 28.6592 42.96L17.2998 34.2324C16.7026 33.7732 16.5897 32.9165 17.0479 32.3184ZM146.039 32.0654C146.637 31.6062 147.494 31.7191 147.952 32.3174C148.411 32.9156 148.297 33.7732 147.699 34.2324L136.341 42.96C135.743 43.4188 134.887 43.306 134.429 42.708C133.97 42.1098 134.083 41.2522 134.681 40.793L146.039 32.0654ZM24.1641 24.1934C24.6965 23.6606 25.5593 23.6606 26.0918 24.1934L36.2168 34.3311C36.7493 34.8643 36.7493 35.7295 36.2168 36.2627C35.6843 36.7958 34.8206 36.7958 34.2881 36.2627L24.1641 26.125C23.6315 25.5918 23.6315 24.7266 24.1641 24.1934ZM138.908 24.1924C139.441 23.6592 140.303 23.6592 140.836 24.1924C141.368 24.7256 141.368 25.5898 140.836 26.123L130.712 36.2607C130.179 36.794 129.316 36.794 128.783 36.2607C128.251 35.7276 128.251 34.8633 128.783 34.3301L138.908 24.1924ZM130.812 17.3213C131.27 16.7234 132.125 16.6105 132.723 17.0693C133.32 17.5284 133.433 18.3853 132.975 18.9834L124.258 30.3584C123.8 30.9563 122.944 31.0691 122.347 30.6104C121.749 30.1513 121.636 29.2944 122.095 28.6963L130.812 17.3213ZM32.2773 17.0674C32.8748 16.6085 33.7312 16.7214 34.1895 17.3193L42.9062 28.6943C43.3644 29.2923 43.2515 30.1493 42.6543 30.6084C42.0568 31.0675 41.2005 30.9545 40.7422 30.3564L32.0254 18.9824C31.5671 18.3844 31.6799 17.5264 32.2773 17.0674ZM41.25 11.0654C41.9021 10.6884 42.7359 10.912 43.1123 11.5645L50.2725 23.9824C50.6487 24.6351 50.4247 25.4696 49.7725 25.8467C49.1203 26.2235 48.2864 26.0002 47.9102 25.3477L40.751 12.9297C40.3748 12.2771 40.5978 11.4424 41.25 11.0654ZM121.888 11.5645C122.264 10.9119 123.098 10.6884 123.75 11.0654C124.402 11.4425 124.625 12.2771 124.249 12.9297L117.09 25.3477C116.714 26.0002 115.88 26.2234 115.228 25.8467C114.575 25.4697 114.351 24.635 114.728 23.9824L121.888 11.5645ZM112.29 7.02637C112.578 6.33035 113.376 5.99959 114.071 6.28809C114.767 6.57667 115.098 7.37524 114.81 8.07129L109.329 21.3184C109.041 22.0143 108.245 22.3449 107.549 22.0566C106.853 21.7681 106.522 20.9695 106.81 20.2734L112.29 7.02637ZM50.9287 6.28516C51.6244 5.99687 52.4221 6.32752 52.71 7.02344L58.1895 20.2705C58.4774 20.9666 58.147 21.7651 57.4512 22.0537C56.7555 22.3422 55.958 22.0122 55.6699 21.3164L50.1895 8.06836C49.9015 7.37231 50.2329 6.57374 50.9287 6.28516ZM61.1475 2.8125C61.8747 2.61759 62.6216 3.0491 62.8164 3.77637L66.5234 17.6279C66.7181 18.3555 66.286 19.1037 65.5586 19.2988C64.8313 19.4939 64.0834 19.0624 63.8887 18.335L60.1826 4.4834C59.9879 3.75582 60.42 3.00767 61.1475 2.8125ZM102.183 3.77441C102.377 3.04684 103.125 2.61538 103.853 2.81055C104.58 3.00572 105.012 3.75387 104.817 4.48145L101.11 18.333C100.915 19.0603 100.168 19.492 99.4404 19.2969C98.7132 19.1016 98.282 18.3534 98.4766 17.626L102.183 3.77441ZM93.2686 0.705078C94.015 0.803526 94.5403 1.48884 94.4424 2.23535L92.5732 16.4531C92.4751 17.1997 91.7905 17.7252 91.0439 17.627C90.2973 17.5285 89.771 16.8434 89.8691 16.0967L91.7383 1.87891C91.8367 1.13242 92.522 0.606666 93.2686 0.705078ZM71.7314 0.705078C72.4779 0.606671 73.1623 1.1315 73.2607 1.87793L75.1309 16.0957C75.229 16.8424 74.7027 17.5275 73.9561 17.626C73.2095 17.7243 72.5249 17.1988 72.4268 16.4521L70.5576 2.23438C70.4597 1.48784 70.9849 0.803514 71.7314 0.705078ZM82.5 0C83.253 0 83.8641 0.610329 83.8643 1.36328V15.7041C83.8642 16.4572 83.2531 17.0674 82.5 17.0674C81.747 17.0673 81.1368 16.4571 81.1367 15.7041V1.36328C81.1369 0.610383 81.7471 8.81126e-05 82.5 0Z" fill="url(#paint0_radial_6906_89186)"/>
<path d="M145.724 99.5693L145.53 99.5176V99.5176L145.724 99.5693ZM147.396 98.6045L147.447 98.4113V98.4113L147.396 98.6045ZM161.223 102.314L161.171 102.508V102.508L161.223 102.314ZM162.188 103.987L162.382 104.039L162.382 104.039L162.188 103.987ZM160.517 104.952L160.465 105.145V105.145L160.517 104.952ZM146.689 101.242L146.638 101.435L146.638 101.435L146.689 101.242ZM17.6045 98.6035L17.5527 98.4103L17.5527 98.4103L17.6045 98.6035ZM19.2754 99.5693L19.4686 99.5177L19.4686 99.5176L19.2754 99.5693ZM18.3096 101.241L18.2577 101.048H18.2577L18.3096 101.241ZM4.48242 104.951L4.53421 105.144L4.53425 105.144L4.48242 104.951ZM2.81152 103.986L2.61832 104.038L2.61832 104.038L2.81152 103.986ZM3.77734 102.313L3.82917 102.507H3.82917L3.77734 102.313ZM16.0742 89.9873L16.0481 89.789H16.0481L16.0742 89.9873ZM17.6055 91.1621L17.8038 91.136L17.8038 91.136L17.6055 91.1621ZM16.4297 92.6943L16.4035 92.496H16.4035L16.4297 92.6943ZM2.2373 94.5654L2.2634 94.7637H2.26345L2.2373 94.5654ZM0.706055 93.3896L0.507753 93.4157L0.507761 93.4157L0.706055 93.3896ZM1.88184 91.8584L1.90797 92.0567H1.90798L1.88184 91.8584ZM148.927 89.9854L148.953 89.7871V89.7871L148.927 89.9854ZM163.119 91.8564L163.145 91.6582L163.145 91.6582L163.119 91.8564ZM164.294 93.3887L164.492 93.4147L164.492 93.4147L164.294 93.3887ZM162.763 94.5645L162.737 94.7627V94.7627L162.763 94.5645ZM148.57 92.6934L148.544 92.8916L148.544 92.8916L148.57 92.6934ZM147.395 91.1611L147.196 91.1351V91.1351L147.395 91.1611ZM15.6797 81.2422V81.0422V81.0422V81.2422ZM17.0449 82.6074H17.2449V82.6074L17.0449 82.6074ZM15.6797 83.9727V83.7727V83.7727V83.9727ZM1.36523 83.9727L1.36522 84.1727H1.36523V83.9727ZM0 82.6074L-0.2 82.6074V82.6074H0ZM1.36523 81.2422V81.0422H1.36522L1.36523 81.2422ZM163.635 81.2422L163.635 81.0422H163.635V81.2422ZM165 82.6074H165.2V82.6074L165 82.6074ZM163.635 83.9727V84.1727H163.635L163.635 83.9727ZM149.32 83.9727V84.1727V84.1727V83.9727ZM147.954 82.6074L147.754 82.6074V82.6074H147.954ZM149.32 81.2422V81.4422V81.4422V81.2422ZM162.763 70.6514L162.737 70.4531V70.4531L162.763 70.6514ZM164.295 71.8262L164.493 71.8001V71.8001L164.295 71.8262ZM163.119 73.3584L163.145 73.5567L163.145 73.5567L163.119 73.3584ZM148.927 75.2295L148.953 75.4278V75.4278L148.927 75.2295ZM147.395 74.0537L147.196 74.0797L147.196 74.0798L147.395 74.0537ZM148.57 72.5225L148.544 72.3242L148.544 72.3242L148.57 72.5225ZM2.2373 70.6494L2.26345 70.4511H2.26339L2.2373 70.6494ZM16.4297 72.5205L16.4035 72.7188H16.4035L16.4297 72.5205ZM17.6055 74.0527L17.8038 74.0788L17.8038 74.0788L17.6055 74.0527ZM16.0742 75.2285L16.0481 75.4268H16.0481L16.0742 75.2285ZM1.88184 73.3574L1.90798 73.1591H1.90797L1.88184 73.3574ZM0.706055 71.8252L0.507761 71.7991H0.507761L0.706055 71.8252ZM2.81055 61.2256L2.61734 61.1739V61.1739L2.81055 61.2256ZM4.48242 60.2607L4.53425 60.0676H4.53425L4.48242 60.2607ZM18.3096 63.9707L18.2577 64.1639H18.2577L18.3096 63.9707ZM19.2754 65.6436L19.4686 65.6953L19.4686 65.6953L19.2754 65.6436ZM17.6035 66.6084L17.5517 66.8016H17.5517L17.6035 66.6084ZM3.77637 62.8984L3.72452 63.0916L3.72454 63.0916L3.77637 62.8984ZM160.517 60.2598L160.465 60.0666V60.0666L160.517 60.2598ZM162.188 61.2256L162.382 61.174L162.382 61.1739L162.188 61.2256ZM161.223 62.8975L161.274 63.0906L161.275 63.0906L161.223 62.8975ZM147.396 66.6074L147.447 66.8006V66.8006L147.396 66.6074ZM145.724 65.6426L145.53 65.6943V65.6943L145.724 65.6426ZM146.689 63.9697L146.741 64.1629V64.1629L146.689 63.9697ZM6.28027 50.9951L6.09549 50.9186L6.09546 50.9187L6.28027 50.9951ZM8.0625 50.2568L8.13912 50.0721L8.13906 50.0721L8.0625 50.2568ZM21.2891 55.7422L21.3657 55.5574L21.3657 55.5574L21.2891 55.7422ZM22.0283 57.5273L22.2131 57.6038L22.2131 57.6038L22.0283 57.5273ZM20.2451 58.2656L20.3217 58.0809V58.0809L20.2451 58.2656ZM7.01953 52.7803L6.94291 52.965H6.94291L7.01953 52.7803ZM156.937 50.2578L157.013 50.4426V50.4426L156.937 50.2578ZM158.72 50.9961L158.905 50.9197L158.905 50.9196L158.72 50.9961ZM157.98 52.7803L158.057 52.965L158.057 52.965L157.98 52.7803ZM144.755 58.2656L144.678 58.0809V58.0809L144.755 58.2656ZM142.972 57.5273L142.787 57.6038V57.6038L142.972 57.5273ZM143.711 55.7432L143.634 55.5584V55.5584L143.711 55.7432ZM11.0527 41.3047L10.8795 41.2048L10.8795 41.2048L11.0527 41.3047ZM12.916 40.8057L13.0161 40.6325L13.0161 40.6325L12.916 40.8057ZM25.3145 47.9727L25.4146 47.7995L25.4145 47.7995L25.3145 47.9727ZM25.8145 49.8389L25.9877 49.9388L25.9877 49.9388L25.8145 49.8389ZM23.9512 50.3379L23.8511 50.511V50.511L23.9512 50.3379ZM11.5527 43.1709L11.4526 43.344L11.4526 43.3441L11.5527 43.1709ZM152.083 40.8047L152.183 40.9778V40.9778L152.083 40.8047ZM153.947 41.3037L154.121 41.2038L154.121 41.2038L153.947 41.3037ZM153.447 43.1689L153.547 43.3421L153.547 43.3421L153.447 43.1689ZM141.049 50.3369L141.149 50.5101V50.5101L141.049 50.3369ZM139.186 49.8379L139.012 49.9378L139.012 49.9379L139.186 49.8379ZM139.685 47.9717L139.584 47.7985L139.584 47.7986L139.685 47.9717ZM17.0479 32.3184L16.8891 32.1967L16.8891 32.1967L17.0479 32.3184ZM18.96 32.0664L19.0818 31.9078L19.0818 31.9078L18.96 32.0664ZM30.3193 40.7939L30.4412 40.6354L30.4412 40.6353L30.3193 40.7939ZM30.5713 42.708L30.73 42.8297L30.7301 42.8296L30.5713 42.708ZM28.6592 42.96L28.5373 43.1186L28.5374 43.1186L28.6592 42.96ZM17.2998 34.2324L17.1779 34.391L17.178 34.391L17.2998 34.2324ZM146.039 32.0654L145.917 31.9068V31.9068L146.039 32.0654ZM147.952 32.3174L148.111 32.1957V32.1957L147.952 32.3174ZM147.699 34.2324L147.577 34.0738V34.0738L147.699 34.2324ZM136.341 42.96L136.463 43.1186L136.463 43.1185L136.341 42.96ZM134.429 42.708L134.27 42.8297L134.27 42.8297L134.429 42.708ZM134.681 40.793L134.559 40.6344V40.6344L134.681 40.793ZM24.1641 24.1934L24.0226 24.052L24.0225 24.052L24.1641 24.1934ZM26.0918 24.1934L26.2333 24.052L26.2333 24.052L26.0918 24.1934ZM36.2168 34.3311L36.3583 34.1897L36.3583 34.1897L36.2168 34.3311ZM36.2168 36.2627L36.3583 36.404L36.3583 36.404L36.2168 36.2627ZM34.2881 36.2627L34.1466 36.404L34.1466 36.404L34.2881 36.2627ZM24.1641 26.125L24.3056 25.9837L24.3056 25.9837L24.1641 26.125ZM138.908 24.1924L138.767 24.051V24.0511L138.908 24.1924ZM140.836 24.1924L140.977 24.0511V24.0511L140.836 24.1924ZM140.836 26.123L140.694 25.9817V25.9817L140.836 26.123ZM130.712 36.2607L130.853 36.4021V36.4021L130.712 36.2607ZM128.783 36.2607L128.642 36.4021V36.4021L128.783 36.2607ZM128.783 34.3301L128.642 34.1887L128.642 34.1888L128.783 34.3301ZM130.812 17.3213L130.653 17.1996L130.653 17.1996L130.812 17.3213ZM132.723 17.0693L132.845 16.9107L132.844 16.9107L132.723 17.0693ZM132.975 18.9834L132.816 18.8617V18.8617L132.975 18.9834ZM124.258 30.3584L124.417 30.4801V30.48L124.258 30.3584ZM122.347 30.6104L122.225 30.7689L122.225 30.769L122.347 30.6104ZM122.095 28.6963L122.253 28.8179V28.8179L122.095 28.6963ZM32.2773 17.0674L32.1555 16.9088L32.1555 16.9088L32.2773 17.0674ZM34.1895 17.3193L34.3482 17.1977V17.1977L34.1895 17.3193ZM42.9062 28.6943L43.065 28.5727L43.065 28.5727L42.9062 28.6943ZM42.6543 30.6084L42.7761 30.767L42.7762 30.767L42.6543 30.6084ZM40.7422 30.3564L40.9009 30.2348L40.9009 30.2348L40.7422 30.3564ZM32.0254 18.9824L31.8666 19.1041L31.8666 19.1041L32.0254 18.9824ZM41.25 11.0654L41.1499 10.8923V10.8923L41.25 11.0654ZM43.1123 11.5645L43.2856 11.4646L43.2855 11.4645L43.1123 11.5645ZM50.2725 23.9824L50.4457 23.8825L50.4457 23.8825L50.2725 23.9824ZM49.7725 25.8467L49.8725 26.0199L49.8726 26.0198L49.7725 25.8467ZM47.9102 25.3477L47.7369 25.4475L47.7369 25.4476L47.9102 25.3477ZM40.751 12.9297L40.5777 13.0296L40.5777 13.0296L40.751 12.9297ZM121.888 11.5645L121.714 11.4645L121.714 11.4646L121.888 11.5645ZM123.75 11.0654L123.85 10.8923L123.85 10.8923L123.75 11.0654ZM124.249 12.9297L124.076 12.8298L124.076 12.8298L124.249 12.9297ZM117.09 25.3477L117.263 25.4476L117.263 25.4475L117.09 25.3477ZM115.228 25.8467L115.127 26.0198L115.127 26.0199L115.228 25.8467ZM114.728 23.9824L114.554 23.8825L114.554 23.8825L114.728 23.9824ZM112.29 7.02637L112.475 7.10282L112.475 7.10282L112.29 7.02637ZM114.071 6.28809L114.148 6.10335L114.148 6.10334L114.071 6.28809ZM114.81 8.07129L114.994 8.14775L114.994 8.14774L114.81 8.07129ZM109.329 21.3184L109.144 21.2419L109.144 21.2419L109.329 21.3184ZM107.549 22.0566L107.472 22.2414L107.472 22.2414L107.549 22.0566ZM106.81 20.2734L106.625 20.197L106.625 20.197L106.81 20.2734ZM50.9287 6.28516L50.8521 6.10039L50.8521 6.10042L50.9287 6.28516ZM52.71 7.02344L52.8948 6.94699L52.8948 6.94699L52.71 7.02344ZM58.1895 20.2705L58.0046 20.347L58.0046 20.347L58.1895 20.2705ZM57.4512 22.0537L57.5278 22.2385L57.5278 22.2385L57.4512 22.0537ZM55.6699 21.3164L55.4851 21.3929L55.4851 21.3929L55.6699 21.3164ZM50.1895 8.06836L50.0046 8.14481V8.14481L50.1895 8.06836ZM61.1475 2.8125L61.0957 2.61932L61.0956 2.61933L61.1475 2.8125ZM62.8164 3.77637L63.0096 3.72466L63.0096 3.72462L62.8164 3.77637ZM66.5234 17.6279L66.7166 17.5762V17.5762L66.5234 17.6279ZM65.5586 19.2988L65.6104 19.492L65.6104 19.492L65.5586 19.2988ZM63.8887 18.335L63.6955 18.3867L63.6955 18.3867L63.8887 18.335ZM60.1826 4.4834L60.3758 4.43171V4.4317L60.1826 4.4834ZM102.183 3.77441L101.989 3.72271L101.989 3.72272L102.183 3.77441ZM103.853 2.81055L103.904 2.61738V2.61738L103.853 2.81055ZM104.817 4.48145L105.011 4.53315V4.53315L104.817 4.48145ZM101.11 18.333L101.304 18.3848L101.304 18.3847L101.11 18.333ZM99.4404 19.2969L99.3885 19.49L99.3886 19.49L99.4404 19.2969ZM98.4766 17.626L98.2834 17.5743V17.5743L98.4766 17.626ZM93.2686 0.705078L93.2947 0.506795L93.2947 0.506794L93.2686 0.705078ZM94.4424 2.23535L94.6407 2.26142L94.6407 2.26136L94.4424 2.23535ZM92.5732 16.4531L92.7715 16.4792V16.4792L92.5732 16.4531ZM91.0439 17.627L91.0178 17.8252L91.0179 17.8252L91.0439 17.627ZM89.8691 16.0967L90.0674 16.1228V16.1227L89.8691 16.0967ZM91.7383 1.87891L91.54 1.85278L91.54 1.85284L91.7383 1.87891ZM71.7314 0.705078L71.7053 0.506794L71.7053 0.506795L71.7314 0.705078ZM73.2607 1.87793L73.459 1.85185L73.459 1.85178L73.2607 1.87793ZM75.1309 16.0957L75.3292 16.0696V16.0696L75.1309 16.0957ZM73.9561 17.626L73.9822 17.8243L73.9822 17.8243L73.9561 17.626ZM72.4268 16.4521L72.2285 16.4782V16.4782L72.4268 16.4521ZM70.5576 2.23438L70.3593 2.26039L70.3593 2.26044L70.5576 2.23438ZM82.5 0V-0.2H82.5L82.5 0ZM83.8643 1.36328H84.0643V1.36323L83.8643 1.36328ZM83.8643 15.7041L84.0643 15.7041V15.7041H83.8643ZM82.5 17.0674L82.5 17.2674H82.5V17.0674ZM81.1367 15.7041H80.9367V15.7041L81.1367 15.7041ZM81.1367 1.36328L80.9367 1.36323V1.36328H81.1367ZM145.724 99.5693L145.917 99.621C146.083 98.9995 146.722 98.6309 147.344 98.7977L147.396 98.6045L147.447 98.4113C146.612 98.1873 145.754 98.6824 145.53 99.5176L145.724 99.5693ZM147.396 98.6045L147.344 98.7977L161.171 102.508L161.223 102.314L161.274 102.121L147.447 98.4113L147.396 98.6045ZM161.223 102.314L161.171 102.508C161.792 102.674 162.162 103.314 161.995 103.936L162.188 103.987L162.382 104.039C162.605 103.204 162.109 102.345 161.274 102.121L161.223 102.314ZM162.188 103.987L161.995 103.936C161.829 104.557 161.19 104.926 160.568 104.759L160.517 104.952L160.465 105.145C161.3 105.369 162.158 104.874 162.382 104.039L162.188 103.987ZM160.517 104.952L160.568 104.759L146.741 101.049L146.689 101.242L146.638 101.435L160.465 105.145L160.517 104.952ZM146.689 101.242L146.741 101.049C146.12 100.882 145.75 100.243 145.917 99.621L145.724 99.5693L145.53 99.5176C145.307 100.353 145.803 101.211 146.638 101.435L146.689 101.242ZM17.6045 98.6035L17.6563 98.7967C18.2775 98.6302 18.9158 98.9993 19.0822 99.621L19.2754 99.5693L19.4686 99.5176C19.2452 98.6828 18.3878 98.1865 17.5527 98.4103L17.6045 98.6035ZM19.2754 99.5693L19.0822 99.621C19.2484 100.243 18.8794 100.881 18.2577 101.048L18.3096 101.241L18.3614 101.434C19.1961 101.21 19.6918 100.353 19.4686 99.5177L19.2754 99.5693ZM18.3096 101.241L18.2577 101.048L4.43059 104.758L4.48242 104.951L4.53425 105.144L18.3614 101.434L18.3096 101.241ZM4.48242 104.951L4.43063 104.758C3.80919 104.925 3.17109 104.556 3.00472 103.935L2.81152 103.986L2.61832 104.038C2.84183 104.873 3.69932 105.368 4.53421 105.144L4.48242 104.951ZM2.81152 103.986L3.00473 103.935C2.83835 103.313 3.20753 102.673 3.82917 102.507L3.77734 102.313L3.72552 102.12C2.89061 102.344 2.39486 103.203 2.61832 104.038L2.81152 103.986ZM3.77734 102.313L3.82917 102.507L17.6563 98.7967L17.6045 98.6035L17.5527 98.4103L3.72551 102.12L3.77734 102.313ZM16.0742 89.9873L16.1003 90.1856C16.7383 90.1016 17.3232 90.5503 17.4072 91.1882L17.6055 91.1621L17.8038 91.136C17.6909 90.279 16.905 89.6762 16.0481 89.789L16.0742 89.9873ZM17.6055 91.1621L17.4072 91.1882C17.4911 91.8263 17.0417 92.4119 16.4035 92.496L16.4297 92.6943L16.4558 92.8926C17.3129 92.7796 17.9165 91.9932 17.8038 91.136L17.6055 91.1621ZM16.4297 92.6943L16.4035 92.496L2.21116 94.3671L2.2373 94.5654L2.26345 94.7637L16.4558 92.8926L16.4297 92.6943ZM2.2373 94.5654L2.21121 94.3671C1.57336 94.4511 0.988249 94.0017 0.904348 93.3636L0.706055 93.3896L0.507761 93.4157C0.620434 94.2727 1.40628 94.8765 2.2634 94.7637L2.2373 94.5654ZM0.706055 93.3896L0.904356 93.3636C0.820687 92.7257 1.26988 92.1408 1.90797 92.0567L1.88184 91.8584L1.8557 91.6601C0.998857 91.7731 0.395346 92.5586 0.507753 93.4157L0.706055 93.3896ZM1.88184 91.8584L1.90798 92.0567L16.1004 90.1856L16.0742 89.9873L16.0481 89.789L1.85569 91.6601L1.88184 91.8584ZM148.927 89.9854L148.901 90.1836L163.093 92.0547L163.119 91.8564L163.145 91.6582L148.953 89.7871L148.927 89.9854ZM163.119 91.8564L163.093 92.0547C163.731 92.139 164.179 92.7245 164.096 93.3626L164.294 93.3887L164.492 93.4147C164.605 92.5579 164.002 91.7714 163.145 91.6582L163.119 91.8564ZM164.294 93.3887L164.096 93.3626C164.012 94.0009 163.427 94.4503 162.789 94.3662L162.763 94.5645L162.737 94.7627C163.594 94.8758 164.38 94.2718 164.492 93.4147L164.294 93.3887ZM162.763 94.5645L162.789 94.3662L148.596 92.4951L148.57 92.6934L148.544 92.8916L162.737 94.7627L162.763 94.5645ZM148.57 92.6934L148.596 92.4951C147.958 92.4109 147.509 91.8253 147.593 91.1872L147.395 91.1611L147.196 91.1351C147.084 91.9921 147.687 92.7786 148.544 92.8916L148.57 92.6934ZM147.395 91.1611L147.593 91.1872C147.677 90.5491 148.263 90.0995 148.901 90.1836L148.927 89.9854L148.953 89.7871C148.096 89.6741 147.309 90.2779 147.196 91.1351L147.395 91.1611ZM15.6797 81.2422V81.4422C16.3232 81.4422 16.8448 81.9638 16.8449 82.6074L17.0449 82.6074L17.2449 82.6074C17.2448 81.743 16.5442 81.0422 15.6797 81.0422V81.2422ZM17.0449 82.6074H16.8449C16.8449 83.2511 16.3233 83.7727 15.6797 83.7727V83.9727V84.1727C16.5442 84.1727 17.2449 83.472 17.2449 82.6074H17.0449ZM15.6797 83.9727V83.7727H1.36523V83.9727V84.1727H15.6797V83.9727ZM1.36523 83.9727L1.36525 83.7727C0.721641 83.7726 0.2 83.251 0.2 82.6074H0H-0.2C-0.2 83.4719 0.500757 84.1726 1.36522 84.1727L1.36523 83.9727ZM0 82.6074L0.2 82.6074C0.200083 81.9639 0.721726 81.4422 1.36525 81.4422L1.36523 81.2422L1.36522 81.0422C0.500791 81.0423 -0.199889 81.743 -0.2 82.6074L0 82.6074ZM1.36523 81.2422V81.4422H15.6797V81.2422V81.0422H1.36523V81.2422ZM163.635 81.2422L163.635 81.4422C164.278 81.4423 164.8 81.9639 164.8 82.6074L165 82.6074L165.2 82.6074C165.2 81.743 164.499 81.0423 163.635 81.0422L163.635 81.2422ZM165 82.6074H164.8C164.8 83.251 164.278 83.7726 163.635 83.7727L163.635 83.9727L163.635 84.1727C164.499 84.1725 165.2 83.4719 165.2 82.6074H165ZM163.635 83.9727V83.7727H149.32V83.9727V84.1727H163.635V83.9727ZM149.32 83.9727V83.7727C148.676 83.7727 148.154 83.2509 148.154 82.6074H147.954H147.754C147.754 83.4722 148.456 84.1727 149.32 84.1727V83.9727ZM147.954 82.6074L148.154 82.6074C148.154 81.964 148.677 81.4422 149.32 81.4422V81.2422V81.0422C148.456 81.0422 147.754 81.7428 147.754 82.6074L147.954 82.6074ZM149.32 81.2422V81.4422H163.635V81.2422V81.0422H149.32V81.2422ZM162.763 70.6514L162.789 70.8497C163.427 70.7655 164.013 71.2144 164.097 71.8523L164.295 71.8262L164.493 71.8001C164.38 70.9428 163.593 70.3401 162.737 70.4531L162.763 70.6514ZM164.295 71.8262L164.097 71.8522C164.181 72.4902 163.731 73.0758 163.093 73.1601L163.119 73.3584L163.145 73.5567C164.002 73.4435 164.606 72.6572 164.493 71.8001L164.295 71.8262ZM163.119 73.3584L163.093 73.1601L148.901 75.0312L148.927 75.2295L148.953 75.4278L163.145 73.5567L163.119 73.3584ZM148.927 75.2295L148.901 75.0312C148.263 75.1153 147.677 74.6658 147.593 74.0276L147.395 74.0537L147.196 74.0798C147.309 74.937 148.096 75.5408 148.953 75.4278L148.927 75.2295ZM147.395 74.0537L147.593 74.0277C147.509 73.3899 147.958 72.805 148.596 72.7207L148.57 72.5225L148.544 72.3242C147.688 72.4373 147.084 73.2228 147.196 74.0797L147.395 74.0537ZM148.57 72.5225L148.596 72.7207L162.789 70.8497L162.763 70.6514L162.737 70.4531L148.544 72.3242L148.57 72.5225ZM2.2373 70.6494L2.21116 70.8477L16.4035 72.7188L16.4297 72.5205L16.4558 72.3222L2.26345 70.4511L2.2373 70.6494ZM16.4297 72.5205L16.4035 72.7188C17.0416 72.8029 17.491 73.3886 17.4072 74.0267L17.6055 74.0527L17.8038 74.0788C17.9163 73.2218 17.3129 72.4352 16.4558 72.3222L16.4297 72.5205ZM17.6055 74.0527L17.4072 74.0267C17.3233 74.6648 16.7382 75.1141 16.1003 75.0302L16.0742 75.2285L16.0481 75.4268C16.9052 75.5396 17.6911 74.9358 17.8038 74.0788L17.6055 74.0527ZM16.0742 75.2285L16.1004 75.0302L1.90798 73.1591L1.88184 73.3574L1.85569 73.5557L16.0481 75.4268L16.0742 75.2285ZM1.88184 73.3574L1.90797 73.1591C1.26984 73.075 0.820448 72.4894 0.904348 71.8513L0.706055 71.8252L0.507761 71.7991C0.395067 72.6563 0.998616 73.4427 1.8557 73.5557L1.88184 73.3574ZM0.706055 71.8252L0.904348 71.8513C0.988248 71.2132 1.57336 70.7638 2.21122 70.8477L2.2373 70.6494L2.26339 70.4511C1.40629 70.3384 0.620434 70.9422 0.507761 71.7991L0.706055 71.8252ZM2.81055 61.2256L3.00375 61.2773C3.17008 60.6557 3.80896 60.2871 4.43059 60.4539L4.48242 60.2607L4.53425 60.0676C3.69933 59.8436 2.84086 60.3386 2.61734 61.1739L2.81055 61.2256ZM4.48242 60.2607L4.43059 60.4539L18.2577 64.1639L18.3096 63.9707L18.3614 63.7775L4.53425 60.0676L4.48242 60.2607ZM18.3096 63.9707L18.2577 64.1639C18.8794 64.3307 19.2486 64.9701 19.0822 65.5919L19.2754 65.6436L19.4686 65.6953C19.6921 64.8602 19.1963 64.0015 18.3614 63.7775L18.3096 63.9707ZM19.2754 65.6436L19.0822 65.5918C18.9157 66.2132 18.2768 66.582 17.6553 66.4152L17.6035 66.6084L17.5517 66.8016C18.3865 67.0256 19.2449 66.5302 19.4686 65.6953L19.2754 65.6436ZM17.6035 66.6084L17.6553 66.4152L3.8282 62.7053L3.77637 62.8984L3.72454 63.0916L17.5517 66.8016L17.6035 66.6084ZM3.77637 62.8984L3.82822 62.7053C3.20663 62.5384 2.83739 61.899 3.00375 61.2773L2.81055 61.2256L2.61734 61.1739C2.39389 62.0089 2.88975 62.8675 3.72452 63.0916L3.77637 62.8984ZM160.517 60.2598L160.568 60.4529C161.19 60.2862 161.829 60.6555 161.995 61.2773L162.188 61.2256L162.382 61.1739C162.158 60.3389 161.3 59.8425 160.465 60.0666L160.517 60.2598ZM162.188 61.2256L161.995 61.2772C162.161 61.8988 161.792 62.5375 161.171 62.7043L161.223 62.8975L161.275 63.0906C162.109 62.8666 162.605 62.0089 162.382 61.174L162.188 61.2256ZM161.223 62.8975L161.171 62.7043L147.344 66.4143L147.396 66.6074L147.447 66.8006L161.274 63.0906L161.223 62.8975ZM147.396 66.6074L147.344 66.4143C146.722 66.581 146.083 66.2124 145.917 65.5909L145.724 65.6426L145.53 65.6943C145.754 66.5295 146.612 67.0246 147.447 66.8006L147.396 66.6074ZM145.724 65.6426L145.917 65.5909C145.75 64.9691 146.12 64.3297 146.741 64.1629L146.689 63.9697L146.638 63.7766C145.803 64.0006 145.307 64.8592 145.53 65.6943L145.724 65.6426ZM146.689 63.9697L146.741 64.1629L160.568 60.4529L160.517 60.2598L160.465 60.0666L146.638 63.7766L146.689 63.9697ZM6.28027 50.9951L6.46506 51.0716C6.7111 50.4775 7.39185 50.1955 7.98594 50.4416L8.0625 50.2568L8.13906 50.0721C7.34082 49.7413 6.42605 50.1203 6.09549 50.9186L6.28027 50.9951ZM8.0625 50.2568L7.98588 50.4416L21.2124 55.9269L21.2891 55.7422L21.3657 55.5574L8.13912 50.0721L8.0625 50.2568ZM21.2891 55.7422L21.2124 55.9269C21.8069 56.1735 22.0895 56.8562 21.8435 57.4509L22.0283 57.5273L22.2131 57.6038C22.5435 56.8051 22.1641 55.8886 21.3657 55.5574L21.2891 55.7422ZM22.0283 57.5273L21.8435 57.4509C21.5976 58.0453 20.9161 58.3274 20.3217 58.0809L20.2451 58.2656L20.1685 58.4504C20.9669 58.7815 21.8826 58.4026 22.2131 57.6038L22.0283 57.5273ZM20.2451 58.2656L20.3217 58.0809L7.09615 52.5955L7.01953 52.7803L6.94291 52.965L20.1685 58.4504L20.2451 58.2656ZM7.01953 52.7803L7.09615 52.5955C6.50173 52.349 6.21906 51.6663 6.46508 51.0716L6.28027 50.9951L6.09546 50.9187C5.76508 51.7173 6.14448 52.6339 6.94291 52.965L7.01953 52.7803ZM156.937 50.2578L157.013 50.4426C157.608 50.196 158.289 50.4781 158.535 51.0725L158.72 50.9961L158.905 50.9196C158.574 50.1207 157.658 49.7419 156.86 50.0731L156.937 50.2578ZM158.72 50.9961L158.535 51.0725C158.781 51.6671 158.498 52.349 157.904 52.5955L157.98 52.7803L158.057 52.965C158.855 52.6339 159.235 51.7183 158.905 50.9197L158.72 50.9961ZM157.98 52.7803L157.904 52.5955L144.678 58.0809L144.755 58.2656L144.831 58.4504L158.057 52.965L157.98 52.7803ZM144.755 58.2656L144.678 58.0809C144.084 58.3274 143.402 58.0454 143.156 57.4509L142.972 57.5273L142.787 57.6038C143.117 58.4027 144.033 58.7815 144.831 58.4504L144.755 58.2656ZM142.972 57.5273L143.156 57.4509C142.911 56.8563 143.193 56.1745 143.788 55.9279L143.711 55.7432L143.634 55.5584C142.836 55.8895 142.456 56.805 142.787 57.6038L142.972 57.5273ZM143.711 55.7432L143.788 55.9279L157.013 50.4426L156.937 50.2578L156.86 50.0731L143.634 55.5584L143.711 55.7432ZM11.0527 41.3047L11.226 41.4046C11.5473 40.8475 12.259 40.657 12.8159 40.9788L12.916 40.8057L13.0161 40.6325C12.2679 40.2001 11.3113 40.4561 10.8795 41.2048L11.0527 41.3047ZM12.916 40.8057L12.8159 40.9788L25.2144 48.1458L25.3145 47.9727L25.4145 47.7995L13.0161 40.6325L12.916 40.8057ZM25.3145 47.9727L25.2144 48.1458C25.7714 48.4679 25.9626 49.1815 25.6412 49.739L25.8145 49.8389L25.9877 49.9388C26.4194 49.1901 26.1628 48.232 25.4146 47.7995L25.3145 47.9727ZM25.8145 49.8389L25.6412 49.7389C25.3199 50.2961 24.6082 50.4867 24.0513 50.1647L23.9512 50.3379L23.8511 50.511C24.5993 50.9436 25.5559 50.6875 25.9877 49.9388L25.8145 49.8389ZM23.9512 50.3379L24.0513 50.1647L11.6528 42.9977L11.5527 43.1709L11.4526 43.3441L23.8511 50.511L23.9512 50.3379ZM11.5527 43.1709L11.6528 42.9977C11.0958 42.6757 10.9046 41.9621 11.226 41.4046L11.0527 41.3047L10.8795 41.2048C10.4478 41.9535 10.7044 42.9115 11.4526 43.344L11.5527 43.1709ZM152.083 40.8047L152.183 40.9778C152.74 40.6558 153.453 40.8464 153.774 41.4036L153.947 41.3037L154.121 41.2038C153.689 40.4549 152.731 40.199 151.983 40.6315L152.083 40.8047ZM153.947 41.3037L153.774 41.4036C154.095 41.9608 153.904 42.6737 153.347 42.9958L153.447 43.1689L153.547 43.3421C154.295 42.9095 154.552 41.9524 154.121 41.2038L153.947 41.3037ZM153.447 43.1689L153.347 42.9958L140.949 50.1638L141.049 50.3369L141.149 50.5101L153.547 43.3421L153.447 43.1689ZM141.049 50.3369L140.949 50.1638C140.392 50.4856 139.68 50.2949 139.359 49.7379L139.186 49.8379L139.012 49.9379C139.444 50.6862 140.401 50.9426 141.149 50.5101L141.049 50.3369ZM139.186 49.8379L139.359 49.738C139.037 49.1804 139.228 48.4668 139.785 48.1448L139.685 47.9717L139.584 47.7986C138.836 48.2313 138.581 49.1894 139.012 49.9378L139.186 49.8379ZM139.685 47.9717L139.785 48.1448L152.183 40.9778L152.083 40.8047L151.983 40.6315L139.584 47.7985L139.685 47.9717ZM17.0479 32.3184L17.2066 32.44C17.5978 31.9296 18.3281 31.8334 18.8381 32.225L18.96 32.0664L19.0818 31.9078C18.3964 31.3815 17.4147 31.5108 16.8891 32.1967L17.0479 32.3184ZM18.96 32.0664L18.8381 32.225L30.1975 40.9525L30.3193 40.7939L30.4412 40.6353L19.0818 31.9078L18.96 32.0664ZM30.3193 40.7939L30.1974 40.9525C30.7073 41.3445 30.8036 42.0759 30.4125 42.5864L30.5713 42.708L30.7301 42.8296C31.2553 42.1439 31.126 41.1618 30.4412 40.6354L30.3193 40.7939ZM30.5713 42.708L30.4125 42.5864C30.0214 43.0968 29.291 43.193 28.781 42.8013L28.6592 42.96L28.5374 43.1186C29.2227 43.6449 30.2044 43.5156 30.73 42.8297L30.5713 42.708ZM28.6592 42.96L28.781 42.8014L17.4217 34.0738L17.2998 34.2324L17.178 34.391L28.5373 43.1186L28.6592 42.96ZM17.2998 34.2324L17.4217 34.0739C16.9119 33.6819 16.8156 32.9505 17.2066 32.44L17.0479 32.3184L16.8891 32.1967C16.3639 32.8825 16.4933 33.8645 17.1779 34.391L17.2998 34.2324ZM146.039 32.0654L146.161 32.224C146.671 31.8322 147.402 31.9285 147.793 32.439L147.952 32.3174L148.111 32.1957C147.585 31.5097 146.603 31.3802 145.917 31.9068L146.039 32.0654ZM147.952 32.3174L147.793 32.439C148.185 32.9495 148.088 33.6817 147.577 34.0738L147.699 34.2324L147.821 34.391C148.506 33.8647 148.637 32.8818 148.111 32.1957L147.952 32.3174ZM147.699 34.2324L147.577 34.0738L136.219 42.8014L136.341 42.96L136.463 43.1185L147.821 34.391L147.699 34.2324ZM136.341 42.96L136.219 42.8013C135.709 43.1929 134.979 43.0966 134.587 42.5863L134.429 42.708L134.27 42.8297C134.796 43.5154 135.777 43.6448 136.463 43.1186L136.341 42.96ZM134.429 42.708L134.587 42.5864C134.196 42.0757 134.292 41.3435 134.803 40.9516L134.681 40.793L134.559 40.6344C133.874 41.1609 133.744 42.1438 134.27 42.8297L134.429 42.708ZM134.681 40.793L134.803 40.9516L146.161 32.224L146.039 32.0654L145.917 31.9068L134.559 40.6344L134.681 40.793ZM24.1641 24.1934L24.3055 24.3347C24.7598 23.8801 25.496 23.8802 25.9503 24.3347L26.0918 24.1934L26.2333 24.052C25.6227 23.4411 24.6331 23.441 24.0226 24.052L24.1641 24.1934ZM26.0918 24.1934L25.9503 24.3347L36.0753 34.4724L36.2168 34.3311L36.3583 34.1897L26.2333 24.052L26.0918 24.1934ZM36.2168 34.3311L36.0753 34.4724C36.5298 34.9275 36.5298 35.6662 36.0753 36.1214L36.2168 36.2627L36.3583 36.404C36.9688 35.7927 36.9688 34.801 36.3583 34.1897L36.2168 34.3311ZM36.2168 36.2627L36.0753 36.1213C35.6209 36.5762 34.884 36.5762 34.4296 36.1214L34.2881 36.2627L34.1466 36.404C34.7572 37.0154 35.7477 37.0153 36.3583 36.404L36.2168 36.2627ZM34.2881 36.2627L34.4296 36.1214L24.3056 25.9837L24.1641 26.125L24.0225 26.2663L34.1466 36.404L34.2881 36.2627ZM24.1641 26.125L24.3056 25.9837C23.851 25.5285 23.851 24.7898 24.3056 24.3347L24.1641 24.1934L24.0225 24.052C23.412 24.6633 23.412 25.655 24.0225 26.2663L24.1641 26.125ZM138.908 24.1924L139.05 24.3337C139.504 23.8788 140.24 23.8787 140.694 24.3337L140.836 24.1924L140.977 24.0511C140.367 23.4396 139.377 23.4397 138.767 24.051L138.908 24.1924ZM140.836 24.1924L140.694 24.3337C141.149 24.7889 141.149 25.5266 140.694 25.9817L140.836 26.123L140.977 26.2644C141.588 25.6531 141.588 24.6624 140.977 24.0511L140.836 24.1924ZM140.836 26.123L140.694 25.9817L130.57 36.1194L130.712 36.2607L130.853 36.4021L140.977 26.2644L140.836 26.123ZM130.712 36.2607L130.57 36.1194C130.116 36.5744 129.379 36.5744 128.925 36.1194L128.783 36.2607L128.642 36.4021C129.252 37.0135 130.243 37.0135 130.853 36.4021L130.712 36.2607ZM128.783 36.2607L128.925 36.1194C128.47 35.6644 128.47 34.9266 128.925 34.4714L128.783 34.3301L128.642 34.1888C128.031 34.8001 128.031 35.7908 128.642 36.4021L128.783 36.2607ZM128.783 34.3301L128.925 34.4714L139.05 24.3337L138.908 24.1924L138.767 24.0511L128.642 34.1887L128.783 34.3301ZM130.812 17.3213L130.97 17.443C131.361 16.9327 132.091 16.8365 132.601 17.228L132.723 17.0693L132.844 16.9107C132.159 16.3845 131.178 16.514 130.653 17.1996L130.812 17.3213ZM132.723 17.0693L132.601 17.2279C133.111 17.6198 133.207 18.3513 132.816 18.8617L132.975 18.9834L133.133 19.1051C133.659 18.4194 133.53 17.437 132.845 16.9107L132.723 17.0693ZM132.975 18.9834L132.816 18.8617L124.099 30.2367L124.258 30.3584L124.417 30.48L133.133 19.105L132.975 18.9834ZM124.258 30.3584L124.099 30.2367C123.708 30.747 122.978 30.8432 122.468 30.4517L122.347 30.6104L122.225 30.769C122.91 31.2951 123.891 31.1657 124.417 30.4801L124.258 30.3584ZM122.347 30.6104L122.469 30.4518C121.959 30.0599 121.862 29.3284 122.253 28.8179L122.095 28.6963L121.936 28.5746C121.411 29.2603 121.54 30.2426 122.225 30.7689L122.347 30.6104ZM122.095 28.6963L122.253 28.8179L130.97 17.4429L130.812 17.3213L130.653 17.1996L121.936 28.5746L122.095 28.6963ZM32.2773 17.0674L32.3992 17.226C32.909 16.8345 33.6397 16.9307 34.0307 17.441L34.1895 17.3193L34.3482 17.1977C33.8227 16.512 32.8407 16.3826 32.1555 16.9088L32.2773 17.0674ZM34.1895 17.3193L34.0307 17.441L42.7475 28.816L42.9062 28.6943L43.065 28.5727L34.3482 17.1977L34.1895 17.3193ZM42.9062 28.6943L42.7475 28.816C43.1385 29.3263 43.0422 30.058 42.5324 30.4498L42.6543 30.6084L42.7762 30.767C43.4608 30.2406 43.5903 29.2583 43.065 28.5727L42.9062 28.6943ZM42.6543 30.6084L42.5324 30.4498C42.0227 30.8415 41.292 30.7452 40.9009 30.2348L40.7422 30.3564L40.5834 30.4781C41.109 31.1639 42.091 31.2935 42.7761 30.767L42.6543 30.6084ZM40.7422 30.3564L40.9009 30.2348L32.1841 18.8608L32.0254 18.9824L31.8666 19.1041L40.5834 30.4781L40.7422 30.3564ZM32.0254 18.9824L32.1841 18.8608C31.7929 18.3503 31.8893 17.6178 32.3992 17.226L32.2773 17.0674L32.1555 16.9088C31.4705 17.4351 31.3412 18.4184 31.8666 19.1041L32.0254 18.9824ZM41.25 11.0654L41.3501 11.2386C41.9065 10.9169 42.6179 11.1077 42.9391 11.6644L43.1123 11.5645L43.2855 11.4645C42.854 10.7164 41.8978 10.4599 41.1499 10.8923L41.25 11.0654ZM43.1123 11.5645L42.939 11.6644L50.0992 24.0823L50.2725 23.9824L50.4457 23.8825L43.2856 11.4646L43.1123 11.5645ZM50.2725 23.9824L50.0992 24.0823C50.4203 24.6392 50.2291 25.3517 49.6724 25.6735L49.7725 25.8467L49.8726 26.0198C50.6202 25.5876 50.8772 24.6309 50.4457 23.8825L50.2725 23.9824ZM49.7725 25.8467L49.6724 25.6735C49.1159 25.9951 48.4044 25.8045 48.0834 25.2478L47.9102 25.3477L47.7369 25.4476C48.1684 26.1959 49.1247 26.4519 49.8725 26.0199L49.7725 25.8467ZM47.9102 25.3477L48.0834 25.2478L40.9242 12.8298L40.751 12.9297L40.5777 13.0296L47.7369 25.4475L47.9102 25.3477ZM40.751 12.9297L40.9243 12.8298C40.6031 12.2727 40.7936 11.5603 41.3501 11.2386L41.25 11.0654L41.1499 10.8923C40.4021 11.3246 40.1465 12.2815 40.5777 13.0296L40.751 12.9297ZM121.888 11.5645L122.061 11.6644C122.382 11.1076 123.093 10.9169 123.65 11.2386L123.75 11.0654L123.85 10.8923C123.102 10.4599 122.146 10.7163 121.714 11.4645L121.888 11.5645ZM123.75 11.0654L123.65 11.2386C124.206 11.5603 124.397 12.2727 124.076 12.8298L124.249 12.9297L124.422 13.0296C124.854 12.2815 124.598 11.3247 123.85 10.8923L123.75 11.0654ZM124.249 12.9297L124.076 12.8298L116.917 25.2478L117.09 25.3477L117.263 25.4475L124.422 13.0296L124.249 12.9297ZM117.09 25.3477L116.917 25.2478C116.596 25.8045 115.884 25.995 115.328 25.6735L115.228 25.8467L115.127 26.0199C115.875 26.4518 116.832 26.1959 117.263 25.4476L117.09 25.3477ZM115.228 25.8467L115.328 25.6735C114.771 25.3517 114.58 24.6392 114.901 24.0823L114.728 23.9824L114.554 23.8825C114.123 24.6308 114.38 25.5876 115.127 26.0198L115.228 25.8467ZM114.728 23.9824L114.901 24.0823L122.061 11.6644L121.888 11.5645L121.714 11.4646L114.554 23.8825L114.728 23.9824ZM112.29 7.02637L112.475 7.10282C112.721 6.50885 113.401 6.2267 113.995 6.47283L114.071 6.28809L114.148 6.10334C113.35 5.77247 112.435 6.15186 112.105 6.94992L112.29 7.02637ZM114.071 6.28809L113.995 6.47283C114.588 6.71908 114.871 7.40071 114.625 7.99484L114.81 8.07129L114.994 8.14774C115.324 7.34977 114.946 6.43425 114.148 6.10335L114.071 6.28809ZM114.81 8.07129L114.625 7.99483L109.144 21.2419L109.329 21.3184L109.514 21.3948L114.994 8.14775L114.81 8.07129ZM109.329 21.3184L109.144 21.2419C108.899 21.8358 108.219 22.1178 107.625 21.8719L107.549 22.0566L107.472 22.2414C108.27 22.5721 109.184 22.1927 109.514 21.3948L109.329 21.3184ZM107.549 22.0566L107.625 21.8719C107.031 21.6255 106.749 20.9438 106.994 20.3499L106.81 20.2734L106.625 20.197C106.295 20.9952 106.675 21.9106 107.472 22.2414L107.549 22.0566ZM106.81 20.2734L106.994 20.3499L112.475 7.10282L112.29 7.02637L112.105 6.94991L106.625 20.197L106.81 20.2734ZM50.9287 6.28516L51.0053 6.46992C51.5989 6.22395 52.2795 6.50605 52.5252 7.09989L52.71 7.02344L52.8948 6.94699C52.5647 6.14898 51.65 5.76979 50.8521 6.10039L50.9287 6.28516ZM52.71 7.02344L52.5251 7.09988L58.0046 20.347L58.1895 20.2705L58.3743 20.1941L52.8948 6.94699L52.71 7.02344ZM58.1895 20.2705L58.0046 20.347C58.2504 20.9411 57.9683 21.6227 57.3745 21.869L57.4512 22.0537L57.5278 22.2385C58.3256 21.9075 58.7044 20.992 58.3743 20.1941L58.1895 20.2705ZM57.4512 22.0537L57.3746 21.869C56.7809 22.1151 56.1004 21.8335 55.8547 21.2399L55.6699 21.3164L55.4851 21.3929C55.8155 22.1909 56.7301 22.5692 57.5278 22.2385L57.4512 22.0537ZM55.6699 21.3164L55.8547 21.24L50.3743 7.99191L50.1895 8.06836L50.0046 8.14481L55.4851 21.3929L55.6699 21.3164ZM50.1895 8.06836L50.3743 7.99191C50.1286 7.398 50.4114 6.71625 51.0053 6.4699L50.9287 6.28516L50.8521 6.10042C50.0545 6.43123 49.6744 7.34661 50.0046 8.14481L50.1895 8.06836ZM61.1475 2.8125L61.1992 3.00568C61.8197 2.83939 62.457 3.2075 62.6232 3.82811L62.8164 3.77637L63.0096 3.72462C62.7862 2.89071 61.9297 2.3958 61.0957 2.61932L61.1475 2.8125ZM62.8164 3.77637L62.6232 3.82807L66.3302 17.6796L66.5234 17.6279L66.7166 17.5762L63.0096 3.72466L62.8164 3.77637ZM66.5234 17.6279L66.3302 17.6796C66.4964 18.3005 66.1276 18.9391 65.5068 19.1057L65.5586 19.2988L65.6104 19.492C66.4445 19.2682 66.9399 18.4105 66.7166 17.5762L66.5234 17.6279ZM65.5586 19.2988L65.5068 19.1057C64.8861 19.2721 64.248 18.9039 64.0819 18.2832L63.8887 18.335L63.6955 18.3867C63.9188 19.2209 64.7764 19.7156 65.6104 19.492L65.5586 19.2988ZM63.8887 18.335L64.0819 18.2833L60.3758 4.43171L60.1826 4.4834L59.9894 4.53509L63.6955 18.3867L63.8887 18.335ZM60.1826 4.4834L60.3758 4.4317C60.2097 3.8108 60.5784 3.17224 61.1993 3.00567L61.1475 2.8125L61.0956 2.61933C60.2616 2.84311 59.7662 3.70083 59.9894 4.5351L60.1826 4.4834ZM102.183 3.77441L102.376 3.82611C102.542 3.20535 103.18 2.83716 103.801 3.00372L103.853 2.81055L103.904 2.61738C103.07 2.39359 102.213 2.88832 101.989 3.72271L102.183 3.77441ZM103.853 2.81055L103.801 3.00372C104.422 3.17029 104.79 3.80885 104.624 4.42974L104.817 4.48145L105.011 4.53315C105.234 3.69888 104.738 2.84115 103.904 2.61738L103.853 2.81055ZM104.817 4.48145L104.624 4.42974L100.917 18.2813L101.11 18.333L101.304 18.3847L105.011 4.53315L104.817 4.48145ZM101.11 18.333L100.917 18.2812C100.751 18.9018 100.113 19.2702 99.4923 19.1037L99.4404 19.2969L99.3886 19.49C100.223 19.7138 101.08 19.2187 101.304 18.3848L101.11 18.333ZM99.4404 19.2969L99.4923 19.1037C98.8719 18.9371 98.5037 18.2986 98.6698 17.6777L98.4766 17.626L98.2834 17.5743C98.0603 18.4082 98.5546 19.2661 99.3885 19.49L99.4404 19.2969ZM98.4766 17.626L98.6698 17.6777L102.376 3.82611L102.183 3.77441L101.989 3.72272L98.2834 17.5743L98.4766 17.626ZM93.2686 0.705078L93.2424 0.903361C93.8793 0.987354 94.3277 1.57214 94.2441 2.20934L94.4424 2.23535L94.6407 2.26136C94.7529 1.40554 94.1508 0.619698 93.2947 0.506795L93.2686 0.705078ZM94.4424 2.23535L94.2441 2.20928L92.3749 16.4271L92.5732 16.4531L92.7715 16.4792L94.6407 2.26142L94.4424 2.23535ZM92.5732 16.4531L92.3749 16.4271C92.2912 17.0641 91.707 17.5125 91.07 17.4287L91.0439 17.627L91.0179 17.8252C91.8739 17.9379 92.659 17.3353 92.7715 16.4792L92.5732 16.4531ZM91.0439 17.627L91.0701 17.4287C90.4328 17.3447 89.9837 16.7598 90.0674 16.1228L89.8691 16.0967L89.6708 16.0706C89.5583 16.9269 90.1618 17.7124 91.0178 17.8252L91.0439 17.627ZM89.8691 16.0967L90.0674 16.1227L91.9366 1.90497L91.7383 1.87891L91.54 1.85284L89.6708 16.0706L89.8691 16.0967ZM91.7383 1.87891L91.9366 1.90504C92.0205 1.26806 92.6054 0.819387 93.2424 0.903363L93.2686 0.705078L93.2947 0.506794C92.4386 0.393946 91.6528 0.99677 91.54 1.85278L91.7383 1.87891ZM71.7314 0.705078L71.7576 0.903363C72.3946 0.819388 72.9785 1.26718 73.0625 1.90408L73.2607 1.87793L73.459 1.85178C73.3462 0.995817 72.5613 0.393955 71.7053 0.506794L71.7314 0.705078ZM73.2607 1.87793L73.0624 1.90401L74.9326 16.1218L75.1309 16.0957L75.3292 16.0696L73.459 1.85185L73.2607 1.87793ZM75.1309 16.0957L74.9326 16.1218C75.0163 16.7589 74.5672 17.3437 73.9299 17.4277L73.9561 17.626L73.9822 17.8243C74.8382 17.7114 75.4417 16.9259 75.3292 16.0696L75.1309 16.0957ZM73.9561 17.626L73.9299 17.4277C73.2929 17.5116 72.7088 17.0632 72.6251 16.4261L72.4268 16.4521L72.2285 16.4782C72.341 17.3343 73.126 17.937 73.9822 17.8243L73.9561 17.626ZM72.4268 16.4521L72.6251 16.4261L70.7559 2.20831L70.5576 2.23438L70.3593 2.26044L72.2285 16.4782L72.4268 16.4521ZM70.5576 2.23438L70.7559 2.20836C70.6723 1.5713 71.1205 0.987365 71.7576 0.903362L71.7314 0.705078L71.7053 0.506795C70.8493 0.619663 70.247 1.40439 70.3593 2.26039L70.5576 2.23438ZM82.5 0V0.2C83.1427 0.2 83.6641 0.720933 83.6643 1.36333L83.8643 1.36328L84.0643 1.36323C84.064 0.499725 83.3633 -0.2 82.5 -0.2V0ZM83.8643 1.36328H83.6643V15.7041H83.8643H84.0643V1.36328H83.8643ZM83.8643 15.7041L83.6643 15.7041C83.6642 16.3466 83.1428 16.8674 82.5 16.8674V17.0674V17.2674C83.3634 17.2674 84.0642 16.5678 84.0643 15.7041L83.8643 15.7041ZM82.5 17.0674L82.5 16.8674C81.8574 16.8673 81.3367 16.3467 81.3367 15.7041L81.1367 15.7041L80.9367 15.7041C80.9368 16.5676 81.6365 17.2673 82.5 17.2674L82.5 17.0674ZM81.1367 15.7041H81.3367V1.36328H81.1367H80.9367V15.7041H81.1367ZM81.1367 1.36328L81.3367 1.36333C81.3369 0.720824 81.8576 0.200075 82.5 0.2L82.5 0L82.5 -0.2C81.6366 -0.199899 80.9369 0.499942 80.9367 1.36323L81.1367 1.36328Z" fill="black" style="mix-blend-mode:overlay" mask="url(#path-1-inside-1_6906_89186)"/>
<defs>
<radialGradient id="paint0_radial_6906_89186" cx="0" cy="0" r="1" gradientTransform="matrix(72.0588 -69.341 42.766 112.285 11.6979 84.8022)" gradientUnits="userSpaceOnUse">
<stop stop-color="#DC2626" stop-opacity="0.56"/>
<stop offset="0.237763" stop-color="#DC2626" stop-opacity="0.56"/>
<stop offset="1" stop-color="#B7B7B8"/>
</radialGradient>
</defs>
</svg>
