<svg width="24" height="24" viewBox="0 0 24 24" fill="none" xmlns="http://www.w3.org/2000/svg">
<path d="M7.91844 2.39844H4.10244C3.16135 2.39844 2.39844 3.16134 2.39844 4.10244V8.15844C2.39844 9.09953 3.16135 9.86244 4.10244 9.86244H7.91844C8.85953 9.86244 9.62244 9.09953 9.62244 8.15844V4.10244C9.62244 3.16134 8.85953 2.39844 7.91844 2.39844Z" fill="#757575" stroke="#757575" stroke-width="1.8" stroke-linecap="round" stroke-linejoin="round"/>
<path d="M7.91844 13.9219H4.10244C3.16135 13.9219 2.39844 14.6848 2.39844 15.6259V19.6819C2.39844 20.623 3.16135 21.3859 4.10244 21.3859H7.91844C8.85953 21.3859 9.62244 20.623 9.62244 19.6819V15.6259C9.62244 14.6848 8.85953 13.9219 7.91844 13.9219Z" fill="#757575" stroke="#757575" stroke-width="1.8" stroke-linecap="round" stroke-linejoin="round"/>
<path d="M19.3794 2.39844H15.5634C14.6223 2.39844 13.8594 3.16134 13.8594 4.10244V8.15844C13.8594 9.09953 14.6223 9.86244 15.5634 9.86244H19.3794C20.3205 9.86244 21.0834 9.09953 21.0834 8.15844V4.10244C21.0834 3.16134 20.3205 2.39844 19.3794 2.39844Z" fill="#757575" stroke="#757575" stroke-width="1.8" stroke-linecap="round" stroke-linejoin="round"/>
<path d="M18.2994 13.9219H16.6434C15.1058 13.9219 13.8594 15.1683 13.8594 16.7059V18.6019C13.8594 20.1394 15.1058 21.3859 16.6434 21.3859H18.2994C19.8369 21.3859 21.0834 20.1394 21.0834 18.6019V16.7059C21.0834 15.1683 19.8369 13.9219 18.2994 13.9219Z" stroke="#757575" stroke-width="1.8" stroke-linecap="round" stroke-linejoin="round"/>
<path d="M20.2812 20.5547L21.8773 22.1987" stroke="#757575" stroke-width="1.8" stroke-linecap="round" stroke-linejoin="round"/>
</svg>
