<svg width="43" height="43" viewBox="0 0 43 43" fill="none" xmlns="http://www.w3.org/2000/svg">
<rect x="3.0835" y="3.08301" width="36" height="36" rx="18" fill="url(#paint0_linear_27449_22336)"/>
<path fill-rule="evenodd" clip-rule="evenodd" d="M20.0818 11.3136C20.4217 11.1843 20.7562 11.083 21.0835 11.083C21.4109 11.083 21.7452 11.1843 22.0853 11.3136C22.4294 11.4444 22.8593 11.6367 23.3954 11.8765C24.1834 12.229 25.2233 12.6335 26.3388 12.9531C27.1529 13.1863 27.811 13.3748 28.3095 13.5696C28.8106 13.7654 29.2648 14.0083 29.5706 14.4163C29.8668 14.8114 29.9807 15.273 30.033 15.7708C30.0836 16.2514 30.0835 16.8543 30.0835 17.5842V20.3233C30.0835 23.166 28.8102 25.4201 27.2712 27.1003C25.737 28.7752 23.9092 29.9145 22.7045 30.5553L22.6464 30.5863C22.1333 30.8596 21.714 31.083 21.0835 31.083C20.4531 31.083 20.0338 30.8596 19.5206 30.5863L19.4625 30.5553C18.2578 29.9145 16.4301 28.7752 14.8958 27.1003C13.3568 25.4201 12.0835 23.166 12.0835 20.3233V17.5843C12.0835 16.8543 12.0835 16.2513 12.134 15.7708C12.1863 15.273 12.3002 14.8114 12.5964 14.4163C12.9022 14.0083 13.3565 13.7654 13.8575 13.5696C14.356 13.3748 15.0142 13.1863 15.8282 12.9531C16.9437 12.6335 17.9836 12.229 18.7716 11.8765C19.3077 11.6367 19.7375 11.4444 20.0818 11.3136ZM23.3894 17.8272C23.3894 19.1115 22.3562 20.1528 21.0817 20.1528C19.8072 20.1528 18.774 19.1115 18.774 17.8272C18.774 16.5428 19.8072 15.5016 21.0817 15.5016C22.3562 15.5016 23.3894 16.5428 23.3894 17.8272ZM23.6583 22.0144C22.0811 21.0826 20.0863 21.0826 18.509 22.0144C18.2233 22.1735 17.5709 22.5383 17.2258 22.8733C17.0109 23.082 16.7543 23.4047 16.7067 23.837C16.6541 24.314 16.873 24.7253 17.2102 25.044C17.7267 25.5321 18.3928 25.9667 19.2748 25.9667H22.8925C23.7745 25.9667 24.4407 25.5321 24.9572 25.044C25.2944 24.7253 25.5132 24.314 25.4607 23.837C25.4131 23.4047 25.1565 23.082 24.9416 22.8733C24.5964 22.5383 23.9441 22.1735 23.6583 22.0144Z" fill="white"/>
<g filter="url(#filter0_f_27449_22336)">
<path d="M21.0835 3.33301C30.8866 3.33301 38.8335 11.28 38.8335 21.083C38.8335 30.8861 30.8866 38.833 21.0835 38.833C11.2804 38.833 3.3335 30.8861 3.3335 21.083C3.3335 11.28 11.2804 3.33301 21.0835 3.33301Z" stroke="url(#paint1_linear_27449_22336)" stroke-width="0.5"/>
</g>
<g filter="url(#filter1_f_27449_22336)">
<path d="M21.0835 3.33301C30.8866 3.33301 38.8335 11.28 38.8335 21.083C38.8335 30.8861 30.8866 38.833 21.0835 38.833C11.2804 38.833 3.3335 30.8861 3.3335 21.083C3.3335 11.28 11.2804 3.33301 21.0835 3.33301Z" stroke="url(#paint2_linear_27449_22336)" stroke-width="0.5"/>
</g>
<path d="M21.0835 3.33301C30.8866 3.33301 38.8335 11.28 38.8335 21.083C38.8335 30.8861 30.8866 38.833 21.0835 38.833C11.2804 38.833 3.3335 30.8861 3.3335 21.083C3.3335 11.28 11.2804 3.33301 21.0835 3.33301Z" stroke="url(#paint3_linear_27449_22336)" stroke-width="0.5"/>
<g filter="url(#filter2_f_27449_22336)">
<path d="M21.0835 38.833C11.2804 38.833 3.3335 30.8861 3.3335 21.083C3.3335 11.28 11.2804 3.33301 21.0835 3.33301C30.8866 3.33301 38.8335 11.28 38.8335 21.083C38.8335 30.8861 30.8866 38.833 21.0835 38.833Z" stroke="url(#paint4_linear_27449_22336)" stroke-width="0.5"/>
</g>
<g filter="url(#filter3_f_27449_22336)">
<path d="M21.0835 38.833C11.2804 38.833 3.3335 30.8861 3.3335 21.083C3.3335 11.28 11.2804 3.33301 21.0835 3.33301C30.8866 3.33301 38.8335 11.28 38.8335 21.083C38.8335 30.8861 30.8866 38.833 21.0835 38.833Z" stroke="url(#paint5_linear_27449_22336)" stroke-width="0.5"/>
</g>
<path d="M21.0835 38.833C11.2804 38.833 3.3335 30.8861 3.3335 21.083C3.3335 11.28 11.2804 3.33301 21.0835 3.33301C30.8866 3.33301 38.8335 11.28 38.8335 21.083C38.8335 30.8861 30.8866 38.833 21.0835 38.833Z" stroke="url(#paint6_linear_27449_22336)" stroke-width="0.5"/>
<defs>
<filter id="filter0_f_27449_22336" x="0.000162601" y="-0.00032568" width="42.1667" height="42.1667" filterUnits="userSpaceOnUse" color-interpolation-filters="sRGB">
<feFlood flood-opacity="0" result="BackgroundImageFix"/>
<feBlend mode="normal" in="SourceGraphic" in2="BackgroundImageFix" result="shape"/>
<feGaussianBlur stdDeviation="1.54167" result="effect1_foregroundBlur_27449_22336"/>
</filter>
<filter id="filter1_f_27449_22336" x="0.000162601" y="-0.00032568" width="42.1667" height="42.1667" filterUnits="userSpaceOnUse" color-interpolation-filters="sRGB">
<feFlood flood-opacity="0" result="BackgroundImageFix"/>
<feBlend mode="normal" in="SourceGraphic" in2="BackgroundImageFix" result="shape"/>
<feGaussianBlur stdDeviation="1.54167" result="effect1_foregroundBlur_27449_22336"/>
</filter>
<filter id="filter2_f_27449_22336" x="0.000162601" y="-0.00032568" width="42.1667" height="42.1667" filterUnits="userSpaceOnUse" color-interpolation-filters="sRGB">
<feFlood flood-opacity="0" result="BackgroundImageFix"/>
<feBlend mode="normal" in="SourceGraphic" in2="BackgroundImageFix" result="shape"/>
<feGaussianBlur stdDeviation="1.54167" result="effect1_foregroundBlur_27449_22336"/>
</filter>
<filter id="filter3_f_27449_22336" x="0.000162601" y="-0.00032568" width="42.1667" height="42.1667" filterUnits="userSpaceOnUse" color-interpolation-filters="sRGB">
<feFlood flood-opacity="0" result="BackgroundImageFix"/>
<feBlend mode="normal" in="SourceGraphic" in2="BackgroundImageFix" result="shape"/>
<feGaussianBlur stdDeviation="1.54167" result="effect1_foregroundBlur_27449_22336"/>
</filter>
<linearGradient id="paint0_linear_27449_22336" x1="21.0835" y1="3.08301" x2="23.3335" y2="39.7259" gradientUnits="userSpaceOnUse">
<stop stop-color="#5F23D2"/>
<stop offset="1" stop-color="#170833"/>
</linearGradient>
<linearGradient id="paint1_linear_27449_22336" x1="21.0835" y1="3.08301" x2="21.0835" y2="39.083" gradientUnits="userSpaceOnUse">
<stop stop-color="#B987FF"/>
<stop offset="1" stop-color="#B987FF" stop-opacity="0"/>
</linearGradient>
<linearGradient id="paint2_linear_27449_22336" x1="21.0835" y1="3.08301" x2="21.0835" y2="39.083" gradientUnits="userSpaceOnUse">
<stop stop-color="#B987FF"/>
<stop offset="1" stop-color="#B987FF" stop-opacity="0"/>
</linearGradient>
<linearGradient id="paint3_linear_27449_22336" x1="21.0835" y1="3.08301" x2="21.0835" y2="39.083" gradientUnits="userSpaceOnUse">
<stop stop-color="#B987FF"/>
<stop offset="1" stop-color="#B987FF" stop-opacity="0"/>
</linearGradient>
<linearGradient id="paint4_linear_27449_22336" x1="21.0835" y1="39.083" x2="21.0835" y2="3.08301" gradientUnits="userSpaceOnUse">
<stop stop-color="#B987FF"/>
<stop offset="1" stop-color="#B987FF" stop-opacity="0"/>
</linearGradient>
<linearGradient id="paint5_linear_27449_22336" x1="21.0835" y1="39.083" x2="21.0835" y2="3.08301" gradientUnits="userSpaceOnUse">
<stop stop-color="#B987FF"/>
<stop offset="1" stop-color="#B987FF" stop-opacity="0"/>
</linearGradient>
<linearGradient id="paint6_linear_27449_22336" x1="21.0835" y1="39.083" x2="21.0835" y2="3.08301" gradientUnits="userSpaceOnUse">
<stop stop-color="#B987FF"/>
<stop offset="1" stop-color="#B987FF" stop-opacity="0"/>
</linearGradient>
</defs>
</svg>
